<svg class="main-svg" xmlns="http://www.w3.org/2000/svg" xmlns:xlink="http://www.w3.org/1999/xlink" width="500" height="300" style="" viewBox="0 0 500 300"><rect x="0" y="0" width="500" height="300" style="fill: rgb(255, 255, 255); fill-opacity: 1;"/><defs id="defs-c62885"><g class="clips"><clipPath id="clipc62885xyplot" class="plotclip"><rect width="407" height="237"/></clipPath><clipPath class="axesclip" id="clipc62885x"><rect x="76" y="0" width="407" height="300"/></clipPath><clipPath class="axesclip" id="clipc62885y"><rect x="0" y="0" width="500" height="237"/></clipPath><clipPath class="axesclip" id="clipc62885xy"><rect x="76" y="0" width="407" height="237"/></clipPath></g><g class="gradients"/><g class="patterns"/></defs><g class="bglayer"/><g class="layer-below"><g class="imagelayer"/><g class="shapelayer"/></g><g class="cartesianlayer"><g class="subplot xy"><g class="layer-subplot"><g class="shapelayer"/><g class="imagelayer"/></g><g class="minor-gridlayer"><g class="x"/><g class="y"/></g><g class="gridlayer"><g class="x"><path class="xgrid crisp" transform="translate(121.22,0)" d="M0,0v237" style="stroke: rgb(0, 0, 0); stroke-opacity: 0.1; stroke-width: 1px;"/><path class="xgrid crisp" transform="translate(211.67,0)" d="M0,0v237" style="stroke: rgb(0, 0, 0); stroke-opacity: 0.1; stroke-width: 1px;"/><path class="xgrid crisp" transform="translate(302.11,0)" d="M0,0v237" style="stroke: rgb(0, 0, 0); stroke-opacity: 0.1; stroke-width: 1px;"/><path class="xgrid crisp" transform="translate(392.56,0)" d="M0,0v237" style="stroke: rgb(0, 0, 0); stroke-opacity: 0.1; stroke-width: 1px;"/></g><g class="y"><path class="ygrid crisp" transform="translate(0,227.36)" d="M76,0h407" style="stroke: rgb(0, 0, 0); stroke-opacity: 0.1; stroke-width: 1px;"/><path class="ygrid crisp" transform="translate(0,177.45)" d="M76,0h407" style="stroke: rgb(0, 0, 0); stroke-opacity: 0.1; stroke-width: 1px;"/><path class="ygrid crisp" transform="translate(0,127.54)" d="M76,0h407" style="stroke: rgb(0, 0, 0); stroke-opacity: 0.1; stroke-width: 1px;"/><path class="ygrid crisp" transform="translate(0,77.63)" d="M76,0h407" style="stroke: rgb(0, 0, 0); stroke-opacity: 0.1; stroke-width: 1px;"/><path class="ygrid crisp" transform="translate(0,27.72)" d="M76,0h407" style="stroke: rgb(0, 0, 0); stroke-opacity: 0.1; stroke-width: 1px;"/></g></g><g class="zerolinelayer"/><path class="xlines-below"/><path class="ylines-below"/><g class="overlines-below"/><g class="xaxislayer-below"/><g class="yaxislayer-below"/><g class="overaxes-below"/><g class="plot" transform="translate(76,0)" clip-path="url(#clipc62885xyplot)"><g class="scatterlayer mlayer"><g class="trace scatter tracef19453" style="stroke-miterlimit: 2; opacity: 1;"><g class="fills"/><g class="errorbars"/><g class="lines"><path class="js-line" d="M407,59.95Q311.24,68.21 271.33,80.07C237.33,90.17 211.09,108.03 180.89,121.6C150.8,135.13 121.26,156.08 90.44,161.38Q60.91,166.46 0,154.7" style="vector-effect: none; fill: none; stroke: rgb(95, 70, 144); stroke-opacity: 1; stroke-dasharray: 9px, 9px; stroke-width: 3px; opacity: 1;"/></g><g class="points"/><g class="text"/></g><g class="trace scatter trace51d700" style="stroke-miterlimit: 2;"><g class="fills"><g><path class="js-fill" d="M407,56.43Q311.25,65.77 271.33,77.85C237.34,88.14 211.25,106.66 180.89,119.46C150.94,132.09 121.1,149.71 90.44,154.21Q60.77,158.56 0,147.37L0,161.33Q60.96,171.13 90.44,165.45C121.32,159.5 150.75,138.1 180.89,124.4C211.04,110.69 237.33,93.1 271.33,83.22Q311.25,71.62 407,64.3Z" style="fill: rgb(95, 70, 144); fill-opacity: 0.3; stroke-width: 0;"/></g></g><g class="errorbars"/><g class="lines"><path class="js-line" d="M407,64.3Q311.25,71.62 271.33,83.22C237.33,93.1 211.04,110.69 180.89,124.4C150.75,138.1 121.32,159.5 90.44,165.45Q60.96,171.13 0,161.33" style="vector-effect: none; fill: none; stroke: rgb(239, 85, 59); stroke-opacity: 1; stroke-width: 0px; opacity: 1;"/></g><g class="points"/><g class="text"/></g><g class="trace scatter trace4cf31e" style="stroke-miterlimit: 2;"><g class="fills"/><g class="errorbars"/><g class="lines"><path class="js-line" d="M407,56.43Q311.25,65.77 271.33,77.85C237.34,88.14 211.25,106.66 180.89,119.46C150.94,132.09 121.1,149.71 90.44,154.21Q60.77,158.56 0,147.37" style="vector-effect: none; fill: none; stroke: rgb(0, 204, 150); stroke-opacity: 1; stroke-width: 0px; opacity: 1;"/></g><g class="points"/><g class="text"/></g><g class="trace scatter trace50503e" style="stroke-miterlimit: 2; opacity: 1;"><g class="fills"/><g class="errorbars"/><g class="lines"><path class="js-line" d="M407,16.69Q309.69,24.25 271.33,44C235.04,62.69 213.57,111.47 180.89,128.67C152.63,143.54 119.12,135.01 90.44,148.56Q58.47,163.66 0,219.66" style="vector-effect: none; fill: none; stroke: rgb(102, 102, 102); stroke-opacity: 1; stroke-dasharray: 9px, 9px; stroke-width: 3px; opacity: 1;"/></g><g class="points"/><g class="text"/></g><g class="trace scatter traced91ed1" style="stroke-miterlimit: 2;"><g class="fills"><g><path class="js-fill" d="M407,11.85Q309.74,22.07 271.33,42.3C235.14,61.36 213.52,109.13 180.89,126.34C152.61,141.25 119.14,133.13 90.44,146.73Q58.5,161.86 0,217.39L0,221.4Q58.44,165.02 90.44,150.09C119.1,136.71 152.65,145.9 180.89,131.23C213.59,114.24 234.97,64.57 271.33,46.54Q309.65,27.54 407,23.51Z" style="fill: rgb(102, 102, 102); fill-opacity: 0.3; stroke-width: 0;"/></g></g><g class="errorbars"/><g class="lines"><path class="js-line" d="M407,23.51Q309.65,27.54 271.33,46.54C234.97,64.57 213.59,114.24 180.89,131.23C152.65,145.9 119.1,136.71 90.44,150.09Q58.44,165.02 0,221.4" style="vector-effect: none; fill: none; stroke: rgb(255, 161, 90); stroke-opacity: 1; stroke-width: 0px; opacity: 1;"/></g><g class="points"/><g class="text"/></g><g class="trace scatter tracedf9fe0" style="stroke-miterlimit: 2;"><g class="fills"/><g class="errorbars"/><g class="lines"><path class="js-line" d="M407,11.85Q309.74,22.07 271.33,42.3C235.14,61.36 213.52,109.13 180.89,126.34C152.61,141.25 119.14,133.13 90.44,146.73Q58.5,161.86 0,217.39" style="vector-effect: none; fill: none; stroke: rgb(25, 211, 243); stroke-opacity: 1; stroke-width: 0px; opacity: 1;"/></g><g class="points"/><g class="text"/></g><g class="trace scatter tracec85f48" style="stroke-miterlimit: 2; opacity: 1;"><g class="fills"/><g class="errorbars"/><g class="lines"><path class="js-line" d="M407,127.54Q311.79,137.48 271.33,145.02C237.94,151.24 210.95,159.13 180.89,167.2C150.65,175.32 120.6,193.55 90.44,193.6Q60.3,193.65 0,167.5" style="vector-effect: none; fill: none; stroke: rgb(95, 70, 144); stroke-opacity: 1; stroke-width: 3px; opacity: 1;"/></g><g class="points"/><g class="text"/></g><g class="trace scatter tracee9a835" style="stroke-miterlimit: 2;"><g class="fills"><g><path class="js-fill" d="M407,126.29Q311.81,136.86 271.33,144.36C237.96,150.54 210.93,157.88 180.89,165.91C150.63,174 120.61,192.63 90.44,192.77Q60.31,192.91 0,166.83L0,168.24Q60.29,194.72 90.44,194.71C120.59,194.7 150.65,176.32 180.89,168.2C210.95,160.13 237.94,152.16 271.33,146.09Q311.79,138.73 407,129.73Z" style="fill: rgb(95, 70, 144); fill-opacity: 0.3; stroke-width: 0;"/></g></g><g class="errorbars"/><g class="lines"><path class="js-line" d="M407,129.73Q311.79,138.73 271.33,146.09C237.94,152.16 210.95,160.13 180.89,168.2C150.65,176.32 120.59,194.7 90.44,194.71Q60.29,194.72 0,168.24" style="vector-effect: none; fill: none; stroke: rgb(182, 232, 128); stroke-opacity: 1; stroke-width: 0px; opacity: 1;"/></g><g class="points"/><g class="text"/></g><g class="trace scatter trace3fcc81" style="stroke-miterlimit: 2;"><g class="fills"/><g class="errorbars"/><g class="lines"><path class="js-line" d="M407,126.29Q311.81,136.86 271.33,144.36C237.96,150.54 210.93,157.88 180.89,165.91C150.63,174 120.61,192.63 90.44,192.77Q60.31,192.91 0,166.83" style="vector-effect: none; fill: none; stroke: rgb(255, 151, 255); stroke-opacity: 1; stroke-width: 0px; opacity: 1;"/></g><g class="points"/><g class="text"/></g><g class="trace scatter trace11846e" style="stroke-miterlimit: 2; opacity: 1;"><g class="fills"/><g class="errorbars"/><g class="lines"><path class="js-line" d="M407,95.19Q310.93,99.78 271.33,112.67C236.94,123.87 211.83,150.06 180.89,162.24C151.46,173.82 120.19,175.04 90.44,185.18Q59.87,195.61 0,224.37" style="vector-effect: none; fill: none; stroke: rgb(102, 102, 102); stroke-opacity: 1; stroke-width: 3px; opacity: 1;"/></g><g class="points"/><g class="text"/></g><g class="trace scatter tracec2f05a" style="stroke-miterlimit: 2;"><g class="fills"><g><path class="js-fill" d="M407,94.22Q310.92,98.38 271.33,111.24C236.93,122.42 211.87,149.12 180.89,161.05C151.49,172.37 120.13,172.39 90.44,182.4Q59.8,192.73 0,222.62L0,225.15Q59.9,197.17 90.44,186.89C120.21,176.87 151.42,175.32 180.89,163.88C211.78,151.89 237.02,126.7 271.33,115.48Q310.99,102.52 407,96.29Z" style="fill: rgb(102, 102, 102); fill-opacity: 0.3; stroke-width: 0;"/></g></g><g class="errorbars"/><g class="lines"><path class="js-line" d="M407,96.29Q310.99,102.52 271.33,115.48C237.02,126.7 211.78,151.89 180.89,163.88C151.42,175.32 120.21,176.87 90.44,186.89Q59.9,197.17 0,225.15" style="vector-effect: none; fill: none; stroke: rgb(99, 110, 250); stroke-opacity: 1; stroke-width: 0px; opacity: 1;"/></g><g class="points"/><g class="text"/></g><g class="trace scatter tracec54bd2" style="stroke-miterlimit: 2;"><g class="fills"/><g class="errorbars"/><g class="lines"><path class="js-line" d="M407,94.22Q310.92,98.38 271.33,111.24C236.93,122.42 211.87,149.12 180.89,161.05C151.49,172.37 120.13,172.39 90.44,182.4Q59.8,192.73 0,222.62" style="vector-effect: none; fill: none; stroke: rgb(239, 85, 59); stroke-opacity: 1; stroke-width: 0px; opacity: 1;"/></g><g class="points"/><g class="text"/></g><g class="trace scatter tracea8e99c" style="stroke-miterlimit: 2; opacity: 1;"><g class="fills"/><g class="errorbars"/><g class="lines"/><g class="points"/><g class="text"/></g><g class="trace scatter trace7b2106" style="stroke-miterlimit: 2; opacity: 1;"><g class="fills"/><g class="errorbars"/><g class="lines"/><g class="points"/><g class="text"/></g><g class="trace scatter trace17e364" style="stroke-miterlimit: 2; opacity: 1;"><g class="fills"/><g class="errorbars"/><g class="lines"/><g class="points"/><g class="text"/></g><g class="trace scatter trace3bb6a1" style="stroke-miterlimit: 2; opacity: 1;"><g class="fills"/><g class="errorbars"/><g class="lines"/><g class="points"/><g class="text"/></g><g class="trace scatter trace91b36b" style="stroke-miterlimit: 2; opacity: 1;"><g class="fills"/><g class="errorbars"/><g class="lines"/><g class="points"/><g class="text"/></g><g class="trace scatter tracef8533a" style="stroke-miterlimit: 2; opacity: 1;"><g class="fills"/><g class="errorbars"/><g class="lines"/><g class="points"/><g class="text"/></g></g></g><g class="overplot"/><path class="xlines-above crisp" d="M75,237.5H483" style="fill: none; stroke-width: 1px; stroke: rgb(0, 0, 0); stroke-opacity: 0.3;"/><path class="ylines-above crisp" d="M75.5,0V237" style="fill: none; stroke-width: 1px; stroke: rgb(0, 0, 0); stroke-opacity: 0.3;"/><g class="overlines-above"/><g class="xaxislayer-above"><g class="xtick"><text text-anchor="middle" x="0" y="262" transform="translate(121.22,0)" style="font-family: 'Open Sans', verdana, arial, sans-serif; font-size: 20px; fill: rgb(42, 63, 95); fill-opacity: 1; white-space: pre; opacity: 1;">20</text></g><g class="xtick"><text text-anchor="middle" x="0" y="262" style="font-family: 'Open Sans', verdana, arial, sans-serif; font-size: 20px; fill: rgb(42, 63, 95); fill-opacity: 1; white-space: pre; opacity: 1;" transform="translate(211.67,0)">40</text></g><g class="xtick"><text text-anchor="middle" x="0" y="262" style="font-family: 'Open Sans', verdana, arial, sans-serif; font-size: 20px; fill: rgb(42, 63, 95); fill-opacity: 1; white-space: pre; opacity: 1;" transform="translate(302.11,0)">60</text></g><g class="xtick"><text text-anchor="middle" x="0" y="262" style="font-family: 'Open Sans', verdana, arial, sans-serif; font-size: 20px; fill: rgb(42, 63, 95); fill-opacity: 1; white-space: pre; opacity: 1;" transform="translate(392.56,0)">80</text></g><g class="xtick"><text text-anchor="middle" x="0" y="262" style="font-family: 'Open Sans', verdana, arial, sans-serif; font-size: 20px; fill: rgb(42, 63, 95); fill-opacity: 1; white-space: pre; opacity: 0;" transform="translate(483,0)">100</text></g></g><g class="yaxislayer-above"><g class="ytick"><text text-anchor="end" x="71" y="7" transform="translate(0,227.36)" style="font-family: 'Open Sans', verdana, arial, sans-serif; font-size: 20px; fill: rgb(42, 63, 95); fill-opacity: 1; white-space: pre; opacity: 1;">0.05</text></g><g class="ytick"><text text-anchor="end" x="71" y="7" style="font-family: 'Open Sans', verdana, arial, sans-serif; font-size: 20px; fill: rgb(42, 63, 95); fill-opacity: 1; white-space: pre; opacity: 1;" transform="translate(0,177.45)">0.1</text></g><g class="ytick"><text text-anchor="end" x="71" y="7" style="font-family: 'Open Sans', verdana, arial, sans-serif; font-size: 20px; fill: rgb(42, 63, 95); fill-opacity: 1; white-space: pre; opacity: 1;" transform="translate(0,127.54)">0.15</text></g><g class="ytick"><text text-anchor="end" x="71" y="7" style="font-family: 'Open Sans', verdana, arial, sans-serif; font-size: 20px; fill: rgb(42, 63, 95); fill-opacity: 1; white-space: pre; opacity: 1;" transform="translate(0,77.63)">0.2</text></g><g class="ytick"><text text-anchor="end" x="71" y="7" style="font-family: 'Open Sans', verdana, arial, sans-serif; font-size: 20px; fill: rgb(42, 63, 95); fill-opacity: 1; white-space: pre; opacity: 1;" transform="translate(0,27.72)">0.25</text></g></g><g class="overaxes-above"/></g></g><g class="polarlayer"/><g class="smithlayer"/><g class="ternarylayer"/><g class="geolayer"/><g class="funnelarealayer"/><g class="pielayer"/><g class="iciclelayer"/><g class="treemaplayer"/><g class="sunburstlayer"/><g class="glimages"/><defs id="topdefs-c62885"><g class="clips"/></defs><g class="layer-above"><g class="imagelayer"/><g class="shapelayer"/></g><g class="infolayer"><g class="g-gtitle"/><g class="g-xtitle" transform="translate(0,-6.300000000000011)"><text class="xtitle" x="279.5" y="299.3" text-anchor="middle" style="font-family: 'Open Sans', verdana, arial, sans-serif; font-size: 24px; fill: rgb(42, 63, 95); opacity: 1; font-weight: normal; white-space: pre;">state dimension</text></g><g class="g-ytitle" transform="translate(25.9404296875,0)"><text class="ytitle" transform="rotate(-90,0.05937500000000284,118.5)" x="0.05937500000000284" y="118.5" text-anchor="middle" style="font-family: 'Open Sans', verdana, arial, sans-serif; font-size: 24px; fill: rgb(42, 63, 95); opacity: 1; font-weight: normal; white-space: pre;">state prediction MSE</text></g></g></svg>