<svg class="main-svg" xmlns="http://www.w3.org/2000/svg" xmlns:xlink="http://www.w3.org/1999/xlink" width="500" height="300" style="" viewBox="0 0 500 300"><rect x="0" y="0" width="500" height="300" style="fill: rgb(255, 255, 255); fill-opacity: 1;"/><defs id="defs-ec0568"><g class="clips"><clipPath id="clipec0568xyplot" class="plotclip"><rect width="435" height="229"/></clipPath><clipPath class="axesclip" id="clipec0568x"><rect x="65" y="0" width="435" height="300"/></clipPath><clipPath class="axesclip" id="clipec0568y"><rect x="0" y="8" width="500" height="229"/></clipPath><clipPath class="axesclip" id="clipec0568xy"><rect x="65" y="8" width="435" height="229"/></clipPath></g><g class="gradients"/><g class="patterns"/></defs><g class="bglayer"/><g class="layer-below"><g class="imagelayer"/><g class="shapelayer"/></g><g class="cartesianlayer"><g class="subplot xy"><g class="layer-subplot"><g class="shapelayer"/><g class="imagelayer"/></g><g class="minor-gridlayer"><g class="x"/><g class="y"/></g><g class="gridlayer"><g class="x"><path class="xgrid crisp" transform="translate(149.29000000000002,0)" d="M0,8v229" style="stroke: rgb(0, 0, 0); stroke-opacity: 0.1; stroke-width: 1px;"/><path class="xgrid crisp" transform="translate(233.58,0)" d="M0,8v229" style="stroke: rgb(0, 0, 0); stroke-opacity: 0.1; stroke-width: 1px;"/><path class="xgrid crisp" transform="translate(317.86,0)" d="M0,8v229" style="stroke: rgb(0, 0, 0); stroke-opacity: 0.1; stroke-width: 1px;"/><path class="xgrid crisp" transform="translate(402.15,0)" d="M0,8v229" style="stroke: rgb(0, 0, 0); stroke-opacity: 0.1; stroke-width: 1px;"/><path class="xgrid crisp" transform="translate(486.44,0)" d="M0,8v229" style="stroke: rgb(0, 0, 0); stroke-opacity: 0.1; stroke-width: 1px;"/></g><g class="y"><path class="ygrid crisp" transform="translate(0,176.77)" d="M65,0h435" style="stroke: rgb(0, 0, 0); stroke-opacity: 0.1; stroke-width: 1px;"/><path class="ygrid crisp" transform="translate(0,122.49)" d="M65,0h435" style="stroke: rgb(0, 0, 0); stroke-opacity: 0.1; stroke-width: 1px;"/><path class="ygrid crisp" transform="translate(0,68.21000000000001)" d="M65,0h435" style="stroke: rgb(0, 0, 0); stroke-opacity: 0.1; stroke-width: 1px;"/><path class="ygrid crisp" transform="translate(0,13.940000000000001)" d="M65,0h435" style="stroke: rgb(0, 0, 0); stroke-opacity: 0.1; stroke-width: 1px;"/></g></g><g class="zerolinelayer"><path class="yzl zl crisp" transform="translate(0,231.05)" d="M65,0h435" style="stroke: rgb(255, 255, 255); stroke-opacity: 1; stroke-width: 2px;"/></g><path class="xlines-below"/><path class="ylines-below"/><g class="overlines-below"/><g class="xaxislayer-below"/><g class="yaxislayer-below"/><g class="overaxes-below"/><g class="plot" transform="translate(65,8)" clip-path="url(#clipec0568xyplot)"><g class="scatterlayer mlayer"><g class="trace scatter trace5ed515" style="stroke-miterlimit: 2; opacity: 1;"><g class="fills"/><g class="errorbars"/><g class="lines"><path class="js-line" d="M0,207.22Q2.84,204.04 4.32,202.62C5.73,201.27 7.19,200.06 8.65,198.87C10.07,197.71 11.52,196.62 12.97,195.56C14.4,194.51 15.85,193.51 17.3,192.53C18.73,191.56 20.17,190.62 21.62,189.7C23.06,188.78 24.5,187.89 25.95,187.01C27.39,186.14 28.83,185.3 30.27,184.46C31.71,183.63 33.15,182.81 34.59,182C36.03,181.2 37.48,180.41 38.92,179.63C40.36,178.85 41.8,178.08 43.24,177.32C44.68,176.56 46.13,175.8 47.57,175.06C49.01,174.32 50.45,173.59 51.89,172.86C53.33,172.14 54.78,171.42 56.22,170.71C57.66,170 59.1,169.3 60.54,168.61C61.98,167.92 63.42,167.23 64.86,166.55C66.3,165.87 67.75,165.2 69.19,164.54C70.63,163.88 72.07,163.22 73.51,162.57C74.95,161.92 76.4,161.28 77.84,160.64C79.28,160 80.72,159.38 82.16,158.75C83.6,158.13 85.05,157.51 86.49,156.89C87.93,156.28 89.37,155.67 90.81,155.06C92.25,154.46 93.69,153.86 95.13,153.26C96.57,152.66 98.02,152.07 99.46,151.48C100.9,150.89 102.34,150.31 103.78,149.73C105.22,149.15 106.67,148.58 108.11,148.01C109.55,147.44 110.99,146.87 112.43,146.3C113.87,145.73 115.32,145.17 116.76,144.61C118.2,144.05 119.64,143.5 121.08,142.94C122.52,142.39 123.96,141.83 125.4,141.28C126.84,140.73 128.29,140.19 129.73,139.65C131.17,139.11 132.61,138.57 134.05,138.04C135.49,137.5 136.94,136.97 138.38,136.44C139.82,135.91 141.26,135.39 142.7,134.86C144.14,134.34 145.58,133.81 147.02,133.29C148.46,132.77 149.91,132.25 151.35,131.74C152.79,131.23 154.23,130.72 155.67,130.21C157.11,129.7 158.56,129.19 160,128.68C161.44,128.17 162.88,127.66 164.32,127.16C165.76,126.66 167.21,126.16 168.65,125.66C170.09,125.16 171.53,124.67 172.97,124.17C174.41,123.68 175.85,123.18 177.29,122.69C178.73,122.2 180.18,121.71 181.62,121.22C183.06,120.74 184.5,120.26 185.94,119.78C187.38,119.3 188.83,118.82 190.27,118.34C191.71,117.86 193.15,117.39 194.59,116.92C196.03,116.45 197.48,115.98 198.92,115.51C200.36,115.04 201.8,114.58 203.24,114.12C204.68,113.66 206.12,113.19 207.56,112.73C209,112.27 210.45,111.81 211.89,111.35C213.33,110.89 214.77,110.43 216.21,109.98C217.65,109.52 219.1,109.07 220.54,108.62C221.98,108.17 223.42,107.72 224.86,107.28C226.3,106.83 227.75,106.39 229.19,105.95C230.63,105.51 232.07,105.07 233.51,104.63C234.95,104.19 236.39,103.75 237.83,103.31C239.27,102.87 240.72,102.44 242.16,102C243.6,101.57 245.04,101.13 246.48,100.7C247.92,100.27 249.37,99.85 250.81,99.42C252.25,98.99 253.69,98.56 255.13,98.14C256.57,97.72 258.02,97.3 259.46,96.88C260.9,96.46 262.34,96.04 263.78,95.62C265.22,95.2 266.66,94.78 268.1,94.37C269.54,93.95 270.99,93.54 272.43,93.13C273.87,92.72 275.31,92.3 276.75,91.89C278.19,91.48 279.64,91.07 281.08,90.66C282.52,90.25 283.96,89.85 285.4,89.44C286.84,89.03 288.29,88.63 289.73,88.22C291.17,87.82 292.61,87.41 294.05,87.01C295.49,86.61 296.93,86.2 298.37,85.8C299.81,85.4 301.26,85 302.7,84.6C304.14,84.2 305.58,83.8 307.02,83.4C308.46,83 309.91,82.61 311.35,82.21C312.79,81.82 314.23,81.42 315.67,81.03C317.11,80.64 318.56,80.24 320,79.85C321.44,79.46 322.88,79.06 324.32,78.67C325.76,78.28 327.2,77.89 328.64,77.5C330.08,77.11 331.53,76.72 332.97,76.33C334.41,75.94 335.85,75.55 337.29,75.17C338.73,74.78 340.18,74.4 341.62,74.02C343.06,73.64 344.5,73.25 345.94,72.87C347.38,72.49 348.83,72.11 350.27,71.73C351.71,71.35 353.15,70.98 354.59,70.6C356.03,70.23 357.47,69.85 358.91,69.48C360.35,69.11 361.8,68.73 363.24,68.36C364.68,67.99 366.12,67.61 367.56,67.24C369,66.87 370.45,66.51 371.89,66.14C373.33,65.77 374.77,65.4 376.21,65.03C377.65,64.66 379.1,64.29 380.54,63.92C381.98,63.55 383.42,63.19 384.86,62.82C386.3,62.45 387.74,62.08 389.18,61.72C390.62,61.35 392.07,60.99 393.51,60.63C394.95,60.27 396.39,59.91 397.83,59.55C399.27,59.19 400.72,58.83 402.16,58.47C403.6,58.11 405.04,57.75 406.48,57.39C407.92,57.03 409.36,56.67 410.8,56.31C412.24,55.95 413.69,55.6 415.13,55.24C416.57,54.88 418.01,54.52 419.45,54.17C420.89,53.81 422.34,53.47 423.78,53.11Q425.22,52.76 428.1,52.04" style="vector-effect: none; fill: none; stroke: rgb(95, 70, 144); stroke-opacity: 1; stroke-dasharray: 9px, 9px; stroke-width: 2px; opacity: 1;"/></g><g class="points"/><g class="text"/></g><g class="trace scatter trace6889e0" style="stroke-miterlimit: 2;"><g class="fills"><g><path class="js-fill" d="M0,207.22Q2.84,204.04 4.32,202.62C5.73,201.27 7.19,200.06 8.65,198.87C10.07,197.71 11.52,196.62 12.97,195.56C14.4,194.51 15.85,193.51 17.3,192.53C18.73,191.56 20.17,190.62 21.62,189.7C23.06,188.78 24.5,187.89 25.95,187.01C27.39,186.14 28.83,185.3 30.27,184.46C31.71,183.63 33.15,182.81 34.59,182C36.03,181.2 37.48,180.41 38.92,179.63C40.36,178.85 41.8,178.08 43.24,177.32C44.68,176.56 46.13,175.8 47.57,175.06C49.01,174.32 50.45,173.59 51.89,172.86C53.33,172.14 54.78,171.42 56.22,170.71C57.66,170 59.1,169.3 60.54,168.61C61.98,167.92 63.42,167.23 64.86,166.55C66.3,165.87 67.75,165.2 69.19,164.54C70.63,163.88 72.07,163.22 73.51,162.57C74.95,161.92 76.4,161.28 77.84,160.64C79.28,160 80.72,159.38 82.16,158.75C83.6,158.13 85.05,157.51 86.49,156.89C87.93,156.28 89.37,155.67 90.81,155.06C92.25,154.46 93.69,153.86 95.13,153.26C96.57,152.66 98.02,152.07 99.46,151.48C100.9,150.89 102.34,150.31 103.78,149.73C105.22,149.15 106.67,148.58 108.11,148.01C109.55,147.44 110.99,146.87 112.43,146.3C113.87,145.73 115.32,145.17 116.76,144.61C118.2,144.05 119.64,143.5 121.08,142.94C122.52,142.39 123.96,141.83 125.4,141.28C126.84,140.73 128.29,140.19 129.73,139.65C131.17,139.11 132.61,138.57 134.05,138.04C135.49,137.5 136.94,136.97 138.38,136.44C139.82,135.91 141.26,135.39 142.7,134.86C144.14,134.34 145.58,133.81 147.02,133.29C148.46,132.77 149.91,132.25 151.35,131.74C152.79,131.23 154.23,130.72 155.67,130.21C157.11,129.7 158.56,129.19 160,128.68C161.44,128.17 162.88,127.66 164.32,127.16C165.76,126.66 167.21,126.16 168.65,125.66C170.09,125.16 171.53,124.67 172.97,124.17C174.41,123.68 175.85,123.18 177.29,122.69C178.73,122.2 180.18,121.71 181.62,121.22C183.06,120.74 184.5,120.26 185.94,119.78C187.38,119.3 188.83,118.82 190.27,118.34C191.71,117.86 193.15,117.39 194.59,116.92C196.03,116.45 197.48,115.98 198.92,115.51C200.36,115.04 201.8,114.58 203.24,114.12C204.68,113.66 206.12,113.19 207.56,112.73C209,112.27 210.45,111.81 211.89,111.35C213.33,110.89 214.77,110.43 216.21,109.98C217.65,109.52 219.1,109.07 220.54,108.62C221.98,108.17 223.42,107.72 224.86,107.28C226.3,106.83 227.75,106.39 229.19,105.95C230.63,105.51 232.07,105.07 233.51,104.63C234.95,104.19 236.39,103.75 237.83,103.31C239.27,102.87 240.72,102.44 242.16,102C243.6,101.57 245.04,101.13 246.48,100.7C247.92,100.27 249.37,99.85 250.81,99.42C252.25,98.99 253.69,98.56 255.13,98.14C256.57,97.72 258.02,97.3 259.46,96.88C260.9,96.46 262.34,96.04 263.78,95.62C265.22,95.2 266.66,94.78 268.1,94.37C269.54,93.95 270.99,93.54 272.43,93.13C273.87,92.72 275.31,92.3 276.75,91.89C278.19,91.48 279.64,91.07 281.08,90.66C282.52,90.25 283.96,89.85 285.4,89.44C286.84,89.03 288.29,88.63 289.73,88.22C291.17,87.82 292.61,87.41 294.05,87.01C295.49,86.61 296.93,86.2 298.37,85.8C299.81,85.4 301.26,85 302.7,84.6C304.14,84.2 305.58,83.8 307.02,83.4C308.46,83 309.91,82.61 311.35,82.21C312.79,81.82 314.23,81.42 315.67,81.03C317.11,80.64 318.56,80.24 320,79.85C321.44,79.46 322.88,79.06 324.32,78.67C325.76,78.28 327.2,77.89 328.64,77.5C330.08,77.11 331.53,76.72 332.97,76.33C334.41,75.94 335.85,75.55 337.29,75.17C338.73,74.78 340.18,74.4 341.62,74.02C343.06,73.64 344.5,73.25 345.94,72.87C347.38,72.49 348.83,72.11 350.27,71.73C351.71,71.35 353.15,70.98 354.59,70.6C356.03,70.23 357.47,69.85 358.91,69.48C360.35,69.11 361.8,68.73 363.24,68.36C364.68,67.99 366.12,67.61 367.56,67.24C369,66.87 370.45,66.51 371.89,66.14C373.33,65.77 374.77,65.4 376.21,65.03C377.65,64.66 379.1,64.29 380.54,63.92C381.98,63.55 383.42,63.19 384.86,62.82C386.3,62.45 387.74,62.08 389.18,61.72C390.62,61.35 392.07,60.99 393.51,60.63C394.95,60.27 396.39,59.91 397.83,59.55C399.27,59.19 400.72,58.83 402.16,58.47C403.6,58.11 405.04,57.75 406.48,57.39C407.92,57.03 409.36,56.67 410.8,56.31C412.24,55.95 413.69,55.6 415.13,55.24C416.57,54.88 418.01,54.52 419.45,54.17C420.89,53.81 422.34,53.47 423.78,53.11Q425.22,52.76 428.1,52.04L428.1,52.04Q425.22,52.76 423.78,53.11C422.34,53.47 420.89,53.81 419.45,54.17C418.01,54.52 416.57,54.88 415.13,55.24C413.69,55.6 412.24,55.95 410.8,56.31C409.36,56.67 407.92,57.03 406.48,57.39C405.04,57.75 403.6,58.11 402.16,58.47C400.72,58.83 399.27,59.19 397.83,59.55C396.39,59.91 394.95,60.27 393.51,60.63C392.07,60.99 390.62,61.35 389.18,61.72C387.74,62.08 386.3,62.45 384.86,62.82C383.42,63.19 381.98,63.55 380.54,63.92C379.1,64.29 377.65,64.66 376.21,65.03C374.77,65.4 373.33,65.77 371.89,66.14C370.45,66.51 369,66.87 367.56,67.24C366.12,67.61 364.68,67.99 363.24,68.36C361.8,68.73 360.35,69.11 358.91,69.48C357.47,69.85 356.03,70.23 354.59,70.6C353.15,70.98 351.71,71.35 350.27,71.73C348.83,72.11 347.38,72.49 345.94,72.87C344.5,73.25 343.06,73.64 341.62,74.02C340.18,74.4 338.73,74.78 337.29,75.17C335.85,75.55 334.41,75.94 332.97,76.33C331.53,76.72 330.08,77.11 328.64,77.5C327.2,77.89 325.76,78.28 324.32,78.67C322.88,79.06 321.44,79.46 320,79.85C318.56,80.24 317.11,80.64 315.67,81.03C314.23,81.42 312.79,81.82 311.35,82.21C309.91,82.61 308.46,83 307.02,83.4C305.58,83.8 304.14,84.2 302.7,84.6C301.26,85 299.81,85.4 298.37,85.8C296.93,86.2 295.49,86.61 294.05,87.01C292.61,87.41 291.17,87.82 289.73,88.22C288.29,88.63 286.84,89.03 285.4,89.44C283.96,89.85 282.52,90.25 281.08,90.66C279.64,91.07 278.19,91.48 276.75,91.89C275.31,92.3 273.87,92.72 272.43,93.13C270.99,93.54 269.54,93.95 268.1,94.37C266.66,94.78 265.22,95.2 263.78,95.62C262.34,96.04 260.9,96.46 259.46,96.88C258.02,97.3 256.57,97.72 255.13,98.14C253.69,98.56 252.25,98.99 250.81,99.42C249.37,99.85 247.92,100.27 246.48,100.7C245.04,101.13 243.6,101.57 242.16,102C240.72,102.44 239.27,102.87 237.83,103.31C236.39,103.75 234.95,104.19 233.51,104.63C232.07,105.07 230.63,105.51 229.19,105.95C227.75,106.39 226.3,106.83 224.86,107.28C223.42,107.72 221.98,108.17 220.54,108.62C219.1,109.07 217.65,109.52 216.21,109.98C214.77,110.43 213.33,110.89 211.89,111.35C210.45,111.81 209,112.27 207.56,112.73C206.12,113.19 204.68,113.66 203.24,114.12C201.8,114.58 200.36,115.04 198.92,115.51C197.48,115.98 196.03,116.45 194.59,116.92C193.15,117.39 191.71,117.86 190.27,118.34C188.83,118.82 187.38,119.3 185.94,119.78C184.5,120.26 183.06,120.74 181.62,121.22C180.18,121.71 178.73,122.2 177.29,122.69C175.85,123.18 174.41,123.68 172.97,124.17C171.53,124.67 170.09,125.16 168.65,125.66C167.21,126.16 165.76,126.66 164.32,127.16C162.88,127.66 161.44,128.17 160,128.68C158.56,129.19 157.11,129.7 155.67,130.21C154.23,130.72 152.79,131.23 151.35,131.74C149.91,132.25 148.46,132.77 147.02,133.29C145.58,133.81 144.14,134.34 142.7,134.86C141.26,135.39 139.82,135.91 138.38,136.44C136.94,136.97 135.49,137.5 134.05,138.04C132.61,138.57 131.17,139.11 129.73,139.65C128.29,140.19 126.84,140.73 125.4,141.28C123.96,141.83 122.52,142.39 121.08,142.94C119.64,143.5 118.2,144.05 116.76,144.61C115.32,145.17 113.87,145.73 112.43,146.3C110.99,146.87 109.55,147.44 108.11,148.01C106.67,148.58 105.22,149.15 103.78,149.73C102.34,150.31 100.9,150.89 99.46,151.48C98.02,152.07 96.57,152.66 95.13,153.26C93.69,153.86 92.25,154.46 90.81,155.06C89.37,155.67 87.93,156.28 86.49,156.89C85.05,157.51 83.6,158.13 82.16,158.75C80.72,159.38 79.28,160 77.84,160.64C76.4,161.28 74.95,161.92 73.51,162.57C72.07,163.22 70.63,163.88 69.19,164.54C67.75,165.2 66.3,165.87 64.86,166.55C63.42,167.23 61.98,167.92 60.54,168.61C59.1,169.3 57.66,170 56.22,170.71C54.78,171.42 53.33,172.14 51.89,172.86C50.45,173.59 49.01,174.32 47.57,175.06C46.13,175.8 44.68,176.56 43.24,177.32C41.8,178.08 40.36,178.85 38.92,179.63C37.48,180.41 36.03,181.2 34.59,182C33.15,182.81 31.71,183.63 30.27,184.46C28.83,185.3 27.39,186.14 25.95,187.01C24.5,187.89 23.06,188.78 21.62,189.7C20.17,190.62 18.73,191.56 17.3,192.53C15.85,193.51 14.4,194.51 12.97,195.56C11.52,196.62 10.07,197.71 8.65,198.87C7.19,200.06 5.73,201.27 4.32,202.62Q2.84,204.04 0,207.22Z" style="fill: rgb(95, 70, 144); fill-opacity: 0.3; stroke-width: 0;"/></g></g><g class="errorbars"/><g class="lines"><path class="js-line" d="M0,207.22Q2.84,204.04 4.32,202.62C5.73,201.27 7.19,200.06 8.65,198.87C10.07,197.71 11.52,196.62 12.97,195.56C14.4,194.51 15.85,193.51 17.3,192.53C18.73,191.56 20.17,190.62 21.62,189.7C23.06,188.78 24.5,187.89 25.95,187.01C27.39,186.14 28.83,185.3 30.27,184.46C31.71,183.63 33.15,182.81 34.59,182C36.03,181.2 37.48,180.41 38.92,179.63C40.36,178.85 41.8,178.08 43.24,177.32C44.68,176.56 46.13,175.8 47.57,175.06C49.01,174.32 50.45,173.59 51.89,172.86C53.33,172.14 54.78,171.42 56.22,170.71C57.66,170 59.1,169.3 60.54,168.61C61.98,167.92 63.42,167.23 64.86,166.55C66.3,165.87 67.75,165.2 69.19,164.54C70.63,163.88 72.07,163.22 73.51,162.57C74.95,161.92 76.4,161.28 77.84,160.64C79.28,160 80.72,159.38 82.16,158.75C83.6,158.13 85.05,157.51 86.49,156.89C87.93,156.28 89.37,155.67 90.81,155.06C92.25,154.46 93.69,153.86 95.13,153.26C96.57,152.66 98.02,152.07 99.46,151.48C100.9,150.89 102.34,150.31 103.78,149.73C105.22,149.15 106.67,148.58 108.11,148.01C109.55,147.44 110.99,146.87 112.43,146.3C113.87,145.73 115.32,145.17 116.76,144.61C118.2,144.05 119.64,143.5 121.08,142.94C122.52,142.39 123.96,141.83 125.4,141.28C126.84,140.73 128.29,140.19 129.73,139.65C131.17,139.11 132.61,138.57 134.05,138.04C135.49,137.5 136.94,136.97 138.38,136.44C139.82,135.91 141.26,135.39 142.7,134.86C144.14,134.34 145.58,133.81 147.02,133.29C148.46,132.77 149.91,132.25 151.35,131.74C152.79,131.23 154.23,130.72 155.67,130.21C157.11,129.7 158.56,129.19 160,128.68C161.44,128.17 162.88,127.66 164.32,127.16C165.76,126.66 167.21,126.16 168.65,125.66C170.09,125.16 171.53,124.67 172.97,124.17C174.41,123.68 175.85,123.18 177.29,122.69C178.73,122.2 180.18,121.71 181.62,121.22C183.06,120.74 184.5,120.26 185.94,119.78C187.38,119.3 188.83,118.82 190.27,118.34C191.71,117.86 193.15,117.39 194.59,116.92C196.03,116.45 197.48,115.98 198.92,115.51C200.36,115.04 201.8,114.58 203.24,114.12C204.68,113.66 206.12,113.19 207.56,112.73C209,112.27 210.45,111.81 211.89,111.35C213.33,110.89 214.77,110.43 216.21,109.98C217.65,109.52 219.1,109.07 220.54,108.62C221.98,108.17 223.42,107.72 224.86,107.28C226.3,106.83 227.75,106.39 229.19,105.95C230.63,105.51 232.07,105.07 233.51,104.63C234.95,104.19 236.39,103.75 237.83,103.31C239.27,102.87 240.72,102.44 242.16,102C243.6,101.57 245.04,101.13 246.48,100.7C247.92,100.27 249.37,99.85 250.81,99.42C252.25,98.99 253.69,98.56 255.13,98.14C256.57,97.72 258.02,97.3 259.46,96.88C260.9,96.46 262.34,96.04 263.78,95.62C265.22,95.2 266.66,94.78 268.1,94.37C269.54,93.95 270.99,93.54 272.43,93.13C273.87,92.72 275.31,92.3 276.75,91.89C278.19,91.48 279.64,91.07 281.08,90.66C282.52,90.25 283.96,89.85 285.4,89.44C286.84,89.03 288.29,88.63 289.73,88.22C291.17,87.82 292.61,87.41 294.05,87.01C295.49,86.61 296.93,86.2 298.37,85.8C299.81,85.4 301.26,85 302.7,84.6C304.14,84.2 305.58,83.8 307.02,83.4C308.46,83 309.91,82.61 311.35,82.21C312.79,81.82 314.23,81.42 315.67,81.03C317.11,80.64 318.56,80.24 320,79.85C321.44,79.46 322.88,79.06 324.32,78.67C325.76,78.28 327.2,77.89 328.64,77.5C330.08,77.11 331.53,76.72 332.97,76.33C334.41,75.94 335.85,75.55 337.29,75.17C338.73,74.78 340.18,74.4 341.62,74.02C343.06,73.64 344.5,73.25 345.94,72.87C347.38,72.49 348.83,72.11 350.27,71.73C351.71,71.35 353.15,70.98 354.59,70.6C356.03,70.23 357.47,69.85 358.91,69.48C360.35,69.11 361.8,68.73 363.24,68.36C364.68,67.99 366.12,67.61 367.56,67.24C369,66.87 370.45,66.51 371.89,66.14C373.33,65.77 374.77,65.4 376.21,65.03C377.65,64.66 379.1,64.29 380.54,63.92C381.98,63.55 383.42,63.19 384.86,62.82C386.3,62.45 387.74,62.08 389.18,61.72C390.62,61.35 392.07,60.99 393.51,60.63C394.95,60.27 396.39,59.91 397.83,59.55C399.27,59.19 400.72,58.83 402.16,58.47C403.6,58.11 405.04,57.75 406.48,57.39C407.92,57.03 409.36,56.67 410.8,56.31C412.24,55.95 413.69,55.6 415.13,55.24C416.57,54.88 418.01,54.52 419.45,54.17C420.89,53.81 422.34,53.47 423.78,53.11Q425.22,52.76 428.1,52.04" style="vector-effect: none; fill: none; stroke: rgb(239, 85, 59); stroke-opacity: 1; stroke-width: 0px; opacity: 1;"/></g><g class="points"/><g class="text"/></g><g class="trace scatter trace97823c" style="stroke-miterlimit: 2;"><g class="fills"/><g class="errorbars"/><g class="lines"><path class="js-line" d="M0,207.22Q2.84,204.04 4.32,202.62C5.73,201.27 7.19,200.06 8.65,198.87C10.07,197.71 11.52,196.62 12.97,195.56C14.4,194.51 15.85,193.51 17.3,192.53C18.73,191.56 20.17,190.62 21.62,189.7C23.06,188.78 24.5,187.89 25.95,187.01C27.39,186.14 28.83,185.3 30.27,184.46C31.71,183.63 33.15,182.81 34.59,182C36.03,181.2 37.48,180.41 38.92,179.63C40.36,178.85 41.8,178.08 43.24,177.32C44.68,176.56 46.13,175.8 47.57,175.06C49.01,174.32 50.45,173.59 51.89,172.86C53.33,172.14 54.78,171.42 56.22,170.71C57.66,170 59.1,169.3 60.54,168.61C61.98,167.92 63.42,167.23 64.86,166.55C66.3,165.87 67.75,165.2 69.19,164.54C70.63,163.88 72.07,163.22 73.51,162.57C74.95,161.92 76.4,161.28 77.84,160.64C79.28,160 80.72,159.38 82.16,158.75C83.6,158.13 85.05,157.51 86.49,156.89C87.93,156.28 89.37,155.67 90.81,155.06C92.25,154.46 93.69,153.86 95.13,153.26C96.57,152.66 98.02,152.07 99.46,151.48C100.9,150.89 102.34,150.31 103.78,149.73C105.22,149.15 106.67,148.58 108.11,148.01C109.55,147.44 110.99,146.87 112.43,146.3C113.87,145.73 115.32,145.17 116.76,144.61C118.2,144.05 119.64,143.5 121.08,142.94C122.52,142.39 123.96,141.83 125.4,141.28C126.84,140.73 128.29,140.19 129.73,139.65C131.17,139.11 132.61,138.57 134.05,138.04C135.49,137.5 136.94,136.97 138.38,136.44C139.82,135.91 141.26,135.39 142.7,134.86C144.14,134.34 145.58,133.81 147.02,133.29C148.46,132.77 149.91,132.25 151.35,131.74C152.79,131.23 154.23,130.72 155.67,130.21C157.11,129.7 158.56,129.19 160,128.68C161.44,128.17 162.88,127.66 164.32,127.16C165.76,126.66 167.21,126.16 168.65,125.66C170.09,125.16 171.53,124.67 172.97,124.17C174.41,123.68 175.85,123.18 177.29,122.69C178.73,122.2 180.18,121.71 181.62,121.22C183.06,120.74 184.5,120.26 185.94,119.78C187.38,119.3 188.83,118.82 190.27,118.34C191.71,117.86 193.15,117.39 194.59,116.92C196.03,116.45 197.48,115.98 198.92,115.51C200.36,115.04 201.8,114.58 203.24,114.12C204.68,113.66 206.12,113.19 207.56,112.73C209,112.27 210.45,111.81 211.89,111.35C213.33,110.89 214.77,110.43 216.21,109.98C217.65,109.52 219.1,109.07 220.54,108.62C221.98,108.17 223.42,107.72 224.86,107.28C226.3,106.83 227.75,106.39 229.19,105.95C230.63,105.51 232.07,105.07 233.51,104.63C234.95,104.19 236.39,103.75 237.83,103.31C239.27,102.87 240.72,102.44 242.16,102C243.6,101.57 245.04,101.13 246.48,100.7C247.92,100.27 249.37,99.85 250.81,99.42C252.25,98.99 253.69,98.56 255.13,98.14C256.57,97.72 258.02,97.3 259.46,96.88C260.9,96.46 262.34,96.04 263.78,95.62C265.22,95.2 266.66,94.78 268.1,94.37C269.54,93.95 270.99,93.54 272.43,93.13C273.87,92.72 275.31,92.3 276.75,91.89C278.19,91.48 279.64,91.07 281.08,90.66C282.52,90.25 283.96,89.85 285.4,89.44C286.84,89.03 288.29,88.63 289.73,88.22C291.17,87.82 292.61,87.41 294.05,87.01C295.49,86.61 296.93,86.2 298.37,85.8C299.81,85.4 301.26,85 302.7,84.6C304.14,84.2 305.58,83.8 307.02,83.4C308.46,83 309.91,82.61 311.35,82.21C312.79,81.82 314.23,81.42 315.67,81.03C317.11,80.64 318.56,80.24 320,79.85C321.44,79.46 322.88,79.06 324.32,78.67C325.76,78.28 327.2,77.89 328.64,77.5C330.08,77.11 331.53,76.72 332.97,76.33C334.41,75.94 335.85,75.55 337.29,75.17C338.73,74.78 340.18,74.4 341.62,74.02C343.06,73.64 344.5,73.25 345.94,72.87C347.38,72.49 348.83,72.11 350.27,71.73C351.71,71.35 353.15,70.98 354.59,70.6C356.03,70.23 357.47,69.85 358.91,69.48C360.35,69.11 361.8,68.73 363.24,68.36C364.68,67.99 366.12,67.61 367.56,67.24C369,66.87 370.45,66.51 371.89,66.14C373.33,65.77 374.77,65.4 376.21,65.03C377.65,64.66 379.1,64.29 380.54,63.92C381.98,63.55 383.42,63.19 384.86,62.82C386.3,62.45 387.74,62.08 389.18,61.72C390.62,61.35 392.07,60.99 393.51,60.63C394.95,60.27 396.39,59.91 397.83,59.55C399.27,59.19 400.72,58.83 402.16,58.47C403.6,58.11 405.04,57.75 406.48,57.39C407.92,57.03 409.36,56.67 410.8,56.31C412.24,55.95 413.69,55.6 415.13,55.24C416.57,54.88 418.01,54.52 419.45,54.17C420.89,53.81 422.34,53.47 423.78,53.11Q425.22,52.76 428.1,52.04" style="vector-effect: none; fill: none; stroke: rgb(0, 204, 150); stroke-opacity: 1; stroke-width: 0px; opacity: 1;"/></g><g class="points"/><g class="text"/></g><g class="trace scatter trace206bff" style="stroke-miterlimit: 2; opacity: 1;"><g class="fills"/><g class="errorbars"/><g class="lines"><path class="js-line" d="M0,206Q2.9,202.81 4.39,201.35C5.83,199.95 7.31,198.67 8.79,197.4C10.24,196.16 11.71,194.99 13.18,193.83C14.64,192.69 16.11,191.59 17.58,190.51C19.04,189.44 20.5,188.4 21.97,187.38C23.43,186.37 24.89,185.38 26.36,184.4C27.82,183.43 29.29,182.47 30.76,181.53C32.22,180.59 33.68,179.67 35.15,178.75C36.61,177.84 38.08,176.93 39.55,176.04C41.01,175.15 42.47,174.28 43.94,173.41C45.4,172.54 46.86,171.68 48.33,170.83C49.79,169.98 51.26,169.13 52.73,168.29C54.19,167.45 55.65,166.63 57.12,165.81C58.58,164.99 60.05,164.18 61.52,163.37C62.98,162.56 64.45,161.77 65.91,160.97C67.37,160.18 68.83,159.39 70.3,158.6C71.76,157.82 73.23,157.03 74.7,156.26C76.16,155.49 77.63,154.72 79.09,153.96C80.55,153.2 82.01,152.44 83.48,151.68C84.94,150.93 86.41,150.18 87.88,149.43C89.34,148.69 90.8,147.95 92.27,147.21C93.73,146.47 95.2,145.74 96.67,145.01C98.13,144.28 99.6,143.56 101.06,142.83C102.52,142.1 103.98,141.37 105.45,140.65C106.91,139.93 108.38,139.22 109.85,138.5C111.31,137.79 112.78,137.07 114.24,136.36C115.71,135.65 117.17,134.94 118.64,134.23C120.1,133.52 121.57,132.82 123.03,132.12C124.49,131.42 125.96,130.73 127.42,130.04C128.89,129.35 130.35,128.65 131.82,127.96C133.28,127.27 134.75,126.58 136.21,125.9C137.68,125.21 139.14,124.53 140.61,123.85C142.07,123.17 143.54,122.5 145,121.83C146.46,121.16 147.93,120.49 149.39,119.82C150.86,119.15 152.32,118.48 153.79,117.82C155.25,117.16 156.72,116.5 158.18,115.84C159.65,115.18 161.11,114.53 162.58,113.88C164.04,113.23 165.51,112.58 166.97,111.93C168.43,111.28 169.9,110.64 171.36,110C172.83,109.36 174.29,108.71 175.76,108.07C177.22,107.43 178.69,106.79 180.15,106.15C181.62,105.51 183.08,104.88 184.55,104.25C186.01,103.62 187.48,102.99 188.94,102.36C190.4,101.73 191.87,101.1 193.33,100.48C194.8,99.86 196.26,99.24 197.73,98.62C199.19,98 200.66,97.38 202.12,96.77C203.59,96.15 205.05,95.54 206.52,94.93C207.98,94.32 209.45,93.71 210.91,93.1C212.37,92.49 213.84,91.88 215.3,91.28C216.77,90.68 218.23,90.08 219.7,89.48C221.16,88.88 222.63,88.28 224.09,87.68C225.55,87.08 227.02,86.49 228.48,85.9C229.95,85.31 231.41,84.71 232.88,84.12C234.34,83.53 235.81,82.94 237.27,82.36C238.74,81.77 240.2,81.19 241.67,80.61C243.13,80.03 244.6,79.45 246.06,78.87C247.52,78.29 248.99,77.72 250.45,77.14C251.92,76.56 253.38,75.98 254.85,75.41C256.31,74.84 257.78,74.27 259.24,73.7C260.71,73.13 262.17,72.56 263.64,71.99C265.1,71.42 266.57,70.85 268.03,70.29C269.49,69.73 270.96,69.17 272.42,68.61C273.89,68.05 275.35,67.49 276.82,66.93C278.28,66.37 279.75,65.82 281.21,65.27C282.68,64.72 284.14,64.16 285.61,63.61C287.07,63.06 288.54,62.52 290,61.97C291.46,61.42 292.93,60.87 294.39,60.33C295.86,59.78 297.32,59.24 298.79,58.7C300.25,58.16 301.72,57.61 303.18,57.07C304.65,56.53 306.11,55.98 307.58,55.44C309.04,54.9 310.51,54.37 311.97,53.83C313.43,53.29 314.9,52.75 316.36,52.21C317.83,51.67 319.29,51.15 320.76,50.61C322.22,50.08 323.69,49.53 325.15,49C326.62,48.47 328.08,47.94 329.55,47.41C331.01,46.88 332.48,46.35 333.94,45.82C335.4,45.29 336.87,44.77 338.33,44.25C339.8,43.73 341.26,43.2 342.73,42.68C344.19,42.16 345.66,41.64 347.12,41.12C348.59,40.6 350.05,40.08 351.52,39.57C352.98,39.06 354.45,38.55 355.91,38.04C357.37,37.53 358.84,37.02 360.3,36.51C361.77,36 363.23,35.5 364.7,34.99C366.16,34.49 367.63,33.98 369.09,33.48C370.55,32.98 372.02,32.49 373.48,31.99C374.95,31.49 376.41,31 377.88,30.5C379.34,30.01 380.81,29.51 382.27,29.02C383.74,28.53 385.2,28.03 386.67,27.54C388.13,27.05 389.6,26.56 391.06,26.07C392.52,25.58 393.99,25.07 395.45,24.58C396.92,24.09 398.38,23.6 399.85,23.11C401.31,22.62 402.78,22.13 404.24,21.64C405.71,21.15 407.17,20.66 408.64,20.17C410.1,19.68 411.57,19.2 413.03,18.71C414.49,18.22 415.96,17.74 417.42,17.25C418.89,16.76 420.35,16.28 421.82,15.79C423.28,15.31 424.75,14.82 426.21,14.34C427.68,13.86 429.14,13.38 430.61,12.9Q432.07,12.42 435,11.45" style="vector-effect: none; fill: none; stroke: rgb(102, 102, 102); stroke-opacity: 1; stroke-dasharray: 9px, 9px; stroke-width: 2px; opacity: 1;"/></g><g class="points"/><g class="text"/></g><g class="trace scatter tracea33cb6" style="stroke-miterlimit: 2;"><g class="fills"><g><path class="js-fill" d="M0,206Q2.9,202.81 4.39,201.35C5.83,199.95 7.31,198.67 8.79,197.4C10.24,196.16 11.71,194.99 13.18,193.83C14.64,192.69 16.11,191.59 17.58,190.51C19.04,189.44 20.5,188.4 21.97,187.38C23.43,186.37 24.89,185.38 26.36,184.4C27.82,183.43 29.29,182.47 30.76,181.53C32.22,180.59 33.68,179.67 35.15,178.75C36.61,177.84 38.08,176.93 39.55,176.04C41.01,175.15 42.47,174.28 43.94,173.41C45.4,172.54 46.86,171.68 48.33,170.83C49.79,169.98 51.26,169.13 52.73,168.29C54.19,167.45 55.65,166.63 57.12,165.81C58.58,164.99 60.05,164.18 61.52,163.37C62.98,162.56 64.45,161.77 65.91,160.97C67.37,160.18 68.83,159.39 70.3,158.6C71.76,157.82 73.23,157.03 74.7,156.26C76.16,155.49 77.63,154.72 79.09,153.96C80.55,153.2 82.01,152.44 83.48,151.68C84.94,150.93 86.41,150.18 87.88,149.43C89.34,148.69 90.8,147.95 92.27,147.21C93.73,146.47 95.2,145.74 96.67,145.01C98.13,144.28 99.6,143.56 101.06,142.83C102.52,142.1 103.98,141.37 105.45,140.65C106.91,139.93 108.38,139.22 109.85,138.5C111.31,137.79 112.78,137.07 114.24,136.36C115.71,135.65 117.17,134.94 118.64,134.23C120.1,133.52 121.57,132.82 123.03,132.12C124.49,131.42 125.96,130.73 127.42,130.04C128.89,129.35 130.35,128.65 131.82,127.96C133.28,127.27 134.75,126.58 136.21,125.9C137.68,125.21 139.14,124.53 140.61,123.85C142.07,123.17 143.54,122.5 145,121.83C146.46,121.16 147.93,120.49 149.39,119.82C150.86,119.15 152.32,118.48 153.79,117.82C155.25,117.16 156.72,116.5 158.18,115.84C159.65,115.18 161.11,114.53 162.58,113.88C164.04,113.23 165.51,112.58 166.97,111.93C168.43,111.28 169.9,110.64 171.36,110C172.83,109.36 174.29,108.71 175.76,108.07C177.22,107.43 178.69,106.79 180.15,106.15C181.62,105.51 183.08,104.88 184.55,104.25C186.01,103.62 187.48,102.99 188.94,102.36C190.4,101.73 191.87,101.1 193.33,100.48C194.8,99.86 196.26,99.24 197.73,98.62C199.19,98 200.66,97.38 202.12,96.77C203.59,96.15 205.05,95.54 206.52,94.93C207.98,94.32 209.45,93.71 210.91,93.1C212.37,92.49 213.84,91.88 215.3,91.28C216.77,90.68 218.23,90.08 219.7,89.48C221.16,88.88 222.63,88.28 224.09,87.68C225.55,87.08 227.02,86.49 228.48,85.9C229.95,85.31 231.41,84.71 232.88,84.12C234.34,83.53 235.81,82.94 237.27,82.36C238.74,81.77 240.2,81.19 241.67,80.61C243.13,80.03 244.6,79.45 246.06,78.87C247.52,78.29 248.99,77.72 250.45,77.14C251.92,76.56 253.38,75.98 254.85,75.41C256.31,74.84 257.78,74.27 259.24,73.7C260.71,73.13 262.17,72.56 263.64,71.99C265.1,71.42 266.57,70.85 268.03,70.29C269.49,69.73 270.96,69.17 272.42,68.61C273.89,68.05 275.35,67.49 276.82,66.93C278.28,66.37 279.75,65.82 281.21,65.27C282.68,64.72 284.14,64.16 285.61,63.61C287.07,63.06 288.54,62.52 290,61.97C291.46,61.42 292.93,60.87 294.39,60.33C295.86,59.78 297.32,59.24 298.79,58.7C300.25,58.16 301.72,57.61 303.18,57.07C304.65,56.53 306.11,55.98 307.58,55.44C309.04,54.9 310.51,54.37 311.97,53.83C313.43,53.29 314.9,52.75 316.36,52.21C317.83,51.67 319.29,51.15 320.76,50.61C322.22,50.08 323.69,49.53 325.15,49C326.62,48.47 328.08,47.94 329.55,47.41C331.01,46.88 332.48,46.35 333.94,45.82C335.4,45.29 336.87,44.77 338.33,44.25C339.8,43.73 341.26,43.2 342.73,42.68C344.19,42.16 345.66,41.64 347.12,41.12C348.59,40.6 350.05,40.08 351.52,39.57C352.98,39.06 354.45,38.55 355.91,38.04C357.37,37.53 358.84,37.02 360.3,36.51C361.77,36 363.23,35.5 364.7,34.99C366.16,34.49 367.63,33.98 369.09,33.48C370.55,32.98 372.02,32.49 373.48,31.99C374.95,31.49 376.41,31 377.88,30.5C379.34,30.01 380.81,29.51 382.27,29.02C383.74,28.53 385.2,28.03 386.67,27.54C388.13,27.05 389.6,26.56 391.06,26.07C392.52,25.58 393.99,25.07 395.45,24.58C396.92,24.09 398.38,23.6 399.85,23.11C401.31,22.62 402.78,22.13 404.24,21.64C405.71,21.15 407.17,20.66 408.64,20.17C410.1,19.68 411.57,19.2 413.03,18.71C414.49,18.22 415.96,17.74 417.42,17.25C418.89,16.76 420.35,16.28 421.82,15.79C423.28,15.31 424.75,14.82 426.21,14.34C427.68,13.86 429.14,13.38 430.61,12.9Q432.07,12.42 435,11.45L435,11.45Q432.07,12.42 430.61,12.9C429.14,13.38 427.68,13.86 426.21,14.34C424.75,14.82 423.28,15.31 421.82,15.79C420.35,16.28 418.89,16.76 417.42,17.25C415.96,17.74 414.49,18.22 413.03,18.71C411.57,19.2 410.1,19.68 408.64,20.17C407.17,20.66 405.71,21.15 404.24,21.64C402.78,22.13 401.31,22.62 399.85,23.11C398.38,23.6 396.92,24.09 395.45,24.58C393.99,25.07 392.52,25.58 391.06,26.07C389.6,26.56 388.13,27.05 386.67,27.54C385.2,28.03 383.74,28.53 382.27,29.02C380.81,29.51 379.34,30.01 377.88,30.5C376.41,31 374.95,31.49 373.48,31.99C372.02,32.49 370.55,32.98 369.09,33.48C367.63,33.98 366.16,34.49 364.7,34.99C363.23,35.5 361.77,36 360.3,36.51C358.84,37.02 357.37,37.53 355.91,38.04C354.45,38.55 352.98,39.06 351.52,39.57C350.05,40.08 348.59,40.6 347.12,41.12C345.66,41.64 344.19,42.16 342.73,42.68C341.26,43.2 339.8,43.73 338.33,44.25C336.87,44.77 335.4,45.29 333.94,45.82C332.48,46.35 331.01,46.88 329.55,47.41C328.08,47.94 326.62,48.47 325.15,49C323.69,49.53 322.22,50.08 320.76,50.61C319.29,51.15 317.83,51.67 316.36,52.21C314.9,52.75 313.43,53.29 311.97,53.83C310.51,54.37 309.04,54.9 307.58,55.44C306.11,55.98 304.65,56.53 303.18,57.07C301.72,57.61 300.25,58.16 298.79,58.7C297.32,59.24 295.86,59.78 294.39,60.33C292.93,60.87 291.46,61.42 290,61.97C288.54,62.52 287.07,63.06 285.61,63.61C284.14,64.16 282.68,64.72 281.21,65.27C279.75,65.82 278.28,66.37 276.82,66.93C275.35,67.49 273.89,68.05 272.42,68.61C270.96,69.17 269.49,69.73 268.03,70.29C266.57,70.85 265.1,71.42 263.64,71.99C262.17,72.56 260.71,73.13 259.24,73.7C257.78,74.27 256.31,74.84 254.85,75.41C253.38,75.98 251.92,76.56 250.45,77.14C248.99,77.72 247.52,78.29 246.06,78.87C244.6,79.45 243.13,80.03 241.67,80.61C240.2,81.19 238.74,81.77 237.27,82.36C235.81,82.94 234.34,83.53 232.88,84.12C231.41,84.71 229.95,85.31 228.48,85.9C227.02,86.49 225.55,87.08 224.09,87.68C222.63,88.28 221.16,88.88 219.7,89.48C218.23,90.08 216.77,90.68 215.3,91.28C213.84,91.88 212.37,92.49 210.91,93.1C209.45,93.71 207.98,94.32 206.52,94.93C205.05,95.54 203.59,96.15 202.12,96.77C200.66,97.38 199.19,98 197.73,98.62C196.26,99.24 194.8,99.86 193.33,100.48C191.87,101.1 190.4,101.73 188.94,102.36C187.48,102.99 186.01,103.62 184.55,104.25C183.08,104.88 181.62,105.51 180.15,106.15C178.69,106.79 177.22,107.43 175.76,108.07C174.29,108.71 172.83,109.36 171.36,110C169.9,110.64 168.43,111.28 166.97,111.93C165.51,112.58 164.04,113.23 162.58,113.88C161.11,114.53 159.65,115.18 158.18,115.84C156.72,116.5 155.25,117.16 153.79,117.82C152.32,118.48 150.86,119.15 149.39,119.82C147.93,120.49 146.46,121.16 145,121.83C143.54,122.5 142.07,123.17 140.61,123.85C139.14,124.53 137.68,125.21 136.21,125.9C134.75,126.58 133.28,127.27 131.82,127.96C130.35,128.65 128.89,129.35 127.42,130.04C125.96,130.73 124.49,131.42 123.03,132.12C121.57,132.82 120.1,133.52 118.64,134.23C117.17,134.94 115.71,135.65 114.24,136.36C112.78,137.07 111.31,137.79 109.85,138.5C108.38,139.22 106.91,139.93 105.45,140.65C103.98,141.37 102.52,142.1 101.06,142.83C99.6,143.56 98.13,144.28 96.67,145.01C95.2,145.74 93.73,146.47 92.27,147.21C90.8,147.95 89.34,148.69 87.88,149.43C86.41,150.18 84.94,150.93 83.48,151.68C82.01,152.44 80.55,153.2 79.09,153.96C77.63,154.72 76.16,155.49 74.7,156.26C73.23,157.03 71.76,157.82 70.3,158.6C68.83,159.39 67.37,160.18 65.91,160.97C64.45,161.77 62.98,162.56 61.52,163.37C60.05,164.18 58.58,164.99 57.12,165.81C55.65,166.63 54.19,167.45 52.73,168.29C51.26,169.13 49.79,169.98 48.33,170.83C46.86,171.68 45.4,172.54 43.94,173.41C42.47,174.28 41.01,175.15 39.55,176.04C38.08,176.93 36.61,177.84 35.15,178.75C33.68,179.67 32.22,180.59 30.76,181.53C29.29,182.47 27.82,183.43 26.36,184.4C24.89,185.38 23.43,186.37 21.97,187.38C20.5,188.4 19.04,189.44 17.58,190.51C16.11,191.59 14.64,192.69 13.18,193.83C11.71,194.99 10.24,196.16 8.79,197.4C7.31,198.67 5.83,199.95 4.39,201.35Q2.9,202.81 0,206Z" style="fill: rgb(102, 102, 102); fill-opacity: 0.3; stroke-width: 0;"/></g></g><g class="errorbars"/><g class="lines"><path class="js-line" d="M0,206Q2.9,202.81 4.39,201.35C5.83,199.95 7.31,198.67 8.79,197.4C10.24,196.16 11.71,194.99 13.18,193.83C14.64,192.69 16.11,191.59 17.58,190.51C19.04,189.44 20.5,188.4 21.97,187.38C23.43,186.37 24.89,185.38 26.36,184.4C27.82,183.43 29.29,182.47 30.76,181.53C32.22,180.59 33.68,179.67 35.15,178.75C36.61,177.84 38.08,176.93 39.55,176.04C41.01,175.15 42.47,174.28 43.94,173.41C45.4,172.54 46.86,171.68 48.33,170.83C49.79,169.98 51.26,169.13 52.73,168.29C54.19,167.45 55.65,166.63 57.12,165.81C58.58,164.99 60.05,164.18 61.52,163.37C62.98,162.56 64.45,161.77 65.91,160.97C67.37,160.18 68.83,159.39 70.3,158.6C71.76,157.82 73.23,157.03 74.7,156.26C76.16,155.49 77.63,154.72 79.09,153.96C80.55,153.2 82.01,152.44 83.48,151.68C84.94,150.93 86.41,150.18 87.88,149.43C89.34,148.69 90.8,147.95 92.27,147.21C93.73,146.47 95.2,145.74 96.67,145.01C98.13,144.28 99.6,143.56 101.06,142.83C102.52,142.1 103.98,141.37 105.45,140.65C106.91,139.93 108.38,139.22 109.85,138.5C111.31,137.79 112.78,137.07 114.24,136.36C115.71,135.65 117.17,134.94 118.64,134.23C120.1,133.52 121.57,132.82 123.03,132.12C124.49,131.42 125.96,130.73 127.42,130.04C128.89,129.35 130.35,128.65 131.82,127.96C133.28,127.27 134.75,126.58 136.21,125.9C137.68,125.21 139.14,124.53 140.61,123.85C142.07,123.17 143.54,122.5 145,121.83C146.46,121.16 147.93,120.49 149.39,119.82C150.86,119.15 152.32,118.48 153.79,117.82C155.25,117.16 156.72,116.5 158.18,115.84C159.65,115.18 161.11,114.53 162.58,113.88C164.04,113.23 165.51,112.58 166.97,111.93C168.43,111.28 169.9,110.64 171.36,110C172.83,109.36 174.29,108.71 175.76,108.07C177.22,107.43 178.69,106.79 180.15,106.15C181.62,105.51 183.08,104.88 184.55,104.25C186.01,103.62 187.48,102.99 188.94,102.36C190.4,101.73 191.87,101.1 193.33,100.48C194.8,99.86 196.26,99.24 197.73,98.62C199.19,98 200.66,97.38 202.12,96.77C203.59,96.15 205.05,95.54 206.52,94.93C207.98,94.32 209.45,93.71 210.91,93.1C212.37,92.49 213.84,91.88 215.3,91.28C216.77,90.68 218.23,90.08 219.7,89.48C221.16,88.88 222.63,88.28 224.09,87.68C225.55,87.08 227.02,86.49 228.48,85.9C229.95,85.31 231.41,84.71 232.88,84.12C234.34,83.53 235.81,82.94 237.27,82.36C238.74,81.77 240.2,81.19 241.67,80.61C243.13,80.03 244.6,79.45 246.06,78.87C247.52,78.29 248.99,77.72 250.45,77.14C251.92,76.56 253.38,75.98 254.85,75.41C256.31,74.84 257.78,74.27 259.24,73.7C260.71,73.13 262.17,72.56 263.64,71.99C265.1,71.42 266.57,70.85 268.03,70.29C269.49,69.73 270.96,69.17 272.42,68.61C273.89,68.05 275.35,67.49 276.82,66.93C278.28,66.37 279.75,65.82 281.21,65.27C282.68,64.72 284.14,64.16 285.61,63.61C287.07,63.06 288.54,62.52 290,61.97C291.46,61.42 292.93,60.87 294.39,60.33C295.86,59.78 297.32,59.24 298.79,58.7C300.25,58.16 301.72,57.61 303.18,57.07C304.65,56.53 306.11,55.98 307.58,55.44C309.04,54.9 310.51,54.37 311.97,53.83C313.43,53.29 314.9,52.75 316.36,52.21C317.83,51.67 319.29,51.15 320.76,50.61C322.22,50.08 323.69,49.53 325.15,49C326.62,48.47 328.08,47.94 329.55,47.41C331.01,46.88 332.48,46.35 333.94,45.82C335.4,45.29 336.87,44.77 338.33,44.25C339.8,43.73 341.26,43.2 342.73,42.68C344.19,42.16 345.66,41.64 347.12,41.12C348.59,40.6 350.05,40.08 351.52,39.57C352.98,39.06 354.45,38.55 355.91,38.04C357.37,37.53 358.84,37.02 360.3,36.51C361.77,36 363.23,35.5 364.7,34.99C366.16,34.49 367.63,33.98 369.09,33.48C370.55,32.98 372.02,32.49 373.48,31.99C374.95,31.49 376.41,31 377.88,30.5C379.34,30.01 380.81,29.51 382.27,29.02C383.74,28.53 385.2,28.03 386.67,27.54C388.13,27.05 389.6,26.56 391.06,26.07C392.52,25.58 393.99,25.07 395.45,24.58C396.92,24.09 398.38,23.6 399.85,23.11C401.31,22.62 402.78,22.13 404.24,21.64C405.71,21.15 407.17,20.66 408.64,20.17C410.1,19.68 411.57,19.2 413.03,18.71C414.49,18.22 415.96,17.74 417.42,17.25C418.89,16.76 420.35,16.28 421.82,15.79C423.28,15.31 424.75,14.82 426.21,14.34C427.68,13.86 429.14,13.38 430.61,12.9Q432.07,12.42 435,11.45" style="vector-effect: none; fill: none; stroke: rgb(255, 161, 90); stroke-opacity: 1; stroke-width: 0px; opacity: 1;"/></g><g class="points"/><g class="text"/></g><g class="trace scatter trace1a4dd4" style="stroke-miterlimit: 2;"><g class="fills"/><g class="errorbars"/><g class="lines"><path class="js-line" d="M0,206Q2.9,202.81 4.39,201.35C5.83,199.95 7.31,198.67 8.79,197.4C10.24,196.16 11.71,194.99 13.18,193.83C14.64,192.69 16.11,191.59 17.58,190.51C19.04,189.44 20.5,188.4 21.97,187.38C23.43,186.37 24.89,185.38 26.36,184.4C27.82,183.43 29.29,182.47 30.76,181.53C32.22,180.59 33.68,179.67 35.15,178.75C36.61,177.84 38.08,176.93 39.55,176.04C41.01,175.15 42.47,174.28 43.94,173.41C45.4,172.54 46.86,171.68 48.33,170.83C49.79,169.98 51.26,169.13 52.73,168.29C54.19,167.45 55.65,166.63 57.12,165.81C58.58,164.99 60.05,164.18 61.52,163.37C62.98,162.56 64.45,161.77 65.91,160.97C67.37,160.18 68.83,159.39 70.3,158.6C71.76,157.82 73.23,157.03 74.7,156.26C76.16,155.49 77.63,154.72 79.09,153.96C80.55,153.2 82.01,152.44 83.48,151.68C84.94,150.93 86.41,150.18 87.88,149.43C89.34,148.69 90.8,147.95 92.27,147.21C93.73,146.47 95.2,145.74 96.67,145.01C98.13,144.28 99.6,143.56 101.06,142.83C102.52,142.1 103.98,141.37 105.45,140.65C106.91,139.93 108.38,139.22 109.85,138.5C111.31,137.79 112.78,137.07 114.24,136.36C115.71,135.65 117.17,134.94 118.64,134.23C120.1,133.52 121.57,132.82 123.03,132.12C124.49,131.42 125.96,130.73 127.42,130.04C128.89,129.35 130.35,128.65 131.82,127.96C133.28,127.27 134.75,126.58 136.21,125.9C137.68,125.21 139.14,124.53 140.61,123.85C142.07,123.17 143.54,122.5 145,121.83C146.46,121.16 147.93,120.49 149.39,119.82C150.86,119.15 152.32,118.48 153.79,117.82C155.25,117.16 156.72,116.5 158.18,115.84C159.65,115.18 161.11,114.53 162.58,113.88C164.04,113.23 165.51,112.58 166.97,111.93C168.43,111.28 169.9,110.64 171.36,110C172.83,109.36 174.29,108.71 175.76,108.07C177.22,107.43 178.69,106.79 180.15,106.15C181.62,105.51 183.08,104.88 184.55,104.25C186.01,103.62 187.48,102.99 188.94,102.36C190.4,101.73 191.87,101.1 193.33,100.48C194.8,99.86 196.26,99.24 197.73,98.62C199.19,98 200.66,97.38 202.12,96.77C203.59,96.15 205.05,95.54 206.52,94.93C207.98,94.32 209.45,93.71 210.91,93.1C212.37,92.49 213.84,91.88 215.3,91.28C216.77,90.68 218.23,90.08 219.7,89.48C221.16,88.88 222.63,88.28 224.09,87.68C225.55,87.08 227.02,86.49 228.48,85.9C229.95,85.31 231.41,84.71 232.88,84.12C234.34,83.53 235.81,82.94 237.27,82.36C238.74,81.77 240.2,81.19 241.67,80.61C243.13,80.03 244.6,79.45 246.06,78.87C247.52,78.29 248.99,77.72 250.45,77.14C251.92,76.56 253.38,75.98 254.85,75.41C256.31,74.84 257.78,74.27 259.24,73.7C260.71,73.13 262.17,72.56 263.64,71.99C265.1,71.42 266.57,70.85 268.03,70.29C269.49,69.73 270.96,69.17 272.42,68.61C273.89,68.05 275.35,67.49 276.82,66.93C278.28,66.37 279.75,65.82 281.21,65.27C282.68,64.72 284.14,64.16 285.61,63.61C287.07,63.06 288.54,62.52 290,61.97C291.46,61.42 292.93,60.87 294.39,60.33C295.86,59.78 297.32,59.24 298.79,58.7C300.25,58.16 301.72,57.61 303.18,57.07C304.65,56.53 306.11,55.98 307.58,55.44C309.04,54.9 310.51,54.37 311.97,53.83C313.43,53.29 314.9,52.75 316.36,52.21C317.83,51.67 319.29,51.15 320.76,50.61C322.22,50.08 323.69,49.53 325.15,49C326.62,48.47 328.08,47.94 329.55,47.41C331.01,46.88 332.48,46.35 333.94,45.82C335.4,45.29 336.87,44.77 338.33,44.25C339.8,43.73 341.26,43.2 342.73,42.68C344.19,42.16 345.66,41.64 347.12,41.12C348.59,40.6 350.05,40.08 351.52,39.57C352.98,39.06 354.45,38.55 355.91,38.04C357.37,37.53 358.84,37.02 360.3,36.51C361.77,36 363.23,35.5 364.7,34.99C366.16,34.49 367.63,33.98 369.09,33.48C370.55,32.98 372.02,32.49 373.48,31.99C374.95,31.49 376.41,31 377.88,30.5C379.34,30.01 380.81,29.51 382.27,29.02C383.74,28.53 385.2,28.03 386.67,27.54C388.13,27.05 389.6,26.56 391.06,26.07C392.52,25.58 393.99,25.07 395.45,24.58C396.92,24.09 398.38,23.6 399.85,23.11C401.31,22.62 402.78,22.13 404.24,21.64C405.71,21.15 407.17,20.66 408.64,20.17C410.1,19.68 411.57,19.2 413.03,18.71C414.49,18.22 415.96,17.74 417.42,17.25C418.89,16.76 420.35,16.28 421.82,15.79C423.28,15.31 424.75,14.82 426.21,14.34C427.68,13.86 429.14,13.38 430.61,12.9Q432.07,12.42 435,11.45" style="vector-effect: none; fill: none; stroke: rgb(25, 211, 243); stroke-opacity: 1; stroke-width: 0px; opacity: 1;"/></g><g class="points"/><g class="text"/></g><g class="trace scatter trace5b2ce0" style="stroke-miterlimit: 2; opacity: 1;"><g class="fills"/><g class="errorbars"/><g class="lines"><path class="js-line" d="M0,217.55Q2.73,211.97 4.32,209.82C5.66,208.01 7.16,206.68 8.65,205.31C10.05,204.02 11.51,202.89 12.97,201.79C14.39,200.73 15.84,199.76 17.3,198.82C18.73,197.9 20.17,197.03 21.62,196.2C23.05,195.38 24.5,194.6 25.95,193.85C27.38,193.1 28.82,192.39 30.27,191.7C31.7,191.01 33.15,190.36 34.59,189.72C36.03,189.08 37.47,188.46 38.92,187.86C40.36,187.26 41.8,186.67 43.24,186.1C44.68,185.53 46.13,184.97 47.57,184.42C49.01,183.87 50.45,183.34 51.89,182.81C53.33,182.29 54.78,181.77 56.22,181.27C57.66,180.77 59.1,180.29 60.54,179.81C61.98,179.33 63.42,178.86 64.86,178.4C66.3,177.94 67.75,177.5 69.19,177.06C70.63,176.62 72.07,176.19 73.51,175.77C74.95,175.35 76.4,174.93 77.84,174.52C79.28,174.11 80.72,173.72 82.16,173.33C83.6,172.94 85.05,172.55 86.49,172.17C87.93,171.79 89.37,171.42 90.81,171.05C92.25,170.68 93.69,170.32 95.13,169.96C96.57,169.6 98.02,169.25 99.46,168.9C100.9,168.55 102.34,168.21 103.78,167.87C105.22,167.53 106.67,167.19 108.11,166.86C109.55,166.53 110.99,166.2 112.43,165.88C113.87,165.55 115.32,165.23 116.76,164.91C118.2,164.59 119.64,164.28 121.08,163.96C122.52,163.65 123.96,163.33 125.4,163.02C126.84,162.71 128.29,162.41 129.73,162.11C131.17,161.81 132.61,161.5 134.05,161.21C135.49,160.91 136.94,160.63 138.38,160.34C139.82,160.05 141.26,159.76 142.7,159.47C144.14,159.18 145.58,158.9 147.02,158.62C148.46,158.34 149.91,158.05 151.35,157.77C152.79,157.49 154.23,157.22 155.67,156.95C157.11,156.68 158.56,156.4 160,156.13C161.44,155.86 162.88,155.58 164.32,155.31C165.76,155.04 167.21,154.78 168.65,154.51C170.09,154.24 171.53,153.97 172.97,153.71C174.41,153.45 175.85,153.19 177.29,152.93C178.73,152.67 180.18,152.41 181.62,152.15C183.06,151.9 184.5,151.65 185.94,151.4C187.38,151.15 188.83,150.91 190.27,150.66C191.71,150.42 193.15,150.17 194.59,149.93C196.03,149.69 197.48,149.45 198.92,149.21C200.36,148.97 201.8,148.74 203.24,148.5C204.68,148.26 206.12,148.02 207.56,147.79C209,147.55 210.45,147.32 211.89,147.09C213.33,146.86 214.77,146.63 216.21,146.4C217.65,146.17 219.1,145.94 220.54,145.71C221.98,145.48 223.42,145.26 224.86,145.04C226.3,144.82 227.75,144.6 229.19,144.38C230.63,144.16 232.07,143.94 233.51,143.72C234.95,143.5 236.39,143.28 237.83,143.06C239.27,142.84 240.72,142.63 242.16,142.41C243.6,142.2 245.04,141.98 246.48,141.77C247.92,141.56 249.37,141.34 250.81,141.13C252.25,140.92 253.69,140.7 255.13,140.49C256.57,140.28 258.02,140.09 259.46,139.88C260.9,139.68 262.34,139.47 263.78,139.26C265.22,139.06 266.66,138.85 268.1,138.65C269.54,138.45 270.99,138.24 272.43,138.04C273.87,137.84 275.31,137.64 276.75,137.44C278.19,137.24 279.64,137.04 281.08,136.84C282.52,136.64 283.96,136.44 285.4,136.24C286.84,136.04 288.29,135.84 289.73,135.64C291.17,135.44 292.61,135.24 294.05,135.04C295.49,134.84 296.93,134.65 298.37,134.45C299.81,134.25 301.26,134.04 302.7,133.84C304.14,133.64 305.58,133.44 307.02,133.24C308.46,133.04 309.91,132.85 311.35,132.65C312.79,132.45 314.23,132.25 315.67,132.05C317.11,131.85 318.56,131.66 320,131.46C321.44,131.26 322.88,131.07 324.32,130.87C325.76,130.67 327.2,130.47 328.64,130.27C330.08,130.07 331.53,129.87 332.97,129.67C334.41,129.47 335.85,129.27 337.29,129.07C338.73,128.87 340.18,128.68 341.62,128.48C343.06,128.29 344.5,128.09 345.94,127.9C347.38,127.7 348.83,127.5 350.27,127.31C351.71,127.12 353.15,126.93 354.59,126.74C356.03,126.55 357.47,126.35 358.91,126.16C360.35,125.97 361.8,125.79 363.24,125.6C364.68,125.41 366.12,125.22 367.56,125.03C369,124.84 370.45,124.66 371.89,124.47C373.33,124.28 374.77,124.09 376.21,123.9C377.65,123.71 379.1,123.52 380.54,123.33C381.98,123.14 383.42,122.95 384.86,122.76C386.3,122.57 387.74,122.38 389.18,122.19C390.62,122 392.07,121.81 393.51,121.62C394.95,121.43 396.39,121.24 397.83,121.06C399.27,120.87 400.72,120.7 402.16,120.51C403.6,120.32 405.04,120.13 406.48,119.94C407.92,119.75 409.36,119.57 410.8,119.38C412.24,119.19 413.69,119 415.13,118.81C416.57,118.62 418.01,118.43 419.45,118.24C420.89,118.05 422.34,117.87 423.78,117.68Q425.22,117.49 428.1,117.12" style="vector-effect: none; fill: none; stroke: rgb(95, 70, 144); stroke-opacity: 1; stroke-width: 2px; opacity: 1;"/></g><g class="points"/><g class="text"/></g><g class="trace scatter trace91aead" style="stroke-miterlimit: 2;"><g class="fills"><g><path class="js-fill" d="M0,217.55Q2.73,211.97 4.32,209.82C5.66,208.01 7.16,206.68 8.65,205.31C10.05,204.02 11.51,202.89 12.97,201.79C14.39,200.73 15.84,199.76 17.3,198.82C18.73,197.9 20.17,197.03 21.62,196.2C23.05,195.38 24.5,194.6 25.95,193.85C27.38,193.1 28.82,192.39 30.27,191.7C31.7,191.01 33.15,190.36 34.59,189.72C36.03,189.08 37.47,188.46 38.92,187.86C40.36,187.26 41.8,186.67 43.24,186.1C44.68,185.53 46.13,184.97 47.57,184.42C49.01,183.87 50.45,183.34 51.89,182.81C53.33,182.29 54.78,181.77 56.22,181.27C57.66,180.77 59.1,180.29 60.54,179.81C61.98,179.33 63.42,178.86 64.86,178.4C66.3,177.94 67.75,177.5 69.19,177.06C70.63,176.62 72.07,176.19 73.51,175.77C74.95,175.35 76.4,174.93 77.84,174.52C79.28,174.11 80.72,173.72 82.16,173.33C83.6,172.94 85.05,172.55 86.49,172.17C87.93,171.79 89.37,171.42 90.81,171.05C92.25,170.68 93.69,170.32 95.13,169.96C96.57,169.6 98.02,169.25 99.46,168.9C100.9,168.55 102.34,168.21 103.78,167.87C105.22,167.53 106.67,167.19 108.11,166.86C109.55,166.53 110.99,166.2 112.43,165.88C113.87,165.55 115.32,165.23 116.76,164.91C118.2,164.59 119.64,164.28 121.08,163.96C122.52,163.65 123.96,163.33 125.4,163.02C126.84,162.71 128.29,162.41 129.73,162.11C131.17,161.81 132.61,161.5 134.05,161.21C135.49,160.91 136.94,160.63 138.38,160.34C139.82,160.05 141.26,159.76 142.7,159.47C144.14,159.18 145.58,158.9 147.02,158.62C148.46,158.34 149.91,158.05 151.35,157.77C152.79,157.49 154.23,157.22 155.67,156.95C157.11,156.68 158.56,156.4 160,156.13C161.44,155.86 162.88,155.58 164.32,155.31C165.76,155.04 167.21,154.78 168.65,154.51C170.09,154.24 171.53,153.97 172.97,153.71C174.41,153.45 175.85,153.19 177.29,152.93C178.73,152.67 180.18,152.41 181.62,152.15C183.06,151.9 184.5,151.65 185.94,151.4C187.38,151.15 188.83,150.91 190.27,150.66C191.71,150.42 193.15,150.17 194.59,149.93C196.03,149.69 197.48,149.45 198.92,149.21C200.36,148.97 201.8,148.74 203.24,148.5C204.68,148.26 206.12,148.02 207.56,147.79C209,147.55 210.45,147.32 211.89,147.09C213.33,146.86 214.77,146.63 216.21,146.4C217.65,146.17 219.1,145.94 220.54,145.71C221.98,145.48 223.42,145.26 224.86,145.04C226.3,144.82 227.75,144.6 229.19,144.38C230.63,144.16 232.07,143.94 233.51,143.72C234.95,143.5 236.39,143.28 237.83,143.06C239.27,142.84 240.72,142.63 242.16,142.41C243.6,142.2 245.04,141.98 246.48,141.77C247.92,141.56 249.37,141.34 250.81,141.13C252.25,140.92 253.69,140.7 255.13,140.49C256.57,140.28 258.02,140.09 259.46,139.88C260.9,139.68 262.34,139.47 263.78,139.26C265.22,139.06 266.66,138.85 268.1,138.65C269.54,138.45 270.99,138.24 272.43,138.04C273.87,137.84 275.31,137.64 276.75,137.44C278.19,137.24 279.64,137.04 281.08,136.84C282.52,136.64 283.96,136.44 285.4,136.24C286.84,136.04 288.29,135.84 289.73,135.64C291.17,135.44 292.61,135.24 294.05,135.04C295.49,134.84 296.93,134.65 298.37,134.45C299.81,134.25 301.26,134.04 302.7,133.84C304.14,133.64 305.58,133.44 307.02,133.24C308.46,133.04 309.91,132.85 311.35,132.65C312.79,132.45 314.23,132.25 315.67,132.05C317.11,131.85 318.56,131.66 320,131.46C321.44,131.26 322.88,131.07 324.32,130.87C325.76,130.67 327.2,130.47 328.64,130.27C330.08,130.07 331.53,129.87 332.97,129.67C334.41,129.47 335.85,129.27 337.29,129.07C338.73,128.87 340.18,128.68 341.62,128.48C343.06,128.29 344.5,128.09 345.94,127.9C347.38,127.7 348.83,127.5 350.27,127.31C351.71,127.12 353.15,126.93 354.59,126.74C356.03,126.55 357.47,126.35 358.91,126.16C360.35,125.97 361.8,125.79 363.24,125.6C364.68,125.41 366.12,125.22 367.56,125.03C369,124.84 370.45,124.66 371.89,124.47C373.33,124.28 374.77,124.09 376.21,123.9C377.65,123.71 379.1,123.52 380.54,123.33C381.98,123.14 383.42,122.95 384.86,122.76C386.3,122.57 387.74,122.38 389.18,122.19C390.62,122 392.07,121.81 393.51,121.62C394.95,121.43 396.39,121.24 397.83,121.06C399.27,120.87 400.72,120.7 402.16,120.51C403.6,120.32 405.04,120.13 406.48,119.94C407.92,119.75 409.36,119.57 410.8,119.38C412.24,119.19 413.69,119 415.13,118.81C416.57,118.62 418.01,118.43 419.45,118.24C420.89,118.05 422.34,117.87 423.78,117.68Q425.22,117.49 428.1,117.12L428.1,117.12Q425.22,117.49 423.78,117.68C422.34,117.87 420.89,118.05 419.45,118.24C418.01,118.43 416.57,118.62 415.13,118.81C413.69,119 412.24,119.19 410.8,119.38C409.36,119.57 407.92,119.75 406.48,119.94C405.04,120.13 403.6,120.32 402.16,120.51C400.72,120.7 399.27,120.87 397.83,121.06C396.39,121.24 394.95,121.43 393.51,121.62C392.07,121.81 390.62,122 389.18,122.19C387.74,122.38 386.3,122.57 384.86,122.76C383.42,122.95 381.98,123.14 380.54,123.33C379.1,123.52 377.65,123.71 376.21,123.9C374.77,124.09 373.33,124.28 371.89,124.47C370.45,124.66 369,124.84 367.56,125.03C366.12,125.22 364.68,125.41 363.24,125.6C361.8,125.79 360.35,125.97 358.91,126.16C357.47,126.35 356.03,126.55 354.59,126.74C353.15,126.93 351.71,127.12 350.27,127.31C348.83,127.5 347.38,127.7 345.94,127.9C344.5,128.09 343.06,128.29 341.62,128.48C340.18,128.68 338.73,128.87 337.29,129.07C335.85,129.27 334.41,129.47 332.97,129.67C331.53,129.87 330.08,130.07 328.64,130.27C327.2,130.47 325.76,130.67 324.32,130.87C322.88,131.07 321.44,131.26 320,131.46C318.56,131.66 317.11,131.85 315.67,132.05C314.23,132.25 312.79,132.45 311.35,132.65C309.91,132.85 308.46,133.04 307.02,133.24C305.58,133.44 304.14,133.64 302.7,133.84C301.26,134.04 299.81,134.25 298.37,134.45C296.93,134.65 295.49,134.84 294.05,135.04C292.61,135.24 291.17,135.44 289.73,135.64C288.29,135.84 286.84,136.04 285.4,136.24C283.96,136.44 282.52,136.64 281.08,136.84C279.64,137.04 278.19,137.24 276.75,137.44C275.31,137.64 273.87,137.84 272.43,138.04C270.99,138.24 269.54,138.45 268.1,138.65C266.66,138.85 265.22,139.06 263.78,139.26C262.34,139.47 260.9,139.68 259.46,139.88C258.02,140.09 256.57,140.28 255.13,140.49C253.69,140.7 252.25,140.92 250.81,141.13C249.37,141.34 247.92,141.56 246.48,141.77C245.04,141.98 243.6,142.2 242.16,142.41C240.72,142.63 239.27,142.84 237.83,143.06C236.39,143.28 234.95,143.5 233.51,143.72C232.07,143.94 230.63,144.16 229.19,144.38C227.75,144.6 226.3,144.82 224.86,145.04C223.42,145.26 221.98,145.48 220.54,145.71C219.1,145.94 217.65,146.17 216.21,146.4C214.77,146.63 213.33,146.86 211.89,147.09C210.45,147.32 209,147.55 207.56,147.79C206.12,148.02 204.68,148.26 203.24,148.5C201.8,148.74 200.36,148.97 198.92,149.21C197.48,149.45 196.03,149.69 194.59,149.93C193.15,150.17 191.71,150.42 190.27,150.66C188.83,150.91 187.38,151.15 185.94,151.4C184.5,151.65 183.06,151.9 181.62,152.15C180.18,152.41 178.73,152.67 177.29,152.93C175.85,153.19 174.41,153.45 172.97,153.71C171.53,153.97 170.09,154.24 168.65,154.51C167.21,154.78 165.76,155.04 164.32,155.31C162.88,155.58 161.44,155.86 160,156.13C158.56,156.4 157.11,156.68 155.67,156.95C154.23,157.22 152.79,157.49 151.35,157.77C149.91,158.05 148.46,158.34 147.02,158.62C145.58,158.9 144.14,159.18 142.7,159.47C141.26,159.76 139.82,160.05 138.38,160.34C136.94,160.63 135.49,160.91 134.05,161.21C132.61,161.5 131.17,161.81 129.73,162.11C128.29,162.41 126.84,162.71 125.4,163.02C123.96,163.33 122.52,163.65 121.08,163.96C119.64,164.28 118.2,164.59 116.76,164.91C115.32,165.23 113.87,165.55 112.43,165.88C110.99,166.2 109.55,166.53 108.11,166.86C106.67,167.19 105.22,167.53 103.78,167.87C102.34,168.21 100.9,168.55 99.46,168.9C98.02,169.25 96.57,169.6 95.13,169.96C93.69,170.32 92.25,170.68 90.81,171.05C89.37,171.42 87.93,171.79 86.49,172.17C85.05,172.55 83.6,172.94 82.16,173.33C80.72,173.72 79.28,174.11 77.84,174.52C76.4,174.93 74.95,175.35 73.51,175.77C72.07,176.19 70.63,176.62 69.19,177.06C67.75,177.5 66.3,177.94 64.86,178.4C63.42,178.86 61.98,179.33 60.54,179.81C59.1,180.29 57.66,180.77 56.22,181.27C54.78,181.77 53.33,182.29 51.89,182.81C50.45,183.34 49.01,183.87 47.57,184.42C46.13,184.97 44.68,185.53 43.24,186.1C41.8,186.67 40.36,187.26 38.92,187.86C37.47,188.46 36.03,189.08 34.59,189.72C33.15,190.36 31.7,191.01 30.27,191.7C28.82,192.39 27.38,193.1 25.95,193.85C24.5,194.6 23.05,195.38 21.62,196.2C20.17,197.03 18.73,197.9 17.3,198.82C15.84,199.76 14.39,200.73 12.97,201.79C11.51,202.89 10.05,204.02 8.65,205.31C7.16,206.68 5.66,208.01 4.32,209.82Q2.73,211.97 0,217.55Z" style="fill: rgb(95, 70, 144); fill-opacity: 0.3; stroke-width: 0;"/></g></g><g class="errorbars"/><g class="lines"><path class="js-line" d="M0,217.55Q2.73,211.97 4.32,209.82C5.66,208.01 7.16,206.68 8.65,205.31C10.05,204.02 11.51,202.89 12.97,201.79C14.39,200.73 15.84,199.76 17.3,198.82C18.73,197.9 20.17,197.03 21.62,196.2C23.05,195.38 24.5,194.6 25.95,193.85C27.38,193.1 28.82,192.39 30.27,191.7C31.7,191.01 33.15,190.36 34.59,189.72C36.03,189.08 37.47,188.46 38.92,187.86C40.36,187.26 41.8,186.67 43.24,186.1C44.68,185.53 46.13,184.97 47.57,184.42C49.01,183.87 50.45,183.34 51.89,182.81C53.33,182.29 54.78,181.77 56.22,181.27C57.66,180.77 59.1,180.29 60.54,179.81C61.98,179.33 63.42,178.86 64.86,178.4C66.3,177.94 67.75,177.5 69.19,177.06C70.63,176.62 72.07,176.19 73.51,175.77C74.95,175.35 76.4,174.93 77.84,174.52C79.28,174.11 80.72,173.72 82.16,173.33C83.6,172.94 85.05,172.55 86.49,172.17C87.93,171.79 89.37,171.42 90.81,171.05C92.25,170.68 93.69,170.32 95.13,169.96C96.57,169.6 98.02,169.25 99.46,168.9C100.9,168.55 102.34,168.21 103.78,167.87C105.22,167.53 106.67,167.19 108.11,166.86C109.55,166.53 110.99,166.2 112.43,165.88C113.87,165.55 115.32,165.23 116.76,164.91C118.2,164.59 119.64,164.28 121.08,163.96C122.52,163.65 123.96,163.33 125.4,163.02C126.84,162.71 128.29,162.41 129.73,162.11C131.17,161.81 132.61,161.5 134.05,161.21C135.49,160.91 136.94,160.63 138.38,160.34C139.82,160.05 141.26,159.76 142.7,159.47C144.14,159.18 145.58,158.9 147.02,158.62C148.46,158.34 149.91,158.05 151.35,157.77C152.79,157.49 154.23,157.22 155.67,156.95C157.11,156.68 158.56,156.4 160,156.13C161.44,155.86 162.88,155.58 164.32,155.31C165.76,155.04 167.21,154.78 168.65,154.51C170.09,154.24 171.53,153.97 172.97,153.71C174.41,153.45 175.85,153.19 177.29,152.93C178.73,152.67 180.18,152.41 181.62,152.15C183.06,151.9 184.5,151.65 185.94,151.4C187.38,151.15 188.83,150.91 190.27,150.66C191.71,150.42 193.15,150.17 194.59,149.93C196.03,149.69 197.48,149.45 198.92,149.21C200.36,148.97 201.8,148.74 203.24,148.5C204.68,148.26 206.12,148.02 207.56,147.79C209,147.55 210.45,147.32 211.89,147.09C213.33,146.86 214.77,146.63 216.21,146.4C217.65,146.17 219.1,145.94 220.54,145.71C221.98,145.48 223.42,145.26 224.86,145.04C226.3,144.82 227.75,144.6 229.19,144.38C230.63,144.16 232.07,143.94 233.51,143.72C234.95,143.5 236.39,143.28 237.83,143.06C239.27,142.84 240.72,142.63 242.16,142.41C243.6,142.2 245.04,141.98 246.48,141.77C247.92,141.56 249.37,141.34 250.81,141.13C252.25,140.92 253.69,140.7 255.13,140.49C256.57,140.28 258.02,140.09 259.46,139.88C260.9,139.68 262.34,139.47 263.78,139.26C265.22,139.06 266.66,138.85 268.1,138.65C269.54,138.45 270.99,138.24 272.43,138.04C273.87,137.84 275.31,137.64 276.75,137.44C278.19,137.24 279.64,137.04 281.08,136.84C282.52,136.64 283.96,136.44 285.4,136.24C286.84,136.04 288.29,135.84 289.73,135.64C291.17,135.44 292.61,135.24 294.05,135.04C295.49,134.84 296.93,134.65 298.37,134.45C299.81,134.25 301.26,134.04 302.7,133.84C304.14,133.64 305.58,133.44 307.02,133.24C308.46,133.04 309.91,132.85 311.35,132.65C312.79,132.45 314.23,132.25 315.67,132.05C317.11,131.85 318.56,131.66 320,131.46C321.44,131.26 322.88,131.07 324.32,130.87C325.76,130.67 327.2,130.47 328.64,130.27C330.08,130.07 331.53,129.87 332.97,129.67C334.41,129.47 335.85,129.27 337.29,129.07C338.73,128.87 340.18,128.68 341.62,128.48C343.06,128.29 344.5,128.09 345.94,127.9C347.38,127.7 348.83,127.5 350.27,127.31C351.71,127.12 353.15,126.93 354.59,126.74C356.03,126.55 357.47,126.35 358.91,126.16C360.35,125.97 361.8,125.79 363.24,125.6C364.68,125.41 366.12,125.22 367.56,125.03C369,124.84 370.45,124.66 371.89,124.47C373.33,124.28 374.77,124.09 376.21,123.9C377.65,123.71 379.1,123.52 380.54,123.33C381.98,123.14 383.42,122.95 384.86,122.76C386.3,122.57 387.74,122.38 389.18,122.19C390.62,122 392.07,121.81 393.51,121.62C394.95,121.43 396.39,121.24 397.83,121.06C399.27,120.87 400.72,120.7 402.16,120.51C403.6,120.32 405.04,120.13 406.48,119.94C407.92,119.75 409.36,119.57 410.8,119.38C412.24,119.19 413.69,119 415.13,118.81C416.57,118.62 418.01,118.43 419.45,118.24C420.89,118.05 422.34,117.87 423.78,117.68Q425.22,117.49 428.1,117.12" style="vector-effect: none; fill: none; stroke: rgb(182, 232, 128); stroke-opacity: 1; stroke-width: 0px; opacity: 1;"/></g><g class="points"/><g class="text"/></g><g class="trace scatter trace23c7f1" style="stroke-miterlimit: 2;"><g class="fills"/><g class="errorbars"/><g class="lines"><path class="js-line" d="M0,217.55Q2.73,211.97 4.32,209.82C5.66,208.01 7.16,206.68 8.65,205.31C10.05,204.02 11.51,202.89 12.97,201.79C14.39,200.73 15.84,199.76 17.3,198.82C18.73,197.9 20.17,197.03 21.62,196.2C23.05,195.38 24.5,194.6 25.95,193.85C27.38,193.1 28.82,192.39 30.27,191.7C31.7,191.01 33.15,190.36 34.59,189.72C36.03,189.08 37.47,188.46 38.92,187.86C40.36,187.26 41.8,186.67 43.24,186.1C44.68,185.53 46.13,184.97 47.57,184.42C49.01,183.87 50.45,183.34 51.89,182.81C53.33,182.29 54.78,181.77 56.22,181.27C57.66,180.77 59.1,180.29 60.54,179.81C61.98,179.33 63.42,178.86 64.86,178.4C66.3,177.94 67.75,177.5 69.19,177.06C70.63,176.62 72.07,176.19 73.51,175.77C74.95,175.35 76.4,174.93 77.84,174.52C79.28,174.11 80.72,173.72 82.16,173.33C83.6,172.94 85.05,172.55 86.49,172.17C87.93,171.79 89.37,171.42 90.81,171.05C92.25,170.68 93.69,170.32 95.13,169.96C96.57,169.6 98.02,169.25 99.46,168.9C100.9,168.55 102.34,168.21 103.78,167.87C105.22,167.53 106.67,167.19 108.11,166.86C109.55,166.53 110.99,166.2 112.43,165.88C113.87,165.55 115.32,165.23 116.76,164.91C118.2,164.59 119.64,164.28 121.08,163.96C122.52,163.65 123.96,163.33 125.4,163.02C126.84,162.71 128.29,162.41 129.73,162.11C131.17,161.81 132.61,161.5 134.05,161.21C135.49,160.91 136.94,160.63 138.38,160.34C139.82,160.05 141.26,159.76 142.7,159.47C144.14,159.18 145.58,158.9 147.02,158.62C148.46,158.34 149.91,158.05 151.35,157.77C152.79,157.49 154.23,157.22 155.67,156.95C157.11,156.68 158.56,156.4 160,156.13C161.44,155.86 162.88,155.58 164.32,155.31C165.76,155.04 167.21,154.78 168.65,154.51C170.09,154.24 171.53,153.97 172.97,153.71C174.41,153.45 175.85,153.19 177.29,152.93C178.73,152.67 180.18,152.41 181.62,152.15C183.06,151.9 184.5,151.65 185.94,151.4C187.38,151.15 188.83,150.91 190.27,150.66C191.71,150.42 193.15,150.17 194.59,149.93C196.03,149.69 197.48,149.45 198.92,149.21C200.36,148.97 201.8,148.74 203.24,148.5C204.68,148.26 206.12,148.02 207.56,147.79C209,147.55 210.45,147.32 211.89,147.09C213.33,146.86 214.77,146.63 216.21,146.4C217.65,146.17 219.1,145.94 220.54,145.71C221.98,145.48 223.42,145.26 224.86,145.04C226.3,144.82 227.75,144.6 229.19,144.38C230.63,144.16 232.07,143.94 233.51,143.72C234.95,143.5 236.39,143.28 237.83,143.06C239.27,142.84 240.72,142.63 242.16,142.41C243.6,142.2 245.04,141.98 246.48,141.77C247.92,141.56 249.37,141.34 250.81,141.13C252.25,140.92 253.69,140.7 255.13,140.49C256.57,140.28 258.02,140.09 259.46,139.88C260.9,139.68 262.34,139.47 263.78,139.26C265.22,139.06 266.66,138.85 268.1,138.65C269.54,138.45 270.99,138.24 272.43,138.04C273.87,137.84 275.31,137.64 276.75,137.44C278.19,137.24 279.64,137.04 281.08,136.84C282.52,136.64 283.96,136.44 285.4,136.24C286.84,136.04 288.29,135.84 289.73,135.64C291.17,135.44 292.61,135.24 294.05,135.04C295.49,134.84 296.93,134.65 298.37,134.45C299.81,134.25 301.26,134.04 302.7,133.84C304.14,133.64 305.58,133.44 307.02,133.24C308.46,133.04 309.91,132.85 311.35,132.65C312.79,132.45 314.23,132.25 315.67,132.05C317.11,131.85 318.56,131.66 320,131.46C321.44,131.26 322.88,131.07 324.32,130.87C325.76,130.67 327.2,130.47 328.64,130.27C330.08,130.07 331.53,129.87 332.97,129.67C334.41,129.47 335.85,129.27 337.29,129.07C338.73,128.87 340.18,128.68 341.62,128.48C343.06,128.29 344.5,128.09 345.94,127.9C347.38,127.7 348.83,127.5 350.27,127.31C351.71,127.12 353.15,126.93 354.59,126.74C356.03,126.55 357.47,126.35 358.91,126.16C360.35,125.97 361.8,125.79 363.24,125.6C364.68,125.41 366.12,125.22 367.56,125.03C369,124.84 370.45,124.66 371.89,124.47C373.33,124.28 374.77,124.09 376.21,123.9C377.65,123.71 379.1,123.52 380.54,123.33C381.98,123.14 383.42,122.95 384.86,122.76C386.3,122.57 387.74,122.38 389.18,122.19C390.62,122 392.07,121.81 393.51,121.62C394.95,121.43 396.39,121.24 397.83,121.06C399.27,120.87 400.72,120.7 402.16,120.51C403.6,120.32 405.04,120.13 406.48,119.94C407.92,119.75 409.36,119.57 410.8,119.38C412.24,119.19 413.69,119 415.13,118.81C416.57,118.62 418.01,118.43 419.45,118.24C420.89,118.05 422.34,117.87 423.78,117.68Q425.22,117.49 428.1,117.12" style="vector-effect: none; fill: none; stroke: rgb(255, 151, 255); stroke-opacity: 1; stroke-width: 0px; opacity: 1;"/></g><g class="points"/><g class="text"/></g><g class="trace scatter tracea50347" style="stroke-miterlimit: 2; opacity: 1;"><g class="fills"/><g class="errorbars"/><g class="lines"/><g class="points"/><g class="text"/></g><g class="trace scatter tracef0e669" style="stroke-miterlimit: 2; opacity: 1;"><g class="fills"/><g class="errorbars"/><g class="lines"/><g class="points"/><g class="text"/></g><g class="trace scatter trace31efe2" style="stroke-miterlimit: 2; opacity: 1;"><g class="fills"/><g class="errorbars"/><g class="lines"/><g class="points"/><g class="text"/></g><g class="trace scatter trace730999" style="stroke-miterlimit: 2; opacity: 1;"><g class="fills"/><g class="errorbars"/><g class="lines"/><g class="points"/><g class="text"/></g><g class="trace scatter trace020acb" style="stroke-miterlimit: 2; opacity: 1;"><g class="fills"/><g class="errorbars"/><g class="lines"/><g class="points"/><g class="text"/></g><g class="trace scatter trace088ece" style="stroke-miterlimit: 2; opacity: 1;"><g class="fills"/><g class="errorbars"/><g class="lines"/><g class="points"/><g class="text"/></g></g></g><g class="overplot"/><path class="xlines-above crisp" d="M64,237.5H500" style="fill: none; stroke-width: 1px; stroke: rgb(0, 0, 0); stroke-opacity: 0.3;"/><path class="ylines-above crisp" d="M64.5,8V237" style="fill: none; stroke-width: 1px; stroke: rgb(0, 0, 0); stroke-opacity: 0.3;"/><g class="overlines-above"/><g class="xaxislayer-above"><g class="xtick"><text text-anchor="middle" x="0" y="262" transform="translate(65,0)" style="font-family: 'Open Sans', verdana, arial, sans-serif; font-size: 20px; fill: rgb(42, 63, 95); fill-opacity: 1; white-space: pre; opacity: 1;">0</text></g><g class="xtick"><text text-anchor="middle" x="0" y="262" style="font-family: 'Open Sans', verdana, arial, sans-serif; font-size: 20px; fill: rgb(42, 63, 95); fill-opacity: 1; white-space: pre; opacity: 1;" transform="translate(149.29000000000002,0)">1</text></g><g class="xtick"><text text-anchor="middle" x="0" y="262" style="font-family: 'Open Sans', verdana, arial, sans-serif; font-size: 20px; fill: rgb(42, 63, 95); fill-opacity: 1; white-space: pre; opacity: 1;" transform="translate(233.58,0)">2</text></g><g class="xtick"><text text-anchor="middle" x="0" y="262" style="font-family: 'Open Sans', verdana, arial, sans-serif; font-size: 20px; fill: rgb(42, 63, 95); fill-opacity: 1; white-space: pre; opacity: 1;" transform="translate(317.86,0)">3</text></g><g class="xtick"><text text-anchor="middle" x="0" y="262" style="font-family: 'Open Sans', verdana, arial, sans-serif; font-size: 20px; fill: rgb(42, 63, 95); fill-opacity: 1; white-space: pre; opacity: 1;" transform="translate(402.15,0)">4</text></g><g class="xtick"><text text-anchor="middle" x="0" y="262" style="font-family: 'Open Sans', verdana, arial, sans-serif; font-size: 20px; fill: rgb(42, 63, 95); fill-opacity: 1; white-space: pre; opacity: 1;" transform="translate(486.44,0)">5</text></g></g><g class="yaxislayer-above"><g class="ytick"><text text-anchor="end" x="60" y="7" transform="translate(0,231.05)" style="font-family: 'Open Sans', verdana, arial, sans-serif; font-size: 20px; fill: rgb(42, 63, 95); fill-opacity: 1; white-space: pre; opacity: 1;">0</text></g><g class="ytick"><text text-anchor="end" x="60" y="7" style="font-family: 'Open Sans', verdana, arial, sans-serif; font-size: 20px; fill: rgb(42, 63, 95); fill-opacity: 1; white-space: pre; opacity: 1;" transform="translate(0,176.77)">0.1</text></g><g class="ytick"><text text-anchor="end" x="60" y="7" style="font-family: 'Open Sans', verdana, arial, sans-serif; font-size: 20px; fill: rgb(42, 63, 95); fill-opacity: 1; white-space: pre; opacity: 1;" transform="translate(0,122.49)">0.2</text></g><g class="ytick"><text text-anchor="end" x="60" y="7" style="font-family: 'Open Sans', verdana, arial, sans-serif; font-size: 20px; fill: rgb(42, 63, 95); fill-opacity: 1; white-space: pre; opacity: 1;" transform="translate(0,68.21000000000001)">0.3</text></g><g class="ytick"><text text-anchor="end" x="60" y="7" style="font-family: 'Open Sans', verdana, arial, sans-serif; font-size: 20px; fill: rgb(42, 63, 95); fill-opacity: 1; white-space: pre; opacity: 0;" transform="translate(0,13.940000000000001)">0.4</text></g></g><g class="overaxes-above"/></g></g><g class="polarlayer"/><g class="smithlayer"/><g class="ternarylayer"/><g class="geolayer"/><g class="funnelarealayer"/><g class="pielayer"/><g class="iciclelayer"/><g class="treemaplayer"/><g class="sunburstlayer"/><g class="glimages"/><defs id="topdefs-ec0568"><g class="clips"/><clipPath id="legendec0568"><rect width="117" height="216" x="0" y="0"/></clipPath></defs><g class="layer-above"><g class="imagelayer"/><g class="shapelayer"/></g><g class="infolayer"><g class="legend" pointer-events="all" transform="translate(383,8)"><rect class="bg" shape-rendering="crispEdges" style="stroke: rgb(68, 68, 68); stroke-opacity: 1; fill: rgb(255, 255, 255); fill-opacity: 1; stroke-width: 0px;" width="117" height="216" x="0" y="0"/><g class="scrollbox" transform="" clip-path="url(#legendec0568)"><g class="groups" transform=""><g class="traces" transform="translate(0,22.1)" style="opacity: 1;"><text class="legendtext" text-anchor="start" x="40" y="9.360000000000001" style="font-family: 'Open Sans', verdana, arial, sans-serif; font-size: 24px; fill: rgb(42, 63, 95); fill-opacity: 1; white-space: pre;">Model</text><g class="layers" style="opacity: 1;"><g class="legendfill"/><g class="legendlines"><path class="js-line" d="M5,0h30" style="fill: none; stroke: rgb(255, 255, 255); stroke-opacity: 0; stroke-width: 2px;"/></g><g class="legendsymbols"><g class="legendpoints"/></g></g><rect class="legendtoggle" x="0" y="-17.1" width="111.203125" height="34.2" style="fill: rgb(0, 0, 0); fill-opacity: 0;"/></g><g class="traces" transform="translate(0,56.300000000000004)" style="opacity: 1;"><text class="legendtext" text-anchor="start" x="40" y="9.360000000000001" style="font-family: 'Open Sans', verdana, arial, sans-serif; font-size: 24px; fill: rgb(42, 63, 95); fill-opacity: 1; white-space: pre;">DAE</text><g class="layers" style="opacity: 1;"><g class="legendfill"/><g class="legendlines"><path class="js-line" d="M5,0h30" style="fill: none; stroke: rgb(0, 0, 0); stroke-opacity: 1; stroke-dasharray: 9px, 9px; stroke-width: 2px;"/></g><g class="legendsymbols"><g class="legendpoints"/></g></g><rect class="legendtoggle" x="0" y="-17.1" width="111.203125" height="34.2" style="fill: rgb(0, 0, 0); fill-opacity: 0;"/></g><g class="traces" transform="translate(0,90.5)" style="opacity: 1;"><text class="legendtext" text-anchor="start" x="40" y="9.360000000000001" style="font-family: 'Open Sans', verdana, arial, sans-serif; font-size: 24px; fill: rgb(42, 63, 95); fill-opacity: 1; white-space: pre;">E-DAE</text><g class="layers" style="opacity: 1;"><g class="legendfill"/><g class="legendlines"><path class="js-line" d="M5,0h30" style="fill: none; stroke: rgb(0, 0, 0); stroke-opacity: 1; stroke-width: 2px;"/></g><g class="legendsymbols"><g class="legendpoints"/></g></g><rect class="legendtoggle" x="0" y="-17.1" width="111.203125" height="34.2" style="fill: rgb(0, 0, 0); fill-opacity: 0;"/></g><g class="traces" transform="translate(0,124.70000000000002)" style="opacity: 1;"><text class="legendtext" text-anchor="start" x="40" y="9.360000000000001" style="font-family: 'Open Sans', verdana, arial, sans-serif; font-size: 24px; fill: rgb(42, 63, 95); fill-opacity: 1; white-space: pre;">Group</text><g class="layers" style="opacity: 1;"><g class="legendfill"/><g class="legendlines"><path class="js-line" d="M5,0h30" style="fill: none; stroke: rgb(255, 255, 255); stroke-opacity: 0; stroke-width: 2px;"/></g><g class="legendsymbols"><g class="legendpoints"/></g></g><rect class="legendtoggle" x="0" y="-17.1" width="111.203125" height="34.2" style="fill: rgb(0, 0, 0); fill-opacity: 0;"/></g><g class="traces" transform="translate(0,158.9)" style="opacity: 1;"><text class="legendtext" text-anchor="start" x="40" y="9.360000000000001" style="font-family: 'Open Sans', verdana, arial, sans-serif; font-size: 24px; fill: rgb(42, 63, 95); fill-opacity: 1; white-space: pre;">C5</text><g class="layers" style="opacity: 1;"><g class="legendfill"/><g class="legendlines"><path class="js-line" d="M5,0h30" style="fill: none; stroke: rgb(102, 102, 102); stroke-opacity: 1; stroke-width: 2px;"/></g><g class="legendsymbols"><g class="legendpoints"/></g></g><rect class="legendtoggle" x="0" y="-17.1" width="111.203125" height="34.2" style="fill: rgb(0, 0, 0); fill-opacity: 0;"/></g><g class="traces" transform="translate(0,193.1)" style="opacity: 1;"><text class="legendtext" text-anchor="start" x="40" y="9.360000000000001" style="font-family: 'Open Sans', verdana, arial, sans-serif; font-size: 24px; fill: rgb(42, 63, 95); fill-opacity: 1; white-space: pre;">C10</text><g class="layers" style="opacity: 1;"><g class="legendfill"/><g class="legendlines"><path class="js-line" d="M5,0h30" style="fill: none; stroke: rgb(95, 70, 144); stroke-opacity: 1; stroke-width: 2px;"/></g><g class="legendsymbols"><g class="legendpoints"/></g></g><rect class="legendtoggle" x="0" y="-17.1" width="111.203125" height="34.2" style="fill: rgb(0, 0, 0); fill-opacity: 0;"/></g></g></g><rect class="scrollbar" rx="20" ry="3" width="0" height="0" style="fill: rgb(128, 139, 164); fill-opacity: 1;" x="0" y="0"/></g><g class="g-gtitle"/><g class="g-xtitle" transform="translate(0,-6.300000000000011)"><text class="xtitle" x="282.5" y="299.3" text-anchor="middle" style="font-family: 'Open Sans', verdana, arial, sans-serif; font-size: 24px; fill: rgb(42, 63, 95); opacity: 1; font-weight: normal; white-space: pre;">Prediction horizon [s]</text></g><g class="g-ytitle" transform="translate(25.5029296875,0)"><text class="ytitle" transform="rotate(-90,0.49687500000000284,122.5)" x="0.49687500000000284" y="122.5" text-anchor="middle" style="font-family: 'Open Sans', verdana, arial, sans-serif; font-size: 24px; fill: rgb(42, 63, 95); opacity: 1; font-weight: normal; white-space: pre;">state prediction MSE</text></g></g></svg>