<svg class="main-svg" xmlns="http://www.w3.org/2000/svg" xmlns:xlink="http://www.w3.org/1999/xlink" width="500" height="400" style="" viewBox="0 0 500 400"><rect x="0" y="0" width="500" height="400" style="fill: rgb(255, 255, 255); fill-opacity: 1;"/><defs id="defs-b9db91"><g class="clips"><clipPath id="clipb9db91xyplot" class="plotclip"><rect width="404" height="334"/></clipPath><clipPath class="axesclip" id="clipb9db91x"><rect x="79" y="0" width="404" height="400"/></clipPath><clipPath class="axesclip" id="clipb9db91y"><rect x="0" y="0" width="500" height="334"/></clipPath><clipPath class="axesclip" id="clipb9db91xy"><rect x="79" y="0" width="404" height="334"/></clipPath></g><g class="gradients"/><g class="patterns"/></defs><g class="bglayer"/><g class="layer-below"><g class="imagelayer"/><g class="shapelayer"/></g><g class="cartesianlayer"><g class="subplot xy"><g class="layer-subplot"><g class="shapelayer"/><g class="imagelayer"/></g><g class="minor-gridlayer"><g class="x"/><g class="y"/></g><g class="gridlayer"><g class="x"><path class="xgrid crisp" transform="translate(123.89,0)" d="M0,0v334" style="stroke: rgb(0, 0, 0); stroke-opacity: 0.1; stroke-width: 1px;"/><path class="xgrid crisp" transform="translate(213.67,0)" d="M0,0v334" style="stroke: rgb(0, 0, 0); stroke-opacity: 0.1; stroke-width: 1px;"/><path class="xgrid crisp" transform="translate(303.44,0)" d="M0,0v334" style="stroke: rgb(0, 0, 0); stroke-opacity: 0.1; stroke-width: 1px;"/><path class="xgrid crisp" transform="translate(393.22,0)" d="M0,0v334" style="stroke: rgb(0, 0, 0); stroke-opacity: 0.1; stroke-width: 1px;"/></g><g class="y"><path class="ygrid crisp" transform="translate(0,320.42)" d="M79,0h404" style="stroke: rgb(0, 0, 0); stroke-opacity: 0.1; stroke-width: 1px;"/><path class="ygrid crisp" transform="translate(0,250.08)" d="M79,0h404" style="stroke: rgb(0, 0, 0); stroke-opacity: 0.1; stroke-width: 1px;"/><path class="ygrid crisp" transform="translate(0,179.74)" d="M79,0h404" style="stroke: rgb(0, 0, 0); stroke-opacity: 0.1; stroke-width: 1px;"/><path class="ygrid crisp" transform="translate(0,109.4)" d="M79,0h404" style="stroke: rgb(0, 0, 0); stroke-opacity: 0.1; stroke-width: 1px;"/><path class="ygrid crisp" transform="translate(0,39.06)" d="M79,0h404" style="stroke: rgb(0, 0, 0); stroke-opacity: 0.1; stroke-width: 1px;"/></g></g><g class="zerolinelayer"/><path class="xlines-below"/><path class="ylines-below"/><g class="overlines-below"/><g class="xaxislayer-below"/><g class="yaxislayer-below"/><g class="overaxes-below"/><g class="plot" transform="translate(79,0)" clip-path="url(#clipb9db91xyplot)"><g class="scatterlayer mlayer"><g class="trace scatter tracec1ec28" style="stroke-miterlimit: 2; opacity: 1;"><g class="fills"/><g class="errorbars"/><g class="lines"><path class="js-line" d="M404,84.48Q308.39,96.66 269.33,112.84C234.86,127.11 209.58,152.22 179.56,171.37C149.73,190.41 120.99,220.22 89.78,227.42Q60.95,234.07 0,218.01" style="vector-effect: none; fill: none; stroke: rgb(95, 70, 144); stroke-opacity: 1; stroke-dasharray: 9px, 9px; stroke-width: 3px; opacity: 1;"/></g><g class="points"/><g class="text"/></g><g class="trace scatter traceb3dbad" style="stroke-miterlimit: 2;"><g class="fills"><g><path class="js-fill" d="M404,79.53Q308.4,93.22 269.33,109.72C234.89,124.26 209.85,150.24 179.56,168.35C149.98,186.04 120.7,211.18 89.78,217.33Q60.73,223.11 0,207.69L0,227.35Q61.03,240.63 89.78,233.17C121.1,225.04 149.64,194.63 179.56,175.32C209.49,156 234.86,131.23 269.33,117.28Q308.39,101.47 404,90.62Z" style="fill: rgb(95, 70, 144); fill-opacity: 0.3; stroke-width: 0;"/></g></g><g class="errorbars"/><g class="lines"><path class="js-line" d="M404,90.62Q308.39,101.47 269.33,117.28C234.86,131.23 209.49,156 179.56,175.32C149.64,194.63 121.1,225.04 89.78,233.17Q61.03,240.63 0,227.35" style="vector-effect: none; fill: none; stroke: rgb(239, 85, 59); stroke-opacity: 1; stroke-width: 0px; opacity: 1;"/></g><g class="points"/><g class="text"/></g><g class="trace scatter trace2dfe21" style="stroke-miterlimit: 2;"><g class="fills"/><g class="errorbars"/><g class="lines"><path class="js-line" d="M404,79.53Q308.4,93.22 269.33,109.72C234.89,124.26 209.85,150.24 179.56,168.35C149.98,186.04 120.7,211.18 89.78,217.33Q60.73,223.11 0,207.69" style="vector-effect: none; fill: none; stroke: rgb(0, 204, 150); stroke-opacity: 1; stroke-width: 0px; opacity: 1;"/></g><g class="points"/><g class="text"/></g><g class="trace scatter trace5d1b72" style="stroke-miterlimit: 2; opacity: 1;"><g class="fills"/><g class="errorbars"/><g class="lines"><path class="js-line" d="M404,23.53Q306.39,36.54 269.33,62.01C231.06,88.31 213.82,157.18 179.56,181.34C152.37,200.52 117.47,191.56 89.78,209.36Q56.66,230.65 0,309.56" style="vector-effect: none; fill: none; stroke: rgb(102, 102, 102); stroke-opacity: 1; stroke-dasharray: 9px, 9px; stroke-width: 3px; opacity: 1;"/></g><g class="points"/><g class="text"/></g><g class="trace scatter tracec4101a" style="stroke-miterlimit: 2;"><g class="fills"><g><path class="js-fill" d="M404,16.7Q306.46,33.37 269.33,59.62C231.25,86.54 213.74,153.85 179.56,178.05C152.34,197.32 117.5,188.89 89.78,206.79Q56.72,228.14 0,306.36L0,312.02Q56.59,232.55 89.78,211.52C117.44,193.99 152.39,203.81 179.56,184.94C213.88,161.11 230.91,90.82 269.33,65.58Q306.34,41.27 404,33.13Z" style="fill: rgb(102, 102, 102); fill-opacity: 0.3; stroke-width: 0;"/></g></g><g class="errorbars"/><g class="lines"><path class="js-line" d="M404,33.13Q306.34,41.27 269.33,65.58C230.91,90.82 213.88,161.11 179.56,184.94C152.39,203.81 117.44,193.99 89.78,211.52Q56.59,232.55 0,312.02" style="vector-effect: none; fill: none; stroke: rgb(255, 161, 90); stroke-opacity: 1; stroke-width: 0px; opacity: 1;"/></g><g class="points"/><g class="text"/></g><g class="trace scatter trace0bbd1b" style="stroke-miterlimit: 2;"><g class="fills"/><g class="errorbars"/><g class="lines"><path class="js-line" d="M404,16.7Q306.46,33.37 269.33,59.62C231.25,86.54 213.74,153.85 179.56,178.05C152.34,197.32 117.5,188.89 89.78,206.79Q56.72,228.14 0,306.36" style="vector-effect: none; fill: none; stroke: rgb(25, 211, 243); stroke-opacity: 1; stroke-width: 0px; opacity: 1;"/></g><g class="points"/><g class="text"/></g><g class="trace scatter trace6b56e9" style="stroke-miterlimit: 2; opacity: 1;"><g class="fills"/><g class="errorbars"/><g class="lines"><path class="js-line" d="M404,179.74Q309.32,193.82 269.33,204.37C236.01,213.16 209.32,224.29 179.56,235.63C149.47,247.09 119.72,272.78 89.78,272.84Q59.87,272.9 0,236.05" style="vector-effect: none; fill: none; stroke: rgb(95, 70, 144); stroke-opacity: 1; stroke-width: 3px; opacity: 1;"/></g><g class="points"/><g class="text"/></g><g class="trace scatter trace82e391" style="stroke-miterlimit: 2;"><g class="fills"><g><path class="js-fill" d="M404,177.98Q309.36,192.95 269.33,203.45C236.05,212.18 209.28,222.54 179.56,233.82C149.42,245.25 119.75,271.48 89.78,271.67Q59.89,271.85 0,235.12L0,237.1Q59.86,274.42 89.78,274.41C119.71,274.4 149.46,248.52 179.56,237.04C209.31,225.7 235.99,214.46 269.33,205.88Q309.31,195.6 404,182.83Z" style="fill: rgb(95, 70, 144); fill-opacity: 0.3; stroke-width: 0;"/></g></g><g class="errorbars"/><g class="lines"><path class="js-line" d="M404,182.83Q309.31,195.6 269.33,205.88C235.99,214.46 209.31,225.7 179.56,237.04C149.46,248.52 119.71,274.4 89.78,274.41Q59.86,274.42 0,237.1" style="vector-effect: none; fill: none; stroke: rgb(182, 232, 128); stroke-opacity: 1; stroke-width: 0px; opacity: 1;"/></g><g class="points"/><g class="text"/></g><g class="trace scatter trace2f9298" style="stroke-miterlimit: 2;"><g class="fills"/><g class="errorbars"/><g class="lines"><path class="js-line" d="M404,177.98Q309.36,192.95 269.33,203.45C236.05,212.18 209.28,222.54 179.56,233.82C149.42,245.25 119.75,271.48 89.78,271.67Q59.89,271.85 0,235.12" style="vector-effect: none; fill: none; stroke: rgb(255, 151, 255); stroke-opacity: 1; stroke-width: 0px; opacity: 1;"/></g><g class="points"/><g class="text"/></g><g class="trace scatter trace32d51a" style="stroke-miterlimit: 2; opacity: 1;"><g class="fills"/><g class="errorbars"/><g class="lines"><path class="js-line" d="M404,134.15Q307.91,141.51 269.33,158.79C234.16,174.54 210.92,211.38 179.56,228.65C150.84,244.47 119,246.91 89.78,260.97Q59.07,275.75 0,316.2" style="vector-effect: none; fill: none; stroke: rgb(102, 102, 102); stroke-opacity: 1; stroke-width: 3px; opacity: 1;"/></g><g class="points"/><g class="text"/></g><g class="trace scatter tracef861e5" style="stroke-miterlimit: 2;"><g class="fills"><g><path class="js-fill" d="M404,132.78Q307.89,139.55 269.33,156.77C234.13,172.49 211,210.06 179.56,226.97C150.9,242.39 118.9,243.23 89.78,257.05Q58.95,271.69 0,313.73L0,317.3Q59.13,277.96 89.78,263.39C119.05,249.48 150.78,246.61 179.56,230.95C210.84,213.93 234.3,178.55 269.33,162.74Q308,145.29 404,135.69Z" style="fill: rgb(102, 102, 102); fill-opacity: 0.3; stroke-width: 0;"/></g></g><g class="errorbars"/><g class="lines"><path class="js-line" d="M404,135.69Q308,145.29 269.33,162.74C234.3,178.55 210.84,213.93 179.56,230.95C150.78,246.61 119.05,249.48 89.78,263.39Q59.13,277.96 0,317.3" style="vector-effect: none; fill: none; stroke: rgb(99, 110, 250); stroke-opacity: 1; stroke-width: 0px; opacity: 1;"/></g><g class="points"/><g class="text"/></g><g class="trace scatter traceb0b09c" style="stroke-miterlimit: 2;"><g class="fills"/><g class="errorbars"/><g class="lines"><path class="js-line" d="M404,132.78Q307.89,139.55 269.33,156.77C234.13,172.49 211,210.06 179.56,226.97C150.9,242.39 118.9,243.23 89.78,257.05Q58.95,271.69 0,313.73" style="vector-effect: none; fill: none; stroke: rgb(239, 85, 59); stroke-opacity: 1; stroke-width: 0px; opacity: 1;"/></g><g class="points"/><g class="text"/></g><g class="trace scatter trace98f441" style="stroke-miterlimit: 2; opacity: 1;"><g class="fills"/><g class="errorbars"/><g class="lines"/><g class="points"/><g class="text"/></g><g class="trace scatter traced3ff61" style="stroke-miterlimit: 2; opacity: 1;"><g class="fills"/><g class="errorbars"/><g class="lines"/><g class="points"/><g class="text"/></g><g class="trace scatter trace9b6e38" style="stroke-miterlimit: 2; opacity: 1;"><g class="fills"/><g class="errorbars"/><g class="lines"/><g class="points"/><g class="text"/></g><g class="trace scatter traceaf5854" style="stroke-miterlimit: 2; opacity: 1;"><g class="fills"/><g class="errorbars"/><g class="lines"/><g class="points"/><g class="text"/></g><g class="trace scatter trace10b188" style="stroke-miterlimit: 2; opacity: 1;"><g class="fills"/><g class="errorbars"/><g class="lines"/><g class="points"/><g class="text"/></g><g class="trace scatter trace21327d" style="stroke-miterlimit: 2; opacity: 1;"><g class="fills"/><g class="errorbars"/><g class="lines"/><g class="points"/><g class="text"/></g></g></g><g class="overplot"/><path class="xlines-above crisp" d="M78,334.5H483" style="fill: none; stroke-width: 1px; stroke: rgb(0, 0, 0); stroke-opacity: 0.3;"/><path class="ylines-above crisp" d="M78.5,0V334" style="fill: none; stroke-width: 1px; stroke: rgb(0, 0, 0); stroke-opacity: 0.3;"/><g class="overlines-above"/><g class="xaxislayer-above"><g class="xtick"><text text-anchor="middle" x="0" y="359" transform="translate(123.89,0)" style="font-family: 'Open Sans', verdana, arial, sans-serif; font-size: 20px; fill: rgb(42, 63, 95); fill-opacity: 1; white-space: pre; opacity: 1;">20</text></g><g class="xtick"><text text-anchor="middle" x="0" y="359" style="font-family: 'Open Sans', verdana, arial, sans-serif; font-size: 20px; fill: rgb(42, 63, 95); fill-opacity: 1; white-space: pre; opacity: 1;" transform="translate(213.67,0)">40</text></g><g class="xtick"><text text-anchor="middle" x="0" y="359" style="font-family: 'Open Sans', verdana, arial, sans-serif; font-size: 20px; fill: rgb(42, 63, 95); fill-opacity: 1; white-space: pre; opacity: 1;" transform="translate(303.44,0)">60</text></g><g class="xtick"><text text-anchor="middle" x="0" y="359" style="font-family: 'Open Sans', verdana, arial, sans-serif; font-size: 20px; fill: rgb(42, 63, 95); fill-opacity: 1; white-space: pre; opacity: 1;" transform="translate(393.22,0)">80</text></g><g class="xtick"><text text-anchor="middle" x="0" y="359" style="font-family: 'Open Sans', verdana, arial, sans-serif; font-size: 20px; fill: rgb(42, 63, 95); fill-opacity: 1; white-space: pre; opacity: 0;" transform="translate(483,0)">100</text></g></g><g class="yaxislayer-above"><g class="ytick"><text text-anchor="end" x="74" y="7" transform="translate(0,320.42)" style="font-family: 'Open Sans', verdana, arial, sans-serif; font-size: 20px; fill: rgb(42, 63, 95); fill-opacity: 1; white-space: pre; opacity: 1;">0.05</text></g><g class="ytick"><text text-anchor="end" x="74" y="7" style="font-family: 'Open Sans', verdana, arial, sans-serif; font-size: 20px; fill: rgb(42, 63, 95); fill-opacity: 1; white-space: pre; opacity: 1;" transform="translate(0,250.08)">0.1</text></g><g class="ytick"><text text-anchor="end" x="74" y="7" style="font-family: 'Open Sans', verdana, arial, sans-serif; font-size: 20px; fill: rgb(42, 63, 95); fill-opacity: 1; white-space: pre; opacity: 1;" transform="translate(0,179.74)">0.15</text></g><g class="ytick"><text text-anchor="end" x="74" y="7" style="font-family: 'Open Sans', verdana, arial, sans-serif; font-size: 20px; fill: rgb(42, 63, 95); fill-opacity: 1; white-space: pre; opacity: 1;" transform="translate(0,109.4)">0.2</text></g><g class="ytick"><text text-anchor="end" x="74" y="7" style="font-family: 'Open Sans', verdana, arial, sans-serif; font-size: 20px; fill: rgb(42, 63, 95); fill-opacity: 1; white-space: pre; opacity: 1;" transform="translate(0,39.06)">0.25</text></g></g><g class="overaxes-above"/></g></g><g class="polarlayer"/><g class="smithlayer"/><g class="ternarylayer"/><g class="geolayer"/><g class="funnelarealayer"/><g class="pielayer"/><g class="iciclelayer"/><g class="treemaplayer"/><g class="sunburstlayer"/><g class="glimages"/><defs id="topdefs-b9db91"><g class="clips"/></defs><g class="layer-above"><g class="imagelayer"/><g class="shapelayer"/></g><g class="infolayer"><g class="g-gtitle"/><g class="g-xtitle" transform="translate(0,-7.100000000000023)"><text class="xtitle" x="281" y="399.1" text-anchor="middle" style="font-family: 'Open Sans', verdana, arial, sans-serif; font-size: 28px; fill: rgb(42, 63, 95); opacity: 1; font-weight: normal; white-space: pre;">state dimension</text></g><g class="g-ytitle" transform="translate(29.740234375,0)"><text class="ytitle" transform="rotate(-90,0.2593750000000057,167)" x="0.2593750000000057" y="167" text-anchor="middle" style="font-family: 'Open Sans', verdana, arial, sans-serif; font-size: 28px; fill: rgb(42, 63, 95); opacity: 1; font-weight: normal; white-space: pre;">state prediction MSE</text></g></g></svg>