<svg class="main-svg" xmlns="http://www.w3.org/2000/svg" xmlns:xlink="http://www.w3.org/1999/xlink" width="500" height="300" style="" viewBox="0 0 500 300"><rect x="0" y="0" width="500" height="300" style="fill: rgb(255, 255, 255); fill-opacity: 1;"/><defs id="defs-6347ea"><g class="clips"><clipPath id="clip6347eaxyplot" class="plotclip"><rect width="424" height="229"/></clipPath><clipPath class="axesclip" id="clip6347eax"><rect x="76" y="0" width="424" height="300"/></clipPath><clipPath class="axesclip" id="clip6347eay"><rect x="0" y="8" width="500" height="229"/></clipPath><clipPath class="axesclip" id="clip6347eaxy"><rect x="76" y="8" width="424" height="229"/></clipPath></g><g class="gradients"/><g class="patterns"/></defs><g class="bglayer"/><g class="layer-below"><g class="imagelayer"/><g class="shapelayer"/></g><g class="cartesianlayer"><g class="subplot xy"><g class="layer-subplot"><g class="shapelayer"/><g class="imagelayer"/></g><g class="minor-gridlayer"><g class="x"/><g class="y"/></g><g class="gridlayer"><g class="x"><path class="xgrid crisp" transform="translate(148.24,0)" d="M0,8v229" style="stroke: rgb(0, 0, 0); stroke-opacity: 0.1; stroke-width: 1px;"/><path class="xgrid crisp" transform="translate(242.8,0)" d="M0,8v229" style="stroke: rgb(0, 0, 0); stroke-opacity: 0.1; stroke-width: 1px;"/><path class="xgrid crisp" transform="translate(337.36,0)" d="M0,8v229" style="stroke: rgb(0, 0, 0); stroke-opacity: 0.1; stroke-width: 1px;"/><path class="xgrid crisp" transform="translate(431.92,0)" d="M0,8v229" style="stroke: rgb(0, 0, 0); stroke-opacity: 0.1; stroke-width: 1px;"/></g><g class="y"><path class="ygrid crisp" transform="translate(0,180.33)" d="M76,0h424" style="stroke: rgb(0, 0, 0); stroke-opacity: 0.1; stroke-width: 1px;"/><path class="ygrid crisp" transform="translate(0,140.29)" d="M76,0h424" style="stroke: rgb(0, 0, 0); stroke-opacity: 0.1; stroke-width: 1px;"/><path class="ygrid crisp" transform="translate(0,109.22)" d="M76,0h424" style="stroke: rgb(0, 0, 0); stroke-opacity: 0.1; stroke-width: 1px;"/><path class="ygrid crisp" transform="translate(0,83.84)" d="M76,0h424" style="stroke: rgb(0, 0, 0); stroke-opacity: 0.1; stroke-width: 1px;"/><path class="ygrid crisp" transform="translate(0,62.39)" d="M76,0h424" style="stroke: rgb(0, 0, 0); stroke-opacity: 0.1; stroke-width: 1px;"/><path class="ygrid crisp" transform="translate(0,43.8)" d="M76,0h424" style="stroke: rgb(0, 0, 0); stroke-opacity: 0.1; stroke-width: 1px;"/><path class="ygrid crisp" transform="translate(0,27.4)" d="M76,0h424" style="stroke: rgb(0, 0, 0); stroke-opacity: 0.1; stroke-width: 1px;"/><path class="ygrid crisp" transform="translate(0,12.74)" d="M76,0h424" style="stroke: rgb(0, 0, 0); stroke-opacity: 0.1; stroke-width: 1px;"/></g></g><g class="zerolinelayer"/><path class="xlines-below"/><path class="ylines-below"/><g class="overlines-below"/><g class="xaxislayer-below"/><g class="yaxislayer-below"/><g class="overaxes-below"/><g class="plot" transform="translate(76,8)" clip-path="url(#clip6347eaxyplot)"><g class="scatterlayer mlayer"><g class="trace scatter traced9bde3" style="stroke-miterlimit: 2; opacity: 1;"><g class="fills"/><g class="errorbars"/><g class="lines"><path class="js-line" d="M312.42,155.08Q424.11,165.36 424,166.94C423.84,169.16 262.47,159.75 200.84,159.43C157.27,159.2 116.04,174.88 89.26,162.01C67.52,151.57 56.66,120.8 44.63,103.54C35.58,90.55 29.3,81.42 22.32,68.34Q14.28,53.29 0,17.84" style="vector-effect: none; fill: none; stroke: rgb(95, 70, 144); stroke-opacity: 1; stroke-dasharray: 9px, 9px; stroke-width: 3px; opacity: 1;"/></g><g class="points"/><g class="text"/></g><g class="trace scatter tracee5fcb0" style="stroke-miterlimit: 2;"><g class="fills"><g><path class="js-fill" d="M312.42,147.67Q424.25,162.65 424,165.15C423.65,168.67 262.47,156.23 200.84,155.97C157.27,155.78 116.05,172.28 89.26,159.61C67.55,149.35 56.58,118.95 44.63,101.49C35.47,88.11 29.29,78.39 22.32,64.71Q14.25,48.86 0,11.45L0,22.88Q14.27,57.12 22.32,71.56C29.3,84.09 35.7,92.5 44.63,105.11C56.75,122.22 67.45,153.4 89.26,164.34C116.02,177.76 157.27,164.26 200.84,164.9C262.47,165.81 423.86,172.65 424,170.36Q424.1,168.74 312.42,159.29Z" style="fill: rgb(95, 70, 144); fill-opacity: 0.3; stroke-width: 0;"/></g></g><g class="errorbars"/><g class="lines"><path class="js-line" d="M312.42,159.29Q424.1,168.74 424,170.36C423.86,172.65 262.47,165.81 200.84,164.9C157.27,164.26 116.02,177.76 89.26,164.34C67.45,153.4 56.75,122.22 44.63,105.11C35.7,92.5 29.3,84.09 22.32,71.56Q14.27,57.12 0,22.88" style="vector-effect: none; fill: none; stroke: rgb(239, 85, 59); stroke-opacity: 1; stroke-width: 0px; opacity: 1;"/></g><g class="points"/><g class="text"/></g><g class="trace scatter tracee6bdf6" style="stroke-miterlimit: 2;"><g class="fills"/><g class="errorbars"/><g class="lines"><path class="js-line" d="M312.42,147.67Q424.25,162.65 424,165.15C423.65,168.67 262.47,156.23 200.84,155.97C157.27,155.78 116.05,172.28 89.26,159.61C67.55,149.35 56.58,118.95 44.63,101.49C35.47,88.11 29.29,78.39 22.32,64.71Q14.25,48.86 0,11.45" style="vector-effect: none; fill: none; stroke: rgb(0, 204, 150); stroke-opacity: 1; stroke-width: 0px; opacity: 1;"/></g><g class="points"/><g class="text"/></g><g class="trace scatter trace758531" style="stroke-miterlimit: 2; opacity: 1;"><g class="fills"/><g class="errorbars"/><g class="lines"><path class="js-line" d="M312.42,168.2Q424.04,174.63 424,175.45C423.95,176.61 262.47,170.39 200.84,169.35C157.27,168.61 116.25,181.1 89.26,168.62C68.13,158.85 56.59,132.47 44.63,116.81C35.49,104.85 29.33,96.02 22.32,83.76Q14.33,69.78 0,36.98" style="vector-effect: none; fill: none; stroke: rgb(102, 102, 102); stroke-opacity: 1; stroke-dasharray: 9px, 9px; stroke-width: 3px; opacity: 1;"/></g><g class="points"/><g class="text"/></g><g class="trace scatter trace7bf7db" style="stroke-miterlimit: 2;"><g class="fills"><g><path class="js-fill" d="M312.42,158.73Q424.17,171.31 424,173.41C423.75,176.36 262.47,167.46 200.84,165.62C157.27,164.32 116.25,175.64 89.26,162.85C68.13,152.83 56.83,125.75 44.63,110.96C35.79,100.24 29.16,93.9 22.32,82.74Q13.99,69.14 0,34.13L0,42.52Q14.75,72.4 22.32,86.76C29.63,100.63 34.73,114.19 44.63,127.29C56.16,142.54 68.81,163.01 89.26,171.35C116.54,182.48 157.27,170.31 200.84,170.86C262.47,171.63 423.99,177.73 424,177.43Q424.01,177.22 312.42,173.05Z" style="fill: rgb(102, 102, 102); fill-opacity: 0.3; stroke-width: 0;"/></g></g><g class="errorbars"/><g class="lines"><path class="js-line" d="M312.42,173.05Q424.01,177.22 424,177.43C423.99,177.73 262.47,171.63 200.84,170.86C157.27,170.31 116.54,182.48 89.26,171.35C68.81,163.01 56.16,142.54 44.63,127.29C34.73,114.19 29.63,100.63 22.32,86.76Q14.75,72.4 0,42.52" style="vector-effect: none; fill: none; stroke: rgb(255, 161, 90); stroke-opacity: 1; stroke-width: 0px; opacity: 1;"/></g><g class="points"/><g class="text"/></g><g class="trace scatter trace1bc0d9" style="stroke-miterlimit: 2;"><g class="fills"/><g class="errorbars"/><g class="lines"><path class="js-line" d="M312.42,158.73Q424.17,171.31 424,173.41C423.75,176.36 262.47,167.46 200.84,165.62C157.27,164.32 116.25,175.64 89.26,162.85C68.13,152.83 56.83,125.75 44.63,110.96C35.79,100.24 29.16,93.9 22.32,82.74Q13.99,69.14 0,34.13" style="vector-effect: none; fill: none; stroke: rgb(25, 211, 243); stroke-opacity: 1; stroke-width: 0px; opacity: 1;"/></g><g class="points"/><g class="text"/></g><g class="trace scatter tracec1263e" style="stroke-miterlimit: 2; opacity: 1;"><g class="fills"/><g class="errorbars"/><g class="lines"><path class="js-line" d="M312.42,212.82Q424,215.44 424,215.45C424,215.47 262.47,210.52 200.84,210.32C157.27,210.18 118,214.42 89.26,212.15C70.95,210.7 56.76,208.06 44.63,204.29C35.71,201.51 29.3,199.1 22.32,194.09Q14.27,188.32 0,170.35" style="vector-effect: none; fill: none; stroke: rgb(95, 70, 144); stroke-opacity: 1; stroke-width: 3px; opacity: 1;"/></g><g class="points"/><g class="text"/></g><g class="trace scatter trace887bb4" style="stroke-miterlimit: 2;"><g class="fills"><g><path class="js-fill" d="M312.42,211.39Q423.99,213.77 424,213.44C424.01,212.98 262.46,205.78 200.84,206C157.26,206.16 117.97,212.87 89.26,210.52C70.92,209.02 56.78,205.25 44.63,201.31C35.73,198.43 29.33,196.13 22.32,191.26Q14.33,185.71 0,168.69L0,172.15Q14.28,190.51 22.32,196.62C29.3,201.92 35.65,204.99 44.63,207.89C56.71,211.78 70.97,213.58 89.26,214.91C118.01,217 157.27,213.53 200.84,213.67C262.47,213.86 423.99,217.81 424,217.55Q424,217.37 312.42,214.67Z" style="fill: rgb(95, 70, 144); fill-opacity: 0.3; stroke-width: 0;"/></g></g><g class="errorbars"/><g class="lines"><path class="js-line" d="M312.42,214.67Q424,217.37 424,217.55C423.99,217.81 262.47,213.86 200.84,213.67C157.27,213.53 118.01,217 89.26,214.91C70.97,213.58 56.71,211.78 44.63,207.89C35.65,204.99 29.3,201.92 22.32,196.62Q14.28,190.51 0,172.15" style="vector-effect: none; fill: none; stroke: rgb(182, 232, 128); stroke-opacity: 1; stroke-width: 0px; opacity: 1;"/></g><g class="points"/><g class="text"/></g><g class="trace scatter trace102647" style="stroke-miterlimit: 2;"><g class="fills"/><g class="errorbars"/><g class="lines"><path class="js-line" d="M312.42,211.39Q423.99,213.77 424,213.44C424.01,212.98 262.46,205.78 200.84,206C157.26,206.16 117.97,212.87 89.26,210.52C70.92,209.02 56.78,205.25 44.63,201.31C35.73,198.43 29.33,196.13 22.32,191.26Q14.33,185.71 0,168.69" style="vector-effect: none; fill: none; stroke: rgb(255, 151, 255); stroke-opacity: 1; stroke-width: 0px; opacity: 1;"/></g><g class="points"/><g class="text"/></g><g class="trace scatter trace3abd08" style="stroke-miterlimit: 2; opacity: 1;"><g class="fills"/><g class="errorbars"/><g class="lines"><path class="js-line" d="M312.42,209Q424,210.84 424,210.84C424,210.84 262.47,207.37 200.84,207.14C157.27,206.98 117.93,211.4 89.26,208.17C70.88,206.1 56.17,204.47 44.63,197.56C34.75,191.64 28.82,183.65 22.32,172.39Q12.9,156.07 0,105.35" style="vector-effect: none; fill: none; stroke: rgb(102, 102, 102); stroke-opacity: 1; stroke-width: 3px; opacity: 1;"/></g><g class="points"/><g class="text"/></g><g class="trace scatter traced90715" style="stroke-miterlimit: 2;"><g class="fills"><g><path class="js-fill" d="M312.42,206.31Q424.01,209.27 424,209.49C423.99,209.8 262.47,205.66 200.84,205.39C157.27,205.2 117.92,209.79 89.26,206.47C70.87,204.34 56.19,202.42 44.63,195.53C34.8,189.67 28.74,182.29 22.32,170.91Q12.5,153.5 0,96.4L0,110.9Q13.04,159.62 22.32,175.62C28.85,186.88 34.69,195.36 44.63,201.12C56.15,207.8 70.92,208.43 89.26,210.1C117.97,212.72 157.27,208.15 200.84,208.24C262.46,208.36 424,212.65 424,212.85Q424,212.99 312.42,211.27Z" style="fill: rgb(102, 102, 102); fill-opacity: 0.3; stroke-width: 0;"/></g></g><g class="errorbars"/><g class="lines"><path class="js-line" d="M312.42,211.27Q424,212.99 424,212.85C424,212.65 262.46,208.36 200.84,208.24C157.27,208.15 117.97,212.72 89.26,210.1C70.92,208.43 56.15,207.8 44.63,201.12C34.69,195.36 28.85,186.88 22.32,175.62Q13.04,159.62 0,110.9" style="vector-effect: none; fill: none; stroke: rgb(99, 110, 250); stroke-opacity: 1; stroke-width: 0px; opacity: 1;"/></g><g class="points"/><g class="text"/></g><g class="trace scatter trace5df958" style="stroke-miterlimit: 2;"><g class="fills"/><g class="errorbars"/><g class="lines"><path class="js-line" d="M312.42,206.31Q424.01,209.27 424,209.49C423.99,209.8 262.47,205.66 200.84,205.39C157.27,205.2 117.92,209.79 89.26,206.47C70.87,204.34 56.19,202.42 44.63,195.53C34.8,189.67 28.74,182.29 22.32,170.91Q12.5,153.5 0,96.4" style="vector-effect: none; fill: none; stroke: rgb(239, 85, 59); stroke-opacity: 1; stroke-width: 0px; opacity: 1;"/></g><g class="points"/><g class="text"/></g><g class="trace scatter tracebbe821" style="stroke-miterlimit: 2; opacity: 1;"><g class="fills"/><g class="errorbars"/><g class="lines"/><g class="points"/><g class="text"/></g><g class="trace scatter traceda863c" style="stroke-miterlimit: 2; opacity: 1;"><g class="fills"/><g class="errorbars"/><g class="lines"/><g class="points"/><g class="text"/></g><g class="trace scatter traceed370f" style="stroke-miterlimit: 2; opacity: 1;"><g class="fills"/><g class="errorbars"/><g class="lines"/><g class="points"/><g class="text"/></g><g class="trace scatter tracec09565" style="stroke-miterlimit: 2; opacity: 1;"><g class="fills"/><g class="errorbars"/><g class="lines"/><g class="points"/><g class="text"/></g><g class="trace scatter trace317035" style="stroke-miterlimit: 2; opacity: 1;"><g class="fills"/><g class="errorbars"/><g class="lines"/><g class="points"/><g class="text"/></g><g class="trace scatter trace6e3d1f" style="stroke-miterlimit: 2; opacity: 1;"><g class="fills"/><g class="errorbars"/><g class="lines"/><g class="points"/><g class="text"/></g></g></g><g class="overplot"/><path class="xlines-above crisp" d="M75,237.5H500" style="fill: none; stroke-width: 1px; stroke: rgb(0, 0, 0); stroke-opacity: 0.3;"/><path class="ylines-above crisp" d="M75.5,8V237" style="fill: none; stroke-width: 1px; stroke: rgb(0, 0, 0); stroke-opacity: 0.3;"/><g class="overlines-above"/><g class="xaxislayer-above"><g class="xtick"><text text-anchor="middle" x="0" y="262" transform="translate(148.24,0)" style="font-family: 'Open Sans', verdana, arial, sans-serif; font-size: 20px; fill: rgb(42, 63, 95); fill-opacity: 1; white-space: pre; opacity: 1;">5k</text></g><g class="xtick"><text text-anchor="middle" x="0" y="262" style="font-family: 'Open Sans', verdana, arial, sans-serif; font-size: 20px; fill: rgb(42, 63, 95); fill-opacity: 1; white-space: pre; opacity: 1;" transform="translate(242.8,0)">10k</text></g><g class="xtick"><text text-anchor="middle" x="0" y="262" style="font-family: 'Open Sans', verdana, arial, sans-serif; font-size: 20px; fill: rgb(42, 63, 95); fill-opacity: 1; white-space: pre; opacity: 1;" transform="translate(337.36,0)">15k</text></g><g class="xtick"><text text-anchor="middle" x="0" y="262" style="font-family: 'Open Sans', verdana, arial, sans-serif; font-size: 20px; fill: rgb(42, 63, 95); fill-opacity: 1; white-space: pre; opacity: 1;" transform="translate(431.92,0)">20k</text></g></g><g class="yaxislayer-above"><g class="ytick"><text text-anchor="end" x="71" y="7" transform="translate(0,236.77)" style="font-family: 'Open Sans', verdana, arial, sans-serif; font-size: 20px; fill: rgb(42, 63, 95); fill-opacity: 1; white-space: pre; opacity: 1;">0.1</text></g><g class="ytick"><text text-anchor="end" x="71" y="7" style="font-family: 'Open Sans', verdana, arial, sans-serif; font-size: 20px; fill: rgb(42, 63, 95); fill-opacity: 1; white-space: pre; opacity: 1;" transform="translate(0,180.33)">0.15</text></g><g class="ytick"><text text-anchor="end" x="71" y="7" style="font-family: 'Open Sans', verdana, arial, sans-serif; font-size: 20px; fill: rgb(42, 63, 95); fill-opacity: 1; white-space: pre; opacity: 1;" transform="translate(0,140.29)">0.2</text></g><g class="ytick"><text text-anchor="end" x="71" y="7" style="font-family: 'Open Sans', verdana, arial, sans-serif; font-size: 20px; fill: rgb(42, 63, 95); fill-opacity: 1; white-space: pre; opacity: 1;" transform="translate(0,109.22)">0.25</text></g><g class="ytick"><text text-anchor="end" x="71" y="7" style="font-family: 'Open Sans', verdana, arial, sans-serif; font-size: 20px; fill: rgb(42, 63, 95); fill-opacity: 1; white-space: pre; opacity: 1;" transform="translate(0,83.84)">0.3</text></g><g class="ytick"><text text-anchor="end" x="71" y="7" style="font-family: 'Open Sans', verdana, arial, sans-serif; font-size: 20px; fill: rgb(42, 63, 95); fill-opacity: 1; white-space: pre; opacity: 1;" transform="translate(0,62.39)">0.35</text></g><g class="ytick"><text text-anchor="end" x="71" y="7" style="font-family: 'Open Sans', verdana, arial, sans-serif; font-size: 20px; fill: rgb(42, 63, 95); fill-opacity: 1; white-space: pre; opacity: 1;" transform="translate(0,43.8)">0.4</text></g><g class="ytick"><text text-anchor="end" x="71" y="7" style="font-family: 'Open Sans', verdana, arial, sans-serif; font-size: 20px; fill: rgb(42, 63, 95); fill-opacity: 1; white-space: pre; opacity: 1;" transform="translate(0,27.4)">0.45</text></g><g class="ytick"><text text-anchor="end" x="71" y="7" style="font-family: 'Open Sans', verdana, arial, sans-serif; font-size: 20px; fill: rgb(42, 63, 95); fill-opacity: 1; white-space: pre; opacity: 0;" transform="translate(0,12.74)">0.5</text></g></g><g class="overaxes-above"/></g></g><g class="polarlayer"/><g class="smithlayer"/><g class="ternarylayer"/><g class="geolayer"/><g class="funnelarealayer"/><g class="pielayer"/><g class="iciclelayer"/><g class="treemaplayer"/><g class="sunburstlayer"/><g class="glimages"/><defs id="topdefs-6347ea"><g class="clips"/></defs><g class="layer-above"><g class="imagelayer"/><g class="shapelayer"/></g><g class="infolayer"><g class="g-gtitle"/><g class="g-xtitle" transform="translate(0,-6.300000000000011)"><text class="xtitle" x="288" y="299.3" text-anchor="middle" style="font-family: 'Open Sans', verdana, arial, sans-serif; font-size: 24px; fill: rgb(42, 63, 95); opacity: 1; font-weight: normal; white-space: pre;">training samples</text></g><g class="g-ytitle" transform="translate(25.9404296875,0)"><text class="ytitle" transform="rotate(-90,0.05937500000000284,122.5)" x="0.05937500000000284" y="122.5" text-anchor="middle" style="font-family: 'Open Sans', verdana, arial, sans-serif; font-size: 24px; fill: rgb(42, 63, 95); opacity: 1; font-weight: normal; white-space: pre;">state prediction MSE</text></g></g></svg>