<svg class="main-svg" xmlns="http://www.w3.org/2000/svg" xmlns:xlink="http://www.w3.org/1999/xlink" width="500" height="400" style="" viewBox="0 0 500 400"><rect x="0" y="0" width="500" height="400" style="fill: rgb(255, 255, 255); fill-opacity: 1;"/><defs id="defs-429991"><g class="clips"><clipPath id="clip429991xyplot" class="plotclip"><rect width="421" height="330"/></clipPath><clipPath class="axesclip" id="clip429991x"><rect x="79" y="0" width="421" height="400"/></clipPath><clipPath class="axesclip" id="clip429991y"><rect x="0" y="4" width="500" height="330"/></clipPath><clipPath class="axesclip" id="clip429991xy"><rect x="79" y="4" width="421" height="330"/></clipPath></g><g class="gradients"/><g class="patterns"/></defs><g class="bglayer"/><g class="layer-below"><g class="imagelayer"/><g class="shapelayer"/></g><g class="cartesianlayer"><g class="subplot xy"><g class="layer-subplot"><g class="shapelayer"/><g class="imagelayer"/></g><g class="minor-gridlayer"><g class="x"/><g class="y"/></g><g class="gridlayer"><g class="x"><path class="xgrid crisp" transform="translate(160.57999999999998,0)" d="M0,4v330" style="stroke: rgb(0, 0, 0); stroke-opacity: 0.1; stroke-width: 1px;"/><path class="xgrid crisp" transform="translate(242.15,0)" d="M0,4v330" style="stroke: rgb(0, 0, 0); stroke-opacity: 0.1; stroke-width: 1px;"/><path class="xgrid crisp" transform="translate(323.73,0)" d="M0,4v330" style="stroke: rgb(0, 0, 0); stroke-opacity: 0.1; stroke-width: 1px;"/><path class="xgrid crisp" transform="translate(405.3,0)" d="M0,4v330" style="stroke: rgb(0, 0, 0); stroke-opacity: 0.1; stroke-width: 1px;"/><path class="xgrid crisp" transform="translate(486.88,0)" d="M0,4v330" style="stroke: rgb(0, 0, 0); stroke-opacity: 0.1; stroke-width: 1px;"/></g><g class="y"><path class="ygrid crisp" transform="translate(0,286.32)" d="M79,0h421" style="stroke: rgb(0, 0, 0); stroke-opacity: 0.1; stroke-width: 1px;"/><path class="ygrid crisp" transform="translate(0,247.21)" d="M79,0h421" style="stroke: rgb(0, 0, 0); stroke-opacity: 0.1; stroke-width: 1px;"/><path class="ygrid crisp" transform="translate(0,208.1)" d="M79,0h421" style="stroke: rgb(0, 0, 0); stroke-opacity: 0.1; stroke-width: 1px;"/><path class="ygrid crisp" transform="translate(0,168.99)" d="M79,0h421" style="stroke: rgb(0, 0, 0); stroke-opacity: 0.1; stroke-width: 1px;"/><path class="ygrid crisp" transform="translate(0,129.88)" d="M79,0h421" style="stroke: rgb(0, 0, 0); stroke-opacity: 0.1; stroke-width: 1px;"/><path class="ygrid crisp" transform="translate(0,90.77)" d="M79,0h421" style="stroke: rgb(0, 0, 0); stroke-opacity: 0.1; stroke-width: 1px;"/><path class="ygrid crisp" transform="translate(0,51.66)" d="M79,0h421" style="stroke: rgb(0, 0, 0); stroke-opacity: 0.1; stroke-width: 1px;"/><path class="ygrid crisp" transform="translate(0,12.55)" d="M79,0h421" style="stroke: rgb(0, 0, 0); stroke-opacity: 0.1; stroke-width: 1px;"/></g></g><g class="zerolinelayer"><path class="yzl zl crisp" transform="translate(0,325.43)" d="M79,0h421" style="stroke: rgb(255, 255, 255); stroke-opacity: 1; stroke-width: 2px;"/></g><path class="xlines-below"/><path class="ylines-below"/><g class="overlines-below"/><g class="xaxislayer-below"/><g class="yaxislayer-below"/><g class="overaxes-below"/><g class="plot" transform="translate(79,4)" clip-path="url(#clip429991xyplot)"><g class="scatterlayer mlayer"><g class="trace scatter trace530ad9" style="stroke-miterlimit: 2; opacity: 1;"><g class="fills"/><g class="errorbars"/><g class="lines"><path class="js-line" d="M0,298.61Q2.74,294.04 4.19,291.98C5.54,290.05 6.95,288.3 8.37,286.58C9.74,284.92 11.15,283.35 12.56,281.81C13.94,280.31 15.33,278.87 16.74,277.45C18.12,276.05 19.53,274.7 20.93,273.36C22.32,272.04 23.71,270.75 25.11,269.49C26.5,268.24 27.9,267.02 29.3,265.81C30.69,264.61 32.08,263.43 33.48,262.27C34.87,261.11 36.27,259.98 37.67,258.85C39.06,257.73 40.45,256.62 41.85,255.52C43.24,254.43 44.64,253.35 46.04,252.28C47.43,251.21 48.82,250.15 50.22,249.1C51.61,248.06 53.01,247.02 54.41,246C55.8,244.98 57.19,243.98 58.59,242.98C59.98,241.98 61.38,240.99 62.78,240.01C64.17,239.03 65.56,238.07 66.96,237.11C68.35,236.16 69.75,235.22 71.15,234.28C72.54,233.35 73.93,232.42 75.33,231.5C76.72,230.58 78.12,229.67 79.52,228.77C80.91,227.87 82.3,226.97 83.7,226.08C85.09,225.19 86.49,224.32 87.89,223.45C89.28,222.58 90.67,221.71 92.07,220.85C93.46,219.99 94.86,219.14 96.26,218.29C97.65,217.44 99.04,216.61 100.44,215.77C101.83,214.94 103.23,214.11 104.63,213.28C106.02,212.46 107.41,211.64 108.81,210.82C110.2,210.01 111.6,209.2 113,208.39C114.39,207.58 115.78,206.78 117.18,205.98C118.57,205.18 119.97,204.38 121.37,203.59C122.76,202.8 124.15,202.02 125.55,201.24C126.94,200.46 128.34,199.69 129.74,198.92C131.13,198.15 132.52,197.38 133.92,196.62C135.31,195.86 136.71,195.1 138.11,194.34C139.5,193.58 140.89,192.83 142.29,192.08C143.68,191.33 145.08,190.59 146.48,189.85C147.87,189.11 149.26,188.37 150.66,187.63C152.05,186.89 153.45,186.16 154.85,185.43C156.24,184.7 157.63,183.97 159.03,183.24C160.42,182.52 161.82,181.8 163.22,181.08C164.61,180.36 166,179.64 167.4,178.93C168.79,178.22 170.19,177.51 171.59,176.8C172.98,176.09 174.37,175.39 175.77,174.69C177.16,173.99 178.56,173.3 179.96,172.61C181.35,171.92 182.75,171.23 184.14,170.54C185.54,169.85 186.93,169.17 188.33,168.49C189.72,167.81 191.12,167.13 192.51,166.46C193.91,165.79 195.3,165.12 196.7,164.45C198.09,163.78 199.49,163.11 200.88,162.45C202.28,161.78 203.67,161.12 205.07,160.46C206.46,159.8 207.86,159.14 209.25,158.49C210.65,157.83 212.04,157.18 213.44,156.53C214.83,155.88 216.22,155.23 217.62,154.59C219.01,153.95 220.41,153.32 221.81,152.68C223.2,152.04 224.6,151.4 225.99,150.77C227.39,150.13 228.78,149.5 230.18,148.87C231.58,148.24 232.97,147.62 234.37,146.99C235.76,146.37 237.16,145.74 238.55,145.12C239.95,144.5 241.34,143.88 242.74,143.26C244.13,142.64 245.53,142.03 246.92,141.42C248.32,140.81 249.71,140.21 251.11,139.6C252.5,139 253.9,138.39 255.29,137.79C256.69,137.19 258.08,136.59 259.48,135.99C260.87,135.39 262.27,134.79 263.66,134.2C265.06,133.6 266.45,133.01 267.85,132.42C269.24,131.83 270.64,131.24 272.03,130.65C273.43,130.06 274.82,129.48 276.22,128.89C277.61,128.3 279.01,127.71 280.4,127.13C281.8,126.54 283.19,125.96 284.59,125.38C285.98,124.8 287.38,124.23 288.77,123.65C290.17,123.07 291.56,122.49 292.96,121.91C294.35,121.33 295.75,120.76 297.14,120.19C298.54,119.62 299.93,119.04 301.33,118.47C302.72,117.9 304.12,117.33 305.51,116.76C306.91,116.19 308.3,115.63 309.7,115.06C311.09,114.5 312.49,113.93 313.88,113.37C315.28,112.81 316.67,112.24 318.07,111.68C319.46,111.12 320.86,110.56 322.25,110C323.65,109.44 325.04,108.89 326.44,108.33C327.83,107.78 329.23,107.22 330.62,106.67C332.02,106.12 333.41,105.57 334.81,105.02C336.2,104.47 337.6,103.92 338.99,103.37C340.39,102.82 341.78,102.28 343.18,101.74C344.57,101.2 345.97,100.66 347.36,100.12C348.76,99.58 350.15,99.05 351.55,98.51C352.94,97.97 354.34,97.43 355.73,96.9C357.13,96.36 358.52,95.83 359.92,95.3C361.31,94.77 362.71,94.24 364.1,93.71C365.5,93.18 366.89,92.64 368.29,92.11C369.68,91.58 371.08,91.06 372.47,90.53C373.87,90 375.26,89.48 376.66,88.95C378.05,88.42 379.45,87.89 380.84,87.37C382.24,86.85 383.63,86.33 385.03,85.81C386.42,85.29 387.82,84.78 389.21,84.26C390.61,83.74 392,83.22 393.4,82.7C394.79,82.18 396.19,81.66 397.58,81.15C398.98,80.63 400.37,80.12 401.77,79.61C403.16,79.1 404.56,78.58 405.95,78.07C407.35,77.56 408.74,77.04 410.14,76.53Q411.53,76.02 414.32,75" style="vector-effect: none; fill: none; stroke: rgb(95, 70, 144); stroke-opacity: 1; stroke-dasharray: 9px, 9px; stroke-width: 2px; opacity: 1;"/></g><g class="points"/><g class="text"/></g><g class="trace scatter trace86bd3e" style="stroke-miterlimit: 2;"><g class="fills"><g><path class="js-fill" d="M0,298.61Q2.74,294.04 4.19,291.98C5.54,290.05 6.95,288.3 8.37,286.58C9.74,284.92 11.15,283.35 12.56,281.81C13.94,280.31 15.33,278.87 16.74,277.45C18.12,276.05 19.53,274.7 20.93,273.36C22.32,272.04 23.71,270.75 25.11,269.49C26.5,268.24 27.9,267.02 29.3,265.81C30.69,264.61 32.08,263.43 33.48,262.27C34.87,261.11 36.27,259.98 37.67,258.85C39.06,257.73 40.45,256.62 41.85,255.52C43.24,254.43 44.64,253.35 46.04,252.28C47.43,251.21 48.82,250.15 50.22,249.1C51.61,248.06 53.01,247.02 54.41,246C55.8,244.98 57.19,243.98 58.59,242.98C59.98,241.98 61.38,240.99 62.78,240.01C64.17,239.03 65.56,238.07 66.96,237.11C68.35,236.16 69.75,235.22 71.15,234.28C72.54,233.35 73.93,232.42 75.33,231.5C76.72,230.58 78.12,229.67 79.52,228.77C80.91,227.87 82.3,226.97 83.7,226.08C85.09,225.19 86.49,224.32 87.89,223.45C89.28,222.58 90.67,221.71 92.07,220.85C93.46,219.99 94.86,219.14 96.26,218.29C97.65,217.44 99.04,216.61 100.44,215.77C101.83,214.94 103.23,214.11 104.63,213.28C106.02,212.46 107.41,211.64 108.81,210.82C110.2,210.01 111.6,209.2 113,208.39C114.39,207.58 115.78,206.78 117.18,205.98C118.57,205.18 119.97,204.38 121.37,203.59C122.76,202.8 124.15,202.02 125.55,201.24C126.94,200.46 128.34,199.69 129.74,198.92C131.13,198.15 132.52,197.38 133.92,196.62C135.31,195.86 136.71,195.1 138.11,194.34C139.5,193.58 140.89,192.83 142.29,192.08C143.68,191.33 145.08,190.59 146.48,189.85C147.87,189.11 149.26,188.37 150.66,187.63C152.05,186.89 153.45,186.16 154.85,185.43C156.24,184.7 157.63,183.97 159.03,183.24C160.42,182.52 161.82,181.8 163.22,181.08C164.61,180.36 166,179.64 167.4,178.93C168.79,178.22 170.19,177.51 171.59,176.8C172.98,176.09 174.37,175.39 175.77,174.69C177.16,173.99 178.56,173.3 179.96,172.61C181.35,171.92 182.75,171.23 184.14,170.54C185.54,169.85 186.93,169.17 188.33,168.49C189.72,167.81 191.12,167.13 192.51,166.46C193.91,165.79 195.3,165.12 196.7,164.45C198.09,163.78 199.49,163.11 200.88,162.45C202.28,161.78 203.67,161.12 205.07,160.46C206.46,159.8 207.86,159.14 209.25,158.49C210.65,157.83 212.04,157.18 213.44,156.53C214.83,155.88 216.22,155.23 217.62,154.59C219.01,153.95 220.41,153.32 221.81,152.68C223.2,152.04 224.6,151.4 225.99,150.77C227.39,150.13 228.78,149.5 230.18,148.87C231.58,148.24 232.97,147.62 234.37,146.99C235.76,146.37 237.16,145.74 238.55,145.12C239.95,144.5 241.34,143.88 242.74,143.26C244.13,142.64 245.53,142.03 246.92,141.42C248.32,140.81 249.71,140.21 251.11,139.6C252.5,139 253.9,138.39 255.29,137.79C256.69,137.19 258.08,136.59 259.48,135.99C260.87,135.39 262.27,134.79 263.66,134.2C265.06,133.6 266.45,133.01 267.85,132.42C269.24,131.83 270.64,131.24 272.03,130.65C273.43,130.06 274.82,129.48 276.22,128.89C277.61,128.3 279.01,127.71 280.4,127.13C281.8,126.54 283.19,125.96 284.59,125.38C285.98,124.8 287.38,124.23 288.77,123.65C290.17,123.07 291.56,122.49 292.96,121.91C294.35,121.33 295.75,120.76 297.14,120.19C298.54,119.62 299.93,119.04 301.33,118.47C302.72,117.9 304.12,117.33 305.51,116.76C306.91,116.19 308.3,115.63 309.7,115.06C311.09,114.5 312.49,113.93 313.88,113.37C315.28,112.81 316.67,112.24 318.07,111.68C319.46,111.12 320.86,110.56 322.25,110C323.65,109.44 325.04,108.89 326.44,108.33C327.83,107.78 329.23,107.22 330.62,106.67C332.02,106.12 333.41,105.57 334.81,105.02C336.2,104.47 337.6,103.92 338.99,103.37C340.39,102.82 341.78,102.28 343.18,101.74C344.57,101.2 345.97,100.66 347.36,100.12C348.76,99.58 350.15,99.05 351.55,98.51C352.94,97.97 354.34,97.43 355.73,96.9C357.13,96.36 358.52,95.83 359.92,95.3C361.31,94.77 362.71,94.24 364.1,93.71C365.5,93.18 366.89,92.64 368.29,92.11C369.68,91.58 371.08,91.06 372.47,90.53C373.87,90 375.26,89.48 376.66,88.95C378.05,88.42 379.45,87.89 380.84,87.37C382.24,86.85 383.63,86.33 385.03,85.81C386.42,85.29 387.82,84.78 389.21,84.26C390.61,83.74 392,83.22 393.4,82.7C394.79,82.18 396.19,81.66 397.58,81.15C398.98,80.63 400.37,80.12 401.77,79.61C403.16,79.1 404.56,78.58 405.95,78.07C407.35,77.56 408.74,77.04 410.14,76.53Q411.53,76.02 414.32,75L414.32,75Q411.53,76.02 410.14,76.53C408.74,77.04 407.35,77.56 405.95,78.07C404.56,78.58 403.16,79.1 401.77,79.61C400.37,80.12 398.98,80.63 397.58,81.15C396.19,81.66 394.79,82.18 393.4,82.7C392,83.22 390.61,83.74 389.21,84.26C387.82,84.78 386.42,85.29 385.03,85.81C383.63,86.33 382.24,86.85 380.84,87.37C379.45,87.89 378.05,88.42 376.66,88.95C375.26,89.48 373.87,90 372.47,90.53C371.08,91.06 369.68,91.58 368.29,92.11C366.89,92.64 365.5,93.18 364.1,93.71C362.71,94.24 361.31,94.77 359.92,95.3C358.52,95.83 357.13,96.36 355.73,96.9C354.34,97.43 352.94,97.97 351.55,98.51C350.15,99.05 348.76,99.58 347.36,100.12C345.97,100.66 344.57,101.2 343.18,101.74C341.78,102.28 340.39,102.82 338.99,103.37C337.6,103.92 336.2,104.47 334.81,105.02C333.41,105.57 332.02,106.12 330.62,106.67C329.23,107.22 327.83,107.78 326.44,108.33C325.04,108.89 323.65,109.44 322.25,110C320.86,110.56 319.46,111.12 318.07,111.68C316.67,112.24 315.28,112.81 313.88,113.37C312.49,113.93 311.09,114.5 309.7,115.06C308.3,115.63 306.91,116.19 305.51,116.76C304.12,117.33 302.72,117.9 301.33,118.47C299.93,119.04 298.54,119.62 297.14,120.19C295.75,120.76 294.35,121.33 292.96,121.91C291.56,122.49 290.17,123.07 288.77,123.65C287.38,124.23 285.98,124.8 284.59,125.38C283.19,125.96 281.8,126.54 280.4,127.13C279.01,127.71 277.61,128.3 276.22,128.89C274.82,129.48 273.43,130.06 272.03,130.65C270.64,131.24 269.24,131.83 267.85,132.42C266.45,133.01 265.06,133.6 263.66,134.2C262.27,134.79 260.87,135.39 259.48,135.99C258.08,136.59 256.69,137.19 255.29,137.79C253.9,138.39 252.5,139 251.11,139.6C249.71,140.21 248.32,140.81 246.92,141.42C245.53,142.03 244.13,142.64 242.74,143.26C241.34,143.88 239.95,144.5 238.55,145.12C237.16,145.74 235.76,146.37 234.37,146.99C232.97,147.62 231.58,148.24 230.18,148.87C228.78,149.5 227.39,150.13 225.99,150.77C224.6,151.4 223.2,152.04 221.81,152.68C220.41,153.32 219.01,153.95 217.62,154.59C216.22,155.23 214.83,155.88 213.44,156.53C212.04,157.18 210.65,157.83 209.25,158.49C207.86,159.14 206.46,159.8 205.07,160.46C203.67,161.12 202.28,161.78 200.88,162.45C199.49,163.11 198.09,163.78 196.7,164.45C195.3,165.12 193.91,165.79 192.51,166.46C191.12,167.13 189.72,167.81 188.33,168.49C186.93,169.17 185.54,169.85 184.14,170.54C182.75,171.23 181.35,171.92 179.96,172.61C178.56,173.3 177.16,173.99 175.77,174.69C174.37,175.39 172.98,176.09 171.59,176.8C170.19,177.51 168.79,178.22 167.4,178.93C166,179.64 164.61,180.36 163.22,181.08C161.82,181.8 160.42,182.52 159.03,183.24C157.63,183.97 156.24,184.7 154.85,185.43C153.45,186.16 152.05,186.89 150.66,187.63C149.26,188.37 147.87,189.11 146.48,189.85C145.08,190.59 143.68,191.33 142.29,192.08C140.89,192.83 139.5,193.58 138.11,194.34C136.71,195.1 135.31,195.86 133.92,196.62C132.52,197.38 131.13,198.15 129.74,198.92C128.34,199.69 126.94,200.46 125.55,201.24C124.15,202.02 122.76,202.8 121.37,203.59C119.97,204.38 118.57,205.18 117.18,205.98C115.78,206.78 114.39,207.58 113,208.39C111.6,209.2 110.2,210.01 108.81,210.82C107.41,211.64 106.02,212.46 104.63,213.28C103.23,214.11 101.83,214.94 100.44,215.77C99.04,216.61 97.65,217.44 96.26,218.29C94.86,219.14 93.46,219.99 92.07,220.85C90.67,221.71 89.28,222.58 87.89,223.45C86.49,224.32 85.09,225.19 83.7,226.08C82.3,226.97 80.91,227.87 79.52,228.77C78.12,229.67 76.72,230.58 75.33,231.5C73.93,232.42 72.54,233.35 71.15,234.28C69.75,235.22 68.35,236.16 66.96,237.11C65.56,238.07 64.17,239.03 62.78,240.01C61.38,240.99 59.98,241.98 58.59,242.98C57.19,243.98 55.8,244.98 54.41,246C53.01,247.02 51.61,248.06 50.22,249.1C48.82,250.15 47.43,251.21 46.04,252.28C44.64,253.35 43.24,254.43 41.85,255.52C40.45,256.62 39.06,257.73 37.67,258.85C36.27,259.98 34.87,261.11 33.48,262.27C32.08,263.43 30.69,264.61 29.3,265.81C27.9,267.02 26.5,268.24 25.11,269.49C23.71,270.75 22.32,272.04 20.93,273.36C19.53,274.7 18.12,276.05 16.74,277.45C15.33,278.87 13.94,280.31 12.56,281.81C11.15,283.35 9.74,284.92 8.37,286.58C6.95,288.3 5.54,290.05 4.19,291.98Q2.74,294.04 0,298.61Z" style="fill: rgb(95, 70, 144); fill-opacity: 0.3; stroke-width: 0;"/></g></g><g class="errorbars"/><g class="lines"><path class="js-line" d="M0,298.61Q2.74,294.04 4.19,291.98C5.54,290.05 6.95,288.3 8.37,286.58C9.74,284.92 11.15,283.35 12.56,281.81C13.94,280.31 15.33,278.87 16.74,277.45C18.12,276.05 19.53,274.7 20.93,273.36C22.32,272.04 23.71,270.75 25.11,269.49C26.5,268.24 27.9,267.02 29.3,265.81C30.69,264.61 32.08,263.43 33.48,262.27C34.87,261.11 36.27,259.98 37.67,258.85C39.06,257.73 40.45,256.62 41.85,255.52C43.24,254.43 44.64,253.35 46.04,252.28C47.43,251.21 48.82,250.15 50.22,249.1C51.61,248.06 53.01,247.02 54.41,246C55.8,244.98 57.19,243.98 58.59,242.98C59.98,241.98 61.38,240.99 62.78,240.01C64.17,239.03 65.56,238.07 66.96,237.11C68.35,236.16 69.75,235.22 71.15,234.28C72.54,233.35 73.93,232.42 75.33,231.5C76.72,230.58 78.12,229.67 79.52,228.77C80.91,227.87 82.3,226.97 83.7,226.08C85.09,225.19 86.49,224.32 87.89,223.45C89.28,222.58 90.67,221.71 92.07,220.85C93.46,219.99 94.86,219.14 96.26,218.29C97.65,217.44 99.04,216.61 100.44,215.77C101.83,214.94 103.23,214.11 104.63,213.28C106.02,212.46 107.41,211.64 108.81,210.82C110.2,210.01 111.6,209.2 113,208.39C114.39,207.58 115.78,206.78 117.18,205.98C118.57,205.18 119.97,204.38 121.37,203.59C122.76,202.8 124.15,202.02 125.55,201.24C126.94,200.46 128.34,199.69 129.74,198.92C131.13,198.15 132.52,197.38 133.92,196.62C135.31,195.86 136.71,195.1 138.11,194.34C139.5,193.58 140.89,192.83 142.29,192.08C143.68,191.33 145.08,190.59 146.48,189.85C147.87,189.11 149.26,188.37 150.66,187.63C152.05,186.89 153.45,186.16 154.85,185.43C156.24,184.7 157.63,183.97 159.03,183.24C160.42,182.52 161.82,181.8 163.22,181.08C164.61,180.36 166,179.64 167.4,178.93C168.79,178.22 170.19,177.51 171.59,176.8C172.98,176.09 174.37,175.39 175.77,174.69C177.16,173.99 178.56,173.3 179.96,172.61C181.35,171.92 182.75,171.23 184.14,170.54C185.54,169.85 186.93,169.17 188.33,168.49C189.72,167.81 191.12,167.13 192.51,166.46C193.91,165.79 195.3,165.12 196.7,164.45C198.09,163.78 199.49,163.11 200.88,162.45C202.28,161.78 203.67,161.12 205.07,160.46C206.46,159.8 207.86,159.14 209.25,158.49C210.65,157.83 212.04,157.18 213.44,156.53C214.83,155.88 216.22,155.23 217.62,154.59C219.01,153.95 220.41,153.32 221.81,152.68C223.2,152.04 224.6,151.4 225.99,150.77C227.39,150.13 228.78,149.5 230.18,148.87C231.58,148.24 232.97,147.62 234.37,146.99C235.76,146.37 237.16,145.74 238.55,145.12C239.95,144.5 241.34,143.88 242.74,143.26C244.13,142.64 245.53,142.03 246.92,141.42C248.32,140.81 249.71,140.21 251.11,139.6C252.5,139 253.9,138.39 255.29,137.79C256.69,137.19 258.08,136.59 259.48,135.99C260.87,135.39 262.27,134.79 263.66,134.2C265.06,133.6 266.45,133.01 267.85,132.42C269.24,131.83 270.64,131.24 272.03,130.65C273.43,130.06 274.82,129.48 276.22,128.89C277.61,128.3 279.01,127.71 280.4,127.13C281.8,126.54 283.19,125.96 284.59,125.38C285.98,124.8 287.38,124.23 288.77,123.65C290.17,123.07 291.56,122.49 292.96,121.91C294.35,121.33 295.75,120.76 297.14,120.19C298.54,119.62 299.93,119.04 301.33,118.47C302.72,117.9 304.12,117.33 305.51,116.76C306.91,116.19 308.3,115.63 309.7,115.06C311.09,114.5 312.49,113.93 313.88,113.37C315.28,112.81 316.67,112.24 318.07,111.68C319.46,111.12 320.86,110.56 322.25,110C323.65,109.44 325.04,108.89 326.44,108.33C327.83,107.78 329.23,107.22 330.62,106.67C332.02,106.12 333.41,105.57 334.81,105.02C336.2,104.47 337.6,103.92 338.99,103.37C340.39,102.82 341.78,102.28 343.18,101.74C344.57,101.2 345.97,100.66 347.36,100.12C348.76,99.58 350.15,99.05 351.55,98.51C352.94,97.97 354.34,97.43 355.73,96.9C357.13,96.36 358.52,95.83 359.92,95.3C361.31,94.77 362.71,94.24 364.1,93.71C365.5,93.18 366.89,92.64 368.29,92.11C369.68,91.58 371.08,91.06 372.47,90.53C373.87,90 375.26,89.48 376.66,88.95C378.05,88.42 379.45,87.89 380.84,87.37C382.24,86.85 383.63,86.33 385.03,85.81C386.42,85.29 387.82,84.78 389.21,84.26C390.61,83.74 392,83.22 393.4,82.7C394.79,82.18 396.19,81.66 397.58,81.15C398.98,80.63 400.37,80.12 401.77,79.61C403.16,79.1 404.56,78.58 405.95,78.07C407.35,77.56 408.74,77.04 410.14,76.53Q411.53,76.02 414.32,75" style="vector-effect: none; fill: none; stroke: rgb(239, 85, 59); stroke-opacity: 1; stroke-width: 0px; opacity: 1;"/></g><g class="points"/><g class="text"/></g><g class="trace scatter trace7516bf" style="stroke-miterlimit: 2;"><g class="fills"/><g class="errorbars"/><g class="lines"><path class="js-line" d="M0,298.61Q2.74,294.04 4.19,291.98C5.54,290.05 6.95,288.3 8.37,286.58C9.74,284.92 11.15,283.35 12.56,281.81C13.94,280.31 15.33,278.87 16.74,277.45C18.12,276.05 19.53,274.7 20.93,273.36C22.32,272.04 23.71,270.75 25.11,269.49C26.5,268.24 27.9,267.02 29.3,265.81C30.69,264.61 32.08,263.43 33.48,262.27C34.87,261.11 36.27,259.98 37.67,258.85C39.06,257.73 40.45,256.62 41.85,255.52C43.24,254.43 44.64,253.35 46.04,252.28C47.43,251.21 48.82,250.15 50.22,249.1C51.61,248.06 53.01,247.02 54.41,246C55.8,244.98 57.19,243.98 58.59,242.98C59.98,241.98 61.38,240.99 62.78,240.01C64.17,239.03 65.56,238.07 66.96,237.11C68.35,236.16 69.75,235.22 71.15,234.28C72.54,233.35 73.93,232.42 75.33,231.5C76.72,230.58 78.12,229.67 79.52,228.77C80.91,227.87 82.3,226.97 83.7,226.08C85.09,225.19 86.49,224.32 87.89,223.45C89.28,222.58 90.67,221.71 92.07,220.85C93.46,219.99 94.86,219.14 96.26,218.29C97.65,217.44 99.04,216.61 100.44,215.77C101.83,214.94 103.23,214.11 104.63,213.28C106.02,212.46 107.41,211.64 108.81,210.82C110.2,210.01 111.6,209.2 113,208.39C114.39,207.58 115.78,206.78 117.18,205.98C118.57,205.18 119.97,204.38 121.37,203.59C122.76,202.8 124.15,202.02 125.55,201.24C126.94,200.46 128.34,199.69 129.74,198.92C131.13,198.15 132.52,197.38 133.92,196.62C135.31,195.86 136.71,195.1 138.11,194.34C139.5,193.58 140.89,192.83 142.29,192.08C143.68,191.33 145.08,190.59 146.48,189.85C147.87,189.11 149.26,188.37 150.66,187.63C152.05,186.89 153.45,186.16 154.85,185.43C156.24,184.7 157.63,183.97 159.03,183.24C160.42,182.52 161.82,181.8 163.22,181.08C164.61,180.36 166,179.64 167.4,178.93C168.79,178.22 170.19,177.51 171.59,176.8C172.98,176.09 174.37,175.39 175.77,174.69C177.16,173.99 178.56,173.3 179.96,172.61C181.35,171.92 182.75,171.23 184.14,170.54C185.54,169.85 186.93,169.17 188.33,168.49C189.72,167.81 191.12,167.13 192.51,166.46C193.91,165.79 195.3,165.12 196.7,164.45C198.09,163.78 199.49,163.11 200.88,162.45C202.28,161.78 203.67,161.12 205.07,160.46C206.46,159.8 207.86,159.14 209.25,158.49C210.65,157.83 212.04,157.18 213.44,156.53C214.83,155.88 216.22,155.23 217.62,154.59C219.01,153.95 220.41,153.32 221.81,152.68C223.2,152.04 224.6,151.4 225.99,150.77C227.39,150.13 228.78,149.5 230.18,148.87C231.58,148.24 232.97,147.62 234.37,146.99C235.76,146.37 237.16,145.74 238.55,145.12C239.95,144.5 241.34,143.88 242.74,143.26C244.13,142.64 245.53,142.03 246.92,141.42C248.32,140.81 249.71,140.21 251.11,139.6C252.5,139 253.9,138.39 255.29,137.79C256.69,137.19 258.08,136.59 259.48,135.99C260.87,135.39 262.27,134.79 263.66,134.2C265.06,133.6 266.45,133.01 267.85,132.42C269.24,131.83 270.64,131.24 272.03,130.65C273.43,130.06 274.82,129.48 276.22,128.89C277.61,128.3 279.01,127.71 280.4,127.13C281.8,126.54 283.19,125.96 284.59,125.38C285.98,124.8 287.38,124.23 288.77,123.65C290.17,123.07 291.56,122.49 292.96,121.91C294.35,121.33 295.75,120.76 297.14,120.19C298.54,119.62 299.93,119.04 301.33,118.47C302.72,117.9 304.12,117.33 305.51,116.76C306.91,116.19 308.3,115.63 309.7,115.06C311.09,114.5 312.49,113.93 313.88,113.37C315.28,112.81 316.67,112.24 318.07,111.68C319.46,111.12 320.86,110.56 322.25,110C323.65,109.44 325.04,108.89 326.44,108.33C327.83,107.78 329.23,107.22 330.62,106.67C332.02,106.12 333.41,105.57 334.81,105.02C336.2,104.47 337.6,103.92 338.99,103.37C340.39,102.82 341.78,102.28 343.18,101.74C344.57,101.2 345.97,100.66 347.36,100.12C348.76,99.58 350.15,99.05 351.55,98.51C352.94,97.97 354.34,97.43 355.73,96.9C357.13,96.36 358.52,95.83 359.92,95.3C361.31,94.77 362.71,94.24 364.1,93.71C365.5,93.18 366.89,92.64 368.29,92.11C369.68,91.58 371.08,91.06 372.47,90.53C373.87,90 375.26,89.48 376.66,88.95C378.05,88.42 379.45,87.89 380.84,87.37C382.24,86.85 383.63,86.33 385.03,85.81C386.42,85.29 387.82,84.78 389.21,84.26C390.61,83.74 392,83.22 393.4,82.7C394.79,82.18 396.19,81.66 397.58,81.15C398.98,80.63 400.37,80.12 401.77,79.61C403.16,79.1 404.56,78.58 405.95,78.07C407.35,77.56 408.74,77.04 410.14,76.53Q411.53,76.02 414.32,75" style="vector-effect: none; fill: none; stroke: rgb(0, 204, 150); stroke-opacity: 1; stroke-width: 0px; opacity: 1;"/></g><g class="points"/><g class="text"/></g><g class="trace scatter tracef3cebc" style="stroke-miterlimit: 2; opacity: 1;"><g class="fills"/><g class="errorbars"/><g class="lines"><path class="js-line" d="M0,296.85Q2.79,292.26 4.25,290.15C5.63,288.15 7.07,286.3 8.51,284.47C9.91,282.69 11.33,280.99 12.76,279.32C14.16,277.68 15.58,276.1 17.01,274.54C18.42,273 19.83,271.51 21.26,270.03C22.67,268.57 24.09,267.14 25.52,265.73C26.93,264.33 28.35,262.95 29.77,261.59C31.18,260.24 32.6,258.91 34.02,257.59C35.43,256.28 36.85,254.98 38.27,253.69C39.68,252.41 41.11,251.15 42.53,249.89C43.94,248.64 45.36,247.4 46.78,246.17C48.19,244.94 49.61,243.73 51.03,242.52C52.44,241.32 53.86,240.12 55.28,238.94C56.7,237.76 58.12,236.59 59.54,235.42C60.96,234.26 62.37,233.11 63.79,231.96C65.2,230.82 66.62,229.68 68.04,228.55C69.46,227.42 70.87,226.3 72.29,225.18C73.71,224.07 75.13,222.96 76.55,221.86C77.97,220.76 79.38,219.67 80.8,218.58C82.22,217.49 83.63,216.42 85.05,215.34C86.47,214.27 87.88,213.19 89.3,212.13C90.72,211.07 92.14,210.01 93.56,208.96C94.98,207.91 96.39,206.87 97.81,205.82C99.23,204.78 100.64,203.73 102.06,202.69C103.48,201.65 104.89,200.61 106.31,199.58C107.73,198.55 109.15,197.53 110.57,196.5C111.99,195.48 113.4,194.45 114.82,193.43C116.24,192.41 117.65,191.4 119.07,190.39C120.49,189.38 121.9,188.39 123.32,187.39C124.74,186.39 126.16,185.39 127.58,184.4C129,183.41 130.41,182.42 131.83,181.43C133.25,180.44 134.66,179.46 136.08,178.48C137.5,177.5 138.91,176.53 140.33,175.56C141.75,174.59 143.17,173.62 144.59,172.66C146.01,171.7 147.42,170.74 148.84,169.79C150.26,168.84 151.67,167.89 153.09,166.94C154.51,165.99 155.92,165.05 157.34,164.11C158.76,163.17 160.18,162.23 161.6,161.3C163.02,160.37 164.43,159.44 165.85,158.51C167.27,157.58 168.68,156.66 170.1,155.74C171.52,154.82 172.93,153.89 174.35,152.97C175.77,152.05 177.19,151.14 178.61,150.23C180.03,149.32 181.44,148.42 182.86,147.51C184.28,146.61 185.69,145.7 187.11,144.8C188.53,143.9 189.94,143.01 191.36,142.12C192.78,141.23 194.2,140.34 195.62,139.45C197.04,138.56 198.45,137.67 199.87,136.79C201.29,135.91 202.7,135.03 204.12,134.16C205.54,133.29 206.95,132.42 208.37,131.55C209.79,130.68 211.21,129.81 212.63,128.94C214.05,128.07 215.46,127.21 216.88,126.35C218.3,125.49 219.71,124.64 221.13,123.79C222.55,122.94 223.96,122.08 225.38,121.23C226.8,120.38 228.22,119.53 229.64,118.69C231.06,117.85 232.47,117.01 233.89,116.17C235.31,115.33 236.72,114.5 238.14,113.66C239.56,112.83 240.97,111.99 242.39,111.16C243.81,110.33 245.23,109.5 246.65,108.67C248.07,107.84 249.48,107.02 250.9,106.2C252.32,105.38 253.73,104.56 255.15,103.74C256.57,102.92 257.98,102.11 259.4,101.3C260.82,100.49 262.24,99.67 263.66,98.86C265.08,98.05 266.49,97.26 267.91,96.46C269.33,95.66 270.74,94.86 272.16,94.06C273.58,93.26 274.99,92.46 276.41,91.67C277.83,90.88 279.25,90.09 280.67,89.3C282.09,88.51 283.5,87.73 284.92,86.94C286.34,86.16 287.75,85.37 289.17,84.59C290.59,83.81 292,83.02 293.42,82.24C294.84,81.46 296.26,80.68 297.68,79.9C299.1,79.12 300.51,78.35 301.93,77.57C303.35,76.79 304.76,76.02 306.18,75.24C307.6,74.47 309.01,73.69 310.43,72.92C311.85,72.15 313.27,71.39 314.69,70.62C316.11,69.85 317.52,69.09 318.94,68.32C320.36,67.56 321.77,66.79 323.19,66.03C324.61,65.27 326.02,64.51 327.44,63.76C328.86,63 330.28,62.25 331.7,61.5C333.12,60.75 334.53,60.01 335.95,59.26C337.37,58.52 338.78,57.77 340.2,57.03C341.62,56.29 343.03,55.55 344.45,54.81C345.87,54.07 347.29,53.34 348.71,52.61C350.13,51.88 351.54,51.16 352.96,50.43C354.38,49.7 355.79,48.97 357.21,48.25C358.63,47.53 360.04,46.81 361.46,46.1C362.88,45.38 364.3,44.67 365.72,43.96C367.14,43.25 368.55,42.53 369.97,41.82C371.39,41.11 372.8,40.4 374.22,39.69C375.64,38.98 377.05,38.27 378.47,37.56C379.89,36.85 381.31,36.14 382.73,35.43C384.15,34.72 385.56,34.01 386.98,33.3C388.4,32.59 389.81,31.89 391.23,31.18C392.65,30.47 394.06,29.76 395.48,29.06C396.9,28.36 398.32,27.66 399.74,26.96C401.16,26.26 402.57,25.55 403.99,24.85C405.41,24.15 406.82,23.46 408.24,22.76C409.66,22.06 411.07,21.36 412.49,20.67C413.91,19.97 415.33,19.29 416.75,18.59Q418.17,17.9 421,16.5" style="vector-effect: none; fill: none; stroke: rgb(102, 102, 102); stroke-opacity: 1; stroke-dasharray: 9px, 9px; stroke-width: 2px; opacity: 1;"/></g><g class="points"/><g class="text"/></g><g class="trace scatter traceb1963d" style="stroke-miterlimit: 2;"><g class="fills"><g><path class="js-fill" d="M0,296.85Q2.79,292.26 4.25,290.15C5.63,288.15 7.07,286.3 8.51,284.47C9.91,282.69 11.33,280.99 12.76,279.32C14.16,277.68 15.58,276.1 17.01,274.54C18.42,273 19.83,271.51 21.26,270.03C22.67,268.57 24.09,267.14 25.52,265.73C26.93,264.33 28.35,262.95 29.77,261.59C31.18,260.24 32.6,258.91 34.02,257.59C35.43,256.28 36.85,254.98 38.27,253.69C39.68,252.41 41.11,251.15 42.53,249.89C43.94,248.64 45.36,247.4 46.78,246.17C48.19,244.94 49.61,243.73 51.03,242.52C52.44,241.32 53.86,240.12 55.28,238.94C56.7,237.76 58.12,236.59 59.54,235.42C60.96,234.26 62.37,233.11 63.79,231.96C65.2,230.82 66.62,229.68 68.04,228.55C69.46,227.42 70.87,226.3 72.29,225.18C73.71,224.07 75.13,222.96 76.55,221.86C77.97,220.76 79.38,219.67 80.8,218.58C82.22,217.49 83.63,216.42 85.05,215.34C86.47,214.27 87.88,213.19 89.3,212.13C90.72,211.07 92.14,210.01 93.56,208.96C94.98,207.91 96.39,206.87 97.81,205.82C99.23,204.78 100.64,203.73 102.06,202.69C103.48,201.65 104.89,200.61 106.31,199.58C107.73,198.55 109.15,197.53 110.57,196.5C111.99,195.48 113.4,194.45 114.82,193.43C116.24,192.41 117.65,191.4 119.07,190.39C120.49,189.38 121.9,188.39 123.32,187.39C124.74,186.39 126.16,185.39 127.58,184.4C129,183.41 130.41,182.42 131.83,181.43C133.25,180.44 134.66,179.46 136.08,178.48C137.5,177.5 138.91,176.53 140.33,175.56C141.75,174.59 143.17,173.62 144.59,172.66C146.01,171.7 147.42,170.74 148.84,169.79C150.26,168.84 151.67,167.89 153.09,166.94C154.51,165.99 155.92,165.05 157.34,164.11C158.76,163.17 160.18,162.23 161.6,161.3C163.02,160.37 164.43,159.44 165.85,158.51C167.27,157.58 168.68,156.66 170.1,155.74C171.52,154.82 172.93,153.89 174.35,152.97C175.77,152.05 177.19,151.14 178.61,150.23C180.03,149.32 181.44,148.42 182.86,147.51C184.28,146.61 185.69,145.7 187.11,144.8C188.53,143.9 189.94,143.01 191.36,142.12C192.78,141.23 194.2,140.34 195.62,139.45C197.04,138.56 198.45,137.67 199.87,136.79C201.29,135.91 202.7,135.03 204.12,134.16C205.54,133.29 206.95,132.42 208.37,131.55C209.79,130.68 211.21,129.81 212.63,128.94C214.05,128.07 215.46,127.21 216.88,126.35C218.3,125.49 219.71,124.64 221.13,123.79C222.55,122.94 223.96,122.08 225.38,121.23C226.8,120.38 228.22,119.53 229.64,118.69C231.06,117.85 232.47,117.01 233.89,116.17C235.31,115.33 236.72,114.5 238.14,113.66C239.56,112.83 240.97,111.99 242.39,111.16C243.81,110.33 245.23,109.5 246.65,108.67C248.07,107.84 249.48,107.02 250.9,106.2C252.32,105.38 253.73,104.56 255.15,103.74C256.57,102.92 257.98,102.11 259.4,101.3C260.82,100.49 262.24,99.67 263.66,98.86C265.08,98.05 266.49,97.26 267.91,96.46C269.33,95.66 270.74,94.86 272.16,94.06C273.58,93.26 274.99,92.46 276.41,91.67C277.83,90.88 279.25,90.09 280.67,89.3C282.09,88.51 283.5,87.73 284.92,86.94C286.34,86.16 287.75,85.37 289.17,84.59C290.59,83.81 292,83.02 293.42,82.24C294.84,81.46 296.26,80.68 297.68,79.9C299.1,79.12 300.51,78.35 301.93,77.57C303.35,76.79 304.76,76.02 306.18,75.24C307.6,74.47 309.01,73.69 310.43,72.92C311.85,72.15 313.27,71.39 314.69,70.62C316.11,69.85 317.52,69.09 318.94,68.32C320.36,67.56 321.77,66.79 323.19,66.03C324.61,65.27 326.02,64.51 327.44,63.76C328.86,63 330.28,62.25 331.7,61.5C333.12,60.75 334.53,60.01 335.95,59.26C337.37,58.52 338.78,57.77 340.2,57.03C341.62,56.29 343.03,55.55 344.45,54.81C345.87,54.07 347.29,53.34 348.71,52.61C350.13,51.88 351.54,51.16 352.96,50.43C354.38,49.7 355.79,48.97 357.21,48.25C358.63,47.53 360.04,46.81 361.46,46.1C362.88,45.38 364.3,44.67 365.72,43.96C367.14,43.25 368.55,42.53 369.97,41.82C371.39,41.11 372.8,40.4 374.22,39.69C375.64,38.98 377.05,38.27 378.47,37.56C379.89,36.85 381.31,36.14 382.73,35.43C384.15,34.72 385.56,34.01 386.98,33.3C388.4,32.59 389.81,31.89 391.23,31.18C392.65,30.47 394.06,29.76 395.48,29.06C396.9,28.36 398.32,27.66 399.74,26.96C401.16,26.26 402.57,25.55 403.99,24.85C405.41,24.15 406.82,23.46 408.24,22.76C409.66,22.06 411.07,21.36 412.49,20.67C413.91,19.97 415.33,19.29 416.75,18.59Q418.17,17.9 421,16.5L421,16.5Q418.17,17.9 416.75,18.59C415.33,19.29 413.91,19.97 412.49,20.67C411.07,21.36 409.66,22.06 408.24,22.76C406.82,23.46 405.41,24.15 403.99,24.85C402.57,25.55 401.16,26.26 399.74,26.96C398.32,27.66 396.9,28.36 395.48,29.06C394.06,29.76 392.65,30.47 391.23,31.18C389.81,31.89 388.4,32.59 386.98,33.3C385.56,34.01 384.15,34.72 382.73,35.43C381.31,36.14 379.89,36.85 378.47,37.56C377.05,38.27 375.64,38.98 374.22,39.69C372.8,40.4 371.39,41.11 369.97,41.82C368.55,42.53 367.14,43.25 365.72,43.96C364.3,44.67 362.88,45.38 361.46,46.1C360.04,46.81 358.63,47.53 357.21,48.25C355.79,48.97 354.38,49.7 352.96,50.43C351.54,51.16 350.13,51.88 348.71,52.61C347.29,53.34 345.87,54.07 344.45,54.81C343.03,55.55 341.62,56.29 340.2,57.03C338.78,57.77 337.37,58.52 335.95,59.26C334.53,60.01 333.12,60.75 331.7,61.5C330.28,62.25 328.86,63 327.44,63.76C326.02,64.51 324.61,65.27 323.19,66.03C321.77,66.79 320.36,67.56 318.94,68.32C317.52,69.09 316.11,69.85 314.69,70.62C313.27,71.39 311.85,72.15 310.43,72.92C309.01,73.69 307.6,74.47 306.18,75.24C304.76,76.02 303.35,76.79 301.93,77.57C300.51,78.35 299.1,79.12 297.68,79.9C296.26,80.68 294.84,81.46 293.42,82.24C292,83.02 290.59,83.81 289.17,84.59C287.75,85.37 286.34,86.16 284.92,86.94C283.5,87.73 282.09,88.51 280.67,89.3C279.25,90.09 277.83,90.88 276.41,91.67C274.99,92.46 273.58,93.26 272.16,94.06C270.74,94.86 269.33,95.66 267.91,96.46C266.49,97.26 265.08,98.05 263.66,98.86C262.24,99.67 260.82,100.49 259.4,101.3C257.98,102.11 256.57,102.92 255.15,103.74C253.73,104.56 252.32,105.38 250.9,106.2C249.48,107.02 248.07,107.84 246.65,108.67C245.23,109.5 243.81,110.33 242.39,111.16C240.97,111.99 239.56,112.83 238.14,113.66C236.72,114.5 235.31,115.33 233.89,116.17C232.47,117.01 231.06,117.85 229.64,118.69C228.22,119.53 226.8,120.38 225.38,121.23C223.96,122.08 222.55,122.94 221.13,123.79C219.71,124.64 218.3,125.49 216.88,126.35C215.46,127.21 214.05,128.07 212.63,128.94C211.21,129.81 209.79,130.68 208.37,131.55C206.95,132.42 205.54,133.29 204.12,134.16C202.7,135.03 201.29,135.91 199.87,136.79C198.45,137.67 197.04,138.56 195.62,139.45C194.2,140.34 192.78,141.23 191.36,142.12C189.94,143.01 188.53,143.9 187.11,144.8C185.69,145.7 184.28,146.61 182.86,147.51C181.44,148.42 180.03,149.32 178.61,150.23C177.19,151.14 175.77,152.05 174.35,152.97C172.93,153.89 171.52,154.82 170.1,155.74C168.68,156.66 167.27,157.58 165.85,158.51C164.43,159.44 163.02,160.37 161.6,161.3C160.18,162.23 158.76,163.17 157.34,164.11C155.92,165.05 154.51,165.99 153.09,166.94C151.67,167.89 150.26,168.84 148.84,169.79C147.42,170.74 146.01,171.7 144.59,172.66C143.17,173.62 141.75,174.59 140.33,175.56C138.91,176.53 137.5,177.5 136.08,178.48C134.66,179.46 133.25,180.44 131.83,181.43C130.41,182.42 129,183.41 127.58,184.4C126.16,185.39 124.74,186.39 123.32,187.39C121.9,188.39 120.49,189.38 119.07,190.39C117.65,191.4 116.24,192.41 114.82,193.43C113.4,194.45 111.99,195.48 110.57,196.5C109.15,197.53 107.73,198.55 106.31,199.58C104.89,200.61 103.48,201.65 102.06,202.69C100.64,203.73 99.23,204.78 97.81,205.82C96.39,206.87 94.98,207.91 93.56,208.96C92.14,210.01 90.72,211.07 89.3,212.13C87.88,213.19 86.47,214.27 85.05,215.34C83.63,216.42 82.22,217.49 80.8,218.58C79.38,219.67 77.97,220.76 76.55,221.86C75.13,222.96 73.71,224.07 72.29,225.18C70.87,226.3 69.46,227.42 68.04,228.55C66.62,229.68 65.2,230.82 63.79,231.96C62.37,233.11 60.96,234.26 59.54,235.42C58.12,236.59 56.7,237.76 55.28,238.94C53.86,240.12 52.44,241.32 51.03,242.52C49.61,243.73 48.19,244.94 46.78,246.17C45.36,247.4 43.94,248.64 42.53,249.89C41.11,251.15 39.68,252.41 38.27,253.69C36.85,254.98 35.43,256.28 34.02,257.59C32.6,258.91 31.18,260.24 29.77,261.59C28.35,262.95 26.93,264.33 25.52,265.73C24.09,267.14 22.67,268.57 21.26,270.03C19.83,271.51 18.42,273 17.01,274.54C15.58,276.1 14.16,277.68 12.76,279.32C11.33,280.99 9.91,282.69 8.51,284.47C7.07,286.3 5.63,288.15 4.25,290.15Q2.79,292.26 0,296.85Z" style="fill: rgb(102, 102, 102); fill-opacity: 0.3; stroke-width: 0;"/></g></g><g class="errorbars"/><g class="lines"><path class="js-line" d="M0,296.85Q2.79,292.26 4.25,290.15C5.63,288.15 7.07,286.3 8.51,284.47C9.91,282.69 11.33,280.99 12.76,279.32C14.16,277.68 15.58,276.1 17.01,274.54C18.42,273 19.83,271.51 21.26,270.03C22.67,268.57 24.09,267.14 25.52,265.73C26.93,264.33 28.35,262.95 29.77,261.59C31.18,260.24 32.6,258.91 34.02,257.59C35.43,256.28 36.85,254.98 38.27,253.69C39.68,252.41 41.11,251.15 42.53,249.89C43.94,248.64 45.36,247.4 46.78,246.17C48.19,244.94 49.61,243.73 51.03,242.52C52.44,241.32 53.86,240.12 55.28,238.94C56.7,237.76 58.12,236.59 59.54,235.42C60.96,234.26 62.37,233.11 63.79,231.96C65.2,230.82 66.62,229.68 68.04,228.55C69.46,227.42 70.87,226.3 72.29,225.18C73.71,224.07 75.13,222.96 76.55,221.86C77.97,220.76 79.38,219.67 80.8,218.58C82.22,217.49 83.63,216.42 85.05,215.34C86.47,214.27 87.88,213.19 89.3,212.13C90.72,211.07 92.14,210.01 93.56,208.96C94.98,207.91 96.39,206.87 97.81,205.82C99.23,204.78 100.64,203.73 102.06,202.69C103.48,201.65 104.89,200.61 106.31,199.58C107.73,198.55 109.15,197.53 110.57,196.5C111.99,195.48 113.4,194.45 114.82,193.43C116.24,192.41 117.65,191.4 119.07,190.39C120.49,189.38 121.9,188.39 123.32,187.39C124.74,186.39 126.16,185.39 127.58,184.4C129,183.41 130.41,182.42 131.83,181.43C133.25,180.44 134.66,179.46 136.08,178.48C137.5,177.5 138.91,176.53 140.33,175.56C141.75,174.59 143.17,173.62 144.59,172.66C146.01,171.7 147.42,170.74 148.84,169.79C150.26,168.84 151.67,167.89 153.09,166.94C154.51,165.99 155.92,165.05 157.34,164.11C158.76,163.17 160.18,162.23 161.6,161.3C163.02,160.37 164.43,159.44 165.85,158.51C167.27,157.58 168.68,156.66 170.1,155.74C171.52,154.82 172.93,153.89 174.35,152.97C175.77,152.05 177.19,151.14 178.61,150.23C180.03,149.32 181.44,148.42 182.86,147.51C184.28,146.61 185.69,145.7 187.11,144.8C188.53,143.9 189.94,143.01 191.36,142.12C192.78,141.23 194.2,140.34 195.62,139.45C197.04,138.56 198.45,137.67 199.87,136.79C201.29,135.91 202.7,135.03 204.12,134.16C205.54,133.29 206.95,132.42 208.37,131.55C209.79,130.68 211.21,129.81 212.63,128.94C214.05,128.07 215.46,127.21 216.88,126.35C218.3,125.49 219.71,124.64 221.13,123.79C222.55,122.94 223.96,122.08 225.38,121.23C226.8,120.38 228.22,119.53 229.64,118.69C231.06,117.85 232.47,117.01 233.89,116.17C235.31,115.33 236.72,114.5 238.14,113.66C239.56,112.83 240.97,111.99 242.39,111.16C243.81,110.33 245.23,109.5 246.65,108.67C248.07,107.84 249.48,107.02 250.9,106.2C252.32,105.38 253.73,104.56 255.15,103.74C256.57,102.92 257.98,102.11 259.4,101.3C260.82,100.49 262.24,99.67 263.66,98.86C265.08,98.05 266.49,97.26 267.91,96.46C269.33,95.66 270.74,94.86 272.16,94.06C273.58,93.26 274.99,92.46 276.41,91.67C277.83,90.88 279.25,90.09 280.67,89.3C282.09,88.51 283.5,87.73 284.92,86.94C286.34,86.16 287.75,85.37 289.17,84.59C290.59,83.81 292,83.02 293.42,82.24C294.84,81.46 296.26,80.68 297.68,79.9C299.1,79.12 300.51,78.35 301.93,77.57C303.35,76.79 304.76,76.02 306.18,75.24C307.6,74.47 309.01,73.69 310.43,72.92C311.85,72.15 313.27,71.39 314.69,70.62C316.11,69.85 317.52,69.09 318.94,68.32C320.36,67.56 321.77,66.79 323.19,66.03C324.61,65.27 326.02,64.51 327.44,63.76C328.86,63 330.28,62.25 331.7,61.5C333.12,60.75 334.53,60.01 335.95,59.26C337.37,58.52 338.78,57.77 340.2,57.03C341.62,56.29 343.03,55.55 344.45,54.81C345.87,54.07 347.29,53.34 348.71,52.61C350.13,51.88 351.54,51.16 352.96,50.43C354.38,49.7 355.79,48.97 357.21,48.25C358.63,47.53 360.04,46.81 361.46,46.1C362.88,45.38 364.3,44.67 365.72,43.96C367.14,43.25 368.55,42.53 369.97,41.82C371.39,41.11 372.8,40.4 374.22,39.69C375.64,38.98 377.05,38.27 378.47,37.56C379.89,36.85 381.31,36.14 382.73,35.43C384.15,34.72 385.56,34.01 386.98,33.3C388.4,32.59 389.81,31.89 391.23,31.18C392.65,30.47 394.06,29.76 395.48,29.06C396.9,28.36 398.32,27.66 399.74,26.96C401.16,26.26 402.57,25.55 403.99,24.85C405.41,24.15 406.82,23.46 408.24,22.76C409.66,22.06 411.07,21.36 412.49,20.67C413.91,19.97 415.33,19.29 416.75,18.59Q418.17,17.9 421,16.5" style="vector-effect: none; fill: none; stroke: rgb(255, 161, 90); stroke-opacity: 1; stroke-width: 0px; opacity: 1;"/></g><g class="points"/><g class="text"/></g><g class="trace scatter trace81f70e" style="stroke-miterlimit: 2;"><g class="fills"/><g class="errorbars"/><g class="lines"><path class="js-line" d="M0,296.85Q2.79,292.26 4.25,290.15C5.63,288.15 7.07,286.3 8.51,284.47C9.91,282.69 11.33,280.99 12.76,279.32C14.16,277.68 15.58,276.1 17.01,274.54C18.42,273 19.83,271.51 21.26,270.03C22.67,268.57 24.09,267.14 25.52,265.73C26.93,264.33 28.35,262.95 29.77,261.59C31.18,260.24 32.6,258.91 34.02,257.59C35.43,256.28 36.85,254.98 38.27,253.69C39.68,252.41 41.11,251.15 42.53,249.89C43.94,248.64 45.36,247.4 46.78,246.17C48.19,244.94 49.61,243.73 51.03,242.52C52.44,241.32 53.86,240.12 55.28,238.94C56.7,237.76 58.12,236.59 59.54,235.42C60.96,234.26 62.37,233.11 63.79,231.96C65.2,230.82 66.62,229.68 68.04,228.55C69.46,227.42 70.87,226.3 72.29,225.18C73.71,224.07 75.13,222.96 76.55,221.86C77.97,220.76 79.38,219.67 80.8,218.58C82.22,217.49 83.63,216.42 85.05,215.34C86.47,214.27 87.88,213.19 89.3,212.13C90.72,211.07 92.14,210.01 93.56,208.96C94.98,207.91 96.39,206.87 97.81,205.82C99.23,204.78 100.64,203.73 102.06,202.69C103.48,201.65 104.89,200.61 106.31,199.58C107.73,198.55 109.15,197.53 110.57,196.5C111.99,195.48 113.4,194.45 114.82,193.43C116.24,192.41 117.65,191.4 119.07,190.39C120.49,189.38 121.9,188.39 123.32,187.39C124.74,186.39 126.16,185.39 127.58,184.4C129,183.41 130.41,182.42 131.83,181.43C133.25,180.44 134.66,179.46 136.08,178.48C137.5,177.5 138.91,176.53 140.33,175.56C141.75,174.59 143.17,173.62 144.59,172.66C146.01,171.7 147.42,170.74 148.84,169.79C150.26,168.84 151.67,167.89 153.09,166.94C154.51,165.99 155.92,165.05 157.34,164.11C158.76,163.17 160.18,162.23 161.6,161.3C163.02,160.37 164.43,159.44 165.85,158.51C167.27,157.58 168.68,156.66 170.1,155.74C171.52,154.82 172.93,153.89 174.35,152.97C175.77,152.05 177.19,151.14 178.61,150.23C180.03,149.32 181.44,148.42 182.86,147.51C184.28,146.61 185.69,145.7 187.11,144.8C188.53,143.9 189.94,143.01 191.36,142.12C192.78,141.23 194.2,140.34 195.62,139.45C197.04,138.56 198.45,137.67 199.87,136.79C201.29,135.91 202.7,135.03 204.12,134.16C205.54,133.29 206.95,132.42 208.37,131.55C209.79,130.68 211.21,129.81 212.63,128.94C214.05,128.07 215.46,127.21 216.88,126.35C218.3,125.49 219.71,124.64 221.13,123.79C222.55,122.94 223.96,122.08 225.38,121.23C226.8,120.38 228.22,119.53 229.64,118.69C231.06,117.85 232.47,117.01 233.89,116.17C235.31,115.33 236.72,114.5 238.14,113.66C239.56,112.83 240.97,111.99 242.39,111.16C243.81,110.33 245.23,109.5 246.65,108.67C248.07,107.84 249.48,107.02 250.9,106.2C252.32,105.38 253.73,104.56 255.15,103.74C256.57,102.92 257.98,102.11 259.4,101.3C260.82,100.49 262.24,99.67 263.66,98.86C265.08,98.05 266.49,97.26 267.91,96.46C269.33,95.66 270.74,94.86 272.16,94.06C273.58,93.26 274.99,92.46 276.41,91.67C277.83,90.88 279.25,90.09 280.67,89.3C282.09,88.51 283.5,87.73 284.92,86.94C286.34,86.16 287.75,85.37 289.17,84.59C290.59,83.81 292,83.02 293.42,82.24C294.84,81.46 296.26,80.68 297.68,79.9C299.1,79.12 300.51,78.35 301.93,77.57C303.35,76.79 304.76,76.02 306.18,75.24C307.6,74.47 309.01,73.69 310.43,72.92C311.85,72.15 313.27,71.39 314.69,70.62C316.11,69.85 317.52,69.09 318.94,68.32C320.36,67.56 321.77,66.79 323.19,66.03C324.61,65.27 326.02,64.51 327.44,63.76C328.86,63 330.28,62.25 331.7,61.5C333.12,60.75 334.53,60.01 335.95,59.26C337.37,58.52 338.78,57.77 340.2,57.03C341.62,56.29 343.03,55.55 344.45,54.81C345.87,54.07 347.29,53.34 348.71,52.61C350.13,51.88 351.54,51.16 352.96,50.43C354.38,49.7 355.79,48.97 357.21,48.25C358.63,47.53 360.04,46.81 361.46,46.1C362.88,45.38 364.3,44.67 365.72,43.96C367.14,43.25 368.55,42.53 369.97,41.82C371.39,41.11 372.8,40.4 374.22,39.69C375.64,38.98 377.05,38.27 378.47,37.56C379.89,36.85 381.31,36.14 382.73,35.43C384.15,34.72 385.56,34.01 386.98,33.3C388.4,32.59 389.81,31.89 391.23,31.18C392.65,30.47 394.06,29.76 395.48,29.06C396.9,28.36 398.32,27.66 399.74,26.96C401.16,26.26 402.57,25.55 403.99,24.85C405.41,24.15 406.82,23.46 408.24,22.76C409.66,22.06 411.07,21.36 412.49,20.67C413.91,19.97 415.33,19.29 416.75,18.59Q418.17,17.9 421,16.5" style="vector-effect: none; fill: none; stroke: rgb(25, 211, 243); stroke-opacity: 1; stroke-width: 0px; opacity: 1;"/></g><g class="points"/><g class="text"/></g><g class="trace scatter trace32b183" style="stroke-miterlimit: 2; opacity: 1;"><g class="fills"/><g class="errorbars"/><g class="lines"><path class="js-line" d="M0,313.5Q2.61,305.52 4.19,302.37C5.46,299.83 6.91,297.85 8.37,295.86C9.71,294.02 11.13,292.38 12.56,290.79C13.92,289.27 15.32,287.87 16.74,286.51C18.11,285.19 19.52,283.95 20.93,282.74C22.31,281.56 23.7,280.43 25.11,279.34C26.49,278.27 27.9,277.25 29.3,276.25C30.69,275.27 32.08,274.32 33.48,273.39C34.87,272.47 36.27,271.58 37.67,270.71C39.06,269.84 40.45,269 41.85,268.17C43.24,267.35 44.64,266.55 46.04,265.76C47.43,264.97 48.82,264.2 50.22,263.44C51.61,262.69 53.01,261.95 54.41,261.23C55.8,260.51 57.19,259.81 58.59,259.12C59.98,258.43 61.38,257.75 62.78,257.09C64.17,256.43 65.56,255.78 66.96,255.15C68.35,254.52 69.75,253.9 71.15,253.29C72.54,252.68 73.93,252.09 75.33,251.5C76.72,250.91 78.12,250.34 79.52,249.77C80.91,249.2 82.3,248.65 83.7,248.1C85.09,247.55 86.49,247.02 87.89,246.49C89.28,245.96 90.67,245.44 92.07,244.92C93.46,244.4 94.86,243.89 96.26,243.39C97.65,242.89 99.04,242.39 100.44,241.9C101.83,241.41 103.23,240.94 104.63,240.46C106.02,239.98 107.42,239.51 108.81,239.04C110.21,238.57 111.6,238.1 113,237.64C114.39,237.18 115.79,236.72 117.18,236.27C118.58,235.82 119.97,235.37 121.37,234.92C122.76,234.48 124.16,234.03 125.55,233.6C126.95,233.16 128.34,232.74 129.74,232.31C131.13,231.89 132.53,231.47 133.92,231.05C135.32,230.63 136.71,230.21 138.11,229.8C139.5,229.39 140.9,228.99 142.29,228.58C143.69,228.17 145.08,227.76 146.48,227.36C147.87,226.96 149.27,226.56 150.66,226.17C152.06,225.77 153.45,225.38 154.85,224.99C156.24,224.6 157.64,224.2 159.03,223.81C160.43,223.42 161.82,223.04 163.22,222.65C164.61,222.27 166.01,221.88 167.4,221.5C168.8,221.12 170.19,220.74 171.59,220.37C172.98,220 174.38,219.62 175.77,219.26C177.17,218.89 178.56,218.54 179.96,218.18C181.35,217.82 182.75,217.46 184.14,217.11C185.54,216.75 186.93,216.4 188.33,216.05C189.72,215.7 191.12,215.36 192.51,215.02C193.91,214.68 195.3,214.33 196.7,213.99C198.09,213.65 199.49,213.32 200.88,212.98C202.28,212.64 203.67,212.31 205.07,211.97C206.46,211.64 207.86,211.3 209.25,210.97C210.65,210.64 212.04,210.31 213.44,209.98C214.83,209.65 216.23,209.33 217.62,209.01C219.02,208.69 220.41,208.38 221.81,208.06C223.2,207.74 224.6,207.43 225.99,207.11C227.39,206.79 228.78,206.48 230.18,206.16C231.58,205.85 232.97,205.53 234.37,205.22C235.76,204.91 237.16,204.6 238.55,204.29C239.95,203.98 241.34,203.68 242.74,203.37C244.13,203.07 245.53,202.76 246.92,202.46C248.32,202.16 249.71,201.87 251.11,201.57C252.5,201.28 253.9,200.98 255.29,200.69C256.69,200.4 258.08,200.1 259.48,199.81C260.87,199.52 262.27,199.22 263.66,198.93C265.06,198.64 266.45,198.35 267.85,198.06C269.24,197.77 270.64,197.48 272.03,197.19C273.43,196.9 274.82,196.62 276.22,196.33C277.61,196.04 279.01,195.75 280.4,195.46C281.8,195.17 283.19,194.89 284.59,194.6C285.98,194.31 287.38,194.03 288.77,193.74C290.17,193.45 291.56,193.16 292.96,192.87C294.35,192.58 295.75,192.29 297.14,192.01C298.54,191.72 299.93,191.45 301.33,191.16C302.72,190.87 304.12,190.58 305.51,190.29C306.91,190 308.3,189.73 309.7,189.44C311.09,189.16 312.49,188.86 313.88,188.58C315.28,188.29 316.67,188.02 318.07,187.73C319.46,187.44 320.86,187.15 322.25,186.86C323.65,186.57 325.04,186.29 326.44,186C327.83,185.72 329.23,185.43 330.62,185.15C332.02,184.87 333.41,184.58 334.81,184.3C336.2,184.02 337.6,183.74 338.99,183.46C340.39,183.18 341.78,182.91 343.18,182.63C344.57,182.36 345.97,182.08 347.36,181.81C348.76,181.54 350.15,181.26 351.55,180.99C352.94,180.72 354.34,180.44 355.73,180.17C357.13,179.9 358.52,179.64 359.92,179.37C361.31,179.1 362.71,178.81 364.1,178.54C365.5,178.26 366.89,177.99 368.29,177.72C369.68,177.45 371.08,177.17 372.47,176.9C373.87,176.63 375.26,176.35 376.66,176.08C378.05,175.81 379.45,175.53 380.84,175.26C382.24,174.99 383.63,174.73 385.03,174.46C386.42,174.19 387.82,173.93 389.21,173.66C390.61,173.39 392,173.11 393.4,172.84C394.79,172.57 396.19,172.3 397.58,172.03C398.98,171.76 400.37,171.48 401.77,171.21C403.16,170.94 404.56,170.67 405.95,170.4C407.35,170.13 408.74,169.85 410.14,169.58Q411.53,169.31 414.32,168.77" style="vector-effect: none; fill: none; stroke: rgb(95, 70, 144); stroke-opacity: 1; stroke-width: 2px; opacity: 1;"/></g><g class="points"/><g class="text"/></g><g class="trace scatter trace4d717d" style="stroke-miterlimit: 2;"><g class="fills"><g><path class="js-fill" d="M0,313.5Q2.61,305.52 4.19,302.37C5.46,299.83 6.91,297.85 8.37,295.86C9.71,294.02 11.13,292.38 12.56,290.79C13.92,289.27 15.32,287.87 16.74,286.51C18.11,285.19 19.52,283.95 20.93,282.74C22.31,281.56 23.7,280.43 25.11,279.34C26.49,278.27 27.9,277.25 29.3,276.25C30.69,275.27 32.08,274.32 33.48,273.39C34.87,272.47 36.27,271.58 37.67,270.71C39.06,269.84 40.45,269 41.85,268.17C43.24,267.35 44.64,266.55 46.04,265.76C47.43,264.97 48.82,264.2 50.22,263.44C51.61,262.69 53.01,261.95 54.41,261.23C55.8,260.51 57.19,259.81 58.59,259.12C59.98,258.43 61.38,257.75 62.78,257.09C64.17,256.43 65.56,255.78 66.96,255.15C68.35,254.52 69.75,253.9 71.15,253.29C72.54,252.68 73.93,252.09 75.33,251.5C76.72,250.91 78.12,250.34 79.52,249.77C80.91,249.2 82.3,248.65 83.7,248.1C85.09,247.55 86.49,247.02 87.89,246.49C89.28,245.96 90.67,245.44 92.07,244.92C93.46,244.4 94.86,243.89 96.26,243.39C97.65,242.89 99.04,242.39 100.44,241.9C101.83,241.41 103.23,240.94 104.63,240.46C106.02,239.98 107.42,239.51 108.81,239.04C110.21,238.57 111.6,238.1 113,237.64C114.39,237.18 115.79,236.72 117.18,236.27C118.58,235.82 119.97,235.37 121.37,234.92C122.76,234.48 124.16,234.03 125.55,233.6C126.95,233.16 128.34,232.74 129.74,232.31C131.13,231.89 132.53,231.47 133.92,231.05C135.32,230.63 136.71,230.21 138.11,229.8C139.5,229.39 140.9,228.99 142.29,228.58C143.69,228.17 145.08,227.76 146.48,227.36C147.87,226.96 149.27,226.56 150.66,226.17C152.06,225.77 153.45,225.38 154.85,224.99C156.24,224.6 157.64,224.2 159.03,223.81C160.43,223.42 161.82,223.04 163.22,222.65C164.61,222.27 166.01,221.88 167.4,221.5C168.8,221.12 170.19,220.74 171.59,220.37C172.98,220 174.38,219.62 175.77,219.26C177.17,218.89 178.56,218.54 179.96,218.18C181.35,217.82 182.75,217.46 184.14,217.11C185.54,216.75 186.93,216.4 188.33,216.05C189.72,215.7 191.12,215.36 192.51,215.02C193.91,214.68 195.3,214.33 196.7,213.99C198.09,213.65 199.49,213.32 200.88,212.98C202.28,212.64 203.67,212.31 205.07,211.97C206.46,211.64 207.86,211.3 209.25,210.97C210.65,210.64 212.04,210.31 213.44,209.98C214.83,209.65 216.23,209.33 217.62,209.01C219.02,208.69 220.41,208.38 221.81,208.06C223.2,207.74 224.6,207.43 225.99,207.11C227.39,206.79 228.78,206.48 230.18,206.16C231.58,205.85 232.97,205.53 234.37,205.22C235.76,204.91 237.16,204.6 238.55,204.29C239.95,203.98 241.34,203.68 242.74,203.37C244.13,203.07 245.53,202.76 246.92,202.46C248.32,202.16 249.71,201.87 251.11,201.57C252.5,201.28 253.9,200.98 255.29,200.69C256.69,200.4 258.08,200.1 259.48,199.81C260.87,199.52 262.27,199.22 263.66,198.93C265.06,198.64 266.45,198.35 267.85,198.06C269.24,197.77 270.64,197.48 272.03,197.19C273.43,196.9 274.82,196.62 276.22,196.33C277.61,196.04 279.01,195.75 280.4,195.46C281.8,195.17 283.19,194.89 284.59,194.6C285.98,194.31 287.38,194.03 288.77,193.74C290.17,193.45 291.56,193.16 292.96,192.87C294.35,192.58 295.75,192.29 297.14,192.01C298.54,191.72 299.93,191.45 301.33,191.16C302.72,190.87 304.12,190.58 305.51,190.29C306.91,190 308.3,189.73 309.7,189.44C311.09,189.16 312.49,188.86 313.88,188.58C315.28,188.29 316.67,188.02 318.07,187.73C319.46,187.44 320.86,187.15 322.25,186.86C323.65,186.57 325.04,186.29 326.44,186C327.83,185.72 329.23,185.43 330.62,185.15C332.02,184.87 333.41,184.58 334.81,184.3C336.2,184.02 337.6,183.74 338.99,183.46C340.39,183.18 341.78,182.91 343.18,182.63C344.57,182.36 345.97,182.08 347.36,181.81C348.76,181.54 350.15,181.26 351.55,180.99C352.94,180.72 354.34,180.44 355.73,180.17C357.13,179.9 358.52,179.64 359.92,179.37C361.31,179.1 362.71,178.81 364.1,178.54C365.5,178.26 366.89,177.99 368.29,177.72C369.68,177.45 371.08,177.17 372.47,176.9C373.87,176.63 375.26,176.35 376.66,176.08C378.05,175.81 379.45,175.53 380.84,175.26C382.24,174.99 383.63,174.73 385.03,174.46C386.42,174.19 387.82,173.93 389.21,173.66C390.61,173.39 392,173.11 393.4,172.84C394.79,172.57 396.19,172.3 397.58,172.03C398.98,171.76 400.37,171.48 401.77,171.21C403.16,170.94 404.56,170.67 405.95,170.4C407.35,170.13 408.74,169.85 410.14,169.58Q411.53,169.31 414.32,168.77L414.32,168.77Q411.53,169.31 410.14,169.58C408.74,169.85 407.35,170.13 405.95,170.4C404.56,170.67 403.16,170.94 401.77,171.21C400.37,171.48 398.98,171.76 397.58,172.03C396.19,172.3 394.79,172.57 393.4,172.84C392,173.11 390.61,173.39 389.21,173.66C387.82,173.93 386.42,174.19 385.03,174.46C383.63,174.73 382.24,174.99 380.84,175.26C379.45,175.53 378.05,175.81 376.66,176.08C375.26,176.35 373.87,176.63 372.47,176.9C371.08,177.17 369.68,177.45 368.29,177.72C366.89,177.99 365.5,178.26 364.1,178.54C362.71,178.81 361.31,179.1 359.92,179.37C358.52,179.64 357.13,179.9 355.73,180.17C354.34,180.44 352.94,180.72 351.55,180.99C350.15,181.26 348.76,181.54 347.36,181.81C345.97,182.08 344.57,182.36 343.18,182.63C341.78,182.91 340.39,183.18 338.99,183.46C337.6,183.74 336.2,184.02 334.81,184.3C333.41,184.58 332.02,184.87 330.62,185.15C329.23,185.43 327.83,185.72 326.44,186C325.04,186.29 323.65,186.57 322.25,186.86C320.86,187.15 319.46,187.44 318.07,187.73C316.67,188.02 315.28,188.29 313.88,188.58C312.49,188.86 311.09,189.16 309.7,189.44C308.3,189.73 306.91,190 305.51,190.29C304.12,190.58 302.72,190.87 301.33,191.16C299.93,191.45 298.54,191.72 297.14,192.01C295.75,192.29 294.35,192.58 292.96,192.87C291.56,193.16 290.17,193.45 288.77,193.74C287.38,194.03 285.98,194.31 284.59,194.6C283.19,194.89 281.8,195.17 280.4,195.46C279.01,195.75 277.61,196.04 276.22,196.33C274.82,196.62 273.43,196.9 272.03,197.19C270.64,197.48 269.24,197.77 267.85,198.06C266.45,198.35 265.06,198.64 263.66,198.93C262.27,199.22 260.87,199.52 259.48,199.81C258.08,200.1 256.69,200.4 255.29,200.69C253.9,200.98 252.5,201.28 251.11,201.57C249.71,201.87 248.32,202.16 246.92,202.46C245.53,202.76 244.13,203.07 242.74,203.37C241.34,203.68 239.95,203.98 238.55,204.29C237.16,204.6 235.76,204.91 234.37,205.22C232.97,205.53 231.58,205.85 230.18,206.16C228.78,206.48 227.39,206.79 225.99,207.11C224.6,207.43 223.2,207.74 221.81,208.06C220.41,208.38 219.02,208.69 217.62,209.01C216.23,209.33 214.83,209.65 213.44,209.98C212.04,210.31 210.65,210.64 209.25,210.97C207.86,211.3 206.46,211.64 205.07,211.97C203.67,212.31 202.28,212.64 200.88,212.98C199.49,213.32 198.09,213.65 196.7,213.99C195.3,214.33 193.91,214.68 192.51,215.02C191.12,215.36 189.72,215.7 188.33,216.05C186.93,216.4 185.54,216.75 184.14,217.11C182.75,217.46 181.35,217.82 179.96,218.18C178.56,218.54 177.17,218.89 175.77,219.26C174.38,219.62 172.98,220 171.59,220.37C170.19,220.74 168.8,221.12 167.4,221.5C166.01,221.88 164.61,222.27 163.22,222.65C161.82,223.04 160.43,223.42 159.03,223.81C157.64,224.2 156.24,224.6 154.85,224.99C153.45,225.38 152.06,225.77 150.66,226.17C149.27,226.56 147.87,226.96 146.48,227.36C145.08,227.76 143.69,228.17 142.29,228.58C140.9,228.99 139.5,229.39 138.11,229.8C136.71,230.21 135.32,230.63 133.92,231.05C132.53,231.47 131.13,231.89 129.74,232.31C128.34,232.74 126.95,233.16 125.55,233.6C124.16,234.03 122.76,234.48 121.37,234.92C119.97,235.37 118.58,235.82 117.18,236.27C115.79,236.72 114.39,237.18 113,237.64C111.6,238.1 110.21,238.57 108.81,239.04C107.42,239.51 106.02,239.98 104.63,240.46C103.23,240.94 101.83,241.41 100.44,241.9C99.04,242.39 97.65,242.89 96.26,243.39C94.86,243.89 93.46,244.4 92.07,244.92C90.67,245.44 89.28,245.96 87.89,246.49C86.49,247.02 85.09,247.55 83.7,248.1C82.3,248.65 80.91,249.2 79.52,249.77C78.12,250.34 76.72,250.91 75.33,251.5C73.93,252.09 72.54,252.68 71.15,253.29C69.75,253.9 68.35,254.52 66.96,255.15C65.56,255.78 64.17,256.43 62.78,257.09C61.38,257.75 59.98,258.43 58.59,259.12C57.19,259.81 55.8,260.51 54.41,261.23C53.01,261.95 51.61,262.69 50.22,263.44C48.82,264.2 47.43,264.97 46.04,265.76C44.64,266.55 43.24,267.35 41.85,268.17C40.45,269 39.06,269.84 37.67,270.71C36.27,271.58 34.87,272.47 33.48,273.39C32.08,274.32 30.69,275.27 29.3,276.25C27.9,277.25 26.49,278.27 25.11,279.34C23.7,280.43 22.31,281.56 20.93,282.74C19.52,283.95 18.11,285.19 16.74,286.51C15.32,287.87 13.92,289.27 12.56,290.79C11.13,292.38 9.71,294.02 8.37,295.86C6.91,297.85 5.46,299.83 4.19,302.37Q2.61,305.52 0,313.5Z" style="fill: rgb(95, 70, 144); fill-opacity: 0.3; stroke-width: 0;"/></g></g><g class="errorbars"/><g class="lines"><path class="js-line" d="M0,313.5Q2.61,305.52 4.19,302.37C5.46,299.83 6.91,297.85 8.37,295.86C9.71,294.02 11.13,292.38 12.56,290.79C13.92,289.27 15.32,287.87 16.74,286.51C18.11,285.19 19.52,283.95 20.93,282.74C22.31,281.56 23.7,280.43 25.11,279.34C26.49,278.27 27.9,277.25 29.3,276.25C30.69,275.27 32.08,274.32 33.48,273.39C34.87,272.47 36.27,271.58 37.67,270.71C39.06,269.84 40.45,269 41.85,268.17C43.24,267.35 44.64,266.55 46.04,265.76C47.43,264.97 48.82,264.2 50.22,263.44C51.61,262.69 53.01,261.95 54.41,261.23C55.8,260.51 57.19,259.81 58.59,259.12C59.98,258.43 61.38,257.75 62.78,257.09C64.17,256.43 65.56,255.78 66.96,255.15C68.35,254.52 69.75,253.9 71.15,253.29C72.54,252.68 73.93,252.09 75.33,251.5C76.72,250.91 78.12,250.34 79.52,249.77C80.91,249.2 82.3,248.65 83.7,248.1C85.09,247.55 86.49,247.02 87.89,246.49C89.28,245.96 90.67,245.44 92.07,244.92C93.46,244.4 94.86,243.89 96.26,243.39C97.65,242.89 99.04,242.39 100.44,241.9C101.83,241.41 103.23,240.94 104.63,240.46C106.02,239.98 107.42,239.51 108.81,239.04C110.21,238.57 111.6,238.1 113,237.64C114.39,237.18 115.79,236.72 117.18,236.27C118.58,235.82 119.97,235.37 121.37,234.92C122.76,234.48 124.16,234.03 125.55,233.6C126.95,233.16 128.34,232.74 129.74,232.31C131.13,231.89 132.53,231.47 133.92,231.05C135.32,230.63 136.71,230.21 138.11,229.8C139.5,229.39 140.9,228.99 142.29,228.58C143.69,228.17 145.08,227.76 146.48,227.36C147.87,226.96 149.27,226.56 150.66,226.17C152.06,225.77 153.45,225.38 154.85,224.99C156.24,224.6 157.64,224.2 159.03,223.81C160.43,223.42 161.82,223.04 163.22,222.65C164.61,222.27 166.01,221.88 167.4,221.5C168.8,221.12 170.19,220.74 171.59,220.37C172.98,220 174.38,219.62 175.77,219.26C177.17,218.89 178.56,218.54 179.96,218.18C181.35,217.82 182.75,217.46 184.14,217.11C185.54,216.75 186.93,216.4 188.33,216.05C189.72,215.7 191.12,215.36 192.51,215.02C193.91,214.68 195.3,214.33 196.7,213.99C198.09,213.65 199.49,213.32 200.88,212.98C202.28,212.64 203.67,212.31 205.07,211.97C206.46,211.64 207.86,211.3 209.25,210.97C210.65,210.64 212.04,210.31 213.44,209.98C214.83,209.65 216.23,209.33 217.62,209.01C219.02,208.69 220.41,208.38 221.81,208.06C223.2,207.74 224.6,207.43 225.99,207.11C227.39,206.79 228.78,206.48 230.18,206.16C231.58,205.85 232.97,205.53 234.37,205.22C235.76,204.91 237.16,204.6 238.55,204.29C239.95,203.98 241.34,203.68 242.74,203.37C244.13,203.07 245.53,202.76 246.92,202.46C248.32,202.16 249.71,201.87 251.11,201.57C252.5,201.28 253.9,200.98 255.29,200.69C256.69,200.4 258.08,200.1 259.48,199.81C260.87,199.52 262.27,199.22 263.66,198.93C265.06,198.64 266.45,198.35 267.85,198.06C269.24,197.77 270.64,197.48 272.03,197.19C273.43,196.9 274.82,196.62 276.22,196.33C277.61,196.04 279.01,195.75 280.4,195.46C281.8,195.17 283.19,194.89 284.59,194.6C285.98,194.31 287.38,194.03 288.77,193.74C290.17,193.45 291.56,193.16 292.96,192.87C294.35,192.58 295.75,192.29 297.14,192.01C298.54,191.72 299.93,191.45 301.33,191.16C302.72,190.87 304.12,190.58 305.51,190.29C306.91,190 308.3,189.73 309.7,189.44C311.09,189.16 312.49,188.86 313.88,188.58C315.28,188.29 316.67,188.02 318.07,187.73C319.46,187.44 320.86,187.15 322.25,186.86C323.65,186.57 325.04,186.29 326.44,186C327.83,185.72 329.23,185.43 330.62,185.15C332.02,184.87 333.41,184.58 334.81,184.3C336.2,184.02 337.6,183.74 338.99,183.46C340.39,183.18 341.78,182.91 343.18,182.63C344.57,182.36 345.97,182.08 347.36,181.81C348.76,181.54 350.15,181.26 351.55,180.99C352.94,180.72 354.34,180.44 355.73,180.17C357.13,179.9 358.52,179.64 359.92,179.37C361.31,179.1 362.71,178.81 364.1,178.54C365.5,178.26 366.89,177.99 368.29,177.72C369.68,177.45 371.08,177.17 372.47,176.9C373.87,176.63 375.26,176.35 376.66,176.08C378.05,175.81 379.45,175.53 380.84,175.26C382.24,174.99 383.63,174.73 385.03,174.46C386.42,174.19 387.82,173.93 389.21,173.66C390.61,173.39 392,173.11 393.4,172.84C394.79,172.57 396.19,172.3 397.58,172.03C398.98,171.76 400.37,171.48 401.77,171.21C403.16,170.94 404.56,170.67 405.95,170.4C407.35,170.13 408.74,169.85 410.14,169.58Q411.53,169.31 414.32,168.77" style="vector-effect: none; fill: none; stroke: rgb(182, 232, 128); stroke-opacity: 1; stroke-width: 0px; opacity: 1;"/></g><g class="points"/><g class="text"/></g><g class="trace scatter tracec112fe" style="stroke-miterlimit: 2;"><g class="fills"/><g class="errorbars"/><g class="lines"><path class="js-line" d="M0,313.5Q2.61,305.52 4.19,302.37C5.46,299.83 6.91,297.85 8.37,295.86C9.71,294.02 11.13,292.38 12.56,290.79C13.92,289.27 15.32,287.87 16.74,286.51C18.11,285.19 19.52,283.95 20.93,282.74C22.31,281.56 23.7,280.43 25.11,279.34C26.49,278.27 27.9,277.25 29.3,276.25C30.69,275.27 32.08,274.32 33.48,273.39C34.87,272.47 36.27,271.58 37.67,270.71C39.06,269.84 40.45,269 41.85,268.17C43.24,267.35 44.64,266.55 46.04,265.76C47.43,264.97 48.82,264.2 50.22,263.44C51.61,262.69 53.01,261.95 54.41,261.23C55.8,260.51 57.19,259.81 58.59,259.12C59.98,258.43 61.38,257.75 62.78,257.09C64.17,256.43 65.56,255.78 66.96,255.15C68.35,254.52 69.75,253.9 71.15,253.29C72.54,252.68 73.93,252.09 75.33,251.5C76.72,250.91 78.12,250.34 79.52,249.77C80.91,249.2 82.3,248.65 83.7,248.1C85.09,247.55 86.49,247.02 87.89,246.49C89.28,245.96 90.67,245.44 92.07,244.92C93.46,244.4 94.86,243.89 96.26,243.39C97.65,242.89 99.04,242.39 100.44,241.9C101.83,241.41 103.23,240.94 104.63,240.46C106.02,239.98 107.42,239.51 108.81,239.04C110.21,238.57 111.6,238.1 113,237.64C114.39,237.18 115.79,236.72 117.18,236.27C118.58,235.82 119.97,235.37 121.37,234.92C122.76,234.48 124.16,234.03 125.55,233.6C126.95,233.16 128.34,232.74 129.74,232.31C131.13,231.89 132.53,231.47 133.92,231.05C135.32,230.63 136.71,230.21 138.11,229.8C139.5,229.39 140.9,228.99 142.29,228.58C143.69,228.17 145.08,227.76 146.48,227.36C147.87,226.96 149.27,226.56 150.66,226.17C152.06,225.77 153.45,225.38 154.85,224.99C156.24,224.6 157.64,224.2 159.03,223.81C160.43,223.42 161.82,223.04 163.22,222.65C164.61,222.27 166.01,221.88 167.4,221.5C168.8,221.12 170.19,220.74 171.59,220.37C172.98,220 174.38,219.62 175.77,219.26C177.17,218.89 178.56,218.54 179.96,218.18C181.35,217.82 182.75,217.46 184.14,217.11C185.54,216.75 186.93,216.4 188.33,216.05C189.72,215.7 191.12,215.36 192.51,215.02C193.91,214.68 195.3,214.33 196.7,213.99C198.09,213.65 199.49,213.32 200.88,212.98C202.28,212.64 203.67,212.31 205.07,211.97C206.46,211.64 207.86,211.3 209.25,210.97C210.65,210.64 212.04,210.31 213.44,209.98C214.83,209.65 216.23,209.33 217.62,209.01C219.02,208.69 220.41,208.38 221.81,208.06C223.2,207.74 224.6,207.43 225.99,207.11C227.39,206.79 228.78,206.48 230.18,206.16C231.58,205.85 232.97,205.53 234.37,205.22C235.76,204.91 237.16,204.6 238.55,204.29C239.95,203.98 241.34,203.68 242.74,203.37C244.13,203.07 245.53,202.76 246.92,202.46C248.32,202.16 249.71,201.87 251.11,201.57C252.5,201.28 253.9,200.98 255.29,200.69C256.69,200.4 258.08,200.1 259.48,199.81C260.87,199.52 262.27,199.22 263.66,198.93C265.06,198.64 266.45,198.35 267.85,198.06C269.24,197.77 270.64,197.48 272.03,197.19C273.43,196.9 274.82,196.62 276.22,196.33C277.61,196.04 279.01,195.75 280.4,195.46C281.8,195.17 283.19,194.89 284.59,194.6C285.98,194.31 287.38,194.03 288.77,193.74C290.17,193.45 291.56,193.16 292.96,192.87C294.35,192.58 295.75,192.29 297.14,192.01C298.54,191.72 299.93,191.45 301.33,191.16C302.72,190.87 304.12,190.58 305.51,190.29C306.91,190 308.3,189.73 309.7,189.44C311.09,189.16 312.49,188.86 313.88,188.58C315.28,188.29 316.67,188.02 318.07,187.73C319.46,187.44 320.86,187.15 322.25,186.86C323.65,186.57 325.04,186.29 326.44,186C327.83,185.72 329.23,185.43 330.62,185.15C332.02,184.87 333.41,184.58 334.81,184.3C336.2,184.02 337.6,183.74 338.99,183.46C340.39,183.18 341.78,182.91 343.18,182.63C344.57,182.36 345.97,182.08 347.36,181.81C348.76,181.54 350.15,181.26 351.55,180.99C352.94,180.72 354.34,180.44 355.73,180.17C357.13,179.9 358.52,179.64 359.92,179.37C361.31,179.1 362.71,178.81 364.1,178.54C365.5,178.26 366.89,177.99 368.29,177.72C369.68,177.45 371.08,177.17 372.47,176.9C373.87,176.63 375.26,176.35 376.66,176.08C378.05,175.81 379.45,175.53 380.84,175.26C382.24,174.99 383.63,174.73 385.03,174.46C386.42,174.19 387.82,173.93 389.21,173.66C390.61,173.39 392,173.11 393.4,172.84C394.79,172.57 396.19,172.3 397.58,172.03C398.98,171.76 400.37,171.48 401.77,171.21C403.16,170.94 404.56,170.67 405.95,170.4C407.35,170.13 408.74,169.85 410.14,169.58Q411.53,169.31 414.32,168.77" style="vector-effect: none; fill: none; stroke: rgb(255, 151, 255); stroke-opacity: 1; stroke-width: 0px; opacity: 1;"/></g><g class="points"/><g class="text"/></g><g class="trace scatter trace2e3b57" style="stroke-miterlimit: 2; opacity: 1;"><g class="fills"/><g class="errorbars"/><g class="lines"/><g class="points"/><g class="text"/></g><g class="trace scatter trace2fddf9" style="stroke-miterlimit: 2; opacity: 1;"><g class="fills"/><g class="errorbars"/><g class="lines"/><g class="points"/><g class="text"/></g><g class="trace scatter trace4038a1" style="stroke-miterlimit: 2; opacity: 1;"><g class="fills"/><g class="errorbars"/><g class="lines"/><g class="points"/><g class="text"/></g><g class="trace scatter trace2aff5a" style="stroke-miterlimit: 2; opacity: 1;"><g class="fills"/><g class="errorbars"/><g class="lines"/><g class="points"/><g class="text"/></g><g class="trace scatter trace80dbea" style="stroke-miterlimit: 2; opacity: 1;"><g class="fills"/><g class="errorbars"/><g class="lines"/><g class="points"/><g class="text"/></g><g class="trace scatter traced20428" style="stroke-miterlimit: 2; opacity: 1;"><g class="fills"/><g class="errorbars"/><g class="lines"/><g class="points"/><g class="text"/></g></g></g><g class="overplot"/><path class="xlines-above crisp" d="M78,334.5H500" style="fill: none; stroke-width: 1px; stroke: rgb(0, 0, 0); stroke-opacity: 0.3;"/><path class="ylines-above crisp" d="M78.5,4V334" style="fill: none; stroke-width: 1px; stroke: rgb(0, 0, 0); stroke-opacity: 0.3;"/><g class="overlines-above"/><g class="xaxislayer-above"><g class="xtick"><text text-anchor="middle" x="0" y="359" transform="translate(79,0)" style="font-family: 'Open Sans', verdana, arial, sans-serif; font-size: 20px; fill: rgb(42, 63, 95); fill-opacity: 1; white-space: pre; opacity: 1;">0</text></g><g class="xtick"><text text-anchor="middle" x="0" y="359" style="font-family: 'Open Sans', verdana, arial, sans-serif; font-size: 20px; fill: rgb(42, 63, 95); fill-opacity: 1; white-space: pre; opacity: 1;" transform="translate(160.57999999999998,0)">1</text></g><g class="xtick"><text text-anchor="middle" x="0" y="359" style="font-family: 'Open Sans', verdana, arial, sans-serif; font-size: 20px; fill: rgb(42, 63, 95); fill-opacity: 1; white-space: pre; opacity: 1;" transform="translate(242.15,0)">2</text></g><g class="xtick"><text text-anchor="middle" x="0" y="359" style="font-family: 'Open Sans', verdana, arial, sans-serif; font-size: 20px; fill: rgb(42, 63, 95); fill-opacity: 1; white-space: pre; opacity: 1;" transform="translate(323.73,0)">3</text></g><g class="xtick"><text text-anchor="middle" x="0" y="359" style="font-family: 'Open Sans', verdana, arial, sans-serif; font-size: 20px; fill: rgb(42, 63, 95); fill-opacity: 1; white-space: pre; opacity: 1;" transform="translate(405.3,0)">4</text></g><g class="xtick"><text text-anchor="middle" x="0" y="359" style="font-family: 'Open Sans', verdana, arial, sans-serif; font-size: 20px; fill: rgb(42, 63, 95); fill-opacity: 1; white-space: pre; opacity: 1;" transform="translate(486.88,0)">5</text></g></g><g class="yaxislayer-above"><g class="ytick"><text text-anchor="end" x="74" y="7" transform="translate(0,325.43)" style="font-family: 'Open Sans', verdana, arial, sans-serif; font-size: 20px; fill: rgb(42, 63, 95); fill-opacity: 1; white-space: pre; opacity: 1;">0</text></g><g class="ytick"><text text-anchor="end" x="74" y="7" style="font-family: 'Open Sans', verdana, arial, sans-serif; font-size: 20px; fill: rgb(42, 63, 95); fill-opacity: 1; white-space: pre; opacity: 1;" transform="translate(0,286.32)">0.05</text></g><g class="ytick"><text text-anchor="end" x="74" y="7" style="font-family: 'Open Sans', verdana, arial, sans-serif; font-size: 20px; fill: rgb(42, 63, 95); fill-opacity: 1; white-space: pre; opacity: 1;" transform="translate(0,247.21)">0.1</text></g><g class="ytick"><text text-anchor="end" x="74" y="7" style="font-family: 'Open Sans', verdana, arial, sans-serif; font-size: 20px; fill: rgb(42, 63, 95); fill-opacity: 1; white-space: pre; opacity: 1;" transform="translate(0,208.1)">0.15</text></g><g class="ytick"><text text-anchor="end" x="74" y="7" style="font-family: 'Open Sans', verdana, arial, sans-serif; font-size: 20px; fill: rgb(42, 63, 95); fill-opacity: 1; white-space: pre; opacity: 1;" transform="translate(0,168.99)">0.2</text></g><g class="ytick"><text text-anchor="end" x="74" y="7" style="font-family: 'Open Sans', verdana, arial, sans-serif; font-size: 20px; fill: rgb(42, 63, 95); fill-opacity: 1; white-space: pre; opacity: 1;" transform="translate(0,129.88)">0.25</text></g><g class="ytick"><text text-anchor="end" x="74" y="7" style="font-family: 'Open Sans', verdana, arial, sans-serif; font-size: 20px; fill: rgb(42, 63, 95); fill-opacity: 1; white-space: pre; opacity: 1;" transform="translate(0,90.77)">0.3</text></g><g class="ytick"><text text-anchor="end" x="74" y="7" style="font-family: 'Open Sans', verdana, arial, sans-serif; font-size: 20px; fill: rgb(42, 63, 95); fill-opacity: 1; white-space: pre; opacity: 1;" transform="translate(0,51.66)">0.35</text></g><g class="ytick"><text text-anchor="end" x="74" y="7" style="font-family: 'Open Sans', verdana, arial, sans-serif; font-size: 20px; fill: rgb(42, 63, 95); fill-opacity: 1; white-space: pre; opacity: 0;" transform="translate(0,12.55)">0.4</text></g></g><g class="overaxes-above"/></g></g><g class="polarlayer"/><g class="smithlayer"/><g class="ternarylayer"/><g class="geolayer"/><g class="funnelarealayer"/><g class="pielayer"/><g class="iciclelayer"/><g class="treemaplayer"/><g class="sunburstlayer"/><g class="glimages"/><defs id="topdefs-429991"><g class="clips"/><clipPath id="legend429991"><rect width="105" height="184" x="0" y="0"/></clipPath></defs><g class="layer-above"><g class="imagelayer"/><g class="shapelayer"/></g><g class="infolayer"><g class="legend" pointer-events="all" transform="translate(395,4)"><rect class="bg" shape-rendering="crispEdges" style="stroke: rgb(68, 68, 68); stroke-opacity: 1; fill: rgb(255, 255, 255); fill-opacity: 0.7; stroke-width: 0px;" width="105" height="184" x="0" y="0"/><g class="scrollbox" transform="" clip-path="url(#legend429991)"><g class="groups" transform=""><g class="traces" transform="translate(0,19.5)" style="opacity: 1;"><text class="legendtext" text-anchor="start" x="40" y="7.8" style="font-family: 'Open Sans', verdana, arial, sans-serif; font-size: 20px; fill: rgb(42, 63, 95); fill-opacity: 1; white-space: pre;">Model</text><g class="layers" style="opacity: 1;"><g class="legendfill"/><g class="legendlines"><path class="js-line" d="M5,0h30" style="fill: none; stroke: rgb(255, 255, 255); stroke-opacity: 0; stroke-width: 2px;"/></g><g class="legendsymbols"><g class="legendpoints"/></g></g><rect class="legendtoggle" x="0" y="-14.5" width="99.34375" height="29" style="fill: rgb(0, 0, 0); fill-opacity: 0;"/></g><g class="traces" transform="translate(0,48.5)" style="opacity: 1;"><text class="legendtext" text-anchor="start" x="40" y="7.8" style="font-family: 'Open Sans', verdana, arial, sans-serif; font-size: 20px; fill: rgb(42, 63, 95); fill-opacity: 1; white-space: pre;">DAE</text><g class="layers" style="opacity: 1;"><g class="legendfill"/><g class="legendlines"><path class="js-line" d="M5,0h30" style="fill: none; stroke: rgb(0, 0, 0); stroke-opacity: 1; stroke-dasharray: 9px, 9px; stroke-width: 2px;"/></g><g class="legendsymbols"><g class="legendpoints"/></g></g><rect class="legendtoggle" x="0" y="-14.5" width="99.34375" height="29" style="fill: rgb(0, 0, 0); fill-opacity: 0;"/></g><g class="traces" transform="translate(0,77.5)" style="opacity: 1;"><text class="legendtext" text-anchor="start" x="40" y="7.8" style="font-family: 'Open Sans', verdana, arial, sans-serif; font-size: 20px; fill: rgb(42, 63, 95); fill-opacity: 1; white-space: pre;">E-DAE</text><g class="layers" style="opacity: 1;"><g class="legendfill"/><g class="legendlines"><path class="js-line" d="M5,0h30" style="fill: none; stroke: rgb(0, 0, 0); stroke-opacity: 1; stroke-width: 2px;"/></g><g class="legendsymbols"><g class="legendpoints"/></g></g><rect class="legendtoggle" x="0" y="-14.5" width="99.34375" height="29" style="fill: rgb(0, 0, 0); fill-opacity: 0;"/></g><g class="traces" transform="translate(0,106.5)" style="opacity: 1;"><text class="legendtext" text-anchor="start" x="40" y="7.8" style="font-family: 'Open Sans', verdana, arial, sans-serif; font-size: 20px; fill: rgb(42, 63, 95); fill-opacity: 1; white-space: pre;">Group</text><g class="layers" style="opacity: 1;"><g class="legendfill"/><g class="legendlines"><path class="js-line" d="M5,0h30" style="fill: none; stroke: rgb(255, 255, 255); stroke-opacity: 0; stroke-width: 2px;"/></g><g class="legendsymbols"><g class="legendpoints"/></g></g><rect class="legendtoggle" x="0" y="-14.5" width="99.34375" height="29" style="fill: rgb(0, 0, 0); fill-opacity: 0;"/></g><g class="traces" transform="translate(0,135.5)" style="opacity: 1;"><text class="legendtext" text-anchor="start" x="40" y="7.8" style="font-family: 'Open Sans', verdana, arial, sans-serif; font-size: 20px; fill: rgb(42, 63, 95); fill-opacity: 1; white-space: pre;">C5</text><g class="layers" style="opacity: 1;"><g class="legendfill"/><g class="legendlines"><path class="js-line" d="M5,0h30" style="fill: none; stroke: rgb(102, 102, 102); stroke-opacity: 1; stroke-width: 2px;"/></g><g class="legendsymbols"><g class="legendpoints"/></g></g><rect class="legendtoggle" x="0" y="-14.5" width="99.34375" height="29" style="fill: rgb(0, 0, 0); fill-opacity: 0;"/></g><g class="traces" transform="translate(0,164.5)" style="opacity: 1;"><text class="legendtext" text-anchor="start" x="40" y="7.8" style="font-family: 'Open Sans', verdana, arial, sans-serif; font-size: 20px; fill: rgb(42, 63, 95); fill-opacity: 1; white-space: pre;">C10</text><g class="layers" style="opacity: 1;"><g class="legendfill"/><g class="legendlines"><path class="js-line" d="M5,0h30" style="fill: none; stroke: rgb(95, 70, 144); stroke-opacity: 1; stroke-width: 2px;"/></g><g class="legendsymbols"><g class="legendpoints"/></g></g><rect class="legendtoggle" x="0" y="-14.5" width="99.34375" height="29" style="fill: rgb(0, 0, 0); fill-opacity: 0;"/></g></g></g><rect class="scrollbar" rx="20" ry="3" width="0" height="0" style="fill: rgb(128, 139, 164); fill-opacity: 1;" x="0" y="0"/></g><g class="g-gtitle"/><g class="g-xtitle" transform="translate(0,-7.100000000000023)"><text class="xtitle" x="289.5" y="399.1" text-anchor="middle" style="font-family: 'Open Sans', verdana, arial, sans-serif; font-size: 28px; fill: rgb(42, 63, 95); opacity: 1; font-weight: normal; white-space: pre;">Prediction horizon [s]</text></g><g class="g-ytitle" transform="translate(29.740234375,0)"><text class="ytitle" transform="rotate(-90,0.2593750000000057,169)" x="0.2593750000000057" y="169" text-anchor="middle" style="font-family: 'Open Sans', verdana, arial, sans-serif; font-size: 28px; fill: rgb(42, 63, 95); opacity: 1; font-weight: normal; white-space: pre;">state prediction MSE</text></g></g></svg>