<svg class="main-svg" xmlns="http://www.w3.org/2000/svg" xmlns:xlink="http://www.w3.org/1999/xlink" width="500" height="400" style="" viewBox="0 0 500 400"><rect x="0" y="0" width="500" height="400" style="fill: rgb(255, 255, 255); fill-opacity: 1;"/><defs id="defs-f3fb90"><g class="clips"><clipPath id="clipf3fb90xyplot" class="plotclip"><rect width="432" height="334"/></clipPath><clipPath class="axesclip" id="clipf3fb90x"><rect x="68" y="0" width="432" height="400"/></clipPath><clipPath class="axesclip" id="clipf3fb90y"><rect x="0" y="0" width="500" height="334"/></clipPath><clipPath class="axesclip" id="clipf3fb90xy"><rect x="68" y="0" width="432" height="334"/></clipPath></g><g class="gradients"/><g class="patterns"/></defs><g class="bglayer"/><g class="layer-below"><g class="imagelayer"/><g class="shapelayer"/></g><g class="cartesianlayer"><g class="subplot xy"><g class="layer-subplot"><g class="shapelayer"/><g class="imagelayer"/></g><g class="minor-gridlayer"><g class="x"/><g class="y"/></g><g class="gridlayer"><g class="x"><path class="xgrid crisp" transform="translate(164,0)" d="M0,0v334" style="stroke: rgb(0, 0, 0); stroke-opacity: 0.1; stroke-width: 1px;"/><path class="xgrid crisp" transform="translate(260,0)" d="M0,0v334" style="stroke: rgb(0, 0, 0); stroke-opacity: 0.1; stroke-width: 1px;"/><path class="xgrid crisp" transform="translate(356,0)" d="M0,0v334" style="stroke: rgb(0, 0, 0); stroke-opacity: 0.1; stroke-width: 1px;"/><path class="xgrid crisp" transform="translate(452,0)" d="M0,0v334" style="stroke: rgb(0, 0, 0); stroke-opacity: 0.1; stroke-width: 1px;"/></g><g class="y"><path class="ygrid crisp" transform="translate(0,255.49)" d="M68,0h432" style="stroke: rgb(0, 0, 0); stroke-opacity: 0.1; stroke-width: 1px;"/><path class="ygrid crisp" transform="translate(0,187.84)" d="M68,0h432" style="stroke: rgb(0, 0, 0); stroke-opacity: 0.1; stroke-width: 1px;"/><path class="ygrid crisp" transform="translate(0,120.19)" d="M68,0h432" style="stroke: rgb(0, 0, 0); stroke-opacity: 0.1; stroke-width: 1px;"/><path class="ygrid crisp" transform="translate(0,52.54)" d="M68,0h432" style="stroke: rgb(0, 0, 0); stroke-opacity: 0.1; stroke-width: 1px;"/></g></g><g class="zerolinelayer"><path class="yzl zl crisp" transform="translate(0,323.14)" d="M68,0h432" style="stroke: rgb(255, 255, 255); stroke-opacity: 1; stroke-width: 2px;"/></g><path class="xlines-below"/><path class="ylines-below"/><g class="overlines-below"/><g class="xaxislayer-below"/><g class="yaxislayer-below"/><g class="overaxes-below"/><g class="plot" transform="translate(68,0)" clip-path="url(#clipf3fb90xyplot)"><g class="scatterlayer mlayer"><g class="trace scatter trace4b6274" style="stroke-miterlimit: 2; opacity: 1;"><g class="fills"/><g class="errorbars"/><g class="lines"><path class="js-line" d="M192,179.47Q432.03,20.59 432,20.54C431.96,20.49 95.9,242.39 96,242.54C96.09,242.68 383.7,52.94 384,53.39C384.17,53.65 328.75,91.29 288,118.2Q217.9,164.49 0,304.18" style="vector-effect: none; fill: none; stroke: rgb(95, 70, 144); stroke-opacity: 1; stroke-dasharray: 9px, 9px; stroke-width: 3px; opacity: 1;"/></g><g class="points"/><g class="text"/></g><g class="trace scatter tracec95bcf" style="stroke-miterlimit: 2;"><g class="fills"><g><path class="js-fill" d="M192,177.53Q431.99,16.69 432,16.7C432.01,16.71 95.79,241.68 96,242C96.2,242.3 383.62,50.81 384,51.37C384.22,51.7 328.79,89.96 288,117.16Q217.94,163.88 0,303.97L0,304.54Q217.99,166.65 288,120.27C328.85,93.21 384.28,54.88 384,54.46C383.51,53.73 96.02,243.27 96,243.25C95.98,243.22 431.79,22.44 432,22.76Q432.18,23.03 192,182.4Z" style="fill: rgb(95, 70, 144); fill-opacity: 0.3; stroke-width: 0;"/></g></g><g class="errorbars"/><g class="lines"><path class="js-line" d="M192,182.4Q432.18,23.03 432,22.76C431.79,22.44 95.98,243.22 96,243.25C96.02,243.27 383.51,53.73 384,54.46C384.28,54.88 328.85,93.21 288,120.27Q217.99,166.65 0,304.54" style="vector-effect: none; fill: none; stroke: rgb(239, 85, 59); stroke-opacity: 1; stroke-width: 0px; opacity: 1;"/></g><g class="points"/><g class="text"/></g><g class="trace scatter trace2c9900" style="stroke-miterlimit: 2;"><g class="fills"/><g class="errorbars"/><g class="lines"><path class="js-line" d="M192,177.53Q431.99,16.69 432,16.7C432.01,16.71 95.79,241.68 96,242C96.2,242.3 383.62,50.81 384,51.37C384.22,51.7 328.79,89.96 288,117.16Q217.94,163.88 0,303.97" style="vector-effect: none; fill: none; stroke: rgb(0, 204, 150); stroke-opacity: 1; stroke-width: 0px; opacity: 1;"/></g><g class="points"/><g class="text"/></g><g class="trace scatter trace0114da" style="stroke-miterlimit: 2; opacity: 1;"><g class="fills"/><g class="errorbars"/><g class="lines"><path class="js-line" d="M192,180.06Q431.72,21.72 432,22.14C432.33,22.63 95.48,247.1 96,247.89C96.48,248.62 385,62.05 384,60.43C383.43,59.51 328.18,91.85 288,116.82Q217.32,160.75 0,305.95" style="vector-effect: none; fill: none; stroke: rgb(102, 102, 102); stroke-opacity: 1; stroke-dasharray: 9px, 9px; stroke-width: 3px; opacity: 1;"/></g><g class="points"/><g class="text"/></g><g class="trace scatter trace080afa" style="stroke-miterlimit: 2;"><g class="fills"><g><path class="js-fill" d="M192,179.09Q431.87,18.7 432,18.89C432.15,19.11 95.58,244.66 96,245.29C96.39,245.87 384.65,57.13 384,56.11C383.63,55.52 328.31,89.52 288,115.25Q217.46,160.27 0,305.6L0,306.1Q217.31,162.41 288,119.02C328.18,94.36 383.42,62.47 384,63.42C385.02,65.09 96.37,249.48 96,248.91C95.6,248.3 432.45,27.74 432,27.05Q431.62,26.47 192,180.96Z" style="fill: rgb(102, 102, 102); fill-opacity: 0.3; stroke-width: 0;"/></g></g><g class="errorbars"/><g class="lines"><path class="js-line" d="M192,180.96Q431.62,26.47 432,27.05C432.45,27.74 95.6,248.3 96,248.91C96.37,249.48 385.02,65.09 384,63.42C383.42,62.47 328.18,94.36 288,119.02Q217.31,162.41 0,306.1" style="vector-effect: none; fill: none; stroke: rgb(255, 161, 90); stroke-opacity: 1; stroke-width: 0px; opacity: 1;"/></g><g class="points"/><g class="text"/></g><g class="trace scatter trace36e995" style="stroke-miterlimit: 2;"><g class="fills"/><g class="errorbars"/><g class="lines"><path class="js-line" d="M192,179.09Q431.87,18.7 432,18.89C432.15,19.11 95.58,244.66 96,245.29C96.39,245.87 384.65,57.13 384,56.11C383.63,55.52 328.31,89.52 288,115.25Q217.46,160.27 0,305.6" style="vector-effect: none; fill: none; stroke: rgb(25, 211, 243); stroke-opacity: 1; stroke-width: 0px; opacity: 1;"/></g><g class="points"/><g class="text"/></g><g class="trace scatter trace53263c" style="stroke-miterlimit: 2; opacity: 1;"><g class="fills"/><g class="errorbars"/><g class="lines"><path class="js-line" d="M192,208.95Q431.99,71.88 432,71.9C432.02,71.93 96.1,264.2 96,264.02C95.91,263.86 384.04,98.15 384,98.09C383.98,98.05 328.61,130 288,153.17Q217.76,193.25 0,316.6" style="vector-effect: none; fill: none; stroke: rgb(95, 70, 144); stroke-opacity: 1; stroke-width: 3px; opacity: 1;"/></g><g class="points"/><g class="text"/></g><g class="trace scatter trace05296a" style="stroke-miterlimit: 2;"><g class="fills"><g><path class="js-fill" d="M192,208.08Q431.98,71.69 432,71.72C432.02,71.76 96.18,263.29 96,262.98C95.84,262.69 383.94,96.75 384,96.85C384.03,96.91 328.66,129.3 288,152.6Q217.81,192.83 0,315.51L0,317.3Q217.76,194.5 288,154.55C328.61,131.45 384,99.59 384,99.6C384.01,99.61 95.99,264.54 96,264.55C96.01,264.56 431.92,72.04 432,72.19Q432.07,72.31 192,210.5Z" style="fill: rgb(95, 70, 144); fill-opacity: 0.3; stroke-width: 0;"/></g></g><g class="errorbars"/><g class="lines"><path class="js-line" d="M192,210.5Q432.07,72.31 432,72.19C431.92,72.04 96.01,264.56 96,264.55C95.99,264.54 384.01,99.61 384,99.6C384,99.59 328.61,131.45 288,154.55Q217.76,194.5 0,317.3" style="vector-effect: none; fill: none; stroke: rgb(182, 232, 128); stroke-opacity: 1; stroke-width: 0px; opacity: 1;"/></g><g class="points"/><g class="text"/></g><g class="trace scatter trace5979a9" style="stroke-miterlimit: 2;"><g class="fills"/><g class="errorbars"/><g class="lines"><path class="js-line" d="M192,208.08Q431.98,71.69 432,71.72C432.02,71.76 96.18,263.29 96,262.98C95.84,262.69 383.94,96.75 384,96.85C384.03,96.91 328.66,129.3 288,152.6Q217.81,192.83 0,315.51" style="vector-effect: none; fill: none; stroke: rgb(255, 151, 255); stroke-opacity: 1; stroke-width: 0px; opacity: 1;"/></g><g class="points"/><g class="text"/></g><g class="trace scatter trace8154d5" style="stroke-miterlimit: 2; opacity: 1;"><g class="fills"/><g class="errorbars"/><g class="lines"><path class="js-line" d="M192,203.12Q431.97,58.11 432,58.15C432.03,58.2 95.86,261.36 96,261.58C96.13,261.79 384.28,89.32 384,88.85C383.84,88.58 328.53,120.94 288,144.68Q217.68,185.87 0,314.59" style="vector-effect: none; fill: none; stroke: rgb(102, 102, 102); stroke-opacity: 1; stroke-width: 3px; opacity: 1;"/></g><g class="points"/><g class="text"/></g><g class="trace scatter trace95f326" style="stroke-miterlimit: 2;"><g class="fills"><g><path class="js-fill" d="M192,201.92Q431.98,55.13 432,55.17C432.03,55.22 95.8,260.71 96,261.04C96.18,261.34 384.21,87.33 384,86.98C383.88,86.78 328.56,119.7 288,143.71Q217.71,185.32 0,314.49L0,314.7Q217.66,186.29 288,145.3C328.51,121.69 383.82,89.55 384,89.86C384.31,90.4 96.1,262.24 96,262.07C95.89,261.88 432.01,59.59 432,59.58Q431.99,59.57 192,204.15Z" style="fill: rgb(102, 102, 102); fill-opacity: 0.3; stroke-width: 0;"/></g></g><g class="errorbars"/><g class="lines"><path class="js-line" d="M192,204.15Q431.99,59.57 432,59.58C432.01,59.59 95.89,261.88 96,262.07C96.1,262.24 384.31,90.4 384,89.86C383.82,89.55 328.51,121.69 288,145.3Q217.66,186.29 0,314.7" style="vector-effect: none; fill: none; stroke: rgb(99, 110, 250); stroke-opacity: 1; stroke-width: 0px; opacity: 1;"/></g><g class="points"/><g class="text"/></g><g class="trace scatter trace5f20bb" style="stroke-miterlimit: 2;"><g class="fills"/><g class="errorbars"/><g class="lines"><path class="js-line" d="M192,201.92Q431.98,55.13 432,55.17C432.03,55.22 95.8,260.71 96,261.04C96.18,261.34 384.21,87.33 384,86.98C383.88,86.78 328.56,119.7 288,143.71Q217.71,185.32 0,314.49" style="vector-effect: none; fill: none; stroke: rgb(239, 85, 59); stroke-opacity: 1; stroke-width: 0px; opacity: 1;"/></g><g class="points"/><g class="text"/></g><g class="trace scatter trace83112d" style="stroke-miterlimit: 2; opacity: 1;"><g class="fills"/><g class="errorbars"/><g class="lines"/><g class="points"/><g class="text"/></g><g class="trace scatter tracea1e728" style="stroke-miterlimit: 2; opacity: 1;"><g class="fills"/><g class="errorbars"/><g class="lines"/><g class="points"/><g class="text"/></g><g class="trace scatter traced22d34" style="stroke-miterlimit: 2; opacity: 1;"><g class="fills"/><g class="errorbars"/><g class="lines"/><g class="points"/><g class="text"/></g><g class="trace scatter trace286f08" style="stroke-miterlimit: 2; opacity: 1;"><g class="fills"/><g class="errorbars"/><g class="lines"/><g class="points"/><g class="text"/></g><g class="trace scatter tracee1ed25" style="stroke-miterlimit: 2; opacity: 1;"><g class="fills"/><g class="errorbars"/><g class="lines"/><g class="points"/><g class="text"/></g><g class="trace scatter trace24195c" style="stroke-miterlimit: 2; opacity: 1;"><g class="fills"/><g class="errorbars"/><g class="lines"/><g class="points"/><g class="text"/></g></g></g><g class="overplot"/><path class="xlines-above crisp" d="M67,334.5H500" style="fill: none; stroke-width: 1px; stroke: rgb(0, 0, 0); stroke-opacity: 0.3;"/><path class="ylines-above crisp" d="M67.5,0V334" style="fill: none; stroke-width: 1px; stroke: rgb(0, 0, 0); stroke-opacity: 0.3;"/><g class="overlines-above"/><g class="xaxislayer-above"><g class="xtick"><text text-anchor="middle" x="0" y="359" transform="translate(68,0)" style="font-family: 'Open Sans', verdana, arial, sans-serif; font-size: 20px; fill: rgb(42, 63, 95); fill-opacity: 1; white-space: pre; opacity: 1;">0</text></g><g class="xtick"><text text-anchor="middle" x="0" y="359" style="font-family: 'Open Sans', verdana, arial, sans-serif; font-size: 20px; fill: rgb(42, 63, 95); fill-opacity: 1; white-space: pre; opacity: 1;" transform="translate(164,0)">200m</text></g><g class="xtick"><text text-anchor="middle" x="0" y="359" style="font-family: 'Open Sans', verdana, arial, sans-serif; font-size: 20px; fill: rgb(42, 63, 95); fill-opacity: 1; white-space: pre; opacity: 1;" transform="translate(260,0)">400m</text></g><g class="xtick"><text text-anchor="middle" x="0" y="359" style="font-family: 'Open Sans', verdana, arial, sans-serif; font-size: 20px; fill: rgb(42, 63, 95); fill-opacity: 1; white-space: pre; opacity: 1;" transform="translate(356,0)">600m</text></g><g class="xtick"><text text-anchor="middle" x="0" y="359" style="font-family: 'Open Sans', verdana, arial, sans-serif; font-size: 20px; fill: rgb(42, 63, 95); fill-opacity: 1; white-space: pre; opacity: 1;" transform="translate(452,0)">800m</text></g></g><g class="yaxislayer-above"><g class="ytick"><text text-anchor="end" x="63" y="7" transform="translate(0,323.14)" style="font-family: 'Open Sans', verdana, arial, sans-serif; font-size: 20px; fill: rgb(42, 63, 95); fill-opacity: 1; white-space: pre; opacity: 1;">0</text></g><g class="ytick"><text text-anchor="end" x="63" y="7" style="font-family: 'Open Sans', verdana, arial, sans-serif; font-size: 20px; fill: rgb(42, 63, 95); fill-opacity: 1; white-space: pre; opacity: 1;" transform="translate(0,255.49)">0.2</text></g><g class="ytick"><text text-anchor="end" x="63" y="7" style="font-family: 'Open Sans', verdana, arial, sans-serif; font-size: 20px; fill: rgb(42, 63, 95); fill-opacity: 1; white-space: pre; opacity: 1;" transform="translate(0,187.84)">0.4</text></g><g class="ytick"><text text-anchor="end" x="63" y="7" style="font-family: 'Open Sans', verdana, arial, sans-serif; font-size: 20px; fill: rgb(42, 63, 95); fill-opacity: 1; white-space: pre; opacity: 1;" transform="translate(0,120.19)">0.6</text></g><g class="ytick"><text text-anchor="end" x="63" y="7" style="font-family: 'Open Sans', verdana, arial, sans-serif; font-size: 20px; fill: rgb(42, 63, 95); fill-opacity: 1; white-space: pre; opacity: 1;" transform="translate(0,52.54)">0.8</text></g></g><g class="overaxes-above"/></g></g><g class="polarlayer"/><g class="smithlayer"/><g class="ternarylayer"/><g class="geolayer"/><g class="funnelarealayer"/><g class="pielayer"/><g class="iciclelayer"/><g class="treemaplayer"/><g class="sunburstlayer"/><g class="glimages"/><defs id="topdefs-f3fb90"><g class="clips"/></defs><g class="layer-above"><g class="imagelayer"/><g class="shapelayer"/></g><g class="infolayer"><g class="g-gtitle"/><g class="g-xtitle" transform="translate(0,-7.100000000000023)"><text class="xtitle" x="284" y="399.1" text-anchor="middle" style="font-family: 'Open Sans', verdana, arial, sans-serif; font-size: 28px; fill: rgb(42, 63, 95); opacity: 1; font-weight: normal; white-space: pre;">Noise variance</text></g><g class="g-ytitle" transform="translate(29.302734375,0)"><text class="ytitle" transform="rotate(-90,0.6968750000000057,167)" x="0.6968750000000057" y="167" text-anchor="middle" style="font-family: 'Open Sans', verdana, arial, sans-serif; font-size: 28px; fill: rgb(42, 63, 95); opacity: 1; font-weight: normal; white-space: pre;">state prediction MSE</text></g></g></svg>