<svg class="main-svg" xmlns="http://www.w3.org/2000/svg" xmlns:xlink="http://www.w3.org/1999/xlink" width="500" height="300" style="" viewBox="0 0 500 300"><rect x="0" y="0" width="500" height="300" style="fill: rgb(255, 255, 255); fill-opacity: 1;"/><defs id="defs-650191"><g class="clips"><clipPath id="clip650191xyplot" class="plotclip"><rect width="435" height="237"/></clipPath><clipPath class="axesclip" id="clip650191x"><rect x="65" y="0" width="435" height="300"/></clipPath><clipPath class="axesclip" id="clip650191y"><rect x="0" y="0" width="500" height="237"/></clipPath><clipPath class="axesclip" id="clip650191xy"><rect x="65" y="0" width="435" height="237"/></clipPath></g><g class="gradients"/><g class="patterns"/></defs><g class="bglayer"/><g class="layer-below"><g class="imagelayer"/><g class="shapelayer"/></g><g class="cartesianlayer"><g class="subplot xy"><g class="layer-subplot"><g class="shapelayer"/><g class="imagelayer"/></g><g class="minor-gridlayer"><g class="x"/><g class="y"/></g><g class="gridlayer"><g class="x"><path class="xgrid crisp" transform="translate(161.67000000000002,0)" d="M0,0v237" style="stroke: rgb(0, 0, 0); stroke-opacity: 0.1; stroke-width: 1px;"/><path class="xgrid crisp" transform="translate(258.33000000000004,0)" d="M0,0v237" style="stroke: rgb(0, 0, 0); stroke-opacity: 0.1; stroke-width: 1px;"/><path class="xgrid crisp" transform="translate(355,0)" d="M0,0v237" style="stroke: rgb(0, 0, 0); stroke-opacity: 0.1; stroke-width: 1px;"/><path class="xgrid crisp" transform="translate(451.67,0)" d="M0,0v237" style="stroke: rgb(0, 0, 0); stroke-opacity: 0.1; stroke-width: 1px;"/></g><g class="y"><path class="ygrid crisp" transform="translate(0,181.29)" d="M65,0h435" style="stroke: rgb(0, 0, 0); stroke-opacity: 0.1; stroke-width: 1px;"/><path class="ygrid crisp" transform="translate(0,133.29)" d="M65,0h435" style="stroke: rgb(0, 0, 0); stroke-opacity: 0.1; stroke-width: 1px;"/><path class="ygrid crisp" transform="translate(0,85.28)" d="M65,0h435" style="stroke: rgb(0, 0, 0); stroke-opacity: 0.1; stroke-width: 1px;"/><path class="ygrid crisp" transform="translate(0,37.28)" d="M65,0h435" style="stroke: rgb(0, 0, 0); stroke-opacity: 0.1; stroke-width: 1px;"/></g></g><g class="zerolinelayer"><path class="yzl zl crisp" transform="translate(0,229.29)" d="M65,0h435" style="stroke: rgb(255, 255, 255); stroke-opacity: 1; stroke-width: 2px;"/></g><path class="xlines-below"/><path class="ylines-below"/><g class="overlines-below"/><g class="xaxislayer-below"/><g class="yaxislayer-below"/><g class="overaxes-below"/><g class="plot" transform="translate(65,0)" clip-path="url(#clip650191xyplot)"><g class="scatterlayer mlayer"><g class="trace scatter trace4b993b" style="stroke-miterlimit: 2; opacity: 1;"><g class="fills"/><g class="errorbars"/><g class="lines"><path class="js-line" d="M193.33,127.35Q435.02,14.61 435,14.57C434.98,14.53 96.61,171.99 96.67,172.11C96.72,172.22 386.49,37.51 386.67,37.88C386.77,38.1 330.96,64.81 290,83.87Q219.34,116.75 0,215.84" style="vector-effect: none; fill: none; stroke: rgb(95, 70, 144); stroke-opacity: 1; stroke-dasharray: 9px, 9px; stroke-width: 3px; opacity: 1;"/></g><g class="points"/><g class="text"/></g><g class="trace scatter trace0d48cd" style="stroke-miterlimit: 2;"><g class="fills"><g><path class="js-fill" d="M193.33,125.97Q434.99,11.84 435,11.85C435.01,11.86 96.54,171.45 96.67,171.72C96.79,171.97 386.44,35.97 386.67,36.45C386.8,36.73 330.99,63.88 290,83.14Q219.36,116.34 0,215.69L0,216.09Q219.39,118.3 290,85.34C331.02,66.19 386.84,38.99 386.67,38.64C386.38,38.03 96.68,172.63 96.67,172.61C96.66,172.59 434.88,15.88 435,16.15Q435.1,16.37 193.33,129.42Z" style="fill: rgb(95, 70, 144); fill-opacity: 0.3; stroke-width: 0;"/></g></g><g class="errorbars"/><g class="lines"><path class="js-line" d="M193.33,129.42Q435.1,16.37 435,16.15C434.88,15.88 96.66,172.59 96.67,172.61C96.68,172.63 386.38,38.03 386.67,38.64C386.84,38.99 331.02,66.19 290,85.34Q219.39,118.3 0,216.09" style="vector-effect: none; fill: none; stroke: rgb(239, 85, 59); stroke-opacity: 1; stroke-width: 0px; opacity: 1;"/></g><g class="points"/><g class="text"/></g><g class="trace scatter trace13fa98" style="stroke-miterlimit: 2;"><g class="fills"/><g class="errorbars"/><g class="lines"><path class="js-line" d="M193.33,125.97Q434.99,11.84 435,11.85C435.01,11.86 96.54,171.45 96.67,171.72C96.79,171.97 386.44,35.97 386.67,36.45C386.8,36.73 330.99,63.88 290,83.14Q219.36,116.34 0,215.69" style="vector-effect: none; fill: none; stroke: rgb(0, 204, 150); stroke-opacity: 1; stroke-width: 0px; opacity: 1;"/></g><g class="points"/><g class="text"/></g><g class="trace scatter trace53de63" style="stroke-miterlimit: 2; opacity: 1;"><g class="fills"/><g class="errorbars"/><g class="lines"><path class="js-line" d="M193.33,127.77Q434.84,15.36 435,15.71C435.19,16.12 96.36,175.24 96.67,175.9C96.95,176.51 387.25,44.21 386.67,42.88C386.34,42.12 330.63,65.1 290,82.9Q219,114.01 0,217.1" style="vector-effect: none; fill: none; stroke: rgb(102, 102, 102); stroke-opacity: 1; stroke-dasharray: 9px, 9px; stroke-width: 3px; opacity: 1;"/></g><g class="points"/><g class="text"/></g><g class="trace scatter trace7cd531" style="stroke-miterlimit: 2;"><g class="fills"><g><path class="js-fill" d="M193.33,127.08Q434.92,13.25 435,13.41C435.09,13.6 96.42,173.53 96.67,174.06C96.9,174.55 387.05,40.66 386.67,39.81C386.45,39.32 330.71,63.47 290,81.78Q219.08,113.68 0,216.85L0,217.2Q219,115.17 290,84.45C330.62,66.87 386.33,44.22 386.67,45C387.26,46.37 96.89,177.09 96.67,176.62C96.43,176.11 435.26,19.76 435,19.19Q434.78,18.71 193.33,128.41Z" style="fill: rgb(102, 102, 102); fill-opacity: 0.3; stroke-width: 0;"/></g></g><g class="errorbars"/><g class="lines"><path class="js-line" d="M193.33,128.41Q434.78,18.71 435,19.19C435.26,19.76 96.43,176.11 96.67,176.62C96.89,177.09 387.26,46.37 386.67,45C386.33,44.22 330.62,66.87 290,84.45Q219,115.17 0,217.2" style="vector-effect: none; fill: none; stroke: rgb(255, 161, 90); stroke-opacity: 1; stroke-width: 0px; opacity: 1;"/></g><g class="points"/><g class="text"/></g><g class="trace scatter traced9674a" style="stroke-miterlimit: 2;"><g class="fills"/><g class="errorbars"/><g class="lines"><path class="js-line" d="M193.33,127.08Q434.92,13.25 435,13.41C435.09,13.6 96.42,173.53 96.67,174.06C96.9,174.55 387.05,40.66 386.67,39.81C386.45,39.32 330.71,63.47 290,81.78Q219.08,113.68 0,216.85" style="vector-effect: none; fill: none; stroke: rgb(25, 211, 243); stroke-opacity: 1; stroke-width: 0px; opacity: 1;"/></g><g class="points"/><g class="text"/></g><g class="trace scatter tracee82f00" style="stroke-miterlimit: 2; opacity: 1;"><g class="fills"/><g class="errorbars"/><g class="lines"><path class="js-line" d="M193.33,148.27Q434.99,51 435,51.02C435.01,51.04 96.73,187.48 96.67,187.34C96.62,187.21 386.69,69.65 386.67,69.6C386.66,69.57 330.88,92.25 290,108.69Q219.25,137.14 0,224.65" style="vector-effect: none; fill: none; stroke: rgb(95, 70, 144); stroke-opacity: 1; stroke-width: 3px; opacity: 1;"/></g><g class="points"/><g class="text"/></g><g class="trace scatter trace6dac6b" style="stroke-miterlimit: 2;"><g class="fills"><g><path class="js-fill" d="M193.33,147.65Q434.99,50.86 435,50.89C435.01,50.92 96.77,186.86 96.67,186.61C96.58,186.38 386.64,68.64 386.67,68.72C386.69,68.77 330.91,91.76 290,108.28Q219.28,136.84 0,223.88L0,225.15Q219.26,138.02 290,109.67C330.88,93.28 386.67,70.67 386.67,70.67C386.67,70.68 96.67,187.71 96.67,187.72C96.67,187.73 434.95,51.1 435,51.22Q435.04,51.32 193.33,149.37Z" style="fill: rgb(95, 70, 144); fill-opacity: 0.3; stroke-width: 0;"/></g></g><g class="errorbars"/><g class="lines"><path class="js-line" d="M193.33,149.37Q435.04,51.32 435,51.22C434.95,51.1 96.67,187.73 96.67,187.72C96.67,187.71 386.67,70.68 386.67,70.67C386.67,70.67 330.88,93.28 290,109.67Q219.26,138.02 0,225.15" style="vector-effect: none; fill: none; stroke: rgb(182, 232, 128); stroke-opacity: 1; stroke-width: 0px; opacity: 1;"/></g><g class="points"/><g class="text"/></g><g class="trace scatter trace1bbb5d" style="stroke-miterlimit: 2;"><g class="fills"/><g class="errorbars"/><g class="lines"><path class="js-line" d="M193.33,147.65Q434.99,50.86 435,50.89C435.01,50.92 96.77,186.86 96.67,186.61C96.58,186.38 386.64,68.64 386.67,68.72C386.69,68.77 330.91,91.76 290,108.28Q219.28,136.84 0,223.88" style="vector-effect: none; fill: none; stroke: rgb(255, 151, 255); stroke-opacity: 1; stroke-width: 0px; opacity: 1;"/></g><g class="points"/><g class="text"/></g><g class="trace scatter trace2f38dd" style="stroke-miterlimit: 2; opacity: 1;"><g class="fills"/><g class="errorbars"/><g class="lines"><path class="js-line" d="M193.33,144.13Q434.98,41.22 435,41.26C435.02,41.3 96.59,185.42 96.67,185.61C96.74,185.78 386.83,63.44 386.67,63.05C386.58,62.83 330.83,85.81 290,102.66Q219.21,131.88 0,223.23" style="vector-effect: none; fill: none; stroke: rgb(102, 102, 102); stroke-opacity: 1; stroke-width: 3px; opacity: 1;"/></g><g class="points"/><g class="text"/></g><g class="trace scatter trace2fb976" style="stroke-miterlimit: 2;"><g class="fills"><g><path class="js-fill" d="M193.33,143.28Q434.99,39.11 435,39.14C435.02,39.18 96.55,184.96 96.67,185.23C96.78,185.48 386.79,62 386.67,61.72C386.6,61.56 330.85,84.94 290,101.98Q219.23,131.5 0,223.16L0,223.31Q219.2,132.18 290,103.1C330.82,86.34 386.57,63.52 386.67,63.77C386.85,64.21 96.73,186.1 96.67,185.96C96.61,185.81 435,42.29 435,42.28Q435,42.27 193.33,144.86Z" style="fill: rgb(102, 102, 102); fill-opacity: 0.3; stroke-width: 0;"/></g></g><g class="errorbars"/><g class="lines"><path class="js-line" d="M193.33,144.86Q435,42.27 435,42.28C435,42.29 96.61,185.81 96.67,185.96C96.73,186.1 386.85,64.21 386.67,63.77C386.57,63.52 330.82,86.34 290,103.1Q219.2,132.18 0,223.31" style="vector-effect: none; fill: none; stroke: rgb(99, 110, 250); stroke-opacity: 1; stroke-width: 0px; opacity: 1;"/></g><g class="points"/><g class="text"/></g><g class="trace scatter trace0fca39" style="stroke-miterlimit: 2;"><g class="fills"/><g class="errorbars"/><g class="lines"><path class="js-line" d="M193.33,143.28Q434.99,39.11 435,39.14C435.02,39.18 96.55,184.96 96.67,185.23C96.78,185.48 386.79,62 386.67,61.72C386.6,61.56 330.85,84.94 290,101.98Q219.23,131.5 0,223.16" style="vector-effect: none; fill: none; stroke: rgb(239, 85, 59); stroke-opacity: 1; stroke-width: 0px; opacity: 1;"/></g><g class="points"/><g class="text"/></g><g class="trace scatter trace6d85a9" style="stroke-miterlimit: 2; opacity: 1;"><g class="fills"/><g class="errorbars"/><g class="lines"/><g class="points"/><g class="text"/></g><g class="trace scatter trace8bb1b6" style="stroke-miterlimit: 2; opacity: 1;"><g class="fills"/><g class="errorbars"/><g class="lines"/><g class="points"/><g class="text"/></g><g class="trace scatter trace0257a8" style="stroke-miterlimit: 2; opacity: 1;"><g class="fills"/><g class="errorbars"/><g class="lines"/><g class="points"/><g class="text"/></g><g class="trace scatter traceed5ac0" style="stroke-miterlimit: 2; opacity: 1;"><g class="fills"/><g class="errorbars"/><g class="lines"/><g class="points"/><g class="text"/></g><g class="trace scatter trace05125f" style="stroke-miterlimit: 2; opacity: 1;"><g class="fills"/><g class="errorbars"/><g class="lines"/><g class="points"/><g class="text"/></g><g class="trace scatter trace48333b" style="stroke-miterlimit: 2; opacity: 1;"><g class="fills"/><g class="errorbars"/><g class="lines"/><g class="points"/><g class="text"/></g></g></g><g class="overplot"/><path class="xlines-above crisp" d="M64,237.5H500" style="fill: none; stroke-width: 1px; stroke: rgb(0, 0, 0); stroke-opacity: 0.3;"/><path class="ylines-above crisp" d="M64.5,0V237" style="fill: none; stroke-width: 1px; stroke: rgb(0, 0, 0); stroke-opacity: 0.3;"/><g class="overlines-above"/><g class="xaxislayer-above"><g class="xtick"><text text-anchor="middle" x="0" y="262" transform="translate(65,0)" style="font-family: 'Open Sans', verdana, arial, sans-serif; font-size: 20px; fill: rgb(42, 63, 95); fill-opacity: 1; white-space: pre; opacity: 1;">0</text></g><g class="xtick"><text text-anchor="middle" x="0" y="262" style="font-family: 'Open Sans', verdana, arial, sans-serif; font-size: 20px; fill: rgb(42, 63, 95); fill-opacity: 1; white-space: pre; opacity: 1;" transform="translate(161.67000000000002,0)">200m</text></g><g class="xtick"><text text-anchor="middle" x="0" y="262" style="font-family: 'Open Sans', verdana, arial, sans-serif; font-size: 20px; fill: rgb(42, 63, 95); fill-opacity: 1; white-space: pre; opacity: 1;" transform="translate(258.33000000000004,0)">400m</text></g><g class="xtick"><text text-anchor="middle" x="0" y="262" style="font-family: 'Open Sans', verdana, arial, sans-serif; font-size: 20px; fill: rgb(42, 63, 95); fill-opacity: 1; white-space: pre; opacity: 1;" transform="translate(355,0)">600m</text></g><g class="xtick"><text text-anchor="middle" x="0" y="262" style="font-family: 'Open Sans', verdana, arial, sans-serif; font-size: 20px; fill: rgb(42, 63, 95); fill-opacity: 1; white-space: pre; opacity: 1;" transform="translate(451.67,0)">800m</text></g></g><g class="yaxislayer-above"><g class="ytick"><text text-anchor="end" x="60" y="7" transform="translate(0,229.29)" style="font-family: 'Open Sans', verdana, arial, sans-serif; font-size: 20px; fill: rgb(42, 63, 95); fill-opacity: 1; white-space: pre; opacity: 1;">0</text></g><g class="ytick"><text text-anchor="end" x="60" y="7" style="font-family: 'Open Sans', verdana, arial, sans-serif; font-size: 20px; fill: rgb(42, 63, 95); fill-opacity: 1; white-space: pre; opacity: 1;" transform="translate(0,181.29)">0.2</text></g><g class="ytick"><text text-anchor="end" x="60" y="7" style="font-family: 'Open Sans', verdana, arial, sans-serif; font-size: 20px; fill: rgb(42, 63, 95); fill-opacity: 1; white-space: pre; opacity: 1;" transform="translate(0,133.29)">0.4</text></g><g class="ytick"><text text-anchor="end" x="60" y="7" style="font-family: 'Open Sans', verdana, arial, sans-serif; font-size: 20px; fill: rgb(42, 63, 95); fill-opacity: 1; white-space: pre; opacity: 1;" transform="translate(0,85.28)">0.6</text></g><g class="ytick"><text text-anchor="end" x="60" y="7" style="font-family: 'Open Sans', verdana, arial, sans-serif; font-size: 20px; fill: rgb(42, 63, 95); fill-opacity: 1; white-space: pre; opacity: 1;" transform="translate(0,37.28)">0.8</text></g></g><g class="overaxes-above"/></g></g><g class="polarlayer"/><g class="smithlayer"/><g class="ternarylayer"/><g class="geolayer"/><g class="funnelarealayer"/><g class="pielayer"/><g class="iciclelayer"/><g class="treemaplayer"/><g class="sunburstlayer"/><g class="glimages"/><defs id="topdefs-650191"><g class="clips"/></defs><g class="layer-above"><g class="imagelayer"/><g class="shapelayer"/></g><g class="infolayer"><g class="g-gtitle"/><g class="g-xtitle" transform="translate(0,-6.300000000000011)"><text class="xtitle" x="282.5" y="299.3" text-anchor="middle" style="font-family: 'Open Sans', verdana, arial, sans-serif; font-size: 24px; fill: rgb(42, 63, 95); opacity: 1; font-weight: normal; white-space: pre;">Noise variance</text></g><g class="g-ytitle" transform="translate(25.5029296875,0)"><text class="ytitle" transform="rotate(-90,0.49687500000000284,118.5)" x="0.49687500000000284" y="118.5" text-anchor="middle" style="font-family: 'Open Sans', verdana, arial, sans-serif; font-size: 24px; fill: rgb(42, 63, 95); opacity: 1; font-weight: normal; white-space: pre;">state prediction MSE</text></g></g></svg>