<?xml version="1.0" encoding="utf-8" standalone="no"?>
<!DOCTYPE svg PUBLIC "-//W3C//DTD SVG 1.1//EN"
  "http://www.w3.org/Graphics/SVG/1.1/DTD/svg11.dtd">
<svg xmlns:xlink="http://www.w3.org/1999/xlink" width="604.8pt" height="25.2pt" viewBox="0 0 604.8 25.2" xmlns="http://www.w3.org/2000/svg" version="1.1">
 <metadata>
  <rdf:RDF xmlns:dc="http://purl.org/dc/elements/1.1/" xmlns:cc="http://creativecommons.org/ns#" xmlns:rdf="http://www.w3.org/1999/02/22-rdf-syntax-ns#">
   <cc:Work>
    <dc:type rdf:resource="http://purl.org/dc/dcmitype/StillImage"/>
    <dc:date>2023-12-11T10:34:21.089203</dc:date>
    <dc:format>image/svg+xml</dc:format>
    <dc:creator>
     <cc:Agent>
      <dc:title>Matplotlib v3.7.1, https://matplotlib.org/</dc:title>
     </cc:Agent>
    </dc:creator>
   </cc:Work>
  </rdf:RDF>
 </metadata>
 <defs>
  <style type="text/css">*{stroke-linejoin: round; stroke-linecap: butt}</style>
 </defs>
 <g id="figure_1">
  <g id="patch_1">
   <path d="M 0 25.2 
L 604.8 25.2 
L 604.8 0 
L 0 0 
z
" style="fill: #ffffff"/>
  </g>
  <g id="axes_1">
   <g id="patch_2">
    <path d="M 75.6 22.428 
L 125.46383 22.428 
L 125.46383 3.024 
L 75.6 3.024 
z
" style="fill: #ffffff"/>
   </g>
   <g id="PolyCollection_1">
    <defs>
     <path id="m5ef9e0722e" d="M 77.872306 -13.987386 
L 77.872306 -2.772 
L 78.074443 -2.772 
L 78.276581 -2.772 
L 78.478718 -2.772 
L 78.680855 -2.772 
L 78.882992 -2.772 
L 79.08513 -2.772 
L 79.287267 -2.772 
L 79.489404 -2.772 
L 79.691541 -2.772 
L 79.893679 -2.772 
L 80.095816 -2.772 
L 80.297953 -2.772 
L 80.50009 -2.772 
L 80.702227 -2.772 
L 80.904365 -2.772 
L 81.106502 -2.772 
L 81.308639 -2.772 
L 81.510776 -2.772 
L 81.712914 -2.772 
L 81.915051 -2.772 
L 82.117188 -2.772 
L 82.319325 -2.772 
L 82.521463 -2.772 
L 82.7236 -2.772 
L 82.925737 -2.772 
L 83.127874 -2.772 
L 83.330012 -2.772 
L 83.532149 -2.772 
L 83.734286 -2.772 
L 83.936423 -2.772 
L 84.138561 -2.772 
L 84.340698 -2.772 
L 84.542835 -2.772 
L 84.744972 -2.772 
L 84.94711 -2.772 
L 85.149247 -2.772 
L 85.351384 -2.772 
L 85.553521 -2.772 
L 85.755658 -2.772 
L 85.957796 -2.772 
L 86.159933 -2.772 
L 86.36207 -2.772 
L 86.564207 -2.772 
L 86.766345 -2.772 
L 86.968482 -2.772 
L 87.170619 -2.772 
L 87.372756 -2.772 
L 87.574894 -2.772 
L 87.777031 -2.772 
L 87.979168 -2.772 
L 88.181305 -2.772 
L 88.383443 -2.772 
L 88.58558 -2.772 
L 88.787717 -2.772 
L 88.989854 -2.772 
L 89.191992 -2.772 
L 89.394129 -2.772 
L 89.596266 -2.772 
L 89.798403 -2.772 
L 90.00054 -2.772 
L 90.202678 -2.772 
L 90.404815 -2.772 
L 90.606952 -2.772 
L 90.809089 -2.772 
L 91.011227 -2.772 
L 91.213364 -2.772 
L 91.415501 -2.772 
L 91.617638 -2.772 
L 91.819776 -2.772 
L 92.021913 -2.772 
L 92.22405 -2.772 
L 92.426187 -2.772 
L 92.628325 -2.772 
L 92.830462 -2.772 
L 93.032599 -2.772 
L 93.234736 -2.772 
L 93.436874 -2.772 
L 93.639011 -2.772 
L 93.841148 -2.772 
L 94.043285 -2.772 
L 94.245423 -2.772 
L 94.44756 -2.772 
L 94.649697 -2.772 
L 94.851834 -2.772 
L 95.053971 -2.772 
L 95.256109 -2.772 
L 95.458246 -2.772 
L 95.660383 -2.772 
L 95.86252 -2.772 
L 96.064658 -2.772 
L 96.266795 -2.772 
L 96.468932 -2.772 
L 96.671069 -2.772 
L 96.873207 -2.772 
L 97.075344 -2.772 
L 97.277481 -2.772 
L 97.479618 -2.772 
L 97.681756 -2.772 
L 97.883893 -2.772 
L 98.08603 -2.772 
L 98.288167 -2.772 
L 98.490305 -2.772 
L 98.692442 -2.772 
L 98.894579 -2.772 
L 99.096716 -2.772 
L 99.298853 -2.772 
L 99.500991 -2.772 
L 99.703128 -2.772 
L 99.905265 -2.772 
L 100.107402 -2.772 
L 100.30954 -2.772 
L 100.511677 -2.772 
L 100.713814 -2.772 
L 100.915951 -2.772 
L 101.118089 -2.772 
L 101.320226 -2.772 
L 101.522363 -2.772 
L 101.7245 -2.772 
L 101.926638 -2.772 
L 102.128775 -2.772 
L 102.330912 -2.772 
L 102.533049 -2.772 
L 102.735187 -2.772 
L 102.937324 -2.772 
L 103.139461 -2.772 
L 103.341598 -2.772 
L 103.543736 -2.772 
L 103.745873 -2.772 
L 103.94801 -2.772 
L 104.150147 -2.772 
L 104.352284 -2.772 
L 104.554422 -2.772 
L 104.756559 -2.772 
L 104.958696 -2.772 
L 105.160833 -2.772 
L 105.362971 -2.772 
L 105.565108 -2.772 
L 105.767245 -2.772 
L 105.969382 -2.772 
L 106.17152 -2.772 
L 106.373657 -2.772 
L 106.575794 -2.772 
L 106.777931 -2.772 
L 106.980069 -2.772 
L 107.182206 -2.772 
L 107.384343 -2.772 
L 107.58648 -2.772 
L 107.788618 -2.772 
L 107.990755 -2.772 
L 108.192892 -2.772 
L 108.395029 -2.772 
L 108.597167 -2.772 
L 108.799304 -2.772 
L 109.001441 -2.772 
L 109.203578 -2.772 
L 109.405715 -2.772 
L 109.607853 -2.772 
L 109.80999 -2.772 
L 110.012127 -2.772 
L 110.214264 -2.772 
L 110.416402 -2.772 
L 110.618539 -2.772 
L 110.820676 -2.772 
L 111.022813 -2.772 
L 111.224951 -2.772 
L 111.427088 -2.772 
L 111.629225 -2.772 
L 111.831362 -2.772 
L 112.0335 -2.772 
L 112.235637 -2.772 
L 112.437774 -2.772 
L 112.639911 -2.772 
L 112.842049 -2.772 
L 113.044186 -2.772 
L 113.246323 -2.772 
L 113.44846 -2.772 
L 113.650597 -2.772 
L 113.852735 -2.772 
L 114.054872 -2.772 
L 114.257009 -2.772 
L 114.459146 -2.772 
L 114.661284 -2.772 
L 114.863421 -2.772 
L 115.065558 -2.772 
L 115.267695 -2.772 
L 115.469833 -2.772 
L 115.67197 -2.772 
L 115.874107 -2.772 
L 116.076244 -2.772 
L 116.278382 -2.772 
L 116.480519 -2.772 
L 116.682656 -2.772 
L 116.884793 -2.772 
L 117.086931 -2.772 
L 117.289068 -2.772 
L 117.491205 -2.772 
L 117.693342 -2.772 
L 117.89548 -2.772 
L 118.097617 -2.772 
L 118.097617 -4.295195 
L 118.097617 -4.295195 
L 117.89548 -5.63304 
L 117.693342 -7.403152 
L 117.491205 -9.268809 
L 117.289068 -10.560815 
L 117.086931 -10.585157 
L 116.884793 -9.220079 
L 116.682656 -7.106538 
L 116.480519 -5.131309 
L 116.278382 -3.806207 
L 116.076244 -3.134653 
L 115.874107 -2.872916 
L 115.67197 -2.794102 
L 115.469833 -2.775781 
L 115.267695 -2.772502 
L 115.065558 -2.772052 
L 114.863421 -2.772004 
L 114.661284 -2.772 
L 114.459146 -2.772 
L 114.257009 -2.772 
L 114.054872 -2.772002 
L 113.852735 -2.772021 
L 113.650597 -2.772219 
L 113.44846 -2.773739 
L 113.246323 -2.782569 
L 113.044186 -2.821094 
L 112.842049 -2.946305 
L 112.639911 -3.245121 
L 112.437774 -3.75455 
L 112.235637 -4.338188 
L 112.0335 -4.713008 
L 111.831362 -4.736086 
L 111.629225 -4.653515 
L 111.427088 -4.905172 
L 111.224951 -5.604353 
L 111.022813 -6.296945 
L 110.820676 -6.367182 
L 110.618539 -5.688943 
L 110.416402 -4.762874 
L 110.214264 -4.212187 
L 110.012127 -4.246509 
L 109.80999 -4.570576 
L 109.607853 -4.704967 
L 109.405715 -4.414602 
L 109.203578 -3.8694 
L 109.001441 -3.424736 
L 108.799304 -3.331979 
L 108.597167 -3.639018 
L 108.395029 -4.19971 
L 108.192892 -4.733984 
L 107.990755 -5.027308 
L 107.788618 -5.113071 
L 107.58648 -5.138603 
L 107.384343 -5.104254 
L 107.182206 -4.93501 
L 106.980069 -4.737374 
L 106.777931 -4.71332 
L 106.575794 -4.820979 
L 106.373657 -4.762445 
L 106.17152 -4.358619 
L 105.969382 -3.761135 
L 105.767245 -3.247592 
L 105.565108 -2.953561 
L 105.362971 -2.856667 
L 105.160833 -2.917257 
L 104.958696 -3.162637 
L 104.756559 -3.630226 
L 104.554422 -4.218816 
L 104.352284 -4.636661 
L 104.150147 -4.609106 
L 103.94801 -4.157625 
L 103.745873 -3.583573 
L 103.543736 -3.190738 
L 103.341598 -3.117788 
L 103.139461 -3.380725 
L 102.937324 -3.899091 
L 102.735187 -4.433622 
L 102.533049 -4.652298 
L 102.330912 -4.39897 
L 102.128775 -3.848023 
L 101.926638 -3.315921 
L 101.7245 -2.982146 
L 101.522363 -2.834055 
L 101.320226 -2.786006 
L 101.118089 -2.774416 
L 100.915951 -2.772319 
L 100.713814 -2.772032 
L 100.511677 -2.772002 
L 100.30954 -2.772 
L 100.107402 -2.772 
L 99.905265 -2.772 
L 99.703128 -2.772 
L 99.500991 -2.772 
L 99.298853 -2.772 
L 99.096716 -2.772 
L 98.894579 -2.772 
L 98.692442 -2.772 
L 98.490305 -2.772 
L 98.288167 -2.772 
L 98.08603 -2.772 
L 97.883893 -2.772 
L 97.681756 -2.772 
L 97.479618 -2.772 
L 97.277481 -2.772 
L 97.075344 -2.772 
L 96.873207 -2.772 
L 96.671069 -2.772 
L 96.468932 -2.772 
L 96.266795 -2.772 
L 96.064658 -2.772 
L 95.86252 -2.772 
L 95.660383 -2.772 
L 95.458246 -2.772 
L 95.256109 -2.772 
L 95.053971 -2.772 
L 94.851834 -2.772 
L 94.649697 -2.772 
L 94.44756 -2.772 
L 94.245423 -2.772 
L 94.043285 -2.772 
L 93.841148 -2.772 
L 93.639011 -2.772 
L 93.436874 -2.772 
L 93.234736 -2.772 
L 93.032599 -2.772 
L 92.830462 -2.772 
L 92.628325 -2.772 
L 92.426187 -2.772 
L 92.22405 -2.772 
L 92.021913 -2.772 
L 91.819776 -2.772 
L 91.617638 -2.772 
L 91.415501 -2.772 
L 91.213364 -2.772 
L 91.011227 -2.772 
L 90.809089 -2.772 
L 90.606952 -2.772 
L 90.404815 -2.772 
L 90.202678 -2.772 
L 90.00054 -2.772 
L 89.798403 -2.772 
L 89.596266 -2.772 
L 89.394129 -2.772 
L 89.191992 -2.772 
L 88.989854 -2.772 
L 88.787717 -2.772 
L 88.58558 -2.772 
L 88.383443 -2.772 
L 88.181305 -2.772 
L 87.979168 -2.772 
L 87.777031 -2.772 
L 87.574894 -2.772 
L 87.372756 -2.772 
L 87.170619 -2.772 
L 86.968482 -2.772 
L 86.766345 -2.772 
L 86.564207 -2.772 
L 86.36207 -2.772 
L 86.159933 -2.772 
L 85.957796 -2.772 
L 85.755658 -2.772 
L 85.553521 -2.772 
L 85.351384 -2.772 
L 85.149247 -2.772 
L 84.94711 -2.772 
L 84.744972 -2.772 
L 84.542835 -2.772 
L 84.340698 -2.772 
L 84.138561 -2.772 
L 83.936423 -2.772 
L 83.734286 -2.772 
L 83.532149 -2.772 
L 83.330012 -2.772 
L 83.127874 -2.772 
L 82.925737 -2.772 
L 82.7236 -2.772 
L 82.521463 -2.772 
L 82.319325 -2.772 
L 82.117188 -2.772 
L 81.915051 -2.772 
L 81.712914 -2.772 
L 81.510776 -2.772 
L 81.308639 -2.772 
L 81.106502 -2.772 
L 80.904365 -2.772 
L 80.702227 -2.772 
L 80.50009 -2.772001 
L 80.297953 -2.772022 
L 80.095816 -2.772291 
L 79.893679 -2.774918 
L 79.691541 -2.794327 
L 79.489404 -2.902572 
L 79.287267 -3.355648 
L 79.08513 -4.765978 
L 78.882992 -7.978674 
L 78.680855 -13.163319 
L 78.478718 -18.622801 
L 78.276581 -21.252 
L 78.074443 -19.239322 
L 77.872306 -13.987386 
z
" style="stroke: #90c1c6"/>
    </defs>
    <g clip-path="url(#pd3261e3d64)">
     <use xlink:href="#m5ef9e0722e" x="0" y="25.2" style="fill: #90c1c6; stroke: #90c1c6"/>
    </g>
   </g>
   <g id="matplotlib.axis_1">
    <g id="xtick_1">
     <g id="line2d_1">
      <defs>
       <path id="m9a6aab98c5" d="M 0 0 
L 0 3.5 
" style="stroke: #000000; stroke-width: 0.8"/>
      </defs>
      <g>
       <use xlink:href="#m9a6aab98c5" x="101.450575" y="22.428" style="stroke: #000000; stroke-width: 0.8"/>
      </g>
     </g>
     <g id="text_1">
      <!-- $\mathdefault{10^{0}}$ -->
      <g transform="translate(96.170575 30.587062) scale(0.06 -0.06)">
       <defs>
        <path id="DejaVuSans-31" d="M 794 531 
L 1825 531 
L 1825 4091 
L 703 3866 
L 703 4441 
L 1819 4666 
L 2450 4666 
L 2450 531 
L 3481 531 
L 3481 0 
L 794 0 
L 794 531 
z
" transform="scale(0.015625)"/>
        <path id="DejaVuSans-30" d="M 2034 4250 
Q 1547 4250 1301 3770 
Q 1056 3291 1056 2328 
Q 1056 1369 1301 889 
Q 1547 409 2034 409 
Q 2525 409 2770 889 
Q 3016 1369 3016 2328 
Q 3016 3291 2770 3770 
Q 2525 4250 2034 4250 
z
M 2034 4750 
Q 2819 4750 3233 4129 
Q 3647 3509 3647 2328 
Q 3647 1150 3233 529 
Q 2819 -91 2034 -91 
Q 1250 -91 836 529 
Q 422 1150 422 2328 
Q 422 3509 836 4129 
Q 1250 4750 2034 4750 
z
" transform="scale(0.015625)"/>
       </defs>
       <use xlink:href="#DejaVuSans-31" transform="translate(0 0.765625)"/>
       <use xlink:href="#DejaVuSans-30" transform="translate(63.623047 0.765625)"/>
       <use xlink:href="#DejaVuSans-30" transform="translate(128.203125 39.046875) scale(0.7)"/>
      </g>
     </g>
    </g>
   </g>
   <g id="matplotlib.axis_2"/>
   <g id="line2d_2">
    <path d="M 75.6 22.428 
L 125.46383 22.428 
" style="fill: none; stroke: #808080; stroke-width: 0.1; stroke-linecap: square"/>
   </g>
   <g id="patch_3">
    <path d="M 75.6 22.428 
L 75.6 3.024 
" style="fill: none; stroke: #000000; stroke-width: 0.25; stroke-linejoin: miter; stroke-linecap: square"/>
   </g>
   <g id="patch_4">
    <path d="M 75.6 22.428 
L 125.46383 22.428 
" style="fill: none; stroke: #000000; stroke-width: 0.25; stroke-linejoin: miter; stroke-linecap: square"/>
   </g>
  </g>
  <g id="axes_2">
   <g id="patch_5">
    <path d="M 135.436596 22.428 
L 185.300426 22.428 
L 185.300426 3.024 
L 135.436596 3.024 
z
" style="fill: #ffffff"/>
   </g>
   <g id="PolyCollection_2">
    <defs>
     <path id="m51d83aa6f5" d="M 137.703133 -10.52835 
L 137.703133 -2.772 
L 137.913353 -2.772 
L 138.123573 -2.772 
L 138.333793 -2.772 
L 138.544013 -2.772 
L 138.754233 -2.772 
L 138.964453 -2.772 
L 139.174672 -2.772 
L 139.384892 -2.772 
L 139.595112 -2.772 
L 139.805332 -2.772 
L 140.015552 -2.772 
L 140.225772 -2.772 
L 140.435991 -2.772 
L 140.646211 -2.772 
L 140.856431 -2.772 
L 141.066651 -2.772 
L 141.276871 -2.772 
L 141.487091 -2.772 
L 141.697311 -2.772 
L 141.90753 -2.772 
L 142.11775 -2.772 
L 142.32797 -2.772 
L 142.53819 -2.772 
L 142.74841 -2.772 
L 142.95863 -2.772 
L 143.168849 -2.772 
L 143.379069 -2.772 
L 143.589289 -2.772 
L 143.799509 -2.772 
L 144.009729 -2.772 
L 144.219949 -2.772 
L 144.430169 -2.772 
L 144.640388 -2.772 
L 144.850608 -2.772 
L 145.060828 -2.772 
L 145.271048 -2.772 
L 145.481268 -2.772 
L 145.691488 -2.772 
L 145.901707 -2.772 
L 146.111927 -2.772 
L 146.322147 -2.772 
L 146.532367 -2.772 
L 146.742587 -2.772 
L 146.952807 -2.772 
L 147.163027 -2.772 
L 147.373246 -2.772 
L 147.583466 -2.772 
L 147.793686 -2.772 
L 148.003906 -2.772 
L 148.214126 -2.772 
L 148.424346 -2.772 
L 148.634565 -2.772 
L 148.844785 -2.772 
L 149.055005 -2.772 
L 149.265225 -2.772 
L 149.475445 -2.772 
L 149.685665 -2.772 
L 149.895884 -2.772 
L 150.106104 -2.772 
L 150.316324 -2.772 
L 150.526544 -2.772 
L 150.736764 -2.772 
L 150.946984 -2.772 
L 151.157204 -2.772 
L 151.367423 -2.772 
L 151.577643 -2.772 
L 151.787863 -2.772 
L 151.998083 -2.772 
L 152.208303 -2.772 
L 152.418523 -2.772 
L 152.628742 -2.772 
L 152.838962 -2.772 
L 153.049182 -2.772 
L 153.259402 -2.772 
L 153.469622 -2.772 
L 153.679842 -2.772 
L 153.890062 -2.772 
L 154.100281 -2.772 
L 154.310501 -2.772 
L 154.520721 -2.772 
L 154.730941 -2.772 
L 154.941161 -2.772 
L 155.151381 -2.772 
L 155.3616 -2.772 
L 155.57182 -2.772 
L 155.78204 -2.772 
L 155.99226 -2.772 
L 156.20248 -2.772 
L 156.4127 -2.772 
L 156.62292 -2.772 
L 156.833139 -2.772 
L 157.043359 -2.772 
L 157.253579 -2.772 
L 157.463799 -2.772 
L 157.674019 -2.772 
L 157.884239 -2.772 
L 158.094458 -2.772 
L 158.304678 -2.772 
L 158.514898 -2.772 
L 158.725118 -2.772 
L 158.935338 -2.772 
L 159.145558 -2.772 
L 159.355778 -2.772 
L 159.565997 -2.772 
L 159.776217 -2.772 
L 159.986437 -2.772 
L 160.196657 -2.772 
L 160.406877 -2.772 
L 160.617097 -2.772 
L 160.827316 -2.772 
L 161.037536 -2.772 
L 161.247756 -2.772 
L 161.457976 -2.772 
L 161.668196 -2.772 
L 161.878416 -2.772 
L 162.088636 -2.772 
L 162.298855 -2.772 
L 162.509075 -2.772 
L 162.719295 -2.772 
L 162.929515 -2.772 
L 163.139735 -2.772 
L 163.349955 -2.772 
L 163.560174 -2.772 
L 163.770394 -2.772 
L 163.980614 -2.772 
L 164.190834 -2.772 
L 164.401054 -2.772 
L 164.611274 -2.772 
L 164.821494 -2.772 
L 165.031713 -2.772 
L 165.241933 -2.772 
L 165.452153 -2.772 
L 165.662373 -2.772 
L 165.872593 -2.772 
L 166.082813 -2.772 
L 166.293032 -2.772 
L 166.503252 -2.772 
L 166.713472 -2.772 
L 166.923692 -2.772 
L 167.133912 -2.772 
L 167.344132 -2.772 
L 167.554351 -2.772 
L 167.764571 -2.772 
L 167.974791 -2.772 
L 168.185011 -2.772 
L 168.395231 -2.772 
L 168.605451 -2.772 
L 168.815671 -2.772 
L 169.02589 -2.772 
L 169.23611 -2.772 
L 169.44633 -2.772 
L 169.65655 -2.772 
L 169.86677 -2.772 
L 170.07699 -2.772 
L 170.287209 -2.772 
L 170.497429 -2.772 
L 170.707649 -2.772 
L 170.917869 -2.772 
L 171.128089 -2.772 
L 171.338309 -2.772 
L 171.548529 -2.772 
L 171.758748 -2.772 
L 171.968968 -2.772 
L 172.179188 -2.772 
L 172.389408 -2.772 
L 172.599628 -2.772 
L 172.809848 -2.772 
L 173.020067 -2.772 
L 173.230287 -2.772 
L 173.440507 -2.772 
L 173.650727 -2.772 
L 173.860947 -2.772 
L 174.071167 -2.772 
L 174.281387 -2.772 
L 174.491606 -2.772 
L 174.701826 -2.772 
L 174.912046 -2.772 
L 175.122266 -2.772 
L 175.332486 -2.772 
L 175.542706 -2.772 
L 175.752925 -2.772 
L 175.963145 -2.772 
L 176.173365 -2.772 
L 176.383585 -2.772 
L 176.593805 -2.772 
L 176.804025 -2.772 
L 177.014245 -2.772 
L 177.224464 -2.772 
L 177.434684 -2.772 
L 177.644904 -2.772 
L 177.855124 -2.772 
L 178.065344 -2.772 
L 178.275564 -2.772 
L 178.485783 -2.772 
L 178.696003 -2.772 
L 178.906223 -2.772 
L 179.116443 -2.772 
L 179.326663 -2.772 
L 179.536883 -2.772 
L 179.536883 -5.846206 
L 179.536883 -5.846206 
L 179.326663 -8.311734 
L 179.116443 -10.57216 
L 178.906223 -11.433244 
L 178.696003 -10.476091 
L 178.485783 -8.459912 
L 178.275564 -6.585009 
L 178.065344 -5.487642 
L 177.855124 -4.969075 
L 177.644904 -4.525562 
L 177.434684 -3.95109 
L 177.224464 -3.392934 
L 177.014245 -3.028305 
L 176.804025 -2.887771 
L 176.593805 -2.942608 
L 176.383585 -3.211083 
L 176.173365 -3.70538 
L 175.963145 -4.274484 
L 175.752925 -4.5933 
L 175.542706 -4.434055 
L 175.332486 -3.914572 
L 175.122266 -3.369773 
L 174.912046 -3.047181 
L 174.701826 -3.052988 
L 174.491606 -3.565359 
L 174.281387 -4.976556 
L 174.071167 -7.621274 
L 173.860947 -11.110142 
L 173.650727 -14.010262 
L 173.440507 -14.697363 
L 173.230287 -12.799465 
L 173.020067 -9.572774 
L 172.809848 -6.781675 
L 172.599628 -5.408138 
L 172.389408 -5.322682 
L 172.179188 -5.777029 
L 171.968968 -6.03978 
L 171.758748 -5.75716 
L 171.548529 -5.000847 
L 171.338309 -4.107487 
L 171.128089 -3.410734 
L 170.917869 -3.052111 
L 170.707649 -3.019547 
L 170.497429 -3.282544 
L 170.287209 -3.787051 
L 170.07699 -4.326291 
L 169.86677 -4.566875 
L 169.65655 -4.332492 
L 169.44633 -3.793306 
L 169.23611 -3.275168 
L 169.02589 -2.958609 
L 168.815671 -2.824097 
L 168.605451 -2.782949 
L 168.395231 -2.773732 
L 168.185011 -2.772206 
L 167.974791 -2.772018 
L 167.764571 -2.772001 
L 167.554351 -2.772 
L 167.344132 -2.772 
L 167.133912 -2.772 
L 166.923692 -2.772 
L 166.713472 -2.772 
L 166.503252 -2.772 
L 166.293032 -2.772 
L 166.082813 -2.772 
L 165.872593 -2.772 
L 165.662373 -2.772 
L 165.452153 -2.772 
L 165.241933 -2.772 
L 165.031713 -2.772 
L 164.821494 -2.772 
L 164.611274 -2.772 
L 164.401054 -2.772 
L 164.190834 -2.772 
L 163.980614 -2.772 
L 163.770394 -2.772 
L 163.560174 -2.772 
L 163.349955 -2.772 
L 163.139735 -2.772 
L 162.929515 -2.772 
L 162.719295 -2.772 
L 162.509075 -2.772 
L 162.298855 -2.772 
L 162.088636 -2.772 
L 161.878416 -2.772 
L 161.668196 -2.772 
L 161.457976 -2.772 
L 161.247756 -2.772 
L 161.037536 -2.772 
L 160.827316 -2.772 
L 160.617097 -2.772 
L 160.406877 -2.772 
L 160.196657 -2.772 
L 159.986437 -2.772 
L 159.776217 -2.772 
L 159.565997 -2.772 
L 159.355778 -2.772 
L 159.145558 -2.772 
L 158.935338 -2.772 
L 158.725118 -2.772 
L 158.514898 -2.772 
L 158.304678 -2.772 
L 158.094458 -2.772 
L 157.884239 -2.772 
L 157.674019 -2.772 
L 157.463799 -2.772 
L 157.253579 -2.772 
L 157.043359 -2.772 
L 156.833139 -2.772 
L 156.62292 -2.772 
L 156.4127 -2.772 
L 156.20248 -2.772 
L 155.99226 -2.772 
L 155.78204 -2.772 
L 155.57182 -2.772 
L 155.3616 -2.772 
L 155.151381 -2.772 
L 154.941161 -2.772 
L 154.730941 -2.772 
L 154.520721 -2.772 
L 154.310501 -2.772 
L 154.100281 -2.772 
L 153.890062 -2.772 
L 153.679842 -2.772 
L 153.469622 -2.772 
L 153.259402 -2.772 
L 153.049182 -2.772 
L 152.838962 -2.772 
L 152.628742 -2.772 
L 152.418523 -2.772 
L 152.208303 -2.772 
L 151.998083 -2.772 
L 151.787863 -2.772 
L 151.577643 -2.772 
L 151.367423 -2.772 
L 151.157204 -2.772 
L 150.946984 -2.772 
L 150.736764 -2.772 
L 150.526544 -2.772 
L 150.316324 -2.772 
L 150.106104 -2.772 
L 149.895884 -2.772 
L 149.685665 -2.772 
L 149.475445 -2.772 
L 149.265225 -2.772 
L 149.055005 -2.772 
L 148.844785 -2.772 
L 148.634565 -2.772 
L 148.424346 -2.772 
L 148.214126 -2.772 
L 148.003906 -2.772 
L 147.793686 -2.772 
L 147.583466 -2.772 
L 147.373246 -2.772 
L 147.163027 -2.772 
L 146.952807 -2.772 
L 146.742587 -2.772 
L 146.532367 -2.772 
L 146.322147 -2.772 
L 146.111927 -2.772 
L 145.901707 -2.772 
L 145.691488 -2.772 
L 145.481268 -2.772 
L 145.271048 -2.772 
L 145.060828 -2.772 
L 144.850608 -2.772 
L 144.640388 -2.772 
L 144.430169 -2.772 
L 144.219949 -2.772 
L 144.009729 -2.772 
L 143.799509 -2.772 
L 143.589289 -2.772 
L 143.379069 -2.772 
L 143.168849 -2.772 
L 142.95863 -2.772 
L 142.74841 -2.772 
L 142.53819 -2.772 
L 142.32797 -2.772 
L 142.11775 -2.772 
L 141.90753 -2.772 
L 141.697311 -2.772 
L 141.487091 -2.772 
L 141.276871 -2.772 
L 141.066651 -2.772 
L 140.856431 -2.772 
L 140.646211 -2.772 
L 140.435991 -2.772 
L 140.225772 -2.772006 
L 140.015552 -2.772096 
L 139.805332 -2.773108 
L 139.595112 -2.781636 
L 139.384892 -2.835111 
L 139.174672 -3.08316 
L 138.964453 -3.92684 
L 138.754233 -5.998428 
L 138.544013 -9.557542 
L 138.333793 -13.514598 
L 138.123573 -15.574547 
L 137.913353 -14.25739 
L 137.703133 -10.52835 
z
" style="stroke: #7aadb9"/>
    </defs>
    <g clip-path="url(#peaf9981df2)">
     <use xlink:href="#m51d83aa6f5" x="0" y="25.2" style="fill: #7aadb9; stroke: #7aadb9"/>
    </g>
   </g>
   <g id="matplotlib.axis_3">
    <g id="xtick_2">
     <g id="line2d_3">
      <g>
       <use xlink:href="#m9a6aab98c5" x="161.287171" y="22.428" style="stroke: #000000; stroke-width: 0.8"/>
      </g>
     </g>
     <g id="text_2">
      <!-- $\mathdefault{10^{0}}$ -->
      <g transform="translate(156.007171 30.587062) scale(0.06 -0.06)">
       <use xlink:href="#DejaVuSans-31" transform="translate(0 0.765625)"/>
       <use xlink:href="#DejaVuSans-30" transform="translate(63.623047 0.765625)"/>
       <use xlink:href="#DejaVuSans-30" transform="translate(128.203125 39.046875) scale(0.7)"/>
      </g>
     </g>
    </g>
   </g>
   <g id="matplotlib.axis_4"/>
   <g id="line2d_4">
    <path d="M 135.436596 22.428 
L 185.300426 22.428 
" style="fill: none; stroke: #808080; stroke-width: 0.1; stroke-linecap: square"/>
   </g>
   <g id="patch_6">
    <path d="M 135.436596 22.428 
L 135.436596 3.024 
" style="fill: none; stroke: #000000; stroke-width: 0.25; stroke-linejoin: miter; stroke-linecap: square"/>
   </g>
   <g id="patch_7">
    <path d="M 135.436596 22.428 
L 185.300426 22.428 
" style="fill: none; stroke: #000000; stroke-width: 0.25; stroke-linejoin: miter; stroke-linecap: square"/>
   </g>
  </g>
  <g id="axes_3">
   <g id="patch_8">
    <path d="M 195.273191 22.428 
L 245.137021 22.428 
L 245.137021 3.024 
L 195.273191 3.024 
z
" style="fill: #ffffff"/>
   </g>
   <g id="PolyCollection_3">
    <defs>
     <path id="m5b40cf08da" d="M 197.5852 -10.838941 
L 197.5852 -2.772 
L 197.798863 -2.772 
L 198.012526 -2.772 
L 198.226188 -2.772 
L 198.439851 -2.772 
L 198.653514 -2.772 
L 198.867177 -2.772 
L 199.08084 -2.772 
L 199.294503 -2.772 
L 199.508166 -2.772 
L 199.721829 -2.772 
L 199.935492 -2.772 
L 200.149155 -2.772 
L 200.362818 -2.772 
L 200.576481 -2.772 
L 200.790144 -2.772 
L 201.003807 -2.772 
L 201.21747 -2.772 
L 201.431133 -2.772 
L 201.644796 -2.772 
L 201.858459 -2.772 
L 202.072122 -2.772 
L 202.285785 -2.772 
L 202.499448 -2.772 
L 202.713111 -2.772 
L 202.926773 -2.772 
L 203.140436 -2.772 
L 203.354099 -2.772 
L 203.567762 -2.772 
L 203.781425 -2.772 
L 203.995088 -2.772 
L 204.208751 -2.772 
L 204.422414 -2.772 
L 204.636077 -2.772 
L 204.84974 -2.772 
L 205.063403 -2.772 
L 205.277066 -2.772 
L 205.490729 -2.772 
L 205.704392 -2.772 
L 205.918055 -2.772 
L 206.131718 -2.772 
L 206.345381 -2.772 
L 206.559044 -2.772 
L 206.772707 -2.772 
L 206.98637 -2.772 
L 207.200033 -2.772 
L 207.413696 -2.772 
L 207.627358 -2.772 
L 207.841021 -2.772 
L 208.054684 -2.772 
L 208.268347 -2.772 
L 208.48201 -2.772 
L 208.695673 -2.772 
L 208.909336 -2.772 
L 209.122999 -2.772 
L 209.336662 -2.772 
L 209.550325 -2.772 
L 209.763988 -2.772 
L 209.977651 -2.772 
L 210.191314 -2.772 
L 210.404977 -2.772 
L 210.61864 -2.772 
L 210.832303 -2.772 
L 211.045966 -2.772 
L 211.259629 -2.772 
L 211.473292 -2.772 
L 211.686955 -2.772 
L 211.900618 -2.772 
L 212.114281 -2.772 
L 212.327943 -2.772 
L 212.541606 -2.772 
L 212.755269 -2.772 
L 212.968932 -2.772 
L 213.182595 -2.772 
L 213.396258 -2.772 
L 213.609921 -2.772 
L 213.823584 -2.772 
L 214.037247 -2.772 
L 214.25091 -2.772 
L 214.464573 -2.772 
L 214.678236 -2.772 
L 214.891899 -2.772 
L 215.105562 -2.772 
L 215.319225 -2.772 
L 215.532888 -2.772 
L 215.746551 -2.772 
L 215.960214 -2.772 
L 216.173877 -2.772 
L 216.38754 -2.772 
L 216.601203 -2.772 
L 216.814865 -2.772 
L 217.028528 -2.772 
L 217.242191 -2.772 
L 217.455854 -2.772 
L 217.669517 -2.772 
L 217.88318 -2.772 
L 218.096843 -2.772 
L 218.310506 -2.772 
L 218.524169 -2.772 
L 218.737832 -2.772 
L 218.951495 -2.772 
L 219.165158 -2.772 
L 219.378821 -2.772 
L 219.592484 -2.772 
L 219.806147 -2.772 
L 220.01981 -2.772 
L 220.233473 -2.772 
L 220.447136 -2.772 
L 220.660799 -2.772 
L 220.874462 -2.772 
L 221.088125 -2.772 
L 221.301788 -2.772 
L 221.51545 -2.772 
L 221.729113 -2.772 
L 221.942776 -2.772 
L 222.156439 -2.772 
L 222.370102 -2.772 
L 222.583765 -2.772 
L 222.797428 -2.772 
L 223.011091 -2.772 
L 223.224754 -2.772 
L 223.438417 -2.772 
L 223.65208 -2.772 
L 223.865743 -2.772 
L 224.079406 -2.772 
L 224.293069 -2.772 
L 224.506732 -2.772 
L 224.720395 -2.772 
L 224.934058 -2.772 
L 225.147721 -2.772 
L 225.361384 -2.772 
L 225.575047 -2.772 
L 225.78871 -2.772 
L 226.002373 -2.772 
L 226.216035 -2.772 
L 226.429698 -2.772 
L 226.643361 -2.772 
L 226.857024 -2.772 
L 227.070687 -2.772 
L 227.28435 -2.772 
L 227.498013 -2.772 
L 227.711676 -2.772 
L 227.925339 -2.772 
L 228.139002 -2.772 
L 228.352665 -2.772 
L 228.566328 -2.772 
L 228.779991 -2.772 
L 228.993654 -2.772 
L 229.207317 -2.772 
L 229.42098 -2.772 
L 229.634643 -2.772 
L 229.848306 -2.772 
L 230.061969 -2.772 
L 230.275632 -2.772 
L 230.489295 -2.772 
L 230.702958 -2.772 
L 230.91662 -2.772 
L 231.130283 -2.772 
L 231.343946 -2.772 
L 231.557609 -2.772 
L 231.771272 -2.772 
L 231.984935 -2.772 
L 232.198598 -2.772 
L 232.412261 -2.772 
L 232.625924 -2.772 
L 232.839587 -2.772 
L 233.05325 -2.772 
L 233.266913 -2.772 
L 233.480576 -2.772 
L 233.694239 -2.772 
L 233.907902 -2.772 
L 234.121565 -2.772 
L 234.335228 -2.772 
L 234.548891 -2.772 
L 234.762554 -2.772 
L 234.976217 -2.772 
L 235.18988 -2.772 
L 235.403543 -2.772 
L 235.617205 -2.772 
L 235.830868 -2.772 
L 236.044531 -2.772 
L 236.258194 -2.772 
L 236.471857 -2.772 
L 236.68552 -2.772 
L 236.899183 -2.772 
L 237.112846 -2.772 
L 237.326509 -2.772 
L 237.540172 -2.772 
L 237.753835 -2.772 
L 237.967498 -2.772 
L 238.181161 -2.772 
L 238.394824 -2.772 
L 238.608487 -2.772 
L 238.82215 -2.772 
L 239.035813 -2.772 
L 239.249476 -2.772 
L 239.463139 -2.772 
L 239.676802 -2.772 
L 239.890465 -2.772 
L 240.104128 -2.772 
L 240.104128 -3.788075 
L 240.104128 -3.788075 
L 239.890465 -4.326074 
L 239.676802 -4.409295 
L 239.463139 -3.964052 
L 239.249476 -3.399458 
L 239.035813 -3.148717 
L 238.82215 -3.428224 
L 238.608487 -4.28539 
L 238.394824 -5.404868 
L 238.181161 -6.029824 
L 237.967498 -5.64844 
L 237.753835 -4.693966 
L 237.540172 -4.197583 
L 237.326509 -4.949982 
L 237.112846 -6.91265 
L 236.899183 -8.887128 
L 236.68552 -9.223004 
L 236.471857 -7.576382 
L 236.258194 -5.290947 
L 236.044531 -3.721343 
L 235.830868 -3.137171 
L 235.617205 -3.242824 
L 235.403543 -3.760456 
L 235.18988 -4.325814 
L 234.976217 -4.462448 
L 234.762554 -4.042441 
L 234.548891 -3.454476 
L 234.335228 -3.14382 
L 234.121565 -3.297394 
L 233.907902 -3.908087 
L 233.694239 -4.818952 
L 233.480576 -5.853125 
L 233.266913 -7.018121 
L 233.05325 -8.288484 
L 232.839587 -9.353564 
L 232.625924 -9.850555 
L 232.412261 -9.489126 
L 232.198598 -8.143563 
L 231.984935 -6.323826 
L 231.771272 -5.010449 
L 231.557609 -4.600741 
L 231.343946 -4.542983 
L 231.130283 -4.205026 
L 230.91662 -3.605914 
L 230.702958 -3.109063 
L 230.489295 -2.865978 
L 230.275632 -2.79005 
L 230.061969 -2.774388 
L 229.848306 -2.772218 
L 229.634643 -2.772014 
L 229.42098 -2.772001 
L 229.207317 -2.772 
L 228.993654 -2.772 
L 228.779991 -2.772 
L 228.566328 -2.772 
L 228.352665 -2.772 
L 228.139002 -2.772 
L 227.925339 -2.772 
L 227.711676 -2.772 
L 227.498013 -2.772004 
L 227.28435 -2.77208 
L 227.070687 -2.773111 
L 226.857024 -2.782606 
L 226.643361 -2.841774 
L 226.429698 -3.088356 
L 226.216035 -3.760501 
L 226.002373 -4.900639 
L 225.78871 -5.931015 
L 225.575047 -6.002922 
L 225.361384 -5.049332 
L 225.147721 -3.878245 
L 224.934058 -3.142359 
L 224.720395 -2.857753 
L 224.506732 -2.788853 
L 224.293069 -2.797292 
L 224.079406 -2.893152 
L 223.865743 -3.205592 
L 223.65208 -3.880596 
L 223.438417 -4.829134 
L 223.224754 -5.589254 
L 223.011091 -5.649724 
L 222.797428 -4.962406 
L 222.583765 -3.999642 
L 222.370102 -3.270033 
L 222.156439 -2.915887 
L 221.942776 -2.801247 
L 221.729113 -2.776296 
L 221.51545 -2.774183 
L 221.301788 -2.786222 
L 221.088125 -2.850154 
L 220.874462 -3.068328 
L 220.660799 -3.545759 
L 220.447136 -4.163366 
L 220.233473 -4.494979 
L 220.01981 -4.241339 
L 219.806147 -3.634935 
L 219.592484 -3.121343 
L 219.378821 -2.872827 
L 219.165158 -2.816342 
L 218.951495 -2.899836 
L 218.737832 -3.193425 
L 218.524169 -3.746504 
L 218.310506 -4.32463 
L 218.096843 -4.475576 
L 217.88318 -4.059235 
L 217.669517 -3.441819 
L 217.455854 -3.012027 
L 217.242191 -2.831233 
L 217.028528 -2.782066 
L 216.814865 -2.773178 
L 216.601203 -2.772095 
L 216.38754 -2.772005 
L 216.173877 -2.772 
L 215.960214 -2.772 
L 215.746551 -2.772 
L 215.532888 -2.772 
L 215.319225 -2.772 
L 215.105562 -2.772 
L 214.891899 -2.772 
L 214.678236 -2.772 
L 214.464573 -2.772 
L 214.25091 -2.772 
L 214.037247 -2.772 
L 213.823584 -2.772 
L 213.609921 -2.772 
L 213.396258 -2.772 
L 213.182595 -2.772 
L 212.968932 -2.772 
L 212.755269 -2.772 
L 212.541606 -2.772 
L 212.327943 -2.772 
L 212.114281 -2.772 
L 211.900618 -2.772 
L 211.686955 -2.772 
L 211.473292 -2.772 
L 211.259629 -2.772 
L 211.045966 -2.772 
L 210.832303 -2.772 
L 210.61864 -2.772 
L 210.404977 -2.772 
L 210.191314 -2.772 
L 209.977651 -2.772 
L 209.763988 -2.772 
L 209.550325 -2.772 
L 209.336662 -2.772 
L 209.122999 -2.772 
L 208.909336 -2.772 
L 208.695673 -2.772 
L 208.48201 -2.772 
L 208.268347 -2.772 
L 208.054684 -2.772 
L 207.841021 -2.772 
L 207.627358 -2.772 
L 207.413696 -2.772 
L 207.200033 -2.772 
L 206.98637 -2.772 
L 206.772707 -2.772 
L 206.559044 -2.772 
L 206.345381 -2.772 
L 206.131718 -2.772 
L 205.918055 -2.772 
L 205.704392 -2.772 
L 205.490729 -2.772 
L 205.277066 -2.772 
L 205.063403 -2.772 
L 204.84974 -2.772 
L 204.636077 -2.772 
L 204.422414 -2.772 
L 204.208751 -2.772 
L 203.995088 -2.772 
L 203.781425 -2.772 
L 203.567762 -2.772 
L 203.354099 -2.772 
L 203.140436 -2.772 
L 202.926773 -2.772 
L 202.713111 -2.772 
L 202.499448 -2.772 
L 202.285785 -2.772 
L 202.072122 -2.772 
L 201.858459 -2.772 
L 201.644796 -2.772 
L 201.431133 -2.772 
L 201.21747 -2.772 
L 201.003807 -2.772 
L 200.790144 -2.772 
L 200.576481 -2.772 
L 200.362818 -2.772 
L 200.149155 -2.772 
L 199.935492 -2.772001 
L 199.721829 -2.772029 
L 199.508166 -2.772544 
L 199.294503 -2.779032 
L 199.08084 -2.834594 
L 198.867177 -3.155689 
L 198.653514 -4.391672 
L 198.439851 -7.480446 
L 198.226188 -12.198078 
L 198.012526 -15.767334 
L 197.798863 -15.110056 
L 197.5852 -10.838941 
z
" style="stroke: #6696ab"/>
    </defs>
    <g clip-path="url(#p27584069d5)">
     <use xlink:href="#m5b40cf08da" x="0" y="25.2" style="fill: #6696ab; stroke: #6696ab"/>
    </g>
   </g>
   <g id="matplotlib.axis_5">
    <g id="xtick_3">
     <g id="line2d_5">
      <g>
       <use xlink:href="#m9a6aab98c5" x="221.123766" y="22.428" style="stroke: #000000; stroke-width: 0.8"/>
      </g>
     </g>
     <g id="text_3">
      <!-- $\mathdefault{10^{0}}$ -->
      <g transform="translate(215.843766 30.587062) scale(0.06 -0.06)">
       <use xlink:href="#DejaVuSans-31" transform="translate(0 0.765625)"/>
       <use xlink:href="#DejaVuSans-30" transform="translate(63.623047 0.765625)"/>
       <use xlink:href="#DejaVuSans-30" transform="translate(128.203125 39.046875) scale(0.7)"/>
      </g>
     </g>
    </g>
   </g>
   <g id="matplotlib.axis_6"/>
   <g id="line2d_6">
    <path d="M 195.273191 22.428 
L 245.137021 22.428 
" style="fill: none; stroke: #808080; stroke-width: 0.1; stroke-linecap: square"/>
   </g>
   <g id="patch_9">
    <path d="M 195.273191 22.428 
L 195.273191 3.024 
" style="fill: none; stroke: #000000; stroke-width: 0.25; stroke-linejoin: miter; stroke-linecap: square"/>
   </g>
   <g id="patch_10">
    <path d="M 195.273191 22.428 
L 245.137021 22.428 
" style="fill: none; stroke: #000000; stroke-width: 0.25; stroke-linejoin: miter; stroke-linecap: square"/>
   </g>
  </g>
  <g id="axes_4">
   <g id="patch_11">
    <path d="M 255.109787 22.428 
L 304.973617 22.428 
L 304.973617 3.024 
L 255.109787 3.024 
z
" style="fill: #ffffff"/>
   </g>
   <g id="PolyCollection_4">
    <defs>
     <path id="m1a5b503306" d="M 257.422587 -9.762156 
L 257.422587 -2.772 
L 257.632826 -2.772 
L 257.843065 -2.772 
L 258.053304 -2.772 
L 258.263543 -2.772 
L 258.473782 -2.772 
L 258.684021 -2.772 
L 258.89426 -2.772 
L 259.104499 -2.772 
L 259.314738 -2.772 
L 259.524977 -2.772 
L 259.735215 -2.772 
L 259.945454 -2.772 
L 260.155693 -2.772 
L 260.365932 -2.772 
L 260.576171 -2.772 
L 260.78641 -2.772 
L 260.996649 -2.772 
L 261.206888 -2.772 
L 261.417127 -2.772 
L 261.627366 -2.772 
L 261.837605 -2.772 
L 262.047843 -2.772 
L 262.258082 -2.772 
L 262.468321 -2.772 
L 262.67856 -2.772 
L 262.888799 -2.772 
L 263.099038 -2.772 
L 263.309277 -2.772 
L 263.519516 -2.772 
L 263.729755 -2.772 
L 263.939994 -2.772 
L 264.150233 -2.772 
L 264.360471 -2.772 
L 264.57071 -2.772 
L 264.780949 -2.772 
L 264.991188 -2.772 
L 265.201427 -2.772 
L 265.411666 -2.772 
L 265.621905 -2.772 
L 265.832144 -2.772 
L 266.042383 -2.772 
L 266.252622 -2.772 
L 266.462861 -2.772 
L 266.673099 -2.772 
L 266.883338 -2.772 
L 267.093577 -2.772 
L 267.303816 -2.772 
L 267.514055 -2.772 
L 267.724294 -2.772 
L 267.934533 -2.772 
L 268.144772 -2.772 
L 268.355011 -2.772 
L 268.56525 -2.772 
L 268.775489 -2.772 
L 268.985727 -2.772 
L 269.195966 -2.772 
L 269.406205 -2.772 
L 269.616444 -2.772 
L 269.826683 -2.772 
L 270.036922 -2.772 
L 270.247161 -2.772 
L 270.4574 -2.772 
L 270.667639 -2.772 
L 270.877878 -2.772 
L 271.088117 -2.772 
L 271.298356 -2.772 
L 271.508594 -2.772 
L 271.718833 -2.772 
L 271.929072 -2.772 
L 272.139311 -2.772 
L 272.34955 -2.772 
L 272.559789 -2.772 
L 272.770028 -2.772 
L 272.980267 -2.772 
L 273.190506 -2.772 
L 273.400745 -2.772 
L 273.610984 -2.772 
L 273.821222 -2.772 
L 274.031461 -2.772 
L 274.2417 -2.772 
L 274.451939 -2.772 
L 274.662178 -2.772 
L 274.872417 -2.772 
L 275.082656 -2.772 
L 275.292895 -2.772 
L 275.503134 -2.772 
L 275.713373 -2.772 
L 275.923612 -2.772 
L 276.13385 -2.772 
L 276.344089 -2.772 
L 276.554328 -2.772 
L 276.764567 -2.772 
L 276.974806 -2.772 
L 277.185045 -2.772 
L 277.395284 -2.772 
L 277.605523 -2.772 
L 277.815762 -2.772 
L 278.026001 -2.772 
L 278.23624 -2.772 
L 278.446478 -2.772 
L 278.656717 -2.772 
L 278.866956 -2.772 
L 279.077195 -2.772 
L 279.287434 -2.772 
L 279.497673 -2.772 
L 279.707912 -2.772 
L 279.918151 -2.772 
L 280.12839 -2.772 
L 280.338629 -2.772 
L 280.548868 -2.772 
L 280.759106 -2.772 
L 280.969345 -2.772 
L 281.179584 -2.772 
L 281.389823 -2.772 
L 281.600062 -2.772 
L 281.810301 -2.772 
L 282.02054 -2.772 
L 282.230779 -2.772 
L 282.441018 -2.772 
L 282.651257 -2.772 
L 282.861496 -2.772 
L 283.071734 -2.772 
L 283.281973 -2.772 
L 283.492212 -2.772 
L 283.702451 -2.772 
L 283.91269 -2.772 
L 284.122929 -2.772 
L 284.333168 -2.772 
L 284.543407 -2.772 
L 284.753646 -2.772 
L 284.963885 -2.772 
L 285.174124 -2.772 
L 285.384362 -2.772 
L 285.594601 -2.772 
L 285.80484 -2.772 
L 286.015079 -2.772 
L 286.225318 -2.772 
L 286.435557 -2.772 
L 286.645796 -2.772 
L 286.856035 -2.772 
L 287.066274 -2.772 
L 287.276513 -2.772 
L 287.486752 -2.772 
L 287.69699 -2.772 
L 287.907229 -2.772 
L 288.117468 -2.772 
L 288.327707 -2.772 
L 288.537946 -2.772 
L 288.748185 -2.772 
L 288.958424 -2.772 
L 289.168663 -2.772 
L 289.378902 -2.772 
L 289.589141 -2.772 
L 289.79938 -2.772 
L 290.009618 -2.772 
L 290.219857 -2.772 
L 290.430096 -2.772 
L 290.640335 -2.772 
L 290.850574 -2.772 
L 291.060813 -2.772 
L 291.271052 -2.772 
L 291.481291 -2.772 
L 291.69153 -2.772 
L 291.901769 -2.772 
L 292.112008 -2.772 
L 292.322247 -2.772 
L 292.532485 -2.772 
L 292.742724 -2.772 
L 292.952963 -2.772 
L 293.163202 -2.772 
L 293.373441 -2.772 
L 293.58368 -2.772 
L 293.793919 -2.772 
L 294.004158 -2.772 
L 294.214397 -2.772 
L 294.424636 -2.772 
L 294.634875 -2.772 
L 294.845113 -2.772 
L 295.055352 -2.772 
L 295.265591 -2.772 
L 295.47583 -2.772 
L 295.686069 -2.772 
L 295.896308 -2.772 
L 296.106547 -2.772 
L 296.316786 -2.772 
L 296.527025 -2.772 
L 296.737264 -2.772 
L 296.947503 -2.772 
L 297.157741 -2.772 
L 297.36798 -2.772 
L 297.578219 -2.772 
L 297.788458 -2.772 
L 297.998697 -2.772 
L 298.208936 -2.772 
L 298.419175 -2.772 
L 298.629414 -2.772 
L 298.839653 -2.772 
L 299.049892 -2.772 
L 299.260131 -2.772 
L 299.260131 -5.461832 
L 299.260131 -5.461832 
L 299.049892 -7.701382 
L 298.839653 -9.37822 
L 298.629414 -9.466351 
L 298.419175 -8.376779 
L 298.208936 -7.425438 
L 297.998697 -7.221302 
L 297.788458 -7.217835 
L 297.578219 -6.614858 
L 297.36798 -5.339495 
L 297.157741 -4.050401 
L 296.947503 -3.334767 
L 296.737264 -3.305182 
L 296.527025 -3.814238 
L 296.316786 -4.575732 
L 296.106547 -5.194757 
L 295.896308 -5.379975 
L 295.686069 -5.060873 
L 295.47583 -4.367365 
L 295.265591 -3.62162 
L 295.055352 -3.15591 
L 294.845113 -3.146723 
L 294.634875 -3.722593 
L 294.424636 -4.927176 
L 294.214397 -6.359478 
L 294.004158 -7.283915 
L 293.793919 -7.532053 
L 293.58368 -7.886149 
L 293.373441 -8.97988 
L 293.163202 -10.056742 
L 292.952963 -9.747593 
L 292.742724 -8.077115 
L 292.532485 -6.394168 
L 292.322247 -5.483487 
L 292.112008 -5.119864 
L 291.901769 -4.971508 
L 291.69153 -4.837849 
L 291.481291 -4.579268 
L 291.271052 -4.374755 
L 291.060813 -4.509235 
L 290.850574 -4.855977 
L 290.640335 -5.084324 
L 290.430096 -5.155034 
L 290.219857 -5.176703 
L 290.009618 -5.154436 
L 289.79938 -5.06967 
L 289.589141 -4.824128 
L 289.378902 -4.293395 
L 289.168663 -3.622676 
L 288.958424 -3.113027 
L 288.748185 -2.868 
L 288.537946 -2.791007 
L 288.327707 -2.776619 
L 288.117468 -2.788006 
L 287.907229 -2.855858 
L 287.69699 -3.081296 
L 287.486752 -3.563386 
L 287.276513 -4.176451 
L 287.066274 -4.500734 
L 286.856035 -4.247886 
L 286.645796 -3.645938 
L 286.435557 -3.130932 
L 286.225318 -2.874246 
L 286.015079 -2.792201 
L 285.80484 -2.774768 
L 285.594601 -2.772263 
L 285.384362 -2.772017 
L 285.174124 -2.772001 
L 284.963885 -2.772 
L 284.753646 -2.772 
L 284.543407 -2.772 
L 284.333168 -2.772 
L 284.122929 -2.772 
L 283.91269 -2.772 
L 283.702451 -2.772 
L 283.492212 -2.772 
L 283.281973 -2.772 
L 283.071734 -2.772 
L 282.861496 -2.772 
L 282.651257 -2.772 
L 282.441018 -2.772 
L 282.230779 -2.772 
L 282.02054 -2.772 
L 281.810301 -2.772 
L 281.600062 -2.772 
L 281.389823 -2.772 
L 281.179584 -2.772 
L 280.969345 -2.772 
L 280.759106 -2.772 
L 280.548868 -2.772 
L 280.338629 -2.772 
L 280.12839 -2.772 
L 279.918151 -2.772 
L 279.707912 -2.772001 
L 279.497673 -2.772016 
L 279.287434 -2.772246 
L 279.077195 -2.774611 
L 278.866956 -2.791261 
L 278.656717 -2.870538 
L 278.446478 -3.121652 
L 278.23624 -3.632541 
L 278.026001 -4.240958 
L 277.815762 -4.511205 
L 277.605523 -4.20022 
L 277.395284 -3.585472 
L 277.185045 -3.093361 
L 276.974806 -2.860054 
L 276.764567 -2.788734 
L 276.554328 -2.774206 
L 276.344089 -2.772202 
L 276.13385 -2.772013 
L 275.923612 -2.772001 
L 275.713373 -2.772 
L 275.503134 -2.772 
L 275.292895 -2.772 
L 275.082656 -2.772 
L 274.872417 -2.772 
L 274.662178 -2.772 
L 274.451939 -2.772 
L 274.2417 -2.772 
L 274.031461 -2.772 
L 273.821222 -2.772 
L 273.610984 -2.772 
L 273.400745 -2.772 
L 273.190506 -2.772 
L 272.980267 -2.772 
L 272.770028 -2.772 
L 272.559789 -2.772 
L 272.34955 -2.772 
L 272.139311 -2.772 
L 271.929072 -2.772 
L 271.718833 -2.772 
L 271.508594 -2.772 
L 271.298356 -2.772 
L 271.088117 -2.772 
L 270.877878 -2.772 
L 270.667639 -2.772 
L 270.4574 -2.772 
L 270.247161 -2.772 
L 270.036922 -2.772 
L 269.826683 -2.772 
L 269.616444 -2.772 
L 269.406205 -2.772 
L 269.195966 -2.772 
L 268.985727 -2.772 
L 268.775489 -2.772 
L 268.56525 -2.772 
L 268.355011 -2.772 
L 268.144772 -2.772 
L 267.934533 -2.772 
L 267.724294 -2.772 
L 267.514055 -2.772 
L 267.303816 -2.772 
L 267.093577 -2.772 
L 266.883338 -2.772 
L 266.673099 -2.772 
L 266.462861 -2.772 
L 266.252622 -2.772 
L 266.042383 -2.772 
L 265.832144 -2.772 
L 265.621905 -2.772 
L 265.411666 -2.772 
L 265.201427 -2.772 
L 264.991188 -2.772 
L 264.780949 -2.772 
L 264.57071 -2.772 
L 264.360471 -2.772 
L 264.150233 -2.772 
L 263.939994 -2.772 
L 263.729755 -2.772 
L 263.519516 -2.772 
L 263.309277 -2.772 
L 263.099038 -2.772 
L 262.888799 -2.772 
L 262.67856 -2.772 
L 262.468321 -2.772 
L 262.258082 -2.772 
L 262.047843 -2.772 
L 261.837605 -2.772 
L 261.627366 -2.772 
L 261.417127 -2.772 
L 261.206888 -2.772 
L 260.996649 -2.772 
L 260.78641 -2.772 
L 260.576171 -2.772 
L 260.365932 -2.772 
L 260.155693 -2.772 
L 259.945454 -2.772 
L 259.735215 -2.772001 
L 259.524977 -2.772035 
L 259.314738 -2.772611 
L 259.104499 -2.779457 
L 258.89426 -2.835125 
L 258.684021 -3.142622 
L 258.473782 -4.281265 
L 258.263543 -7.034883 
L 258.053304 -11.123117 
L 257.843065 -14.119204 
L 257.632826 -13.465904 
L 257.422587 -9.762156 
z
" style="stroke: #55809b"/>
    </defs>
    <g clip-path="url(#p20a0ef6664)">
     <use xlink:href="#m1a5b503306" x="0" y="25.2" style="fill: #55809b; stroke: #55809b"/>
    </g>
   </g>
   <g id="matplotlib.axis_7">
    <g id="xtick_4">
     <g id="line2d_7">
      <g>
       <use xlink:href="#m9a6aab98c5" x="280.960362" y="22.428" style="stroke: #000000; stroke-width: 0.8"/>
      </g>
     </g>
     <g id="text_4">
      <!-- $\mathdefault{10^{0}}$ -->
      <g transform="translate(275.680362 30.587062) scale(0.06 -0.06)">
       <use xlink:href="#DejaVuSans-31" transform="translate(0 0.765625)"/>
       <use xlink:href="#DejaVuSans-30" transform="translate(63.623047 0.765625)"/>
       <use xlink:href="#DejaVuSans-30" transform="translate(128.203125 39.046875) scale(0.7)"/>
      </g>
     </g>
    </g>
   </g>
   <g id="matplotlib.axis_8"/>
   <g id="line2d_8">
    <path d="M 255.109787 22.428 
L 304.973617 22.428 
" style="fill: none; stroke: #808080; stroke-width: 0.1; stroke-linecap: square"/>
   </g>
   <g id="patch_12">
    <path d="M 255.109787 22.428 
L 255.109787 3.024 
" style="fill: none; stroke: #000000; stroke-width: 0.25; stroke-linejoin: miter; stroke-linecap: square"/>
   </g>
   <g id="patch_13">
    <path d="M 255.109787 22.428 
L 304.973617 22.428 
" style="fill: none; stroke: #000000; stroke-width: 0.25; stroke-linejoin: miter; stroke-linecap: square"/>
   </g>
  </g>
  <g id="axes_5">
   <g id="patch_14">
    <path d="M 314.946383 22.428 
L 364.810213 22.428 
L 364.810213 3.024 
L 314.946383 3.024 
z
" style="fill: #ffffff"/>
   </g>
   <g id="PolyCollection_5">
    <defs>
     <path id="m6db72fcd9b" d="M 317.294938 -8.058581 
L 317.294938 -2.772 
L 317.517871 -2.772 
L 317.740803 -2.772 
L 317.963736 -2.772 
L 318.186668 -2.772 
L 318.4096 -2.772 
L 318.632533 -2.772 
L 318.855465 -2.772 
L 319.078398 -2.772 
L 319.30133 -2.772 
L 319.524262 -2.772 
L 319.747195 -2.772 
L 319.970127 -2.772 
L 320.19306 -2.772 
L 320.415992 -2.772 
L 320.638924 -2.772 
L 320.861857 -2.772 
L 321.084789 -2.772 
L 321.307722 -2.772 
L 321.530654 -2.772 
L 321.753587 -2.772 
L 321.976519 -2.772 
L 322.199451 -2.772 
L 322.422384 -2.772 
L 322.645316 -2.772 
L 322.868249 -2.772 
L 323.091181 -2.772 
L 323.314113 -2.772 
L 323.537046 -2.772 
L 323.759978 -2.772 
L 323.982911 -2.772 
L 324.205843 -2.772 
L 324.428775 -2.772 
L 324.651708 -2.772 
L 324.87464 -2.772 
L 325.097573 -2.772 
L 325.320505 -2.772 
L 325.543437 -2.772 
L 325.76637 -2.772 
L 325.989302 -2.772 
L 326.212235 -2.772 
L 326.435167 -2.772 
L 326.6581 -2.772 
L 326.881032 -2.772 
L 327.103964 -2.772 
L 327.326897 -2.772 
L 327.549829 -2.772 
L 327.772762 -2.772 
L 327.995694 -2.772 
L 328.218626 -2.772 
L 328.441559 -2.772 
L 328.664491 -2.772 
L 328.887424 -2.772 
L 329.110356 -2.772 
L 329.333288 -2.772 
L 329.556221 -2.772 
L 329.779153 -2.772 
L 330.002086 -2.772 
L 330.225018 -2.772 
L 330.44795 -2.772 
L 330.670883 -2.772 
L 330.893815 -2.772 
L 331.116748 -2.772 
L 331.33968 -2.772 
L 331.562613 -2.772 
L 331.785545 -2.772 
L 332.008477 -2.772 
L 332.23141 -2.772 
L 332.454342 -2.772 
L 332.677275 -2.772 
L 332.900207 -2.772 
L 333.123139 -2.772 
L 333.346072 -2.772 
L 333.569004 -2.772 
L 333.791937 -2.772 
L 334.014869 -2.772 
L 334.237801 -2.772 
L 334.460734 -2.772 
L 334.683666 -2.772 
L 334.906599 -2.772 
L 335.129531 -2.772 
L 335.352464 -2.772 
L 335.575396 -2.772 
L 335.798328 -2.772 
L 336.021261 -2.772 
L 336.244193 -2.772 
L 336.467126 -2.772 
L 336.690058 -2.772 
L 336.91299 -2.772 
L 337.135923 -2.772 
L 337.358855 -2.772 
L 337.581788 -2.772 
L 337.80472 -2.772 
L 338.027652 -2.772 
L 338.250585 -2.772 
L 338.473517 -2.772 
L 338.69645 -2.772 
L 338.919382 -2.772 
L 339.142314 -2.772 
L 339.365247 -2.772 
L 339.588179 -2.772 
L 339.811112 -2.772 
L 340.034044 -2.772 
L 340.256977 -2.772 
L 340.479909 -2.772 
L 340.702841 -2.772 
L 340.925774 -2.772 
L 341.148706 -2.772 
L 341.371639 -2.772 
L 341.594571 -2.772 
L 341.817503 -2.772 
L 342.040436 -2.772 
L 342.263368 -2.772 
L 342.486301 -2.772 
L 342.709233 -2.772 
L 342.932165 -2.772 
L 343.155098 -2.772 
L 343.37803 -2.772 
L 343.600963 -2.772 
L 343.823895 -2.772 
L 344.046827 -2.772 
L 344.26976 -2.772 
L 344.492692 -2.772 
L 344.715625 -2.772 
L 344.938557 -2.772 
L 345.16149 -2.772 
L 345.384422 -2.772 
L 345.607354 -2.772 
L 345.830287 -2.772 
L 346.053219 -2.772 
L 346.276152 -2.772 
L 346.499084 -2.772 
L 346.722016 -2.772 
L 346.944949 -2.772 
L 347.167881 -2.772 
L 347.390814 -2.772 
L 347.613746 -2.772 
L 347.836678 -2.772 
L 348.059611 -2.772 
L 348.282543 -2.772 
L 348.505476 -2.772 
L 348.728408 -2.772 
L 348.951341 -2.772 
L 349.174273 -2.772 
L 349.397205 -2.772 
L 349.620138 -2.772 
L 349.84307 -2.772 
L 350.066003 -2.772 
L 350.288935 -2.772 
L 350.511867 -2.772 
L 350.7348 -2.772 
L 350.957732 -2.772 
L 351.180665 -2.772 
L 351.403597 -2.772 
L 351.626529 -2.772 
L 351.849462 -2.772 
L 352.072394 -2.772 
L 352.295327 -2.772 
L 352.518259 -2.772 
L 352.741191 -2.772 
L 352.964124 -2.772 
L 353.187056 -2.772 
L 353.409989 -2.772 
L 353.632921 -2.772 
L 353.855854 -2.772 
L 354.078786 -2.772 
L 354.301718 -2.772 
L 354.524651 -2.772 
L 354.747583 -2.772 
L 354.970516 -2.772 
L 355.193448 -2.772 
L 355.41638 -2.772 
L 355.639313 -2.772 
L 355.862245 -2.772 
L 356.085178 -2.772 
L 356.30811 -2.772 
L 356.531042 -2.772 
L 356.753975 -2.772 
L 356.976907 -2.772 
L 357.19984 -2.772 
L 357.422772 -2.772 
L 357.645704 -2.772 
L 357.868637 -2.772 
L 358.091569 -2.772 
L 358.314502 -2.772 
L 358.537434 -2.772 
L 358.760367 -2.772 
L 358.983299 -2.772 
L 359.206231 -2.772 
L 359.429164 -2.772 
L 359.652096 -2.772 
L 359.875029 -2.772 
L 360.097961 -2.772 
L 360.320893 -2.772 
L 360.543826 -2.772 
L 360.766758 -2.772 
L 360.989691 -2.772 
L 361.212623 -2.772 
L 361.435555 -2.772 
L 361.658488 -2.772 
L 361.658488 -5.236755 
L 361.658488 -5.236755 
L 361.435555 -7.778507 
L 361.212623 -9.075482 
L 360.989691 -7.703021 
L 360.766758 -5.186176 
L 360.543826 -3.637952 
L 360.320893 -3.444812 
L 360.097961 -3.943683 
L 359.875029 -4.318029 
L 359.652096 -4.339777 
L 359.429164 -4.595412 
L 359.206231 -5.480768 
L 358.983299 -6.926769 
L 358.760367 -8.433539 
L 358.537434 -8.738824 
L 358.314502 -7.271854 
L 358.091569 -5.474902 
L 357.868637 -5.322656 
L 357.645704 -7.052393 
L 357.422772 -8.678828 
L 357.19984 -8.444554 
L 356.976907 -7.099271 
L 356.753975 -6.160633 
L 356.531042 -5.748611 
L 356.30811 -5.175684 
L 356.085178 -4.224447 
L 355.862245 -3.353867 
L 355.639313 -2.917202 
L 355.41638 -2.796609 
L 355.193448 -2.802394 
L 354.970516 -2.943268 
L 354.747583 -3.379439 
L 354.524651 -4.043138 
L 354.301718 -4.341509 
L 354.078786 -3.929986 
L 353.855854 -3.411452 
L 353.632921 -3.700581 
L 353.409989 -5.420165 
L 353.187056 -8.026327 
L 352.964124 -9.229441 
L 352.741191 -7.819289 
L 352.518259 -5.79355 
L 352.295327 -5.135144 
L 352.072394 -5.481721 
L 351.849462 -5.872738 
L 351.626529 -5.903895 
L 351.403597 -5.349846 
L 351.180665 -4.322692 
L 350.957732 -3.408279 
L 350.7348 -3.038056 
L 350.511867 -3.243041 
L 350.288935 -3.845338 
L 350.066003 -4.284975 
L 349.84307 -4.032041 
L 349.620138 -3.393387 
L 349.397205 -2.978862 
L 349.174273 -2.96884 
L 348.951341 -3.362769 
L 348.728408 -3.997096 
L 348.505476 -4.277406 
L 348.282543 -3.862908 
L 348.059611 -3.238138 
L 347.836678 -2.889444 
L 347.613746 -2.789448 
L 347.390814 -2.773528 
L 347.167881 -2.772079 
L 346.944949 -2.772002 
L 346.722016 -2.772 
L 346.499084 -2.772 
L 346.276152 -2.772001 
L 346.053219 -2.77203 
L 345.830287 -2.772689 
L 345.607354 -2.781311 
L 345.384422 -2.846203 
L 345.16149 -3.121624 
L 344.938557 -3.754097 
L 344.715625 -4.470564 
L 344.492692 -4.784359 
L 344.26976 -4.794183 
L 344.046827 -4.658537 
L 343.823895 -4.124866 
L 343.600963 -3.398129 
L 343.37803 -2.948326 
L 343.155098 -2.817081 
L 342.932165 -2.893811 
L 342.709233 -3.309058 
L 342.486301 -4.272153 
L 342.263368 -5.414359 
L 342.040436 -5.74558 
L 341.817503 -4.914805 
L 341.594571 -3.750831 
L 341.371639 -3.050593 
L 341.148706 -2.820547 
L 340.925774 -2.777108 
L 340.702841 -2.772321 
L 340.479909 -2.772012 
L 340.256977 -2.772 
L 340.034044 -2.772 
L 339.811112 -2.772 
L 339.588179 -2.772 
L 339.365247 -2.772 
L 339.142314 -2.772 
L 338.919382 -2.772 
L 338.69645 -2.772 
L 338.473517 -2.772 
L 338.250585 -2.772 
L 338.027652 -2.772 
L 337.80472 -2.772 
L 337.581788 -2.772 
L 337.358855 -2.772 
L 337.135923 -2.772 
L 336.91299 -2.772 
L 336.690058 -2.772 
L 336.467126 -2.772 
L 336.244193 -2.772 
L 336.021261 -2.772 
L 335.798328 -2.772 
L 335.575396 -2.772 
L 335.352464 -2.772 
L 335.129531 -2.772 
L 334.906599 -2.772 
L 334.683666 -2.772 
L 334.460734 -2.772 
L 334.237801 -2.772 
L 334.014869 -2.772 
L 333.791937 -2.772 
L 333.569004 -2.772 
L 333.346072 -2.772 
L 333.123139 -2.772 
L 332.900207 -2.772 
L 332.677275 -2.772 
L 332.454342 -2.772 
L 332.23141 -2.772 
L 332.008477 -2.772 
L 331.785545 -2.772 
L 331.562613 -2.772 
L 331.33968 -2.772 
L 331.116748 -2.772 
L 330.893815 -2.772 
L 330.670883 -2.772 
L 330.44795 -2.772 
L 330.225018 -2.772 
L 330.002086 -2.772 
L 329.779153 -2.772 
L 329.556221 -2.772 
L 329.333288 -2.772 
L 329.110356 -2.772 
L 328.887424 -2.772 
L 328.664491 -2.772 
L 328.441559 -2.772 
L 328.218626 -2.772 
L 327.995694 -2.772 
L 327.772762 -2.772 
L 327.549829 -2.772 
L 327.326897 -2.772 
L 327.103964 -2.772 
L 326.881032 -2.772 
L 326.6581 -2.772 
L 326.435167 -2.772 
L 326.212235 -2.772 
L 325.989302 -2.772 
L 325.76637 -2.772 
L 325.543437 -2.772 
L 325.320505 -2.772 
L 325.097573 -2.772 
L 324.87464 -2.772 
L 324.651708 -2.772 
L 324.428775 -2.772 
L 324.205843 -2.772 
L 323.982911 -2.772 
L 323.759978 -2.772 
L 323.537046 -2.772 
L 323.314113 -2.772 
L 323.091181 -2.772 
L 322.868249 -2.772 
L 322.645316 -2.772 
L 322.422384 -2.772 
L 322.199451 -2.772 
L 321.976519 -2.772 
L 321.753587 -2.772 
L 321.530654 -2.772 
L 321.307722 -2.772 
L 321.084789 -2.772 
L 320.861857 -2.772 
L 320.638924 -2.772 
L 320.415992 -2.772 
L 320.19306 -2.772 
L 319.970127 -2.772 
L 319.747195 -2.772 
L 319.524262 -2.772 
L 319.30133 -2.772002 
L 319.078398 -2.772092 
L 318.855465 -2.774302 
L 318.632533 -2.805927 
L 318.4096 -3.066785 
L 318.186668 -4.282286 
L 317.963736 -7.334505 
L 317.740803 -10.899132 
L 317.517871 -11.308133 
L 317.294938 -8.058581 
z
" style="stroke: #476989"/>
    </defs>
    <g clip-path="url(#peef4f3a654)">
     <use xlink:href="#m6db72fcd9b" x="0" y="25.2" style="fill: #476989; stroke: #476989"/>
    </g>
   </g>
   <g id="matplotlib.axis_9">
    <g id="xtick_5">
     <g id="line2d_9">
      <g>
       <use xlink:href="#m9a6aab98c5" x="340.796958" y="22.428" style="stroke: #000000; stroke-width: 0.8"/>
      </g>
     </g>
     <g id="text_5">
      <!-- $\mathdefault{10^{0}}$ -->
      <g transform="translate(335.516958 30.587062) scale(0.06 -0.06)">
       <use xlink:href="#DejaVuSans-31" transform="translate(0 0.765625)"/>
       <use xlink:href="#DejaVuSans-30" transform="translate(63.623047 0.765625)"/>
       <use xlink:href="#DejaVuSans-30" transform="translate(128.203125 39.046875) scale(0.7)"/>
      </g>
     </g>
    </g>
   </g>
   <g id="matplotlib.axis_10"/>
   <g id="line2d_10">
    <path d="M 314.946383 22.428 
L 364.810213 22.428 
" style="fill: none; stroke: #808080; stroke-width: 0.1; stroke-linecap: square"/>
   </g>
   <g id="patch_15">
    <path d="M 314.946383 22.428 
L 314.946383 3.024 
" style="fill: none; stroke: #000000; stroke-width: 0.25; stroke-linejoin: miter; stroke-linecap: square"/>
   </g>
   <g id="patch_16">
    <path d="M 314.946383 22.428 
L 364.810213 22.428 
" style="fill: none; stroke: #000000; stroke-width: 0.25; stroke-linejoin: miter; stroke-linecap: square"/>
   </g>
  </g>
  <g id="axes_6">
   <g id="patch_17">
    <path d="M 374.782979 22.428 
L 424.646809 22.428 
L 424.646809 3.024 
L 374.782979 3.024 
z
" style="fill: #ffffff"/>
   </g>
   <g id="PolyCollection_6">
    <defs>
     <path id="m79f0675fc8" d="M 377.094918 -11.524429 
L 377.094918 -2.772 
L 377.311681 -2.772 
L 377.528444 -2.772 
L 377.745207 -2.772 
L 377.96197 -2.772 
L 378.178732 -2.772 
L 378.395495 -2.772 
L 378.612258 -2.772 
L 378.829021 -2.772 
L 379.045784 -2.772 
L 379.262547 -2.772 
L 379.479309 -2.772 
L 379.696072 -2.772 
L 379.912835 -2.772 
L 380.129598 -2.772 
L 380.346361 -2.772 
L 380.563124 -2.772 
L 380.779886 -2.772 
L 380.996649 -2.772 
L 381.213412 -2.772 
L 381.430175 -2.772 
L 381.646938 -2.772 
L 381.863701 -2.772 
L 382.080463 -2.772 
L 382.297226 -2.772 
L 382.513989 -2.772 
L 382.730752 -2.772 
L 382.947515 -2.772 
L 383.164278 -2.772 
L 383.38104 -2.772 
L 383.597803 -2.772 
L 383.814566 -2.772 
L 384.031329 -2.772 
L 384.248092 -2.772 
L 384.464855 -2.772 
L 384.681617 -2.772 
L 384.89838 -2.772 
L 385.115143 -2.772 
L 385.331906 -2.772 
L 385.548669 -2.772 
L 385.765432 -2.772 
L 385.982194 -2.772 
L 386.198957 -2.772 
L 386.41572 -2.772 
L 386.632483 -2.772 
L 386.849246 -2.772 
L 387.066008 -2.772 
L 387.282771 -2.772 
L 387.499534 -2.772 
L 387.716297 -2.772 
L 387.93306 -2.772 
L 388.149823 -2.772 
L 388.366585 -2.772 
L 388.583348 -2.772 
L 388.800111 -2.772 
L 389.016874 -2.772 
L 389.233637 -2.772 
L 389.4504 -2.772 
L 389.667162 -2.772 
L 389.883925 -2.772 
L 390.100688 -2.772 
L 390.317451 -2.772 
L 390.534214 -2.772 
L 390.750977 -2.772 
L 390.967739 -2.772 
L 391.184502 -2.772 
L 391.401265 -2.772 
L 391.618028 -2.772 
L 391.834791 -2.772 
L 392.051554 -2.772 
L 392.268316 -2.772 
L 392.485079 -2.772 
L 392.701842 -2.772 
L 392.918605 -2.772 
L 393.135368 -2.772 
L 393.352131 -2.772 
L 393.568893 -2.772 
L 393.785656 -2.772 
L 394.002419 -2.772 
L 394.219182 -2.772 
L 394.435945 -2.772 
L 394.652708 -2.772 
L 394.86947 -2.772 
L 395.086233 -2.772 
L 395.302996 -2.772 
L 395.519759 -2.772 
L 395.736522 -2.772 
L 395.953284 -2.772 
L 396.170047 -2.772 
L 396.38681 -2.772 
L 396.603573 -2.772 
L 396.820336 -2.772 
L 397.037099 -2.772 
L 397.253861 -2.772 
L 397.470624 -2.772 
L 397.687387 -2.772 
L 397.90415 -2.772 
L 398.120913 -2.772 
L 398.337676 -2.772 
L 398.554438 -2.772 
L 398.771201 -2.772 
L 398.987964 -2.772 
L 399.204727 -2.772 
L 399.42149 -2.772 
L 399.638253 -2.772 
L 399.855015 -2.772 
L 400.071778 -2.772 
L 400.288541 -2.772 
L 400.505304 -2.772 
L 400.722067 -2.772 
L 400.93883 -2.772 
L 401.155592 -2.772 
L 401.372355 -2.772 
L 401.589118 -2.772 
L 401.805881 -2.772 
L 402.022644 -2.772 
L 402.239407 -2.772 
L 402.456169 -2.772 
L 402.672932 -2.772 
L 402.889695 -2.772 
L 403.106458 -2.772 
L 403.323221 -2.772 
L 403.539984 -2.772 
L 403.756746 -2.772 
L 403.973509 -2.772 
L 404.190272 -2.772 
L 404.407035 -2.772 
L 404.623798 -2.772 
L 404.84056 -2.772 
L 405.057323 -2.772 
L 405.274086 -2.772 
L 405.490849 -2.772 
L 405.707612 -2.772 
L 405.924375 -2.772 
L 406.141137 -2.772 
L 406.3579 -2.772 
L 406.574663 -2.772 
L 406.791426 -2.772 
L 407.008189 -2.772 
L 407.224952 -2.772 
L 407.441714 -2.772 
L 407.658477 -2.772 
L 407.87524 -2.772 
L 408.092003 -2.772 
L 408.308766 -2.772 
L 408.525529 -2.772 
L 408.742291 -2.772 
L 408.959054 -2.772 
L 409.175817 -2.772 
L 409.39258 -2.772 
L 409.609343 -2.772 
L 409.826106 -2.772 
L 410.042868 -2.772 
L 410.259631 -2.772 
L 410.476394 -2.772 
L 410.693157 -2.772 
L 410.90992 -2.772 
L 411.126683 -2.772 
L 411.343445 -2.772 
L 411.560208 -2.772 
L 411.776971 -2.772 
L 411.993734 -2.772 
L 412.210497 -2.772 
L 412.42726 -2.772 
L 412.644022 -2.772 
L 412.860785 -2.772 
L 413.077548 -2.772 
L 413.294311 -2.772 
L 413.511074 -2.772 
L 413.727836 -2.772 
L 413.944599 -2.772 
L 414.161362 -2.772 
L 414.378125 -2.772 
L 414.594888 -2.772 
L 414.811651 -2.772 
L 415.028413 -2.772 
L 415.245176 -2.772 
L 415.461939 -2.772 
L 415.678702 -2.772 
L 415.895465 -2.772 
L 416.112228 -2.772 
L 416.32899 -2.772 
L 416.545753 -2.772 
L 416.762516 -2.772 
L 416.979279 -2.772 
L 417.196042 -2.772 
L 417.412805 -2.772 
L 417.629567 -2.772 
L 417.84633 -2.772 
L 418.063093 -2.772 
L 418.279856 -2.772 
L 418.496619 -2.772 
L 418.713382 -2.772 
L 418.930144 -2.772 
L 419.146907 -2.772 
L 419.36367 -2.772 
L 419.580433 -2.772 
L 419.797196 -2.772 
L 420.013959 -2.772 
L 420.230721 -2.772 
L 420.230721 -5.629411 
L 420.230721 -5.629411 
L 420.013959 -7.742697 
L 419.797196 -8.770442 
L 419.580433 -7.796101 
L 419.36367 -5.693069 
L 419.146907 -3.950666 
L 418.930144 -3.101966 
L 418.713382 -2.837259 
L 418.496619 -2.792631 
L 418.279856 -2.850575 
L 418.063093 -3.11778 
L 417.84633 -3.831068 
L 417.629567 -5.013614 
L 417.412805 -6.079932 
L 417.196042 -6.315008 
L 416.979279 -6.005013 
L 416.762516 -6.253275 
L 416.545753 -7.305062 
L 416.32899 -8.017666 
L 416.112228 -7.503989 
L 415.895465 -6.311047 
L 415.678702 -5.503969 
L 415.461939 -5.58177 
L 415.245176 -6.294562 
L 415.028413 -6.819744 
L 414.811651 -6.510545 
L 414.594888 -5.544342 
L 414.378125 -4.532928 
L 414.161362 -3.936277 
L 413.944599 -3.860576 
L 413.727836 -3.998897 
L 413.511074 -3.934415 
L 413.294311 -3.657267 
L 413.077548 -3.537111 
L 412.860785 -3.787332 
L 412.644022 -4.218254 
L 412.42726 -4.572022 
L 412.210497 -4.848395 
L 411.993734 -5.081212 
L 411.776971 -5.103058 
L 411.560208 -4.835438 
L 411.343445 -4.515789 
L 411.126683 -4.383532 
L 410.90992 -4.436373 
L 410.693157 -4.672202 
L 410.476394 -5.075762 
L 410.259631 -5.301249 
L 410.042868 -5.070596 
L 409.826106 -4.766783 
L 409.609343 -4.888781 
L 409.39258 -5.170809 
L 409.175817 -4.956434 
L 408.959054 -4.212831 
L 408.742291 -3.529869 
L 408.525529 -3.347886 
L 408.308766 -3.624815 
L 408.092003 -4.013532 
L 407.87524 -4.220138 
L 407.658477 -4.278198 
L 407.441714 -4.347374 
L 407.224952 -4.417585 
L 407.008189 -4.410336 
L 406.791426 -4.255417 
L 406.574663 -3.886021 
L 406.3579 -3.402977 
L 406.141137 -3.026633 
L 405.924375 -2.843371 
L 405.707612 -2.785755 
L 405.490849 -2.773816 
L 405.274086 -2.772164 
L 405.057323 -2.77201 
L 404.84056 -2.772 
L 404.623798 -2.772 
L 404.407035 -2.772 
L 404.190272 -2.772 
L 403.973509 -2.772 
L 403.756746 -2.772 
L 403.539984 -2.772 
L 403.323221 -2.772 
L 403.106458 -2.772 
L 402.889695 -2.772 
L 402.672932 -2.772 
L 402.456169 -2.772 
L 402.239407 -2.772 
L 402.022644 -2.772 
L 401.805881 -2.772 
L 401.589118 -2.772 
L 401.372355 -2.772 
L 401.155592 -2.772 
L 400.93883 -2.772 
L 400.722067 -2.772 
L 400.505304 -2.772 
L 400.288541 -2.772 
L 400.071778 -2.772 
L 399.855015 -2.772007 
L 399.638253 -2.772119 
L 399.42149 -2.773399 
L 399.204727 -2.783219 
L 398.987964 -2.833509 
L 398.771201 -3.002508 
L 398.554438 -3.36246 
L 398.337676 -3.805832 
L 398.120913 -4.009268 
L 397.90415 -3.78412 
L 397.687387 -3.337919 
L 397.470624 -2.988288 
L 397.253861 -2.828502 
L 397.037099 -2.782089 
L 396.820336 -2.773231 
L 396.603573 -2.772103 
L 396.38681 -2.772006 
L 396.170047 -2.772 
L 395.953284 -2.772 
L 395.736522 -2.772 
L 395.519759 -2.772 
L 395.302996 -2.772 
L 395.086233 -2.772 
L 394.86947 -2.772 
L 394.652708 -2.772 
L 394.435945 -2.772 
L 394.219182 -2.772 
L 394.002419 -2.772 
L 393.785656 -2.772 
L 393.568893 -2.772 
L 393.352131 -2.772 
L 393.135368 -2.772 
L 392.918605 -2.772 
L 392.701842 -2.772 
L 392.485079 -2.772 
L 392.268316 -2.772 
L 392.051554 -2.772 
L 391.834791 -2.772 
L 391.618028 -2.772 
L 391.401265 -2.772 
L 391.184502 -2.772 
L 390.967739 -2.772 
L 390.750977 -2.772 
L 390.534214 -2.772 
L 390.317451 -2.772 
L 390.100688 -2.772 
L 389.883925 -2.772 
L 389.667162 -2.772 
L 389.4504 -2.772 
L 389.233637 -2.772 
L 389.016874 -2.772 
L 388.800111 -2.772 
L 388.583348 -2.772 
L 388.366585 -2.772 
L 388.149823 -2.772 
L 387.93306 -2.772 
L 387.716297 -2.772 
L 387.499534 -2.772 
L 387.282771 -2.772 
L 387.066008 -2.772 
L 386.849246 -2.772 
L 386.632483 -2.772 
L 386.41572 -2.772 
L 386.198957 -2.772 
L 385.982194 -2.772 
L 385.765432 -2.772 
L 385.548669 -2.772 
L 385.331906 -2.772 
L 385.115143 -2.772 
L 384.89838 -2.772 
L 384.681617 -2.772 
L 384.464855 -2.772 
L 384.248092 -2.772 
L 384.031329 -2.772 
L 383.814566 -2.772 
L 383.597803 -2.772 
L 383.38104 -2.772 
L 383.164278 -2.772 
L 382.947515 -2.772 
L 382.730752 -2.772 
L 382.513989 -2.772 
L 382.297226 -2.772 
L 382.080463 -2.772 
L 381.863701 -2.772 
L 381.646938 -2.772 
L 381.430175 -2.772 
L 381.213412 -2.772 
L 380.996649 -2.772 
L 380.779886 -2.772 
L 380.563124 -2.772 
L 380.346361 -2.772 
L 380.129598 -2.772 
L 379.912835 -2.772 
L 379.696072 -2.772 
L 379.479309 -2.772001 
L 379.262547 -2.772022 
L 379.045784 -2.77245 
L 378.829021 -2.778174 
L 378.612258 -2.829928 
L 378.395495 -3.14349 
L 378.178732 -4.400389 
L 377.96197 -7.650914 
L 377.745207 -12.763779 
L 377.528444 -16.758754 
L 377.311681 -16.154755 
L 377.094918 -11.524429 
z
" style="stroke: #395174"/>
    </defs>
    <g clip-path="url(#p52f1ac8628)">
     <use xlink:href="#m79f0675fc8" x="0" y="25.2" style="fill: #395174; stroke: #395174"/>
    </g>
   </g>
   <g id="matplotlib.axis_11">
    <g id="xtick_6">
     <g id="line2d_11">
      <g>
       <use xlink:href="#m9a6aab98c5" x="400.633554" y="22.428" style="stroke: #000000; stroke-width: 0.8"/>
      </g>
     </g>
     <g id="text_6">
      <!-- $\mathdefault{10^{0}}$ -->
      <g transform="translate(395.353554 30.587062) scale(0.06 -0.06)">
       <use xlink:href="#DejaVuSans-31" transform="translate(0 0.765625)"/>
       <use xlink:href="#DejaVuSans-30" transform="translate(63.623047 0.765625)"/>
       <use xlink:href="#DejaVuSans-30" transform="translate(128.203125 39.046875) scale(0.7)"/>
      </g>
     </g>
    </g>
   </g>
   <g id="matplotlib.axis_12"/>
   <g id="line2d_12">
    <path d="M 374.782979 22.428 
L 424.646809 22.428 
" style="fill: none; stroke: #808080; stroke-width: 0.1; stroke-linecap: square"/>
   </g>
   <g id="patch_18">
    <path d="M 374.782979 22.428 
L 374.782979 3.024 
" style="fill: none; stroke: #000000; stroke-width: 0.25; stroke-linejoin: miter; stroke-linecap: square"/>
   </g>
   <g id="patch_19">
    <path d="M 374.782979 22.428 
L 424.646809 22.428 
" style="fill: none; stroke: #000000; stroke-width: 0.25; stroke-linejoin: miter; stroke-linecap: square"/>
   </g>
  </g>
  <g id="axes_7">
   <g id="patch_20">
    <path d="M 434.619574 22.428 
L 484.483404 22.428 
L 484.483404 3.024 
L 434.619574 3.024 
z
" style="fill: #ffffff"/>
   </g>
   <g id="PolyCollection_7">
    <defs>
     <path id="m2579b09cee" d="M 436.983828 -8.689269 
L 436.983828 -2.772 
L 437.207406 -2.772 
L 437.430983 -2.772 
L 437.654561 -2.772 
L 437.878139 -2.772 
L 438.101717 -2.772 
L 438.325295 -2.772 
L 438.548872 -2.772 
L 438.77245 -2.772 
L 438.996028 -2.772 
L 439.219606 -2.772 
L 439.443184 -2.772 
L 439.666761 -2.772 
L 439.890339 -2.772 
L 440.113917 -2.772 
L 440.337495 -2.772 
L 440.561073 -2.772 
L 440.78465 -2.772 
L 441.008228 -2.772 
L 441.231806 -2.772 
L 441.455384 -2.772 
L 441.678962 -2.772 
L 441.902539 -2.772 
L 442.126117 -2.772 
L 442.349695 -2.772 
L 442.573273 -2.772 
L 442.796851 -2.772 
L 443.020428 -2.772 
L 443.244006 -2.772 
L 443.467584 -2.772 
L 443.691162 -2.772 
L 443.914739 -2.772 
L 444.138317 -2.772 
L 444.361895 -2.772 
L 444.585473 -2.772 
L 444.809051 -2.772 
L 445.032628 -2.772 
L 445.256206 -2.772 
L 445.479784 -2.772 
L 445.703362 -2.772 
L 445.92694 -2.772 
L 446.150517 -2.772 
L 446.374095 -2.772 
L 446.597673 -2.772 
L 446.821251 -2.772 
L 447.044829 -2.772 
L 447.268406 -2.772 
L 447.491984 -2.772 
L 447.715562 -2.772 
L 447.93914 -2.772 
L 448.162718 -2.772 
L 448.386295 -2.772 
L 448.609873 -2.772 
L 448.833451 -2.772 
L 449.057029 -2.772 
L 449.280607 -2.772 
L 449.504184 -2.772 
L 449.727762 -2.772 
L 449.95134 -2.772 
L 450.174918 -2.772 
L 450.398495 -2.772 
L 450.622073 -2.772 
L 450.845651 -2.772 
L 451.069229 -2.772 
L 451.292807 -2.772 
L 451.516384 -2.772 
L 451.739962 -2.772 
L 451.96354 -2.772 
L 452.187118 -2.772 
L 452.410696 -2.772 
L 452.634273 -2.772 
L 452.857851 -2.772 
L 453.081429 -2.772 
L 453.305007 -2.772 
L 453.528585 -2.772 
L 453.752162 -2.772 
L 453.97574 -2.772 
L 454.199318 -2.772 
L 454.422896 -2.772 
L 454.646474 -2.772 
L 454.870051 -2.772 
L 455.093629 -2.772 
L 455.317207 -2.772 
L 455.540785 -2.772 
L 455.764362 -2.772 
L 455.98794 -2.772 
L 456.211518 -2.772 
L 456.435096 -2.772 
L 456.658674 -2.772 
L 456.882251 -2.772 
L 457.105829 -2.772 
L 457.329407 -2.772 
L 457.552985 -2.772 
L 457.776563 -2.772 
L 458.00014 -2.772 
L 458.223718 -2.772 
L 458.447296 -2.772 
L 458.670874 -2.772 
L 458.894452 -2.772 
L 459.118029 -2.772 
L 459.341607 -2.772 
L 459.565185 -2.772 
L 459.788763 -2.772 
L 460.012341 -2.772 
L 460.235918 -2.772 
L 460.459496 -2.772 
L 460.683074 -2.772 
L 460.906652 -2.772 
L 461.13023 -2.772 
L 461.353807 -2.772 
L 461.577385 -2.772 
L 461.800963 -2.772 
L 462.024541 -2.772 
L 462.248118 -2.772 
L 462.471696 -2.772 
L 462.695274 -2.772 
L 462.918852 -2.772 
L 463.14243 -2.772 
L 463.366007 -2.772 
L 463.589585 -2.772 
L 463.813163 -2.772 
L 464.036741 -2.772 
L 464.260319 -2.772 
L 464.483896 -2.772 
L 464.707474 -2.772 
L 464.931052 -2.772 
L 465.15463 -2.772 
L 465.378208 -2.772 
L 465.601785 -2.772 
L 465.825363 -2.772 
L 466.048941 -2.772 
L 466.272519 -2.772 
L 466.496097 -2.772 
L 466.719674 -2.772 
L 466.943252 -2.772 
L 467.16683 -2.772 
L 467.390408 -2.772 
L 467.613986 -2.772 
L 467.837563 -2.772 
L 468.061141 -2.772 
L 468.284719 -2.772 
L 468.508297 -2.772 
L 468.731874 -2.772 
L 468.955452 -2.772 
L 469.17903 -2.772 
L 469.402608 -2.772 
L 469.626186 -2.772 
L 469.849763 -2.772 
L 470.073341 -2.772 
L 470.296919 -2.772 
L 470.520497 -2.772 
L 470.744075 -2.772 
L 470.967652 -2.772 
L 471.19123 -2.772 
L 471.414808 -2.772 
L 471.638386 -2.772 
L 471.861964 -2.772 
L 472.085541 -2.772 
L 472.309119 -2.772 
L 472.532697 -2.772 
L 472.756275 -2.772 
L 472.979853 -2.772 
L 473.20343 -2.772 
L 473.427008 -2.772 
L 473.650586 -2.772 
L 473.874164 -2.772 
L 474.097742 -2.772 
L 474.321319 -2.772 
L 474.544897 -2.772 
L 474.768475 -2.772 
L 474.992053 -2.772 
L 475.21563 -2.772 
L 475.439208 -2.772 
L 475.662786 -2.772 
L 475.886364 -2.772 
L 476.109942 -2.772 
L 476.333519 -2.772 
L 476.557097 -2.772 
L 476.780675 -2.772 
L 477.004253 -2.772 
L 477.227831 -2.772 
L 477.451408 -2.772 
L 477.674986 -2.772 
L 477.898564 -2.772 
L 478.122142 -2.772 
L 478.34572 -2.772 
L 478.569297 -2.772 
L 478.792875 -2.772 
L 479.016453 -2.772 
L 479.240031 -2.772 
L 479.463609 -2.772 
L 479.687186 -2.772 
L 479.910764 -2.772 
L 480.134342 -2.772 
L 480.35792 -2.772 
L 480.581498 -2.772 
L 480.805075 -2.772 
L 481.028653 -2.772 
L 481.252231 -2.772 
L 481.475809 -2.772 
L 481.475809 -4.132572 
L 481.475809 -4.132572 
L 481.252231 -5.90194 
L 481.028653 -7.616759 
L 480.805075 -7.707752 
L 480.581498 -5.944017 
L 480.35792 -4.046721 
L 480.134342 -3.282026 
L 479.910764 -3.544638 
L 479.687186 -4.256872 
L 479.463609 -4.771297 
L 479.240031 -4.713171 
L 479.016453 -4.271842 
L 478.792875 -4.402569 
L 478.569297 -6.077744 
L 478.34572 -8.332955 
L 478.122142 -8.773831 
L 477.898564 -7.277085 
L 477.674986 -5.845558 
L 477.451408 -5.266135 
L 477.227831 -5.06169 
L 477.004253 -4.905965 
L 476.780675 -4.67494 
L 476.557097 -4.581292 
L 476.333519 -4.998986 
L 476.109942 -5.375427 
L 475.886364 -4.912294 
L 475.662786 -3.926449 
L 475.439208 -3.356318 
L 475.21563 -3.737397 
L 474.992053 -4.870707 
L 474.768475 -5.671319 
L 474.544897 -5.427459 
L 474.321319 -4.835178 
L 474.097742 -4.314248 
L 473.874164 -3.652995 
L 473.650586 -3.088649 
L 473.427008 -2.884556 
L 473.20343 -3.154808 
L 472.979853 -4.472972 
L 472.756275 -7.260534 
L 472.532697 -9.765566 
L 472.309119 -9.469537 
L 472.085541 -7.222592 
L 471.861964 -5.451389 
L 471.638386 -4.97872 
L 471.414808 -5.935532 
L 471.19123 -7.521811 
L 470.967652 -7.763798 
L 470.744075 -6.069386 
L 470.520497 -4.094326 
L 470.296919 -3.092286 
L 470.073341 -2.871074 
L 469.849763 -3.139096 
L 469.626186 -4.168928 
L 469.402608 -5.903543 
L 469.17903 -6.89832 
L 468.955452 -5.988854 
L 468.731874 -4.265416 
L 468.508297 -3.218487 
L 468.284719 -3.046911 
L 468.061141 -3.455903 
L 467.837563 -4.025688 
L 467.613986 -4.088855 
L 467.390408 -3.557839 
L 467.16683 -3.039684 
L 466.943252 -2.840528 
L 466.719674 -2.899504 
L 466.496097 -3.262001 
L 466.272519 -3.902442 
L 466.048941 -4.343461 
L 465.825363 -4.346546 
L 465.601785 -4.336576 
L 465.378208 -4.254098 
L 465.15463 -3.743989 
L 464.931052 -3.151248 
L 464.707474 -2.85683 
L 464.483896 -2.782796 
L 464.260319 -2.772781 
L 464.036741 -2.772032 
L 463.813163 -2.772002 
L 463.589585 -2.772055 
L 463.366007 -2.773227 
L 463.14243 -2.787459 
L 462.918852 -2.882577 
L 462.695274 -3.221212 
L 462.471696 -3.80842 
L 462.248118 -4.130049 
L 462.024541 -3.782628 
L 461.800963 -3.199132 
L 461.577385 -2.874525 
L 461.353807 -2.785976 
L 461.13023 -2.773082 
L 460.906652 -2.772048 
L 460.683074 -2.772001 
L 460.459496 -2.772 
L 460.235918 -2.772 
L 460.012341 -2.772 
L 459.788763 -2.772 
L 459.565185 -2.772 
L 459.341607 -2.772 
L 459.118029 -2.772 
L 458.894452 -2.772 
L 458.670874 -2.772 
L 458.447296 -2.772 
L 458.223718 -2.772 
L 458.00014 -2.772 
L 457.776563 -2.772 
L 457.552985 -2.772 
L 457.329407 -2.772 
L 457.105829 -2.772 
L 456.882251 -2.772 
L 456.658674 -2.772 
L 456.435096 -2.772 
L 456.211518 -2.772 
L 455.98794 -2.772 
L 455.764362 -2.772 
L 455.540785 -2.772 
L 455.317207 -2.772 
L 455.093629 -2.772 
L 454.870051 -2.772 
L 454.646474 -2.772 
L 454.422896 -2.772 
L 454.199318 -2.772 
L 453.97574 -2.772 
L 453.752162 -2.772 
L 453.528585 -2.772 
L 453.305007 -2.772 
L 453.081429 -2.772 
L 452.857851 -2.772 
L 452.634273 -2.772 
L 452.410696 -2.772 
L 452.187118 -2.772 
L 451.96354 -2.772 
L 451.739962 -2.772 
L 451.516384 -2.772 
L 451.292807 -2.772 
L 451.069229 -2.772 
L 450.845651 -2.772 
L 450.622073 -2.772 
L 450.398495 -2.772 
L 450.174918 -2.772 
L 449.95134 -2.772 
L 449.727762 -2.772 
L 449.504184 -2.772 
L 449.280607 -2.772 
L 449.057029 -2.772 
L 448.833451 -2.772 
L 448.609873 -2.772 
L 448.386295 -2.772 
L 448.162718 -2.772 
L 447.93914 -2.772 
L 447.715562 -2.772 
L 447.491984 -2.772 
L 447.268406 -2.772 
L 447.044829 -2.772 
L 446.821251 -2.772 
L 446.597673 -2.772 
L 446.374095 -2.772 
L 446.150517 -2.772 
L 445.92694 -2.772 
L 445.703362 -2.772 
L 445.479784 -2.772 
L 445.256206 -2.772 
L 445.032628 -2.772 
L 444.809051 -2.772 
L 444.585473 -2.772 
L 444.361895 -2.772 
L 444.138317 -2.772 
L 443.914739 -2.772 
L 443.691162 -2.772 
L 443.467584 -2.772 
L 443.244006 -2.772 
L 443.020428 -2.772 
L 442.796851 -2.772 
L 442.573273 -2.772 
L 442.349695 -2.772 
L 442.126117 -2.772 
L 441.902539 -2.772 
L 441.678962 -2.772 
L 441.455384 -2.772 
L 441.231806 -2.772 
L 441.008228 -2.772 
L 440.78465 -2.772 
L 440.561073 -2.772 
L 440.337495 -2.772 
L 440.113917 -2.772 
L 439.890339 -2.772 
L 439.666761 -2.772 
L 439.443184 -2.772 
L 439.219606 -2.772 
L 438.996028 -2.772001 
L 438.77245 -2.772034 
L 438.548872 -2.773108 
L 438.325295 -2.792618 
L 438.101717 -2.989851 
L 437.878139 -4.079256 
L 437.654561 -7.227098 
L 437.430983 -11.394825 
L 437.207406 -12.250456 
L 436.983828 -8.689269 
z
" style="stroke: #2c3b5b"/>
    </defs>
    <g clip-path="url(#p26a2b7788e)">
     <use xlink:href="#m2579b09cee" x="0" y="25.2" style="fill: #2c3b5b; stroke: #2c3b5b"/>
    </g>
   </g>
   <g id="matplotlib.axis_13">
    <g id="xtick_7">
     <g id="line2d_13">
      <g>
       <use xlink:href="#m9a6aab98c5" x="460.470149" y="22.428" style="stroke: #000000; stroke-width: 0.8"/>
      </g>
     </g>
     <g id="text_7">
      <!-- $\mathdefault{10^{0}}$ -->
      <g transform="translate(455.190149 30.587062) scale(0.06 -0.06)">
       <use xlink:href="#DejaVuSans-31" transform="translate(0 0.765625)"/>
       <use xlink:href="#DejaVuSans-30" transform="translate(63.623047 0.765625)"/>
       <use xlink:href="#DejaVuSans-30" transform="translate(128.203125 39.046875) scale(0.7)"/>
      </g>
     </g>
    </g>
   </g>
   <g id="matplotlib.axis_14"/>
   <g id="line2d_14">
    <path d="M 434.619574 22.428 
L 484.483404 22.428 
" style="fill: none; stroke: #808080; stroke-width: 0.1; stroke-linecap: square"/>
   </g>
   <g id="patch_21">
    <path d="M 434.619574 22.428 
L 434.619574 3.024 
" style="fill: none; stroke: #000000; stroke-width: 0.25; stroke-linejoin: miter; stroke-linecap: square"/>
   </g>
   <g id="patch_22">
    <path d="M 434.619574 22.428 
L 484.483404 22.428 
" style="fill: none; stroke: #000000; stroke-width: 0.25; stroke-linejoin: miter; stroke-linecap: square"/>
   </g>
  </g>
  <g id="axes_8">
   <g id="patch_23">
    <path d="M 494.45617 22.428 
L 544.32 22.428 
L 544.32 3.024 
L 494.45617 3.024 
z
" style="fill: #ffffff"/>
   </g>
   <g id="PolyCollection_8">
    <defs>
     <path id="m132b1a69a4" d="M 496.803121 -9.738608 
L 496.803121 -2.772 
L 497.03051 -2.772 
L 497.257899 -2.772 
L 497.485287 -2.772 
L 497.712676 -2.772 
L 497.940065 -2.772 
L 498.167453 -2.772 
L 498.394842 -2.772 
L 498.622231 -2.772 
L 498.849619 -2.772 
L 499.077008 -2.772 
L 499.304397 -2.772 
L 499.531785 -2.772 
L 499.759174 -2.772 
L 499.986563 -2.772 
L 500.213951 -2.772 
L 500.44134 -2.772 
L 500.668728 -2.772 
L 500.896117 -2.772 
L 501.123506 -2.772 
L 501.350894 -2.772 
L 501.578283 -2.772 
L 501.805672 -2.772 
L 502.03306 -2.772 
L 502.260449 -2.772 
L 502.487838 -2.772 
L 502.715226 -2.772 
L 502.942615 -2.772 
L 503.170004 -2.772 
L 503.397392 -2.772 
L 503.624781 -2.772 
L 503.85217 -2.772 
L 504.079558 -2.772 
L 504.306947 -2.772 
L 504.534335 -2.772 
L 504.761724 -2.772 
L 504.989113 -2.772 
L 505.216501 -2.772 
L 505.44389 -2.772 
L 505.671279 -2.772 
L 505.898667 -2.772 
L 506.126056 -2.772 
L 506.353445 -2.772 
L 506.580833 -2.772 
L 506.808222 -2.772 
L 507.035611 -2.772 
L 507.262999 -2.772 
L 507.490388 -2.772 
L 507.717777 -2.772 
L 507.945165 -2.772 
L 508.172554 -2.772 
L 508.399942 -2.772 
L 508.627331 -2.772 
L 508.85472 -2.772 
L 509.082108 -2.772 
L 509.309497 -2.772 
L 509.536886 -2.772 
L 509.764274 -2.772 
L 509.991663 -2.772 
L 510.219052 -2.772 
L 510.44644 -2.772 
L 510.673829 -2.772 
L 510.901218 -2.772 
L 511.128606 -2.772 
L 511.355995 -2.772 
L 511.583384 -2.772 
L 511.810772 -2.772 
L 512.038161 -2.772 
L 512.265549 -2.772 
L 512.492938 -2.772 
L 512.720327 -2.772 
L 512.947715 -2.772 
L 513.175104 -2.772 
L 513.402493 -2.772 
L 513.629881 -2.772 
L 513.85727 -2.772 
L 514.084659 -2.772 
L 514.312047 -2.772 
L 514.539436 -2.772 
L 514.766825 -2.772 
L 514.994213 -2.772 
L 515.221602 -2.772 
L 515.448991 -2.772 
L 515.676379 -2.772 
L 515.903768 -2.772 
L 516.131157 -2.772 
L 516.358545 -2.772 
L 516.585934 -2.772 
L 516.813322 -2.772 
L 517.040711 -2.772 
L 517.2681 -2.772 
L 517.495488 -2.772 
L 517.722877 -2.772 
L 517.950266 -2.772 
L 518.177654 -2.772 
L 518.405043 -2.772 
L 518.632432 -2.772 
L 518.85982 -2.772 
L 519.087209 -2.772 
L 519.314598 -2.772 
L 519.541986 -2.772 
L 519.769375 -2.772 
L 519.996764 -2.772 
L 520.224152 -2.772 
L 520.451541 -2.772 
L 520.678929 -2.772 
L 520.906318 -2.772 
L 521.133707 -2.772 
L 521.361095 -2.772 
L 521.588484 -2.772 
L 521.815873 -2.772 
L 522.043261 -2.772 
L 522.27065 -2.772 
L 522.498039 -2.772 
L 522.725427 -2.772 
L 522.952816 -2.772 
L 523.180205 -2.772 
L 523.407593 -2.772 
L 523.634982 -2.772 
L 523.862371 -2.772 
L 524.089759 -2.772 
L 524.317148 -2.772 
L 524.544536 -2.772 
L 524.771925 -2.772 
L 524.999314 -2.772 
L 525.226702 -2.772 
L 525.454091 -2.772 
L 525.68148 -2.772 
L 525.908868 -2.772 
L 526.136257 -2.772 
L 526.363646 -2.772 
L 526.591034 -2.772 
L 526.818423 -2.772 
L 527.045812 -2.772 
L 527.2732 -2.772 
L 527.500589 -2.772 
L 527.727978 -2.772 
L 527.955366 -2.772 
L 528.182755 -2.772 
L 528.410143 -2.772 
L 528.637532 -2.772 
L 528.864921 -2.772 
L 529.092309 -2.772 
L 529.319698 -2.772 
L 529.547087 -2.772 
L 529.774475 -2.772 
L 530.001864 -2.772 
L 530.229253 -2.772 
L 530.456641 -2.772 
L 530.68403 -2.772 
L 530.911419 -2.772 
L 531.138807 -2.772 
L 531.366196 -2.772 
L 531.593585 -2.772 
L 531.820973 -2.772 
L 532.048362 -2.772 
L 532.27575 -2.772 
L 532.503139 -2.772 
L 532.730528 -2.772 
L 532.957916 -2.772 
L 533.185305 -2.772 
L 533.412694 -2.772 
L 533.640082 -2.772 
L 533.867471 -2.772 
L 534.09486 -2.772 
L 534.322248 -2.772 
L 534.549637 -2.772 
L 534.777026 -2.772 
L 535.004414 -2.772 
L 535.231803 -2.772 
L 535.459192 -2.772 
L 535.68658 -2.772 
L 535.913969 -2.772 
L 536.141357 -2.772 
L 536.368746 -2.772 
L 536.596135 -2.772 
L 536.823523 -2.772 
L 537.050912 -2.772 
L 537.278301 -2.772 
L 537.505689 -2.772 
L 537.733078 -2.772 
L 537.960467 -2.772 
L 538.187855 -2.772 
L 538.415244 -2.772 
L 538.642633 -2.772 
L 538.870021 -2.772 
L 539.09741 -2.772 
L 539.324799 -2.772 
L 539.552187 -2.772 
L 539.779576 -2.772 
L 540.006964 -2.772 
L 540.234353 -2.772 
L 540.461742 -2.772 
L 540.68913 -2.772 
L 540.916519 -2.772 
L 541.143908 -2.772 
L 541.371296 -2.772 
L 541.598685 -2.772 
L 541.826074 -2.772 
L 542.053462 -2.772 
L 542.053462 -3.912504 
L 542.053462 -3.912504 
L 541.826074 -4.852184 
L 541.598685 -5.136749 
L 541.371296 -4.625286 
L 541.143908 -4.177971 
L 540.916519 -4.086498 
L 540.68913 -3.831683 
L 540.461742 -3.374066 
L 540.234353 -3.299026 
L 540.006964 -4.219721 
L 539.779576 -6.225099 
L 539.552187 -8.02897 
L 539.324799 -8.06039 
L 539.09741 -6.709148 
L 538.870021 -5.282018 
L 538.642633 -4.214438 
L 538.415244 -3.630546 
L 538.187855 -3.653351 
L 537.960467 -3.87646 
L 537.733078 -3.725646 
L 537.505689 -3.270618 
L 537.278301 -2.936962 
L 537.050912 -2.895107 
L 536.823523 -3.311353 
L 536.596135 -4.684782 
L 536.368746 -7.120159 
L 536.141357 -9.134648 
L 535.913969 -8.788815 
L 535.68658 -6.43897 
L 535.459192 -4.205233 
L 535.231803 -3.168873 
L 535.004414 -3.048454 
L 534.777026 -3.420238 
L 534.549637 -3.889761 
L 534.322248 -4.024521 
L 534.09486 -4.010539 
L 533.867471 -4.431025 
L 533.640082 -5.065863 
L 533.412694 -5.304767 
L 533.185305 -5.55782 
L 532.957916 -6.297788 
L 532.730528 -6.665262 
L 532.503139 -6.28204 
L 532.27575 -6.203285 
L 532.048362 -6.685497 
L 531.820973 -6.623556 
L 531.593585 -5.497171 
L 531.366196 -4.223614 
L 531.138807 -3.812228 
L 530.911419 -4.213107 
L 530.68403 -4.72463 
L 530.456641 -4.923414 
L 530.229253 -4.862714 
L 530.001864 -4.682663 
L 529.774475 -4.546688 
L 529.547087 -4.848183 
L 529.319698 -5.67125 
L 529.092309 -6.276906 
L 528.864921 -5.987585 
L 528.637532 -5.001099 
L 528.410143 -3.926731 
L 528.182755 -3.193133 
L 527.955366 -2.872573 
L 527.727978 -2.786953 
L 527.500589 -2.773348 
L 527.2732 -2.77209 
L 527.045812 -2.772397 
L 526.818423 -2.777469 
L 526.591034 -2.816946 
L 526.363646 -2.991147 
L 526.136257 -3.405898 
L 525.908868 -3.859783 
L 525.68148 -3.879398 
L 525.454091 -3.440836 
L 525.226702 -3.012182 
L 524.999314 -2.830152 
L 524.771925 -2.834509 
L 524.544536 -3.031064 
L 524.317148 -3.479293 
L 524.089759 -3.919654 
L 523.862371 -3.876778 
L 523.634982 -3.403036 
L 523.407593 -2.987949 
L 523.180205 -2.839985 
L 522.952816 -2.946577 
L 522.725427 -3.453821 
L 522.498039 -4.399358 
L 522.27065 -5.079657 
L 522.043261 -4.715189 
L 521.815873 -3.74365 
L 521.588484 -3.060505 
L 521.361095 -2.822868 
L 521.133707 -2.777326 
L 520.906318 -2.772331 
L 520.678929 -2.772012 
L 520.451541 -2.772 
L 520.224152 -2.772 
L 519.996764 -2.772 
L 519.769375 -2.772 
L 519.541986 -2.772 
L 519.314598 -2.772 
L 519.087209 -2.772 
L 518.85982 -2.772 
L 518.632432 -2.772 
L 518.405043 -2.772 
L 518.177654 -2.772 
L 517.950266 -2.772 
L 517.722877 -2.772 
L 517.495488 -2.772 
L 517.2681 -2.772 
L 517.040711 -2.772 
L 516.813322 -2.772 
L 516.585934 -2.772 
L 516.358545 -2.772 
L 516.131157 -2.772 
L 515.903768 -2.772 
L 515.676379 -2.772 
L 515.448991 -2.772 
L 515.221602 -2.772 
L 514.994213 -2.772 
L 514.766825 -2.772 
L 514.539436 -2.772 
L 514.312047 -2.772 
L 514.084659 -2.772 
L 513.85727 -2.772 
L 513.629881 -2.772 
L 513.402493 -2.772 
L 513.175104 -2.772 
L 512.947715 -2.772 
L 512.720327 -2.772 
L 512.492938 -2.772 
L 512.265549 -2.772 
L 512.038161 -2.772 
L 511.810772 -2.772 
L 511.583384 -2.772 
L 511.355995 -2.772 
L 511.128606 -2.772 
L 510.901218 -2.772008 
L 510.673829 -2.772211 
L 510.44644 -2.775277 
L 510.219052 -2.802264 
L 509.991663 -2.937792 
L 509.764274 -3.310821 
L 509.536886 -3.810876 
L 509.309497 -3.960288 
L 509.082108 -3.578341 
L 508.85472 -3.096604 
L 508.627331 -2.849523 
L 508.399942 -2.782983 
L 508.172554 -2.772923 
L 507.945165 -2.772046 
L 507.717777 -2.772001 
L 507.490388 -2.772 
L 507.262999 -2.772 
L 507.035611 -2.772 
L 506.808222 -2.772 
L 506.580833 -2.772 
L 506.353445 -2.772 
L 506.126056 -2.772 
L 505.898667 -2.772 
L 505.671279 -2.772 
L 505.44389 -2.772 
L 505.216501 -2.772 
L 504.989113 -2.772 
L 504.761724 -2.772 
L 504.534335 -2.772 
L 504.306947 -2.772 
L 504.079558 -2.772 
L 503.85217 -2.772 
L 503.624781 -2.772 
L 503.397392 -2.772 
L 503.170004 -2.772 
L 502.942615 -2.772 
L 502.715226 -2.772 
L 502.487838 -2.772 
L 502.260449 -2.772 
L 502.03306 -2.772 
L 501.805672 -2.772 
L 501.578283 -2.772 
L 501.350894 -2.772 
L 501.123506 -2.772 
L 500.896117 -2.772 
L 500.668728 -2.772 
L 500.44134 -2.772 
L 500.213951 -2.772 
L 499.986563 -2.772 
L 499.759174 -2.772 
L 499.531785 -2.772 
L 499.304397 -2.772 
L 499.077008 -2.772 
L 498.849619 -2.772003 
L 498.622231 -2.772126 
L 498.394842 -2.775078 
L 498.167453 -2.816441 
L 497.940065 -3.15268 
L 497.712676 -4.706529 
L 497.485287 -8.604151 
L 497.257899 -13.202881 
L 497.03051 -13.83956 
L 496.803121 -9.738608 
z
" style="stroke: #1f253f"/>
    </defs>
    <g clip-path="url(#p9404a6d20f)">
     <use xlink:href="#m132b1a69a4" x="0" y="25.2" style="fill: #1f253f; stroke: #1f253f"/>
    </g>
   </g>
   <g id="matplotlib.axis_15">
    <g id="xtick_8">
     <g id="line2d_15">
      <g>
       <use xlink:href="#m9a6aab98c5" x="520.306745" y="22.428" style="stroke: #000000; stroke-width: 0.8"/>
      </g>
     </g>
     <g id="text_8">
      <!-- $\mathdefault{10^{0}}$ -->
      <g transform="translate(515.026745 30.587062) scale(0.06 -0.06)">
       <use xlink:href="#DejaVuSans-31" transform="translate(0 0.765625)"/>
       <use xlink:href="#DejaVuSans-30" transform="translate(63.623047 0.765625)"/>
       <use xlink:href="#DejaVuSans-30" transform="translate(128.203125 39.046875) scale(0.7)"/>
      </g>
     </g>
    </g>
   </g>
   <g id="matplotlib.axis_16"/>
   <g id="line2d_16">
    <path d="M 494.45617 22.428 
L 544.32 22.428 
" style="fill: none; stroke: #808080; stroke-width: 0.1; stroke-linecap: square"/>
   </g>
   <g id="patch_24">
    <path d="M 494.45617 22.428 
L 494.45617 3.024 
" style="fill: none; stroke: #000000; stroke-width: 0.25; stroke-linejoin: miter; stroke-linecap: square"/>
   </g>
   <g id="patch_25">
    <path d="M 494.45617 22.428 
L 544.32 22.428 
" style="fill: none; stroke: #000000; stroke-width: 0.25; stroke-linejoin: miter; stroke-linecap: square"/>
   </g>
  </g>
 </g>
 <defs>
  <clipPath id="pd3261e3d64">
   <rect x="75.6" y="3.024" width="49.86383" height="19.404"/>
  </clipPath>
  <clipPath id="peaf9981df2">
   <rect x="135.436596" y="3.024" width="49.86383" height="19.404"/>
  </clipPath>
  <clipPath id="p27584069d5">
   <rect x="195.273191" y="3.024" width="49.86383" height="19.404"/>
  </clipPath>
  <clipPath id="p20a0ef6664">
   <rect x="255.109787" y="3.024" width="49.86383" height="19.404"/>
  </clipPath>
  <clipPath id="peef4f3a654">
   <rect x="314.946383" y="3.024" width="49.86383" height="19.404"/>
  </clipPath>
  <clipPath id="p52f1ac8628">
   <rect x="374.782979" y="3.024" width="49.86383" height="19.404"/>
  </clipPath>
  <clipPath id="p26a2b7788e">
   <rect x="434.619574" y="3.024" width="49.86383" height="19.404"/>
  </clipPath>
  <clipPath id="p9404a6d20f">
   <rect x="494.45617" y="3.024" width="49.86383" height="19.404"/>
  </clipPath>
 </defs>
</svg>
