<svg class="main-svg" xmlns="http://www.w3.org/2000/svg" xmlns:xlink="http://www.w3.org/1999/xlink" width="500" height="300" style="" viewBox="0 0 500 300"><rect x="0" y="0" width="500" height="300" style="fill: rgb(255, 255, 255); fill-opacity: 1;"/><defs id="defs-6d8179"><g class="clips"><clipPath id="clip6d8179xyplot" class="plotclip"><rect width="452" height="237"/></clipPath><clipPath class="axesclip" id="clip6d8179x"><rect x="48" y="0" width="452" height="300"/></clipPath><clipPath class="axesclip" id="clip6d8179y"><rect x="0" y="0" width="500" height="237"/></clipPath><clipPath class="axesclip" id="clip6d8179xy"><rect x="48" y="0" width="452" height="237"/></clipPath></g><g class="gradients"/><g class="patterns"/></defs><g class="bglayer"/><g class="layer-below"><g class="imagelayer"/><g class="shapelayer"/></g><g class="cartesianlayer"><g class="subplot xy"><g class="layer-subplot"><g class="shapelayer"/><g class="imagelayer"/></g><g class="minor-gridlayer"><g class="x"/><g class="y"/></g><g class="gridlayer"><g class="x"><path class="xgrid crisp" transform="translate(69.52,0)" d="M0,0v237" style="stroke: rgb(0, 0, 0); stroke-opacity: 0.1; stroke-width: 1px;"/><path class="xgrid crisp" transform="translate(204.05,0)" d="M0,0v237" style="stroke: rgb(0, 0, 0); stroke-opacity: 0.1; stroke-width: 1px;"/><path class="xgrid crisp" transform="translate(338.57,0)" d="M0,0v237" style="stroke: rgb(0, 0, 0); stroke-opacity: 0.1; stroke-width: 1px;"/><path class="xgrid crisp" transform="translate(473.1,0)" d="M0,0v237" style="stroke: rgb(0, 0, 0); stroke-opacity: 0.1; stroke-width: 1px;"/></g><g class="y"><path class="ygrid crisp" transform="translate(0,224.79)" d="M48,0h452" style="stroke: rgb(0, 0, 0); stroke-opacity: 0.1; stroke-width: 1px;"/><path class="ygrid crisp" transform="translate(0,183.06)" d="M48,0h452" style="stroke: rgb(0, 0, 0); stroke-opacity: 0.1; stroke-width: 1px;"/><path class="ygrid crisp" transform="translate(0,141.32)" d="M48,0h452" style="stroke: rgb(0, 0, 0); stroke-opacity: 0.1; stroke-width: 1px;"/><path class="ygrid crisp" transform="translate(0,99.59)" d="M48,0h452" style="stroke: rgb(0, 0, 0); stroke-opacity: 0.1; stroke-width: 1px;"/><path class="ygrid crisp" transform="translate(0,57.85)" d="M48,0h452" style="stroke: rgb(0, 0, 0); stroke-opacity: 0.1; stroke-width: 1px;"/><path class="ygrid crisp" transform="translate(0,16.12)" d="M48,0h452" style="stroke: rgb(0, 0, 0); stroke-opacity: 0.1; stroke-width: 1px;"/></g></g><g class="zerolinelayer"/><path class="xlines-below"/><path class="ylines-below"/><g class="overlines-below"/><g class="xaxislayer-below"/><g class="yaxislayer-below"/><g class="overaxes-below"/><g class="plot" transform="translate(48,0)" clip-path="url(#clip6d8179xyplot)"><g class="scatterlayer mlayer"><g class="trace scatter trace1f9046" style="stroke-miterlimit: 2; opacity: 1;"><g class="fills"/><g class="errorbars"/><g class="lines"><path class="js-line" d="M452,16.72Q376.67,18.19 339,18.71C301.33,19.23 263.64,18.33 226,19.82C188.31,21.31 150.67,25.21 113,27.64Q75.34,30.07 0,34.42" style="vector-effect: none; fill: none; stroke: rgb(29, 105, 150); stroke-opacity: 1; stroke-dasharray: 9px, 9px; stroke-width: 2px; opacity: 1;"/></g><g class="points"/><g class="text"/></g><g class="trace scatter trace7d9e8f" style="stroke-miterlimit: 2;"><g class="fills"><g><path class="js-fill" d="M452,11.85Q376.67,13.67 339,14.15C301.34,14.63 263.65,13.43 226,14.72C188.31,16.01 150.68,19.86 113,21.9Q75.34,23.94 0,26.96L0,41.87Q75.33,36.2 113,33.37C150.67,30.55 188.31,26.6 226,24.92C263.64,23.24 301.33,23.82 339,23.27Q376.67,22.71 452,21.59Z" style="fill: rgb(29, 105, 150); fill-opacity: 0.3; stroke-width: 0;"/></g></g><g class="errorbars"/><g class="lines"><path class="js-line" d="M452,21.59Q376.67,22.71 339,23.27C301.33,23.82 263.64,23.24 226,24.92C188.31,26.6 150.67,30.55 113,33.37Q75.33,36.2 0,41.87" style="vector-effect: none; fill: none; stroke: rgb(239, 85, 59); stroke-opacity: 1; stroke-width: 0px; opacity: 1;"/></g><g class="points"/><g class="text"/></g><g class="trace scatter traceef85e6" style="stroke-miterlimit: 2;"><g class="fills"/><g class="errorbars"/><g class="lines"><path class="js-line" d="M452,11.85Q376.67,13.67 339,14.15C301.34,14.63 263.65,13.43 226,14.72C188.31,16.01 150.68,19.86 113,21.9Q75.34,23.94 0,26.96" style="vector-effect: none; fill: none; stroke: rgb(0, 204, 150); stroke-opacity: 1; stroke-width: 0px; opacity: 1;"/></g><g class="points"/><g class="text"/></g><g class="trace scatter trace53e1a7" style="stroke-miterlimit: 2; opacity: 1;"><g class="fills"/><g class="errorbars"/><g class="lines"><path class="js-line" d="M452,113.51Q376.94,136.17 339,142.71C301.6,149.16 263.7,151.58 226,152.75C188.37,153.92 150.66,149.39 113,149.74Q75.33,150.09 0,154.83" style="vector-effect: none; fill: none; stroke: rgb(204, 80, 62); stroke-opacity: 1; stroke-dasharray: 3px, 3px; stroke-width: 2px; opacity: 1;"/></g><g class="points"/><g class="text"/></g><g class="trace scatter tracea4b592" style="stroke-miterlimit: 2;"><g class="fills"><g><path class="js-fill" d="M452,78.88Q377.67,122.82 339,133.2C302.24,143.07 263.69,140.21 226,141.87C188.36,143.53 150.66,143.67 113,143.15Q75.33,142.63 0,138.73L0,170.94Q75.27,157.54 113,156.33C150.61,155.13 188.36,164.32 226,163.64C263.69,162.96 301.29,154.81 339,152.22Q376.63,149.64 452,148.13Z" style="fill: rgb(204, 80, 62); fill-opacity: 0.3; stroke-width: 0;"/></g></g><g class="errorbars"/><g class="lines"><path class="js-line" d="M452,148.13Q376.63,149.64 339,152.22C301.29,154.81 263.69,162.96 226,163.64C188.36,164.32 150.61,155.13 113,156.33Q75.27,157.54 0,170.94" style="vector-effect: none; fill: none; stroke: rgb(255, 161, 90); stroke-opacity: 1; stroke-width: 0px; opacity: 1;"/></g><g class="points"/><g class="text"/></g><g class="trace scatter trace4002cd" style="stroke-miterlimit: 2;"><g class="fills"/><g class="errorbars"/><g class="lines"><path class="js-line" d="M452,78.88Q377.67,122.82 339,133.2C302.24,143.07 263.69,140.21 226,141.87C188.36,143.53 150.66,143.67 113,143.15Q75.33,142.63 0,138.73" style="vector-effect: none; fill: none; stroke: rgb(25, 211, 243); stroke-opacity: 1; stroke-width: 0px; opacity: 1;"/></g><g class="points"/><g class="text"/></g><g class="trace scatter trace1211e9" style="stroke-miterlimit: 2; opacity: 1;"><g class="fills"/><g class="errorbars"/><g class="lines"><path class="js-line" d="M452,72.99Q376.66,104.17 339,119.82C301.33,135.47 264.31,155.84 226,166.89C188.93,177.58 150.79,183.44 113,185.95Q75.46,188.44 0,182.06" style="vector-effect: none; fill: none; stroke: rgb(29, 105, 150); stroke-opacity: 1; stroke-dasharray: 3px, 3px; stroke-width: 2px; opacity: 1;"/></g><g class="points"/><g class="text"/></g><g class="trace scatter trace1daf50" style="stroke-miterlimit: 2;"><g class="fills"><g><path class="js-fill" d="M452,32.81Q375.46,47.21 339,63.39C299.95,80.72 264.75,116.64 226,135.96C189.3,154.26 151.05,175.15 113,177.73Q75.7,180.26 0,152.61L0,211.5Q75.23,196.44 113,194.17C150.56,191.92 188.5,200.77 226,197.83C263.83,194.87 302.38,189.56 339,176.24Q377.84,162.11 452,113.17Z" style="fill: rgb(29, 105, 150); fill-opacity: 0.3; stroke-width: 0;"/></g></g><g class="errorbars"/><g class="lines"><path class="js-line" d="M452,113.17Q377.84,162.11 339,176.24C302.38,189.56 263.83,194.87 226,197.83C188.5,200.77 150.56,191.92 113,194.17Q75.23,196.44 0,211.5" style="vector-effect: none; fill: none; stroke: rgb(182, 232, 128); stroke-opacity: 1; stroke-width: 0px; opacity: 1;"/></g><g class="points"/><g class="text"/></g><g class="trace scatter tracea9e17f" style="stroke-miterlimit: 2;"><g class="fills"/><g class="errorbars"/><g class="lines"><path class="js-line" d="M452,32.81Q375.46,47.21 339,63.39C299.95,80.72 264.75,116.64 226,135.96C189.3,154.26 151.05,175.15 113,177.73Q75.7,180.26 0,152.61" style="vector-effect: none; fill: none; stroke: rgb(255, 151, 255); stroke-opacity: 1; stroke-width: 0px; opacity: 1;"/></g><g class="points"/><g class="text"/></g><g class="trace scatter traceeb75d8" style="stroke-miterlimit: 2; opacity: 1;"><g class="fills"/><g class="errorbars"/><g class="lines"><path class="js-line" d="M452,172.82Q376.67,173.25 339,173.54C301.33,173.83 263.67,174.33 226,174.54C188.33,174.75 150.66,175.52 113,174.8Q75.33,174.08 0,170.24" style="vector-effect: none; fill: none; stroke: rgb(204, 80, 62); stroke-opacity: 1; stroke-width: 2px; opacity: 1;"/></g><g class="points"/><g class="text"/></g><g class="trace scatter trace511227" style="stroke-miterlimit: 2;"><g class="fills"><g><path class="js-fill" d="M452,156.8Q376.67,157.23 339,157.72C301.33,158.21 263.67,159.42 226,159.74C188.33,160.06 150.64,161.15 113,159.62Q75.3,158.08 0,150.51L0,189.97Q75.33,190.09 113,189.99C150.67,189.89 188.33,189.45 226,189.34C263.67,189.23 301.33,189.43 339,189.35Q376.67,189.27 452,188.85Z" style="fill: rgb(204, 80, 62); fill-opacity: 0.3; stroke-width: 0;"/></g></g><g class="errorbars"/><g class="lines"><path class="js-line" d="M452,188.85Q376.67,189.27 339,189.35C301.33,189.43 263.67,189.23 226,189.34C188.33,189.45 150.67,189.89 113,189.99Q75.33,190.09 0,189.97" style="vector-effect: none; fill: none; stroke: rgb(99, 110, 250); stroke-opacity: 1; stroke-width: 0px; opacity: 1;"/></g><g class="points"/><g class="text"/></g><g class="trace scatter traced389ef" style="stroke-miterlimit: 2;"><g class="fills"/><g class="errorbars"/><g class="lines"><path class="js-line" d="M452,156.8Q376.67,157.23 339,157.72C301.33,158.21 263.67,159.42 226,159.74C188.33,160.06 150.64,161.15 113,159.62Q75.3,158.08 0,150.51" style="vector-effect: none; fill: none; stroke: rgb(239, 85, 59); stroke-opacity: 1; stroke-width: 0px; opacity: 1;"/></g><g class="points"/><g class="text"/></g><g class="trace scatter trace4a8374" style="stroke-miterlimit: 2; opacity: 1;"><g class="fills"/><g class="errorbars"/><g class="lines"><path class="js-line" d="M452,220.06Q376.67,219.91 339,220.3C301.33,220.69 263.67,222.32 226,222.38C188.33,222.44 150.58,223.52 113,220.67Q75.25,217.8 0,205.16" style="vector-effect: none; fill: none; stroke: rgb(29, 105, 150); stroke-opacity: 1; stroke-width: 2px; opacity: 1;"/></g><g class="points"/><g class="text"/></g><g class="trace scatter traceb712e1" style="stroke-miterlimit: 2;"><g class="fills"><g><path class="js-fill" d="M452,216.83Q376.66,215.76 339,216.22C301.33,216.68 263.67,219.11 226,219.62C188.34,220.13 150.28,224.75 113,219.29Q74.93,213.72 0,185.83L0,224.48Q75.33,221.95 113,222.06C150.67,222.17 188.33,224.76 226,225.15C263.66,225.54 301.33,224.69 339,224.38Q376.67,224.07 452,223.29Z" style="fill: rgb(29, 105, 150); fill-opacity: 0.3; stroke-width: 0;"/></g></g><g class="errorbars"/><g class="lines"><path class="js-line" d="M452,223.29Q376.67,224.07 339,224.38C301.33,224.69 263.66,225.54 226,225.15C188.33,224.76 150.67,222.17 113,222.06Q75.33,221.95 0,224.48" style="vector-effect: none; fill: none; stroke: rgb(171, 99, 250); stroke-opacity: 1; stroke-width: 0px; opacity: 1;"/></g><g class="points"/><g class="text"/></g><g class="trace scatter tracee9cdee" style="stroke-miterlimit: 2;"><g class="fills"/><g class="errorbars"/><g class="lines"><path class="js-line" d="M452,216.83Q376.66,215.76 339,216.22C301.33,216.68 263.67,219.11 226,219.62C188.34,220.13 150.28,224.75 113,219.29Q74.93,213.72 0,185.83" style="vector-effect: none; fill: none; stroke: rgb(255, 161, 90); stroke-opacity: 1; stroke-width: 0px; opacity: 1;"/></g><g class="points"/><g class="text"/></g><g class="trace scatter trace35952d" style="stroke-miterlimit: 2; opacity: 1;"><g class="fills"/><g class="errorbars"/><g class="lines"/><g class="points"/><g class="text"/></g><g class="trace scatter trace85763e" style="stroke-miterlimit: 2; opacity: 1;"><g class="fills"/><g class="errorbars"/><g class="lines"/><g class="points"/><g class="text"/></g><g class="trace scatter trace6b1bc6" style="stroke-miterlimit: 2; opacity: 1;"><g class="fills"/><g class="errorbars"/><g class="lines"/><g class="points"/><g class="text"/></g><g class="trace scatter tracef811c8" style="stroke-miterlimit: 2; opacity: 1;"><g class="fills"/><g class="errorbars"/><g class="lines"/><g class="points"/><g class="text"/></g><g class="trace scatter tracea200fc" style="stroke-miterlimit: 2; opacity: 1;"><g class="fills"/><g class="errorbars"/><g class="lines"/><g class="points"/><g class="text"/></g><g class="trace scatter trace311de4" style="stroke-miterlimit: 2; opacity: 1;"><g class="fills"/><g class="errorbars"/><g class="lines"/><g class="points"/><g class="text"/></g><g class="trace scatter trace16dee2" style="stroke-miterlimit: 2; opacity: 1;"><g class="fills"/><g class="errorbars"/><g class="lines"/><g class="points"/><g class="text"/></g></g></g><g class="overplot"/><path class="xlines-above crisp" d="M47,237.5H500" style="fill: none; stroke-width: 1px; stroke: rgb(0, 0, 0); stroke-opacity: 0.3;"/><path class="ylines-above crisp" d="M47.5,0V237" style="fill: none; stroke-width: 1px; stroke: rgb(0, 0, 0); stroke-opacity: 0.3;"/><g class="overlines-above"/><g class="xaxislayer-above"><g class="xtick"><text text-anchor="middle" x="0" y="262" transform="translate(69.52,0)" style="font-family: 'Open Sans', verdana, arial, sans-serif; font-size: 20px; fill: rgb(42, 63, 95); fill-opacity: 1; white-space: pre; opacity: 1;">50</text></g><g class="xtick"><text text-anchor="middle" x="0" y="262" style="font-family: 'Open Sans', verdana, arial, sans-serif; font-size: 20px; fill: rgb(42, 63, 95); fill-opacity: 1; white-space: pre; opacity: 1;" transform="translate(204.05,0)">100</text></g><g class="xtick"><text text-anchor="middle" x="0" y="262" style="font-family: 'Open Sans', verdana, arial, sans-serif; font-size: 20px; fill: rgb(42, 63, 95); fill-opacity: 1; white-space: pre; opacity: 1;" transform="translate(338.57,0)">150</text></g><g class="xtick"><text text-anchor="middle" x="0" y="262" style="font-family: 'Open Sans', verdana, arial, sans-serif; font-size: 20px; fill: rgb(42, 63, 95); fill-opacity: 1; white-space: pre; opacity: 1;" transform="translate(473.1,0)">200</text></g></g><g class="yaxislayer-above"><g class="ytick"><text text-anchor="end" x="43" y="7" transform="translate(0,224.79)" style="font-family: 'Open Sans', verdana, arial, sans-serif; font-size: 20px; fill: rgb(42, 63, 95); fill-opacity: 1; white-space: pre; opacity: 1;">1</text></g><g class="ytick"><text text-anchor="end" x="43" y="7" style="font-family: 'Open Sans', verdana, arial, sans-serif; font-size: 20px; fill: rgb(42, 63, 95); fill-opacity: 1; white-space: pre; opacity: 1;" transform="translate(0,183.06)">2</text></g><g class="ytick"><text text-anchor="end" x="43" y="7" style="font-family: 'Open Sans', verdana, arial, sans-serif; font-size: 20px; fill: rgb(42, 63, 95); fill-opacity: 1; white-space: pre; opacity: 1;" transform="translate(0,141.32)">3</text></g><g class="ytick"><text text-anchor="end" x="43" y="7" style="font-family: 'Open Sans', verdana, arial, sans-serif; font-size: 20px; fill: rgb(42, 63, 95); fill-opacity: 1; white-space: pre; opacity: 1;" transform="translate(0,99.59)">4</text></g><g class="ytick"><text text-anchor="end" x="43" y="7" style="font-family: 'Open Sans', verdana, arial, sans-serif; font-size: 20px; fill: rgb(42, 63, 95); fill-opacity: 1; white-space: pre; opacity: 1;" transform="translate(0,57.85)">5</text></g><g class="ytick"><text text-anchor="end" x="43" y="7" style="font-family: 'Open Sans', verdana, arial, sans-serif; font-size: 20px; fill: rgb(42, 63, 95); fill-opacity: 1; white-space: pre; opacity: 1;" transform="translate(0,16.12)">6</text></g></g><g class="overaxes-above"/></g></g><g class="polarlayer"/><g class="smithlayer"/><g class="ternarylayer"/><g class="geolayer"/><g class="funnelarealayer"/><g class="pielayer"/><g class="iciclelayer"/><g class="treemaplayer"/><g class="sunburstlayer"/><g class="glimages"/><defs id="topdefs-6d8179"><g class="clips"/></defs><g class="layer-above"><g class="imagelayer"/><g class="shapelayer"/></g><g class="infolayer"><g class="g-gtitle"/><g class="g-xtitle" transform="translate(0,-6.300000000000011)"><text class="xtitle" x="274" y="299.3" text-anchor="middle" style="font-family: 'Open Sans', verdana, arial, sans-serif; font-size: 24px; fill: rgb(42, 63, 95); opacity: 1; font-weight: normal; white-space: pre;">obs state dimension</text></g><g class="g-ytitle" transform="translate(25.7373046875,0)"><text class="ytitle" transform="rotate(-90,0.26250000000000284,118.5)" x="0.26250000000000284" y="118.5" text-anchor="middle" style="font-family: 'Open Sans', verdana, arial, sans-serif; font-size: 24px; fill: rgb(42, 63, 95); opacity: 1; font-weight: normal; white-space: pre;">state prediction MSE</text></g></g></svg>