<svg class="main-svg" xmlns="http://www.w3.org/2000/svg" xmlns:xlink="http://www.w3.org/1999/xlink" width="500" height="400" style="" viewBox="0 0 500 400"><rect x="0" y="0" width="500" height="400" style="fill: rgb(255, 255, 255); fill-opacity: 1;"/><defs id="defs-8961d6"><g class="clips"><clipPath id="clip8961d6xyplot" class="plotclip"><rect width="449" height="334"/></clipPath><clipPath class="axesclip" id="clip8961d6x"><rect x="51" y="0" width="449" height="400"/></clipPath><clipPath class="axesclip" id="clip8961d6y"><rect x="0" y="0" width="500" height="334"/></clipPath><clipPath class="axesclip" id="clip8961d6xy"><rect x="51" y="0" width="449" height="334"/></clipPath></g><g class="gradients"/><g class="patterns"/></defs><g class="bglayer"/><g class="layer-below"><g class="imagelayer"/><g class="shapelayer"/></g><g class="cartesianlayer"><g class="subplot xy"><g class="layer-subplot"><g class="shapelayer"/><g class="imagelayer"/></g><g class="minor-gridlayer"><g class="x"/><g class="y"/></g><g class="gridlayer"><g class="x"><path class="xgrid crisp" transform="translate(72.38,0)" d="M0,0v334" style="stroke: rgb(0, 0, 0); stroke-opacity: 0.1; stroke-width: 1px;"/><path class="xgrid crisp" transform="translate(206.01,0)" d="M0,0v334" style="stroke: rgb(0, 0, 0); stroke-opacity: 0.1; stroke-width: 1px;"/><path class="xgrid crisp" transform="translate(339.64,0)" d="M0,0v334" style="stroke: rgb(0, 0, 0); stroke-opacity: 0.1; stroke-width: 1px;"/><path class="xgrid crisp" transform="translate(473.27,0)" d="M0,0v334" style="stroke: rgb(0, 0, 0); stroke-opacity: 0.1; stroke-width: 1px;"/></g><g class="y"><path class="ygrid crisp" transform="translate(0,316.8)" d="M51,0h449" style="stroke: rgb(0, 0, 0); stroke-opacity: 0.1; stroke-width: 1px;"/><path class="ygrid crisp" transform="translate(0,257.98)" d="M51,0h449" style="stroke: rgb(0, 0, 0); stroke-opacity: 0.1; stroke-width: 1px;"/><path class="ygrid crisp" transform="translate(0,199.16)" d="M51,0h449" style="stroke: rgb(0, 0, 0); stroke-opacity: 0.1; stroke-width: 1px;"/><path class="ygrid crisp" transform="translate(0,140.35)" d="M51,0h449" style="stroke: rgb(0, 0, 0); stroke-opacity: 0.1; stroke-width: 1px;"/><path class="ygrid crisp" transform="translate(0,81.53)" d="M51,0h449" style="stroke: rgb(0, 0, 0); stroke-opacity: 0.1; stroke-width: 1px;"/><path class="ygrid crisp" transform="translate(0,22.71)" d="M51,0h449" style="stroke: rgb(0, 0, 0); stroke-opacity: 0.1; stroke-width: 1px;"/></g></g><g class="zerolinelayer"/><path class="xlines-below"/><path class="ylines-below"/><g class="overlines-below"/><g class="xaxislayer-below"/><g class="yaxislayer-below"/><g class="overaxes-below"/><g class="plot" transform="translate(51,0)" clip-path="url(#clip8961d6xyplot)"><g class="scatterlayer mlayer"><g class="trace scatter trace596c5f" style="stroke-miterlimit: 2; opacity: 1;"><g class="fills"/><g class="errorbars"/><g class="lines"><path class="js-line" d="M449,23.56Q374.17,25.64 336.75,26.37C299.34,27.1 261.87,25.84 224.5,27.93C187.04,30.03 149.68,35.52 112.25,38.95Q74.84,42.38 0,48.5" style="vector-effect: none; fill: none; stroke: rgb(95, 70, 144); stroke-opacity: 1; stroke-dasharray: 9px, 9px; stroke-width: 2px; opacity: 1;"/></g><g class="points"/><g class="text"/></g><g class="trace scatter trace268d07" style="stroke-miterlimit: 2;"><g class="fills"><g><path class="js-fill" d="M449,16.7Q374.17,19.27 336.75,19.94C299.34,20.61 261.88,18.92 224.5,20.74C187.05,22.56 149.69,27.99 112.25,30.87Q74.85,33.74 0,37.99L0,59.01Q74.83,51.01 112.25,47.03C149.67,43.05 187.03,37.48 224.5,35.11C261.87,32.75 299.33,33.58 336.75,32.8Q374.17,32.02 449,30.43Z" style="fill: rgb(95, 70, 144); fill-opacity: 0.3; stroke-width: 0;"/></g></g><g class="errorbars"/><g class="lines"><path class="js-line" d="M449,30.43Q374.17,32.02 336.75,32.8C299.33,33.58 261.87,32.75 224.5,35.11C187.03,37.48 149.67,43.05 112.25,47.03Q74.83,51.01 0,59.01" style="vector-effect: none; fill: none; stroke: rgb(239, 85, 59); stroke-opacity: 1; stroke-width: 0px; opacity: 1;"/></g><g class="points"/><g class="text"/></g><g class="trace scatter trace0ac4ee" style="stroke-miterlimit: 2;"><g class="fills"/><g class="errorbars"/><g class="lines"><path class="js-line" d="M449,16.7Q374.17,19.27 336.75,19.94C299.34,20.61 261.88,18.92 224.5,20.74C187.05,22.56 149.69,27.99 112.25,30.87Q74.85,33.74 0,37.99" style="vector-effect: none; fill: none; stroke: rgb(0, 204, 150); stroke-opacity: 1; stroke-width: 0px; opacity: 1;"/></g><g class="points"/><g class="text"/></g><g class="trace scatter trace068142" style="stroke-miterlimit: 2; opacity: 1;"><g class="fills"/><g class="errorbars"/><g class="lines"><path class="js-line" d="M449,55.29Q374.17,56.01 336.75,56.12C299.33,56.23 261.91,55.14 224.5,55.98C187.07,56.82 149.67,59.53 112.25,61.19Q74.84,62.84 0,65.91" style="vector-effect: none; fill: none; stroke: rgb(29, 105, 150); stroke-opacity: 1; stroke-dasharray: 3px, 3px; stroke-width: 2px; opacity: 1;"/></g><g class="points"/><g class="text"/></g><g class="trace scatter tracea29a30" style="stroke-miterlimit: 2;"><g class="fills"><g><path class="js-fill" d="M449,46.81Q374.17,48.47 336.75,48.87C299.33,49.27 261.91,48.25 224.5,49.22C187.07,50.19 149.67,53.22 112.25,54.68Q74.84,56.14 0,57.99L0,73.84Q74.83,69.56 112.25,67.71C149.66,65.86 187.07,63.47 224.5,62.75C261.91,62.03 299.33,63.2 336.75,63.37Q374.17,63.54 449,63.76Z" style="fill: rgb(29, 105, 150); fill-opacity: 0.3; stroke-width: 0;"/></g></g><g class="errorbars"/><g class="lines"><path class="js-line" d="M449,63.76Q374.17,63.54 336.75,63.37C299.33,63.2 261.91,62.03 224.5,62.75C187.07,63.47 149.66,65.86 112.25,67.71Q74.83,69.56 0,73.84" style="vector-effect: none; fill: none; stroke: rgb(255, 161, 90); stroke-opacity: 1; stroke-width: 0px; opacity: 1;"/></g><g class="points"/><g class="text"/></g><g class="trace scatter tracea9889f" style="stroke-miterlimit: 2;"><g class="fills"/><g class="errorbars"/><g class="lines"><path class="js-line" d="M449,46.81Q374.17,48.47 336.75,48.87C299.33,49.27 261.91,48.25 224.5,49.22C187.07,50.19 149.67,53.22 112.25,54.68Q74.84,56.14 0,57.99" style="vector-effect: none; fill: none; stroke: rgb(25, 211, 243); stroke-opacity: 1; stroke-width: 0px; opacity: 1;"/></g><g class="points"/><g class="text"/></g><g class="trace scatter trace55b4d0" style="stroke-miterlimit: 2; opacity: 1;"><g class="fills"/><g class="errorbars"/><g class="lines"><path class="js-line" d="M449,159.96Q374.7,191.9 336.75,201.12C299.84,210.09 261.98,213.63 224.5,215.27C187.15,216.91 149.65,210.54 112.25,211.03Q74.82,211.52 0,218.2" style="vector-effect: none; fill: none; stroke: rgb(102, 102, 102); stroke-opacity: 1; stroke-dasharray: 3px, 3px; stroke-width: 2px; opacity: 1;"/></g><g class="points"/><g class="text"/></g><g class="trace scatter trace8f70ea" style="stroke-miterlimit: 2;"><g class="fills"><g><path class="js-fill" d="M449,111.17Q376.06,173.2 336.75,187.71C300.91,200.93 261.97,197.6 224.5,199.94C187.14,202.27 149.65,202.47 112.25,201.73Q74.82,200.99 0,195.51L0,240.9Q74.72,222.01 112.25,220.32C149.55,218.64 187.14,231.56 224.5,230.61C261.97,229.66 299.25,218.17 336.75,214.53Q374.08,210.9 449,208.76Z" style="fill: rgb(102, 102, 102); fill-opacity: 0.3; stroke-width: 0;"/></g></g><g class="errorbars"/><g class="lines"><path class="js-line" d="M449,208.76Q374.08,210.9 336.75,214.53C299.25,218.17 261.97,229.66 224.5,230.61C187.14,231.56 149.55,218.64 112.25,220.32Q74.72,222.01 0,240.9" style="vector-effect: none; fill: none; stroke: rgb(182, 232, 128); stroke-opacity: 1; stroke-width: 0px; opacity: 1;"/></g><g class="points"/><g class="text"/></g><g class="trace scatter trace765382" style="stroke-miterlimit: 2;"><g class="fills"/><g class="errorbars"/><g class="lines"><path class="js-line" d="M449,111.17Q376.06,173.2 336.75,187.71C300.91,200.93 261.97,197.6 224.5,199.94C187.14,202.27 149.65,202.47 112.25,201.73Q74.82,200.99 0,195.51" style="vector-effect: none; fill: none; stroke: rgb(255, 151, 255); stroke-opacity: 1; stroke-width: 0px; opacity: 1;"/></g><g class="points"/><g class="text"/></g><g class="trace scatter trace8ae2bd" style="stroke-miterlimit: 2; opacity: 1;"><g class="fills"/><g class="errorbars"/><g class="lines"><path class="js-line" d="M449,102.86Q374.15,146.8 336.75,168.85C299.32,190.91 263.13,219.58 224.5,235.2C188.16,249.9 149.92,258.54 112.25,262.05Q75.08,265.52 0,256.57" style="vector-effect: none; fill: none; stroke: rgb(95, 70, 144); stroke-opacity: 1; stroke-dasharray: 3px, 3px; stroke-width: 2px; opacity: 1;"/></g><g class="points"/><g class="text"/></g><g class="trace scatter trace78be7c" style="stroke-miterlimit: 2;"><g class="fills"><g><path class="js-fill" d="M449,46.23Q372.23,67.45 336.75,89.34C296.88,113.93 263.76,164.1 224.5,191.6C188.63,216.72 150.39,247.08 112.25,250.47Q75.5,253.74 0,215.07L0,298.06Q74.62,276.8 112.25,273.63C149.46,270.49 187.4,282.87 224.5,278.8C262.24,274.66 301.08,266.36 336.75,248.37Q376.32,228.4 449,159.48Z" style="fill: rgb(95, 70, 144); fill-opacity: 0.3; stroke-width: 0;"/></g></g><g class="errorbars"/><g class="lines"><path class="js-line" d="M449,159.48Q376.32,228.4 336.75,248.37C301.08,266.36 262.24,274.66 224.5,278.8C187.4,282.87 149.46,270.49 112.25,273.63Q74.62,276.8 0,298.06" style="vector-effect: none; fill: none; stroke: rgb(99, 110, 250); stroke-opacity: 1; stroke-width: 0px; opacity: 1;"/></g><g class="points"/><g class="text"/></g><g class="trace scatter trace338e98" style="stroke-miterlimit: 2;"><g class="fills"/><g class="errorbars"/><g class="lines"><path class="js-line" d="M449,46.23Q372.23,67.45 336.75,89.34C296.88,113.93 263.76,164.1 224.5,191.6C188.63,216.72 150.39,247.08 112.25,250.47Q75.5,253.74 0,215.07" style="vector-effect: none; fill: none; stroke: rgb(239, 85, 59); stroke-opacity: 1; stroke-width: 0px; opacity: 1;"/></g><g class="points"/><g class="text"/></g><g class="trace scatter tracee68780" style="stroke-miterlimit: 2; opacity: 1;"><g class="fills"/><g class="errorbars"/><g class="lines"><path class="js-line" d="M449,82.62Q374.16,80.13 336.75,80.31C299.33,80.49 261.92,82.5 224.5,83.71C187.08,84.92 149.67,86.76 112.25,87.59Q74.84,88.42 0,88.68" style="vector-effect: none; fill: none; stroke: rgb(29, 105, 150); stroke-opacity: 1; stroke-width: 2px; opacity: 1;"/></g><g class="points"/><g class="text"/></g><g class="trace scatter trace74a1a8" style="stroke-miterlimit: 2;"><g class="fills"><g><path class="js-fill" d="M449,76.27Q374.16,72.82 336.75,72.99C299.33,73.16 261.92,76.06 224.5,77.31C187.09,78.56 149.66,80.62 112.25,80.47Q74.83,80.32 0,76.39L0,100.97Q74.83,96.51 112.25,94.7C149.66,92.89 187.08,91.29 224.5,90.11C261.91,88.93 299.33,87.82 336.75,87.63Q374.17,87.44 449,88.97Z" style="fill: rgb(29, 105, 150); fill-opacity: 0.3; stroke-width: 0;"/></g></g><g class="errorbars"/><g class="lines"><path class="js-line" d="M449,88.97Q374.17,87.44 336.75,87.63C299.33,87.82 261.91,88.93 224.5,90.11C187.08,91.29 149.66,92.89 112.25,94.7Q74.83,96.51 0,100.97" style="vector-effect: none; fill: none; stroke: rgb(171, 99, 250); stroke-opacity: 1; stroke-width: 0px; opacity: 1;"/></g><g class="points"/><g class="text"/></g><g class="trace scatter trace49448a" style="stroke-miterlimit: 2;"><g class="fills"/><g class="errorbars"/><g class="lines"><path class="js-line" d="M449,76.27Q374.16,72.82 336.75,72.99C299.33,73.16 261.92,76.06 224.5,77.31C187.09,78.56 149.66,80.62 112.25,80.47Q74.83,80.32 0,76.39" style="vector-effect: none; fill: none; stroke: rgb(255, 161, 90); stroke-opacity: 1; stroke-width: 0px; opacity: 1;"/></g><g class="points"/><g class="text"/></g><g class="trace scatter trace2f5833" style="stroke-miterlimit: 2; opacity: 1;"><g class="fills"/><g class="errorbars"/><g class="lines"><path class="js-line" d="M449,243.56Q374.17,244.17 336.75,244.57C299.33,244.97 261.92,245.67 224.5,245.97C187.08,246.27 149.65,247.36 112.25,246.35Q74.82,245.34 0,239.92" style="vector-effect: none; fill: none; stroke: rgb(102, 102, 102); stroke-opacity: 1; stroke-width: 2px; opacity: 1;"/></g><g class="points"/><g class="text"/></g><g class="trace scatter tracef77137" style="stroke-miterlimit: 2;"><g class="fills"><g><path class="js-fill" d="M449,220.98Q374.16,221.59 336.75,222.28C299.33,222.97 261.92,224.68 224.5,225.12C187.09,225.56 149.61,227.11 112.25,224.95Q74.77,222.79 0,212.11L0,267.73Q74.83,267.89 112.25,267.74C149.67,267.59 187.08,266.98 224.5,266.83C261.92,266.68 299.33,266.96 336.75,266.85Q374.17,266.74 449,266.14Z" style="fill: rgb(102, 102, 102); fill-opacity: 0.3; stroke-width: 0;"/></g></g><g class="errorbars"/><g class="lines"><path class="js-line" d="M449,266.14Q374.17,266.74 336.75,266.85C299.33,266.96 261.92,266.68 224.5,266.83C187.08,266.98 149.67,267.59 112.25,267.74Q74.83,267.89 0,267.73" style="vector-effect: none; fill: none; stroke: rgb(255, 102, 146); stroke-opacity: 1; stroke-width: 0px; opacity: 1;"/></g><g class="points"/><g class="text"/></g><g class="trace scatter tracecf3059" style="stroke-miterlimit: 2;"><g class="fills"/><g class="errorbars"/><g class="lines"><path class="js-line" d="M449,220.98Q374.16,221.59 336.75,222.28C299.33,222.97 261.92,224.68 224.5,225.12C187.09,225.56 149.61,227.11 112.25,224.95Q74.77,222.79 0,212.11" style="vector-effect: none; fill: none; stroke: rgb(182, 232, 128); stroke-opacity: 1; stroke-width: 0px; opacity: 1;"/></g><g class="points"/><g class="text"/></g><g class="trace scatter trace252eef" style="stroke-miterlimit: 2; opacity: 1;"><g class="fills"/><g class="errorbars"/><g class="lines"><path class="js-line" d="M449,310.13Q374.16,309.92 336.75,310.46C299.33,311 261.92,313.31 224.5,313.4C187.08,313.49 149.5,314.99 112.25,310.99Q74.66,306.95 0,289.12" style="vector-effect: none; fill: none; stroke: rgb(95, 70, 144); stroke-opacity: 1; stroke-width: 2px; opacity: 1;"/></g><g class="points"/><g class="text"/></g><g class="trace scatter tracee6d8ba" style="stroke-miterlimit: 2;"><g class="fills"><g><path class="js-fill" d="M449,305.57Q374.16,304.06 336.75,304.71C299.33,305.36 261.93,308.78 224.5,309.5C187.09,310.22 148.94,316.51 112.25,309.04Q74.04,301.26 0,261.89L0,316.35Q74.84,312.79 112.25,312.95C149.67,313.11 187.08,316.76 224.5,317.3C261.91,317.84 299.33,316.65 336.75,316.21Q374.17,315.77 449,314.68Z" style="fill: rgb(95, 70, 144); fill-opacity: 0.3; stroke-width: 0;"/></g></g><g class="errorbars"/><g class="lines"><path class="js-line" d="M449,314.68Q374.17,315.77 336.75,316.21C299.33,316.65 261.91,317.84 224.5,317.3C187.08,316.76 149.67,313.11 112.25,312.95Q74.84,312.79 0,316.35" style="vector-effect: none; fill: none; stroke: rgb(254, 203, 82); stroke-opacity: 1; stroke-width: 0px; opacity: 1;"/></g><g class="points"/><g class="text"/></g><g class="trace scatter trace6cf9ac" style="stroke-miterlimit: 2;"><g class="fills"/><g class="errorbars"/><g class="lines"><path class="js-line" d="M449,305.57Q374.16,304.06 336.75,304.71C299.33,305.36 261.93,308.78 224.5,309.5C187.09,310.22 148.94,316.51 112.25,309.04Q74.04,301.26 0,261.89" style="vector-effect: none; fill: none; stroke: rgb(99, 110, 250); stroke-opacity: 1; stroke-width: 0px; opacity: 1;"/></g><g class="points"/><g class="text"/></g><g class="trace scatter traceb45cff" style="stroke-miterlimit: 2; opacity: 1;"><g class="fills"/><g class="errorbars"/><g class="lines"/><g class="points"/><g class="text"/></g><g class="trace scatter tracee9a1f8" style="stroke-miterlimit: 2; opacity: 1;"><g class="fills"/><g class="errorbars"/><g class="lines"/><g class="points"/><g class="text"/></g><g class="trace scatter trace5fe5bf" style="stroke-miterlimit: 2; opacity: 1;"><g class="fills"/><g class="errorbars"/><g class="lines"/><g class="points"/><g class="text"/></g><g class="trace scatter traced48cc2" style="stroke-miterlimit: 2; opacity: 1;"><g class="fills"/><g class="errorbars"/><g class="lines"/><g class="points"/><g class="text"/></g><g class="trace scatter tracea32894" style="stroke-miterlimit: 2; opacity: 1;"><g class="fills"/><g class="errorbars"/><g class="lines"/><g class="points"/><g class="text"/></g><g class="trace scatter tracec4f923" style="stroke-miterlimit: 2; opacity: 1;"><g class="fills"/><g class="errorbars"/><g class="lines"/><g class="points"/><g class="text"/></g><g class="trace scatter trace7a5d60" style="stroke-miterlimit: 2; opacity: 1;"><g class="fills"/><g class="errorbars"/><g class="lines"/><g class="points"/><g class="text"/></g><g class="trace scatter tracea159b7" style="stroke-miterlimit: 2; opacity: 1;"><g class="fills"/><g class="errorbars"/><g class="lines"/><g class="points"/><g class="text"/></g></g></g><g class="overplot"/><path class="xlines-above crisp" d="M50,334.5H500" style="fill: none; stroke-width: 1px; stroke: rgb(0, 0, 0); stroke-opacity: 0.3;"/><path class="ylines-above crisp" d="M50.5,0V334" style="fill: none; stroke-width: 1px; stroke: rgb(0, 0, 0); stroke-opacity: 0.3;"/><g class="overlines-above"/><g class="xaxislayer-above"><g class="xtick"><text text-anchor="middle" x="0" y="359" transform="translate(72.38,0)" style="font-family: 'Open Sans', verdana, arial, sans-serif; font-size: 20px; fill: rgb(42, 63, 95); fill-opacity: 1; white-space: pre; opacity: 1;">50</text></g><g class="xtick"><text text-anchor="middle" x="0" y="359" style="font-family: 'Open Sans', verdana, arial, sans-serif; font-size: 20px; fill: rgb(42, 63, 95); fill-opacity: 1; white-space: pre; opacity: 1;" transform="translate(206.01,0)">100</text></g><g class="xtick"><text text-anchor="middle" x="0" y="359" style="font-family: 'Open Sans', verdana, arial, sans-serif; font-size: 20px; fill: rgb(42, 63, 95); fill-opacity: 1; white-space: pre; opacity: 1;" transform="translate(339.64,0)">150</text></g><g class="xtick"><text text-anchor="middle" x="0" y="359" style="font-family: 'Open Sans', verdana, arial, sans-serif; font-size: 20px; fill: rgb(42, 63, 95); fill-opacity: 1; white-space: pre; opacity: 1;" transform="translate(473.27,0)">200</text></g></g><g class="yaxislayer-above"><g class="ytick"><text text-anchor="end" x="46" y="7" transform="translate(0,316.8)" style="font-family: 'Open Sans', verdana, arial, sans-serif; font-size: 20px; fill: rgb(42, 63, 95); fill-opacity: 1; white-space: pre; opacity: 1;">1</text></g><g class="ytick"><text text-anchor="end" x="46" y="7" style="font-family: 'Open Sans', verdana, arial, sans-serif; font-size: 20px; fill: rgb(42, 63, 95); fill-opacity: 1; white-space: pre; opacity: 1;" transform="translate(0,257.98)">2</text></g><g class="ytick"><text text-anchor="end" x="46" y="7" style="font-family: 'Open Sans', verdana, arial, sans-serif; font-size: 20px; fill: rgb(42, 63, 95); fill-opacity: 1; white-space: pre; opacity: 1;" transform="translate(0,199.16)">3</text></g><g class="ytick"><text text-anchor="end" x="46" y="7" style="font-family: 'Open Sans', verdana, arial, sans-serif; font-size: 20px; fill: rgb(42, 63, 95); fill-opacity: 1; white-space: pre; opacity: 1;" transform="translate(0,140.35)">4</text></g><g class="ytick"><text text-anchor="end" x="46" y="7" style="font-family: 'Open Sans', verdana, arial, sans-serif; font-size: 20px; fill: rgb(42, 63, 95); fill-opacity: 1; white-space: pre; opacity: 1;" transform="translate(0,81.53)">5</text></g><g class="ytick"><text text-anchor="end" x="46" y="7" style="font-family: 'Open Sans', verdana, arial, sans-serif; font-size: 20px; fill: rgb(42, 63, 95); fill-opacity: 1; white-space: pre; opacity: 1;" transform="translate(0,22.71)">6</text></g></g><g class="overaxes-above"/></g></g><g class="polarlayer"/><g class="smithlayer"/><g class="ternarylayer"/><g class="geolayer"/><g class="funnelarealayer"/><g class="pielayer"/><g class="iciclelayer"/><g class="treemaplayer"/><g class="sunburstlayer"/><g class="glimages"/><defs id="topdefs-8961d6"><g class="clips"/></defs><g class="layer-above"><g class="imagelayer"/><g class="shapelayer"/></g><g class="infolayer"><g class="g-gtitle"/><g class="g-xtitle" transform="translate(0,-7.100000000000023)"><text class="xtitle" x="275.5" y="399.1" text-anchor="middle" style="font-family: 'Open Sans', verdana, arial, sans-serif; font-size: 28px; fill: rgb(42, 63, 95); opacity: 1; font-weight: normal; white-space: pre;">obs state dimension</text></g><g class="g-ytitle" transform="translate(29.537109375,0)"><text class="ytitle" transform="rotate(-90,0.4625000000000057,167)" x="0.4625000000000057" y="167" text-anchor="middle" style="font-family: 'Open Sans', verdana, arial, sans-serif; font-size: 28px; fill: rgb(42, 63, 95); opacity: 1; font-weight: normal; white-space: pre;">state prediction MSE</text></g></g></svg>