<?xml version="1.0" encoding="utf-8" standalone="no"?>
<!DOCTYPE svg PUBLIC "-//W3C//DTD SVG 1.1//EN"
  "http://www.w3.org/Graphics/SVG/1.1/DTD/svg11.dtd">
<svg xmlns:xlink="http://www.w3.org/1999/xlink" width="576pt" height="28.8pt" viewBox="0 0 576 28.8" xmlns="http://www.w3.org/2000/svg" version="1.1">
 <metadata>
  <rdf:RDF xmlns:dc="http://purl.org/dc/elements/1.1/" xmlns:cc="http://creativecommons.org/ns#" xmlns:rdf="http://www.w3.org/1999/02/22-rdf-syntax-ns#">
   <cc:Work>
    <dc:type rdf:resource="http://purl.org/dc/dcmitype/StillImage"/>
    <dc:date>2023-12-11T17:32:31.109756</dc:date>
    <dc:format>image/svg+xml</dc:format>
    <dc:creator>
     <cc:Agent>
      <dc:title>Matplotlib v3.7.1, https://matplotlib.org/</dc:title>
     </cc:Agent>
    </dc:creator>
   </cc:Work>
  </rdf:RDF>
 </metadata>
 <defs>
  <style type="text/css">*{stroke-linejoin: round; stroke-linecap: butt}</style>
 </defs>
 <g id="figure_1">
  <g id="patch_1">
   <path d="M 0 28.8 
L 576 28.8 
L 576 0 
L 0 0 
z
" style="fill: #ffffff"/>
  </g>
  <g id="axes_1">
   <g id="patch_2">
    <path d="M 72 25.632 
L 119.489362 25.632 
L 119.489362 3.456 
L 72 3.456 
z
" style="fill: #ffffff"/>
   </g>
   <g id="PolyCollection_1">
    <defs>
     <path id="me0ccf011c6" d="M 74.164101 -15.985585 
L 74.164101 -3.168 
L 74.356613 -3.168 
L 74.549124 -3.168 
L 74.741636 -3.168 
L 74.934148 -3.168 
L 75.126659 -3.168 
L 75.319171 -3.168 
L 75.511683 -3.168 
L 75.704194 -3.168 
L 75.896706 -3.168 
L 76.089218 -3.168 
L 76.281729 -3.168 
L 76.474241 -3.168 
L 76.666753 -3.168 
L 76.859264 -3.168 
L 77.051776 -3.168 
L 77.244288 -3.168 
L 77.436799 -3.168 
L 77.629311 -3.168 
L 77.821823 -3.168 
L 78.014334 -3.168 
L 78.206846 -3.168 
L 78.399358 -3.168 
L 78.591869 -3.168 
L 78.784381 -3.168 
L 78.976892 -3.168 
L 79.169404 -3.168 
L 79.361916 -3.168 
L 79.554427 -3.168 
L 79.746939 -3.168 
L 79.939451 -3.168 
L 80.131962 -3.168 
L 80.324474 -3.168 
L 80.516986 -3.168 
L 80.709497 -3.168 
L 80.902009 -3.168 
L 81.094521 -3.168 
L 81.287032 -3.168 
L 81.479544 -3.168 
L 81.672056 -3.168 
L 81.864567 -3.168 
L 82.057079 -3.168 
L 82.249591 -3.168 
L 82.442102 -3.168 
L 82.634614 -3.168 
L 82.827126 -3.168 
L 83.019637 -3.168 
L 83.212149 -3.168 
L 83.404661 -3.168 
L 83.597172 -3.168 
L 83.789684 -3.168 
L 83.982196 -3.168 
L 84.174707 -3.168 
L 84.367219 -3.168 
L 84.559731 -3.168 
L 84.752242 -3.168 
L 84.944754 -3.168 
L 85.137265 -3.168 
L 85.329777 -3.168 
L 85.522289 -3.168 
L 85.7148 -3.168 
L 85.907312 -3.168 
L 86.099824 -3.168 
L 86.292335 -3.168 
L 86.484847 -3.168 
L 86.677359 -3.168 
L 86.86987 -3.168 
L 87.062382 -3.168 
L 87.254894 -3.168 
L 87.447405 -3.168 
L 87.639917 -3.168 
L 87.832429 -3.168 
L 88.02494 -3.168 
L 88.217452 -3.168 
L 88.409964 -3.168 
L 88.602475 -3.168 
L 88.794987 -3.168 
L 88.987499 -3.168 
L 89.18001 -3.168 
L 89.372522 -3.168 
L 89.565034 -3.168 
L 89.757545 -3.168 
L 89.950057 -3.168 
L 90.142569 -3.168 
L 90.33508 -3.168 
L 90.527592 -3.168 
L 90.720104 -3.168 
L 90.912615 -3.168 
L 91.105127 -3.168 
L 91.297639 -3.168 
L 91.49015 -3.168 
L 91.682662 -3.168 
L 91.875173 -3.168 
L 92.067685 -3.168 
L 92.260197 -3.168 
L 92.452708 -3.168 
L 92.64522 -3.168 
L 92.837732 -3.168 
L 93.030243 -3.168 
L 93.222755 -3.168 
L 93.415267 -3.168 
L 93.607778 -3.168 
L 93.80029 -3.168 
L 93.992802 -3.168 
L 94.185313 -3.168 
L 94.377825 -3.168 
L 94.570337 -3.168 
L 94.762848 -3.168 
L 94.95536 -3.168 
L 95.147872 -3.168 
L 95.340383 -3.168 
L 95.532895 -3.168 
L 95.725407 -3.168 
L 95.917918 -3.168 
L 96.11043 -3.168 
L 96.302942 -3.168 
L 96.495453 -3.168 
L 96.687965 -3.168 
L 96.880477 -3.168 
L 97.072988 -3.168 
L 97.2655 -3.168 
L 97.458012 -3.168 
L 97.650523 -3.168 
L 97.843035 -3.168 
L 98.035546 -3.168 
L 98.228058 -3.168 
L 98.42057 -3.168 
L 98.613081 -3.168 
L 98.805593 -3.168 
L 98.998105 -3.168 
L 99.190616 -3.168 
L 99.383128 -3.168 
L 99.57564 -3.168 
L 99.768151 -3.168 
L 99.960663 -3.168 
L 100.153175 -3.168 
L 100.345686 -3.168 
L 100.538198 -3.168 
L 100.73071 -3.168 
L 100.923221 -3.168 
L 101.115733 -3.168 
L 101.308245 -3.168 
L 101.500756 -3.168 
L 101.693268 -3.168 
L 101.88578 -3.168 
L 102.078291 -3.168 
L 102.270803 -3.168 
L 102.463315 -3.168 
L 102.655826 -3.168 
L 102.848338 -3.168 
L 103.04085 -3.168 
L 103.233361 -3.168 
L 103.425873 -3.168 
L 103.618385 -3.168 
L 103.810896 -3.168 
L 104.003408 -3.168 
L 104.195919 -3.168 
L 104.388431 -3.168 
L 104.580943 -3.168 
L 104.773454 -3.168 
L 104.965966 -3.168 
L 105.158478 -3.168 
L 105.350989 -3.168 
L 105.543501 -3.168 
L 105.736013 -3.168 
L 105.928524 -3.168 
L 106.121036 -3.168 
L 106.313548 -3.168 
L 106.506059 -3.168 
L 106.698571 -3.168 
L 106.891083 -3.168 
L 107.083594 -3.168 
L 107.276106 -3.168 
L 107.468618 -3.168 
L 107.661129 -3.168 
L 107.853641 -3.168 
L 108.046153 -3.168 
L 108.238664 -3.168 
L 108.431176 -3.168 
L 108.623688 -3.168 
L 108.816199 -3.168 
L 109.008711 -3.168 
L 109.201223 -3.168 
L 109.393734 -3.168 
L 109.586246 -3.168 
L 109.778758 -3.168 
L 109.971269 -3.168 
L 110.163781 -3.168 
L 110.356292 -3.168 
L 110.548804 -3.168 
L 110.741316 -3.168 
L 110.933827 -3.168 
L 111.126339 -3.168 
L 111.318851 -3.168 
L 111.511362 -3.168 
L 111.703874 -3.168 
L 111.896386 -3.168 
L 112.088897 -3.168 
L 112.281409 -3.168 
L 112.473921 -3.168 
L 112.473921 -4.908794 
L 112.473921 -4.908794 
L 112.281409 -6.43776 
L 112.088897 -8.460745 
L 111.896386 -10.592924 
L 111.703874 -12.069503 
L 111.511362 -12.097322 
L 111.318851 -10.537234 
L 111.126339 -8.121757 
L 110.933827 -5.864353 
L 110.741316 -4.349951 
L 110.548804 -3.58246 
L 110.356292 -3.283333 
L 110.163781 -3.193259 
L 109.971269 -3.172322 
L 109.778758 -3.168574 
L 109.586246 -3.168059 
L 109.393734 -3.168005 
L 109.201223 -3.168 
L 109.008711 -3.168 
L 108.816199 -3.168 
L 108.623688 -3.168002 
L 108.431176 -3.168024 
L 108.238664 -3.16825 
L 108.046153 -3.169988 
L 107.853641 -3.180079 
L 107.661129 -3.224108 
L 107.468618 -3.367206 
L 107.276106 -3.708709 
L 107.083594 -4.290914 
L 106.891083 -4.957929 
L 106.698571 -5.386295 
L 106.506059 -5.41267 
L 106.313548 -5.318303 
L 106.121036 -5.605911 
L 105.928524 -6.404975 
L 105.736013 -7.196509 
L 105.543501 -7.27678 
L 105.350989 -6.50165 
L 105.158478 -5.443285 
L 104.965966 -4.813928 
L 104.773454 -4.853153 
L 104.580943 -5.223515 
L 104.388431 -5.377105 
L 104.195919 -5.045259 
L 104.003408 -4.422171 
L 103.810896 -3.913984 
L 103.618385 -3.807976 
L 103.425873 -4.158878 
L 103.233361 -4.799668 
L 103.04085 -5.410268 
L 102.848338 -5.745495 
L 102.655826 -5.84351 
L 102.463315 -5.872689 
L 102.270803 -5.833433 
L 102.078291 -5.640011 
L 101.88578 -5.414141 
L 101.693268 -5.386651 
L 101.500756 -5.50969 
L 101.308245 -5.442794 
L 101.115733 -4.981278 
L 100.923221 -4.29844 
L 100.73071 -3.711534 
L 100.538198 -3.375498 
L 100.345686 -3.264762 
L 100.153175 -3.334008 
L 99.960663 -3.614442 
L 99.768151 -4.14883 
L 99.57564 -4.821504 
L 99.383128 -5.299042 
L 99.190616 -5.26755 
L 98.998105 -4.751571 
L 98.805593 -4.095512 
L 98.613081 -3.646558 
L 98.42057 -3.563186 
L 98.228058 -3.863685 
L 98.035546 -4.456104 
L 97.843035 -5.066997 
L 97.650523 -5.316912 
L 97.458012 -5.027394 
L 97.2655 -4.39774 
L 97.072988 -3.789624 
L 96.880477 -3.408166 
L 96.687965 -3.23892 
L 96.495453 -3.184006 
L 96.302942 -3.170761 
L 96.11043 -3.168364 
L 95.917918 -3.168037 
L 95.725407 -3.168003 
L 95.532895 -3.168 
L 95.340383 -3.168 
L 95.147872 -3.168 
L 94.95536 -3.168 
L 94.762848 -3.168 
L 94.570337 -3.168 
L 94.377825 -3.168 
L 94.185313 -3.168 
L 93.992802 -3.168 
L 93.80029 -3.168 
L 93.607778 -3.168 
L 93.415267 -3.168 
L 93.222755 -3.168 
L 93.030243 -3.168 
L 92.837732 -3.168 
L 92.64522 -3.168 
L 92.452708 -3.168 
L 92.260197 -3.168 
L 92.067685 -3.168 
L 91.875173 -3.168 
L 91.682662 -3.168 
L 91.49015 -3.168 
L 91.297639 -3.168 
L 91.105127 -3.168 
L 90.912615 -3.168 
L 90.720104 -3.168 
L 90.527592 -3.168 
L 90.33508 -3.168 
L 90.142569 -3.168 
L 89.950057 -3.168 
L 89.757545 -3.168 
L 89.565034 -3.168 
L 89.372522 -3.168 
L 89.18001 -3.168 
L 88.987499 -3.168 
L 88.794987 -3.168 
L 88.602475 -3.168 
L 88.409964 -3.168 
L 88.217452 -3.168 
L 88.02494 -3.168 
L 87.832429 -3.168 
L 87.639917 -3.168 
L 87.447405 -3.168 
L 87.254894 -3.168 
L 87.062382 -3.168 
L 86.86987 -3.168 
L 86.677359 -3.168 
L 86.484847 -3.168 
L 86.292335 -3.168 
L 86.099824 -3.168 
L 85.907312 -3.168 
L 85.7148 -3.168 
L 85.522289 -3.168 
L 85.329777 -3.168 
L 85.137265 -3.168 
L 84.944754 -3.168 
L 84.752242 -3.168 
L 84.559731 -3.168 
L 84.367219 -3.168 
L 84.174707 -3.168 
L 83.982196 -3.168 
L 83.789684 -3.168 
L 83.597172 -3.168 
L 83.404661 -3.168 
L 83.212149 -3.168 
L 83.019637 -3.168 
L 82.827126 -3.168 
L 82.634614 -3.168 
L 82.442102 -3.168 
L 82.249591 -3.168 
L 82.057079 -3.168 
L 81.864567 -3.168 
L 81.672056 -3.168 
L 81.479544 -3.168 
L 81.287032 -3.168 
L 81.094521 -3.168 
L 80.902009 -3.168 
L 80.709497 -3.168 
L 80.516986 -3.168 
L 80.324474 -3.168 
L 80.131962 -3.168 
L 79.939451 -3.168 
L 79.746939 -3.168 
L 79.554427 -3.168 
L 79.361916 -3.168 
L 79.169404 -3.168 
L 78.976892 -3.168 
L 78.784381 -3.168 
L 78.591869 -3.168 
L 78.399358 -3.168 
L 78.206846 -3.168 
L 78.014334 -3.168 
L 77.821823 -3.168 
L 77.629311 -3.168 
L 77.436799 -3.168 
L 77.244288 -3.168 
L 77.051776 -3.168 
L 76.859264 -3.168 
L 76.666753 -3.168001 
L 76.474241 -3.168025 
L 76.281729 -3.168333 
L 76.089218 -3.171335 
L 75.896706 -3.193516 
L 75.704194 -3.317226 
L 75.511683 -3.835026 
L 75.319171 -5.446832 
L 75.126659 -9.118485 
L 74.934148 -15.043793 
L 74.741636 -21.283201 
L 74.549124 -24.288 
L 74.356613 -21.987797 
L 74.164101 -15.985585 
z
" style="stroke: #90c1c6"/>
    </defs>
    <g clip-path="url(#p9f291952d2)">
     <use xlink:href="#me0ccf011c6" x="0" y="28.8" style="fill: #90c1c6; stroke: #90c1c6"/>
    </g>
   </g>
   <g id="matplotlib.axis_1">
    <g id="xtick_1">
     <g id="line2d_1">
      <defs>
       <path id="mc72f9016f6" d="M 0 0 
L 0 3.5 
" style="stroke: #000000; stroke-width: 0.8"/>
      </defs>
      <g>
       <use xlink:href="#mc72f9016f6" x="96.619595" y="25.632" style="stroke: #000000; stroke-width: 0.8"/>
      </g>
     </g>
     <g id="text_1">
      <!-- $\mathdefault{10^{0}}$ -->
      <g transform="translate(91.339595 33.791063) scale(0.06 -0.06)">
       <defs>
        <path id="DejaVuSans-31" d="M 794 531 
L 1825 531 
L 1825 4091 
L 703 3866 
L 703 4441 
L 1819 4666 
L 2450 4666 
L 2450 531 
L 3481 531 
L 3481 0 
L 794 0 
L 794 531 
z
" transform="scale(0.015625)"/>
        <path id="DejaVuSans-30" d="M 2034 4250 
Q 1547 4250 1301 3770 
Q 1056 3291 1056 2328 
Q 1056 1369 1301 889 
Q 1547 409 2034 409 
Q 2525 409 2770 889 
Q 3016 1369 3016 2328 
Q 3016 3291 2770 3770 
Q 2525 4250 2034 4250 
z
M 2034 4750 
Q 2819 4750 3233 4129 
Q 3647 3509 3647 2328 
Q 3647 1150 3233 529 
Q 2819 -91 2034 -91 
Q 1250 -91 836 529 
Q 422 1150 422 2328 
Q 422 3509 836 4129 
Q 1250 4750 2034 4750 
z
" transform="scale(0.015625)"/>
       </defs>
       <use xlink:href="#DejaVuSans-31" transform="translate(0 0.765625)"/>
       <use xlink:href="#DejaVuSans-30" transform="translate(63.623047 0.765625)"/>
       <use xlink:href="#DejaVuSans-30" transform="translate(128.203125 39.046875) scale(0.7)"/>
      </g>
     </g>
    </g>
   </g>
   <g id="matplotlib.axis_2"/>
   <g id="line2d_2">
    <path d="M 72 25.632 
L 119.489362 25.632 
" style="fill: none; stroke: #90c1c6; stroke-width: 0.1; stroke-linecap: square"/>
   </g>
   <g id="patch_3">
    <path d="M 72 25.632 
L 72 3.456 
" style="fill: none; stroke: #000000; stroke-width: 0.25; stroke-linejoin: miter; stroke-linecap: square"/>
   </g>
   <g id="patch_4">
    <path d="M 72 25.632 
L 119.489362 25.632 
" style="fill: none; stroke: #000000; stroke-width: 0.25; stroke-linejoin: miter; stroke-linecap: square"/>
   </g>
   <g id="text_2">
    <!-- $(1)$ -->
    <g style="fill: #90c1c6" transform="translate(105.242553 8.713962) scale(0.07 -0.07)">
     <defs>
      <path id="DejaVuSans-28" d="M 1984 4856 
Q 1566 4138 1362 3434 
Q 1159 2731 1159 2009 
Q 1159 1288 1364 580 
Q 1569 -128 1984 -844 
L 1484 -844 
Q 1016 -109 783 600 
Q 550 1309 550 2009 
Q 550 2706 781 3412 
Q 1013 4119 1484 4856 
L 1984 4856 
z
" transform="scale(0.015625)"/>
      <path id="DejaVuSans-29" d="M 513 4856 
L 1013 4856 
Q 1481 4119 1714 3412 
Q 1947 2706 1947 2009 
Q 1947 1309 1714 600 
Q 1481 -109 1013 -844 
L 513 -844 
Q 928 -128 1133 580 
Q 1338 1288 1338 2009 
Q 1338 2731 1133 3434 
Q 928 4138 513 4856 
z
" transform="scale(0.015625)"/>
     </defs>
     <use xlink:href="#DejaVuSans-28" transform="translate(0 0.125)"/>
     <use xlink:href="#DejaVuSans-31" transform="translate(39.013672 0.125)"/>
     <use xlink:href="#DejaVuSans-29" transform="translate(102.636719 0.125)"/>
    </g>
   </g>
  </g>
  <g id="axes_2">
   <g id="patch_5">
    <path d="M 128.987234 25.632 
L 176.476596 25.632 
L 176.476596 3.456 
L 128.987234 3.456 
z
" style="fill: #ffffff"/>
   </g>
   <g id="PolyCollection_2">
    <defs>
     <path id="ma487878782" d="M 131.145841 -12.0324 
L 131.145841 -3.168 
L 131.346051 -3.168 
L 131.54626 -3.168 
L 131.74647 -3.168 
L 131.946679 -3.168 
L 132.146888 -3.168 
L 132.347098 -3.168 
L 132.547307 -3.168 
L 132.747516 -3.168 
L 132.947726 -3.168 
L 133.147935 -3.168 
L 133.348145 -3.168 
L 133.548354 -3.168 
L 133.748563 -3.168 
L 133.948773 -3.168 
L 134.148982 -3.168 
L 134.349191 -3.168 
L 134.549401 -3.168 
L 134.74961 -3.168 
L 134.94982 -3.168 
L 135.150029 -3.168 
L 135.350238 -3.168 
L 135.550448 -3.168 
L 135.750657 -3.168 
L 135.950866 -3.168 
L 136.151076 -3.168 
L 136.351285 -3.168 
L 136.551495 -3.168 
L 136.751704 -3.168 
L 136.951913 -3.168 
L 137.152123 -3.168 
L 137.352332 -3.168 
L 137.552541 -3.168 
L 137.752751 -3.168 
L 137.95296 -3.168 
L 138.15317 -3.168 
L 138.353379 -3.168 
L 138.553588 -3.168 
L 138.753798 -3.168 
L 138.954007 -3.168 
L 139.154216 -3.168 
L 139.354426 -3.168 
L 139.554635 -3.168 
L 139.754845 -3.168 
L 139.955054 -3.168 
L 140.155263 -3.168 
L 140.355473 -3.168 
L 140.555682 -3.168 
L 140.755891 -3.168 
L 140.956101 -3.168 
L 141.15631 -3.168 
L 141.35652 -3.168 
L 141.556729 -3.168 
L 141.756938 -3.168 
L 141.957148 -3.168 
L 142.157357 -3.168 
L 142.357566 -3.168 
L 142.557776 -3.168 
L 142.757985 -3.168 
L 142.958195 -3.168 
L 143.158404 -3.168 
L 143.358613 -3.168 
L 143.558823 -3.168 
L 143.759032 -3.168 
L 143.959241 -3.168 
L 144.159451 -3.168 
L 144.35966 -3.168 
L 144.55987 -3.168 
L 144.760079 -3.168 
L 144.960288 -3.168 
L 145.160498 -3.168 
L 145.360707 -3.168 
L 145.560917 -3.168 
L 145.761126 -3.168 
L 145.961335 -3.168 
L 146.161545 -3.168 
L 146.361754 -3.168 
L 146.561963 -3.168 
L 146.762173 -3.168 
L 146.962382 -3.168 
L 147.162592 -3.168 
L 147.362801 -3.168 
L 147.56301 -3.168 
L 147.76322 -3.168 
L 147.963429 -3.168 
L 148.163638 -3.168 
L 148.363848 -3.168 
L 148.564057 -3.168 
L 148.764267 -3.168 
L 148.964476 -3.168 
L 149.164685 -3.168 
L 149.364895 -3.168 
L 149.565104 -3.168 
L 149.765313 -3.168 
L 149.965523 -3.168 
L 150.165732 -3.168 
L 150.365942 -3.168 
L 150.566151 -3.168 
L 150.76636 -3.168 
L 150.96657 -3.168 
L 151.166779 -3.168 
L 151.366988 -3.168 
L 151.567198 -3.168 
L 151.767407 -3.168 
L 151.967617 -3.168 
L 152.167826 -3.168 
L 152.368035 -3.168 
L 152.568245 -3.168 
L 152.768454 -3.168 
L 152.968663 -3.168 
L 153.168873 -3.168 
L 153.369082 -3.168 
L 153.569292 -3.168 
L 153.769501 -3.168 
L 153.96971 -3.168 
L 154.16992 -3.168 
L 154.370129 -3.168 
L 154.570338 -3.168 
L 154.770548 -3.168 
L 154.970757 -3.168 
L 155.170967 -3.168 
L 155.371176 -3.168 
L 155.571385 -3.168 
L 155.771595 -3.168 
L 155.971804 -3.168 
L 156.172013 -3.168 
L 156.372223 -3.168 
L 156.572432 -3.168 
L 156.772642 -3.168 
L 156.972851 -3.168 
L 157.17306 -3.168 
L 157.37327 -3.168 
L 157.573479 -3.168 
L 157.773688 -3.168 
L 157.973898 -3.168 
L 158.174107 -3.168 
L 158.374317 -3.168 
L 158.574526 -3.168 
L 158.774735 -3.168 
L 158.974945 -3.168 
L 159.175154 -3.168 
L 159.375363 -3.168 
L 159.575573 -3.168 
L 159.775782 -3.168 
L 159.975992 -3.168 
L 160.176201 -3.168 
L 160.37641 -3.168 
L 160.57662 -3.168 
L 160.776829 -3.168 
L 160.977038 -3.168 
L 161.177248 -3.168 
L 161.377457 -3.168 
L 161.577667 -3.168 
L 161.777876 -3.168 
L 161.978085 -3.168 
L 162.178295 -3.168 
L 162.378504 -3.168 
L 162.578714 -3.168 
L 162.778923 -3.168 
L 162.979132 -3.168 
L 163.179342 -3.168 
L 163.379551 -3.168 
L 163.57976 -3.168 
L 163.77997 -3.168 
L 163.980179 -3.168 
L 164.180389 -3.168 
L 164.380598 -3.168 
L 164.580807 -3.168 
L 164.781017 -3.168 
L 164.981226 -3.168 
L 165.181435 -3.168 
L 165.381645 -3.168 
L 165.581854 -3.168 
L 165.782064 -3.168 
L 165.982273 -3.168 
L 166.182482 -3.168 
L 166.382692 -3.168 
L 166.582901 -3.168 
L 166.78311 -3.168 
L 166.98332 -3.168 
L 167.183529 -3.168 
L 167.383739 -3.168 
L 167.583948 -3.168 
L 167.784157 -3.168 
L 167.984367 -3.168 
L 168.184576 -3.168 
L 168.384785 -3.168 
L 168.584995 -3.168 
L 168.785204 -3.168 
L 168.985414 -3.168 
L 169.185623 -3.168 
L 169.385832 -3.168 
L 169.586042 -3.168 
L 169.786251 -3.168 
L 169.98646 -3.168 
L 170.18667 -3.168 
L 170.386879 -3.168 
L 170.587089 -3.168 
L 170.787298 -3.168 
L 170.987507 -3.168 
L 170.987507 -6.681379 
L 170.987507 -6.681379 
L 170.787298 -9.499125 
L 170.587089 -12.082469 
L 170.386879 -13.066564 
L 170.18667 -11.972675 
L 169.98646 -9.668471 
L 169.786251 -7.525725 
L 169.586042 -6.27159 
L 169.385832 -5.678943 
L 169.185623 -5.17207 
L 168.985414 -4.515531 
L 168.785204 -3.877639 
L 168.584995 -3.46092 
L 168.384785 -3.30031 
L 168.184576 -3.362981 
L 167.984367 -3.66981 
L 167.784157 -4.23472 
L 167.583948 -4.885125 
L 167.383739 -5.249486 
L 167.183529 -5.067491 
L 166.98332 -4.473797 
L 166.78311 -3.851169 
L 166.582901 -3.482492 
L 166.382692 -3.489129 
L 166.182482 -4.074696 
L 165.982273 -5.687493 
L 165.782064 -8.710027 
L 165.581854 -12.697305 
L 165.381645 -16.011728 
L 165.181435 -16.796986 
L 164.981226 -14.627959 
L 164.781017 -10.940313 
L 164.580807 -7.750486 
L 164.380598 -6.180729 
L 164.180389 -6.083065 
L 163.980179 -6.602319 
L 163.77997 -6.902606 
L 163.57976 -6.579611 
L 163.379551 -5.715254 
L 163.179342 -4.694271 
L 162.979132 -3.897982 
L 162.778923 -3.488127 
L 162.578714 -3.450911 
L 162.378504 -3.751479 
L 162.178295 -4.328058 
L 161.978085 -4.944333 
L 161.777876 -5.219286 
L 161.577667 -4.951419 
L 161.377457 -4.335207 
L 161.177248 -3.743049 
L 160.977038 -3.381267 
L 160.776829 -3.22754 
L 160.57662 -3.180513 
L 160.37641 -3.16998 
L 160.176201 -3.168236 
L 159.975992 -3.168021 
L 159.775782 -3.168001 
L 159.575573 -3.168 
L 159.375363 -3.168 
L 159.175154 -3.168 
L 158.974945 -3.168 
L 158.774735 -3.168 
L 158.574526 -3.168 
L 158.374317 -3.168 
L 158.174107 -3.168 
L 157.973898 -3.168 
L 157.773688 -3.168 
L 157.573479 -3.168 
L 157.37327 -3.168 
L 157.17306 -3.168 
L 156.972851 -3.168 
L 156.772642 -3.168 
L 156.572432 -3.168 
L 156.372223 -3.168 
L 156.172013 -3.168 
L 155.971804 -3.168 
L 155.771595 -3.168 
L 155.571385 -3.168 
L 155.371176 -3.168 
L 155.170967 -3.168 
L 154.970757 -3.168 
L 154.770548 -3.168 
L 154.570338 -3.168 
L 154.370129 -3.168 
L 154.16992 -3.168 
L 153.96971 -3.168 
L 153.769501 -3.168 
L 153.569292 -3.168 
L 153.369082 -3.168 
L 153.168873 -3.168 
L 152.968663 -3.168 
L 152.768454 -3.168 
L 152.568245 -3.168 
L 152.368035 -3.168 
L 152.167826 -3.168 
L 151.967617 -3.168 
L 151.767407 -3.168 
L 151.567198 -3.168 
L 151.366988 -3.168 
L 151.166779 -3.168 
L 150.96657 -3.168 
L 150.76636 -3.168 
L 150.566151 -3.168 
L 150.365942 -3.168 
L 150.165732 -3.168 
L 149.965523 -3.168 
L 149.765313 -3.168 
L 149.565104 -3.168 
L 149.364895 -3.168 
L 149.164685 -3.168 
L 148.964476 -3.168 
L 148.764267 -3.168 
L 148.564057 -3.168 
L 148.363848 -3.168 
L 148.163638 -3.168 
L 147.963429 -3.168 
L 147.76322 -3.168 
L 147.56301 -3.168 
L 147.362801 -3.168 
L 147.162592 -3.168 
L 146.962382 -3.168 
L 146.762173 -3.168 
L 146.561963 -3.168 
L 146.361754 -3.168 
L 146.161545 -3.168 
L 145.961335 -3.168 
L 145.761126 -3.168 
L 145.560917 -3.168 
L 145.360707 -3.168 
L 145.160498 -3.168 
L 144.960288 -3.168 
L 144.760079 -3.168 
L 144.55987 -3.168 
L 144.35966 -3.168 
L 144.159451 -3.168 
L 143.959241 -3.168 
L 143.759032 -3.168 
L 143.558823 -3.168 
L 143.358613 -3.168 
L 143.158404 -3.168 
L 142.958195 -3.168 
L 142.757985 -3.168 
L 142.557776 -3.168 
L 142.357566 -3.168 
L 142.157357 -3.168 
L 141.957148 -3.168 
L 141.756938 -3.168 
L 141.556729 -3.168 
L 141.35652 -3.168 
L 141.15631 -3.168 
L 140.956101 -3.168 
L 140.755891 -3.168 
L 140.555682 -3.168 
L 140.355473 -3.168 
L 140.155263 -3.168 
L 139.955054 -3.168 
L 139.754845 -3.168 
L 139.554635 -3.168 
L 139.354426 -3.168 
L 139.154216 -3.168 
L 138.954007 -3.168 
L 138.753798 -3.168 
L 138.553588 -3.168 
L 138.353379 -3.168 
L 138.15317 -3.168 
L 137.95296 -3.168 
L 137.752751 -3.168 
L 137.552541 -3.168 
L 137.352332 -3.168 
L 137.152123 -3.168 
L 136.951913 -3.168 
L 136.751704 -3.168 
L 136.551495 -3.168 
L 136.351285 -3.168 
L 136.151076 -3.168 
L 135.950866 -3.168 
L 135.750657 -3.168 
L 135.550448 -3.168 
L 135.350238 -3.168 
L 135.150029 -3.168 
L 134.94982 -3.168 
L 134.74961 -3.168 
L 134.549401 -3.168 
L 134.349191 -3.168 
L 134.148982 -3.168 
L 133.948773 -3.168 
L 133.748563 -3.168 
L 133.548354 -3.168007 
L 133.348145 -3.16811 
L 133.147935 -3.169266 
L 132.947726 -3.179013 
L 132.747516 -3.240127 
L 132.547307 -3.523612 
L 132.347098 -4.487817 
L 132.146888 -6.855347 
L 131.946679 -10.922905 
L 131.74647 -15.445254 
L 131.54626 -17.799482 
L 131.346051 -16.29416 
L 131.145841 -12.0324 
z
" style="stroke: #7aadb9"/>
    </defs>
    <g clip-path="url(#p9536369157)">
     <use xlink:href="#ma487878782" x="0" y="28.8" style="fill: #7aadb9; stroke: #7aadb9"/>
    </g>
   </g>
   <g id="matplotlib.axis_3">
    <g id="xtick_2">
     <g id="line2d_3">
      <g>
       <use xlink:href="#mc72f9016f6" x="153.606829" y="25.632" style="stroke: #000000; stroke-width: 0.8"/>
      </g>
     </g>
     <g id="text_3">
      <!-- $\mathdefault{10^{0}}$ -->
      <g transform="translate(148.326829 33.791063) scale(0.06 -0.06)">
       <use xlink:href="#DejaVuSans-31" transform="translate(0 0.765625)"/>
       <use xlink:href="#DejaVuSans-30" transform="translate(63.623047 0.765625)"/>
       <use xlink:href="#DejaVuSans-30" transform="translate(128.203125 39.046875) scale(0.7)"/>
      </g>
     </g>
    </g>
   </g>
   <g id="matplotlib.axis_4"/>
   <g id="line2d_4">
    <path d="M 128.987234 25.632 
L 176.476596 25.632 
" style="fill: none; stroke: #7aadb9; stroke-width: 0.1; stroke-linecap: square"/>
   </g>
   <g id="patch_6">
    <path d="M 128.987234 25.632 
L 128.987234 3.456 
" style="fill: none; stroke: #000000; stroke-width: 0.25; stroke-linejoin: miter; stroke-linecap: square"/>
   </g>
   <g id="patch_7">
    <path d="M 128.987234 25.632 
L 176.476596 25.632 
" style="fill: none; stroke: #000000; stroke-width: 0.25; stroke-linejoin: miter; stroke-linecap: square"/>
   </g>
   <g id="text_4">
    <!-- $(2)$ -->
    <g style="fill: #7aadb9" transform="translate(162.229787 8.713962) scale(0.07 -0.07)">
     <defs>
      <path id="DejaVuSans-32" d="M 1228 531 
L 3431 531 
L 3431 0 
L 469 0 
L 469 531 
Q 828 903 1448 1529 
Q 2069 2156 2228 2338 
Q 2531 2678 2651 2914 
Q 2772 3150 2772 3378 
Q 2772 3750 2511 3984 
Q 2250 4219 1831 4219 
Q 1534 4219 1204 4116 
Q 875 4013 500 3803 
L 500 4441 
Q 881 4594 1212 4672 
Q 1544 4750 1819 4750 
Q 2544 4750 2975 4387 
Q 3406 4025 3406 3419 
Q 3406 3131 3298 2873 
Q 3191 2616 2906 2266 
Q 2828 2175 2409 1742 
Q 1991 1309 1228 531 
z
" transform="scale(0.015625)"/>
     </defs>
     <use xlink:href="#DejaVuSans-28" transform="translate(0 0.125)"/>
     <use xlink:href="#DejaVuSans-32" transform="translate(39.013672 0.125)"/>
     <use xlink:href="#DejaVuSans-29" transform="translate(102.636719 0.125)"/>
    </g>
   </g>
  </g>
  <g id="axes_3">
   <g id="patch_8">
    <path d="M 185.974468 25.632 
L 233.46383 25.632 
L 233.46383 3.456 
L 185.974468 3.456 
z
" style="fill: #ffffff"/>
   </g>
   <g id="PolyCollection_3">
    <defs>
     <path id="m7075e1e55e" d="M 188.176381 -12.387362 
L 188.176381 -3.168 
L 188.379869 -3.168 
L 188.583358 -3.168 
L 188.786846 -3.168 
L 188.990335 -3.168 
L 189.193823 -3.168 
L 189.397312 -3.168 
L 189.6008 -3.168 
L 189.804289 -3.168 
L 190.007777 -3.168 
L 190.211266 -3.168 
L 190.414754 -3.168 
L 190.618243 -3.168 
L 190.821731 -3.168 
L 191.02522 -3.168 
L 191.228709 -3.168 
L 191.432197 -3.168 
L 191.635686 -3.168 
L 191.839174 -3.168 
L 192.042663 -3.168 
L 192.246151 -3.168 
L 192.44964 -3.168 
L 192.653128 -3.168 
L 192.856617 -3.168 
L 193.060105 -3.168 
L 193.263594 -3.168 
L 193.467082 -3.168 
L 193.670571 -3.168 
L 193.874059 -3.168 
L 194.077548 -3.168 
L 194.281036 -3.168 
L 194.484525 -3.168 
L 194.688013 -3.168 
L 194.891502 -3.168 
L 195.094991 -3.168 
L 195.298479 -3.168 
L 195.501968 -3.168 
L 195.705456 -3.168 
L 195.908945 -3.168 
L 196.112433 -3.168 
L 196.315922 -3.168 
L 196.51941 -3.168 
L 196.722899 -3.168 
L 196.926387 -3.168 
L 197.129876 -3.168 
L 197.333364 -3.168 
L 197.536853 -3.168 
L 197.740341 -3.168 
L 197.94383 -3.168 
L 198.147318 -3.168 
L 198.350807 -3.168 
L 198.554296 -3.168 
L 198.757784 -3.168 
L 198.961273 -3.168 
L 199.164761 -3.168 
L 199.36825 -3.168 
L 199.571738 -3.168 
L 199.775227 -3.168 
L 199.978715 -3.168 
L 200.182204 -3.168 
L 200.385692 -3.168 
L 200.589181 -3.168 
L 200.792669 -3.168 
L 200.996158 -3.168 
L 201.199646 -3.168 
L 201.403135 -3.168 
L 201.606623 -3.168 
L 201.810112 -3.168 
L 202.0136 -3.168 
L 202.217089 -3.168 
L 202.420578 -3.168 
L 202.624066 -3.168 
L 202.827555 -3.168 
L 203.031043 -3.168 
L 203.234532 -3.168 
L 203.43802 -3.168 
L 203.641509 -3.168 
L 203.844997 -3.168 
L 204.048486 -3.168 
L 204.251974 -3.168 
L 204.455463 -3.168 
L 204.658951 -3.168 
L 204.86244 -3.168 
L 205.065928 -3.168 
L 205.269417 -3.168 
L 205.472905 -3.168 
L 205.676394 -3.168 
L 205.879883 -3.168 
L 206.083371 -3.168 
L 206.28686 -3.168 
L 206.490348 -3.168 
L 206.693837 -3.168 
L 206.897325 -3.168 
L 207.100814 -3.168 
L 207.304302 -3.168 
L 207.507791 -3.168 
L 207.711279 -3.168 
L 207.914768 -3.168 
L 208.118256 -3.168 
L 208.321745 -3.168 
L 208.525233 -3.168 
L 208.728722 -3.168 
L 208.93221 -3.168 
L 209.135699 -3.168 
L 209.339187 -3.168 
L 209.542676 -3.168 
L 209.746165 -3.168 
L 209.949653 -3.168 
L 210.153142 -3.168 
L 210.35663 -3.168 
L 210.560119 -3.168 
L 210.763607 -3.168 
L 210.967096 -3.168 
L 211.170584 -3.168 
L 211.374073 -3.168 
L 211.577561 -3.168 
L 211.78105 -3.168 
L 211.984538 -3.168 
L 212.188027 -3.168 
L 212.391515 -3.168 
L 212.595004 -3.168 
L 212.798492 -3.168 
L 213.001981 -3.168 
L 213.20547 -3.168 
L 213.408958 -3.168 
L 213.612447 -3.168 
L 213.815935 -3.168 
L 214.019424 -3.168 
L 214.222912 -3.168 
L 214.426401 -3.168 
L 214.629889 -3.168 
L 214.833378 -3.168 
L 215.036866 -3.168 
L 215.240355 -3.168 
L 215.443843 -3.168 
L 215.647332 -3.168 
L 215.85082 -3.168 
L 216.054309 -3.168 
L 216.257797 -3.168 
L 216.461286 -3.168 
L 216.664774 -3.168 
L 216.868263 -3.168 
L 217.071752 -3.168 
L 217.27524 -3.168 
L 217.478729 -3.168 
L 217.682217 -3.168 
L 217.885706 -3.168 
L 218.089194 -3.168 
L 218.292683 -3.168 
L 218.496171 -3.168 
L 218.69966 -3.168 
L 218.903148 -3.168 
L 219.106637 -3.168 
L 219.310125 -3.168 
L 219.513614 -3.168 
L 219.717102 -3.168 
L 219.920591 -3.168 
L 220.124079 -3.168 
L 220.327568 -3.168 
L 220.531057 -3.168 
L 220.734545 -3.168 
L 220.938034 -3.168 
L 221.141522 -3.168 
L 221.345011 -3.168 
L 221.548499 -3.168 
L 221.751988 -3.168 
L 221.955476 -3.168 
L 222.158965 -3.168 
L 222.362453 -3.168 
L 222.565942 -3.168 
L 222.76943 -3.168 
L 222.972919 -3.168 
L 223.176407 -3.168 
L 223.379896 -3.168 
L 223.583384 -3.168 
L 223.786873 -3.168 
L 223.990361 -3.168 
L 224.19385 -3.168 
L 224.397339 -3.168 
L 224.600827 -3.168 
L 224.804316 -3.168 
L 225.007804 -3.168 
L 225.211293 -3.168 
L 225.414781 -3.168 
L 225.61827 -3.168 
L 225.821758 -3.168 
L 226.025247 -3.168 
L 226.228735 -3.168 
L 226.432224 -3.168 
L 226.635712 -3.168 
L 226.839201 -3.168 
L 227.042689 -3.168 
L 227.246178 -3.168 
L 227.449666 -3.168 
L 227.653155 -3.168 
L 227.856644 -3.168 
L 228.060132 -3.168 
L 228.263621 -3.168 
L 228.467109 -3.168 
L 228.670598 -3.168 
L 228.670598 -4.329229 
L 228.670598 -4.329229 
L 228.467109 -4.944085 
L 228.263621 -5.039194 
L 228.060132 -4.530346 
L 227.856644 -3.885095 
L 227.653155 -3.598534 
L 227.449666 -3.917971 
L 227.246178 -4.897589 
L 227.042689 -6.176992 
L 226.839201 -6.891228 
L 226.635712 -6.455359 
L 226.432224 -5.364532 
L 226.228735 -4.797238 
L 226.025247 -5.657123 
L 225.821758 -7.900171 
L 225.61827 -10.156718 
L 225.414781 -10.540576 
L 225.211293 -8.658722 
L 225.007804 -6.046797 
L 224.804316 -4.252963 
L 224.600827 -3.585338 
L 224.397339 -3.706085 
L 224.19385 -4.297664 
L 223.990361 -4.943787 
L 223.786873 -5.09994 
L 223.583384 -4.619933 
L 223.379896 -3.947972 
L 223.176407 -3.592938 
L 222.972919 -3.76845 
L 222.76943 -4.466386 
L 222.565942 -5.507373 
L 222.362453 -6.689286 
L 222.158965 -8.02071 
L 221.955476 -9.472553 
L 221.751988 -10.689787 
L 221.548499 -11.257778 
L 221.345011 -10.844716 
L 221.141522 -9.30693 
L 220.938034 -7.22723 
L 220.734545 -5.726228 
L 220.531057 -5.25799 
L 220.327568 -5.191981 
L 220.124079 -4.805743 
L 219.920591 -4.121044 
L 219.717102 -3.553215 
L 219.513614 -3.275403 
L 219.310125 -3.188629 
L 219.106637 -3.170729 
L 218.903148 -3.168249 
L 218.69966 -3.168016 
L 218.496171 -3.168001 
L 218.292683 -3.168 
L 218.089194 -3.168 
L 217.885706 -3.168 
L 217.682217 -3.168 
L 217.478729 -3.168 
L 217.27524 -3.168 
L 217.071752 -3.168 
L 216.868263 -3.168 
L 216.664774 -3.168005 
L 216.461286 -3.168092 
L 216.257797 -3.16927 
L 216.054309 -3.180121 
L 215.85082 -3.247742 
L 215.647332 -3.529549 
L 215.443843 -4.297715 
L 215.240355 -5.60073 
L 215.036866 -6.778303 
L 214.833378 -6.860482 
L 214.629889 -5.770665 
L 214.426401 -4.43228 
L 214.222912 -3.591268 
L 214.019424 -3.266004 
L 213.815935 -3.187261 
L 213.612447 -3.196905 
L 213.408958 -3.30646 
L 213.20547 -3.663533 
L 213.001981 -4.434967 
L 212.798492 -5.519011 
L 212.595004 -6.387718 
L 212.391515 -6.456828 
L 212.188027 -5.671321 
L 211.984538 -4.571019 
L 211.78105 -3.737181 
L 211.577561 -3.332442 
L 211.374073 -3.201425 
L 211.170584 -3.17291 
L 210.967096 -3.170495 
L 210.763607 -3.184254 
L 210.560119 -3.257319 
L 210.35663 -3.506661 
L 210.153142 -4.052296 
L 209.949653 -4.758132 
L 209.746165 -5.137119 
L 209.542676 -4.847244 
L 209.339187 -4.154211 
L 209.135699 -3.567249 
L 208.93221 -3.283231 
L 208.728722 -3.218677 
L 208.525233 -3.314098 
L 208.321745 -3.649629 
L 208.118256 -4.281719 
L 207.914768 -4.942435 
L 207.711279 -5.114944 
L 207.507791 -4.639126 
L 207.304302 -3.933507 
L 207.100814 -3.442316 
L 206.897325 -3.235695 
L 206.693837 -3.179504 
L 206.490348 -3.169346 
L 206.28686 -3.168109 
L 206.083371 -3.168006 
L 205.879883 -3.168 
L 205.676394 -3.168 
L 205.472905 -3.168 
L 205.269417 -3.168 
L 205.065928 -3.168 
L 204.86244 -3.168 
L 204.658951 -3.168 
L 204.455463 -3.168 
L 204.251974 -3.168 
L 204.048486 -3.168 
L 203.844997 -3.168 
L 203.641509 -3.168 
L 203.43802 -3.168 
L 203.234532 -3.168 
L 203.031043 -3.168 
L 202.827555 -3.168 
L 202.624066 -3.168 
L 202.420578 -3.168 
L 202.217089 -3.168 
L 202.0136 -3.168 
L 201.810112 -3.168 
L 201.606623 -3.168 
L 201.403135 -3.168 
L 201.199646 -3.168 
L 200.996158 -3.168 
L 200.792669 -3.168 
L 200.589181 -3.168 
L 200.385692 -3.168 
L 200.182204 -3.168 
L 199.978715 -3.168 
L 199.775227 -3.168 
L 199.571738 -3.168 
L 199.36825 -3.168 
L 199.164761 -3.168 
L 198.961273 -3.168 
L 198.757784 -3.168 
L 198.554296 -3.168 
L 198.350807 -3.168 
L 198.147318 -3.168 
L 197.94383 -3.168 
L 197.740341 -3.168 
L 197.536853 -3.168 
L 197.333364 -3.168 
L 197.129876 -3.168 
L 196.926387 -3.168 
L 196.722899 -3.168 
L 196.51941 -3.168 
L 196.315922 -3.168 
L 196.112433 -3.168 
L 195.908945 -3.168 
L 195.705456 -3.168 
L 195.501968 -3.168 
L 195.298479 -3.168 
L 195.094991 -3.168 
L 194.891502 -3.168 
L 194.688013 -3.168 
L 194.484525 -3.168 
L 194.281036 -3.168 
L 194.077548 -3.168 
L 193.874059 -3.168 
L 193.670571 -3.168 
L 193.467082 -3.168 
L 193.263594 -3.168 
L 193.060105 -3.168 
L 192.856617 -3.168 
L 192.653128 -3.168 
L 192.44964 -3.168 
L 192.246151 -3.168 
L 192.042663 -3.168 
L 191.839174 -3.168 
L 191.635686 -3.168 
L 191.432197 -3.168 
L 191.228709 -3.168 
L 191.02522 -3.168 
L 190.821731 -3.168 
L 190.618243 -3.168 
L 190.414754 -3.168001 
L 190.211266 -3.168033 
L 190.007777 -3.168622 
L 189.804289 -3.176037 
L 189.6008 -3.239536 
L 189.397312 -3.606502 
L 189.193823 -5.019053 
L 188.990335 -8.549081 
L 188.786846 -13.940661 
L 188.583358 -18.01981 
L 188.379869 -17.268635 
L 188.176381 -12.387362 
z
" style="stroke: #6696ab"/>
    </defs>
    <g clip-path="url(#p896ad9da4d)">
     <use xlink:href="#m7075e1e55e" x="0" y="28.8" style="fill: #6696ab; stroke: #6696ab"/>
    </g>
   </g>
   <g id="matplotlib.axis_5">
    <g id="xtick_3">
     <g id="line2d_5">
      <g>
       <use xlink:href="#mc72f9016f6" x="210.594063" y="25.632" style="stroke: #000000; stroke-width: 0.8"/>
      </g>
     </g>
     <g id="text_5">
      <!-- $\mathdefault{10^{0}}$ -->
      <g transform="translate(205.314063 33.791063) scale(0.06 -0.06)">
       <use xlink:href="#DejaVuSans-31" transform="translate(0 0.765625)"/>
       <use xlink:href="#DejaVuSans-30" transform="translate(63.623047 0.765625)"/>
       <use xlink:href="#DejaVuSans-30" transform="translate(128.203125 39.046875) scale(0.7)"/>
      </g>
     </g>
    </g>
   </g>
   <g id="matplotlib.axis_6"/>
   <g id="line2d_6">
    <path d="M 185.974468 25.632 
L 233.46383 25.632 
" style="fill: none; stroke: #6696ab; stroke-width: 0.1; stroke-linecap: square"/>
   </g>
   <g id="patch_9">
    <path d="M 185.974468 25.632 
L 185.974468 3.456 
" style="fill: none; stroke: #000000; stroke-width: 0.25; stroke-linejoin: miter; stroke-linecap: square"/>
   </g>
   <g id="patch_10">
    <path d="M 185.974468 25.632 
L 233.46383 25.632 
" style="fill: none; stroke: #000000; stroke-width: 0.25; stroke-linejoin: miter; stroke-linecap: square"/>
   </g>
   <g id="text_6">
    <!-- $(3)$ -->
    <g style="fill: #6696ab" transform="translate(219.217021 8.713962) scale(0.07 -0.07)">
     <defs>
      <path id="DejaVuSans-33" d="M 2597 2516 
Q 3050 2419 3304 2112 
Q 3559 1806 3559 1356 
Q 3559 666 3084 287 
Q 2609 -91 1734 -91 
Q 1441 -91 1130 -33 
Q 819 25 488 141 
L 488 750 
Q 750 597 1062 519 
Q 1375 441 1716 441 
Q 2309 441 2620 675 
Q 2931 909 2931 1356 
Q 2931 1769 2642 2001 
Q 2353 2234 1838 2234 
L 1294 2234 
L 1294 2753 
L 1863 2753 
Q 2328 2753 2575 2939 
Q 2822 3125 2822 3475 
Q 2822 3834 2567 4026 
Q 2313 4219 1838 4219 
Q 1578 4219 1281 4162 
Q 984 4106 628 3988 
L 628 4550 
Q 988 4650 1302 4700 
Q 1616 4750 1894 4750 
Q 2613 4750 3031 4423 
Q 3450 4097 3450 3541 
Q 3450 3153 3228 2886 
Q 3006 2619 2597 2516 
z
" transform="scale(0.015625)"/>
     </defs>
     <use xlink:href="#DejaVuSans-28" transform="translate(0 0.125)"/>
     <use xlink:href="#DejaVuSans-33" transform="translate(39.013672 0.125)"/>
     <use xlink:href="#DejaVuSans-29" transform="translate(102.636719 0.125)"/>
    </g>
   </g>
  </g>
  <g id="axes_4">
   <g id="patch_11">
    <path d="M 242.961702 25.632 
L 290.451064 25.632 
L 290.451064 3.456 
L 242.961702 3.456 
z
" style="fill: #ffffff"/>
   </g>
   <g id="PolyCollection_4">
    <defs>
     <path id="md9753fbed4" d="M 245.164369 -11.15675 
L 245.164369 -3.168 
L 245.364597 -3.168 
L 245.564824 -3.168 
L 245.765052 -3.168 
L 245.965279 -3.168 
L 246.165507 -3.168 
L 246.365734 -3.168 
L 246.565962 -3.168 
L 246.766189 -3.168 
L 246.966417 -3.168 
L 247.166644 -3.168 
L 247.366872 -3.168 
L 247.567099 -3.168 
L 247.767327 -3.168 
L 247.967554 -3.168 
L 248.167782 -3.168 
L 248.36801 -3.168 
L 248.568237 -3.168 
L 248.768465 -3.168 
L 248.968692 -3.168 
L 249.16892 -3.168 
L 249.369147 -3.168 
L 249.569375 -3.168 
L 249.769602 -3.168 
L 249.96983 -3.168 
L 250.170057 -3.168 
L 250.370285 -3.168 
L 250.570512 -3.168 
L 250.77074 -3.168 
L 250.970967 -3.168 
L 251.171195 -3.168 
L 251.371423 -3.168 
L 251.57165 -3.168 
L 251.771878 -3.168 
L 251.972105 -3.168 
L 252.172333 -3.168 
L 252.37256 -3.168 
L 252.572788 -3.168 
L 252.773015 -3.168 
L 252.973243 -3.168 
L 253.17347 -3.168 
L 253.373698 -3.168 
L 253.573925 -3.168 
L 253.774153 -3.168 
L 253.97438 -3.168 
L 254.174608 -3.168 
L 254.374836 -3.168 
L 254.575063 -3.168 
L 254.775291 -3.168 
L 254.975518 -3.168 
L 255.175746 -3.168 
L 255.375973 -3.168 
L 255.576201 -3.168 
L 255.776428 -3.168 
L 255.976656 -3.168 
L 256.176883 -3.168 
L 256.377111 -3.168 
L 256.577338 -3.168 
L 256.777566 -3.168 
L 256.977793 -3.168 
L 257.178021 -3.168 
L 257.378249 -3.168 
L 257.578476 -3.168 
L 257.778704 -3.168 
L 257.978931 -3.168 
L 258.179159 -3.168 
L 258.379386 -3.168 
L 258.579614 -3.168 
L 258.779841 -3.168 
L 258.980069 -3.168 
L 259.180296 -3.168 
L 259.380524 -3.168 
L 259.580751 -3.168 
L 259.780979 -3.168 
L 259.981206 -3.168 
L 260.181434 -3.168 
L 260.381662 -3.168 
L 260.581889 -3.168 
L 260.782117 -3.168 
L 260.982344 -3.168 
L 261.182572 -3.168 
L 261.382799 -3.168 
L 261.583027 -3.168 
L 261.783254 -3.168 
L 261.983482 -3.168 
L 262.183709 -3.168 
L 262.383937 -3.168 
L 262.584164 -3.168 
L 262.784392 -3.168 
L 262.984619 -3.168 
L 263.184847 -3.168 
L 263.385075 -3.168 
L 263.585302 -3.168 
L 263.78553 -3.168 
L 263.985757 -3.168 
L 264.185985 -3.168 
L 264.386212 -3.168 
L 264.58644 -3.168 
L 264.786667 -3.168 
L 264.986895 -3.168 
L 265.187122 -3.168 
L 265.38735 -3.168 
L 265.587577 -3.168 
L 265.787805 -3.168 
L 265.988032 -3.168 
L 266.18826 -3.168 
L 266.388488 -3.168 
L 266.588715 -3.168 
L 266.788943 -3.168 
L 266.98917 -3.168 
L 267.189398 -3.168 
L 267.389625 -3.168 
L 267.589853 -3.168 
L 267.79008 -3.168 
L 267.990308 -3.168 
L 268.190535 -3.168 
L 268.390763 -3.168 
L 268.59099 -3.168 
L 268.791218 -3.168 
L 268.991445 -3.168 
L 269.191673 -3.168 
L 269.391901 -3.168 
L 269.592128 -3.168 
L 269.792356 -3.168 
L 269.992583 -3.168 
L 270.192811 -3.168 
L 270.393038 -3.168 
L 270.593266 -3.168 
L 270.793493 -3.168 
L 270.993721 -3.168 
L 271.193948 -3.168 
L 271.394176 -3.168 
L 271.594403 -3.168 
L 271.794631 -3.168 
L 271.994858 -3.168 
L 272.195086 -3.168 
L 272.395314 -3.168 
L 272.595541 -3.168 
L 272.795769 -3.168 
L 272.995996 -3.168 
L 273.196224 -3.168 
L 273.396451 -3.168 
L 273.596679 -3.168 
L 273.796906 -3.168 
L 273.997134 -3.168 
L 274.197361 -3.168 
L 274.397589 -3.168 
L 274.597816 -3.168 
L 274.798044 -3.168 
L 274.998271 -3.168 
L 275.198499 -3.168 
L 275.398727 -3.168 
L 275.598954 -3.168 
L 275.799182 -3.168 
L 275.999409 -3.168 
L 276.199637 -3.168 
L 276.399864 -3.168 
L 276.600092 -3.168 
L 276.800319 -3.168 
L 277.000547 -3.168 
L 277.200774 -3.168 
L 277.401002 -3.168 
L 277.601229 -3.168 
L 277.801457 -3.168 
L 278.001684 -3.168 
L 278.201912 -3.168 
L 278.40214 -3.168 
L 278.602367 -3.168 
L 278.802595 -3.168 
L 279.002822 -3.168 
L 279.20305 -3.168 
L 279.403277 -3.168 
L 279.603505 -3.168 
L 279.803732 -3.168 
L 280.00396 -3.168 
L 280.204187 -3.168 
L 280.404415 -3.168 
L 280.604642 -3.168 
L 280.80487 -3.168 
L 281.005097 -3.168 
L 281.205325 -3.168 
L 281.405553 -3.168 
L 281.60578 -3.168 
L 281.806008 -3.168 
L 282.006235 -3.168 
L 282.206463 -3.168 
L 282.40669 -3.168 
L 282.606918 -3.168 
L 282.807145 -3.168 
L 283.007373 -3.168 
L 283.2076 -3.168 
L 283.407828 -3.168 
L 283.608055 -3.168 
L 283.808283 -3.168 
L 284.00851 -3.168 
L 284.208738 -3.168 
L 284.408966 -3.168 
L 284.609193 -3.168 
L 284.809421 -3.168 
L 285.009648 -3.168 
L 285.009648 -6.242094 
L 285.009648 -6.242094 
L 284.809421 -8.80158 
L 284.609193 -10.717966 
L 284.408966 -10.818687 
L 284.208738 -9.573462 
L 284.00851 -8.486215 
L 283.808283 -8.252917 
L 283.608055 -8.248954 
L 283.407828 -7.559838 
L 283.2076 -6.10228 
L 283.007373 -4.62903 
L 282.807145 -3.811162 
L 282.606918 -3.77735 
L 282.40669 -4.35913 
L 282.206463 -5.229408 
L 282.006235 -5.936865 
L 281.806008 -6.148543 
L 281.60578 -5.783855 
L 281.405553 -4.991274 
L 281.205325 -4.138995 
L 281.005097 -3.606754 
L 280.80487 -3.596255 
L 280.604642 -4.254392 
L 280.404415 -5.631058 
L 280.204187 -7.267975 
L 280.00396 -8.324474 
L 279.803732 -8.60806 
L 279.603505 -9.012741 
L 279.403277 -10.262719 
L 279.20305 -11.493419 
L 279.002822 -11.140106 
L 278.802595 -9.230989 
L 278.602367 -7.30762 
L 278.40214 -6.266842 
L 278.201912 -5.851273 
L 278.001684 -5.681724 
L 277.801457 -5.52897 
L 277.601229 -5.233449 
L 277.401002 -4.99972 
L 277.200774 -5.153411 
L 277.000547 -5.549687 
L 276.800319 -5.810656 
L 276.600092 -5.891468 
L 276.399864 -5.916232 
L 276.199637 -5.890784 
L 275.999409 -5.793909 
L 275.799182 -5.51329 
L 275.598954 -4.906737 
L 275.398727 -4.140201 
L 275.198499 -3.557746 
L 274.998271 -3.277714 
L 274.798044 -3.189723 
L 274.597816 -3.173279 
L 274.397589 -3.186292 
L 274.197361 -3.263837 
L 273.997134 -3.521481 
L 273.796906 -4.072441 
L 273.596679 -4.773087 
L 273.396451 -5.143696 
L 273.196224 -4.854727 
L 272.995996 -4.166787 
L 272.795769 -3.578208 
L 272.595541 -3.284852 
L 272.395314 -3.191087 
L 272.195086 -3.171164 
L 271.994858 -3.168301 
L 271.794631 -3.16802 
L 271.594403 -3.168001 
L 271.394176 -3.168 
L 271.193948 -3.168 
L 270.993721 -3.168 
L 270.793493 -3.168 
L 270.593266 -3.168 
L 270.393038 -3.168 
L 270.192811 -3.168 
L 269.992583 -3.168 
L 269.792356 -3.168 
L 269.592128 -3.168 
L 269.391901 -3.168 
L 269.191673 -3.168 
L 268.991445 -3.168 
L 268.791218 -3.168 
L 268.59099 -3.168 
L 268.390763 -3.168 
L 268.190535 -3.168 
L 267.990308 -3.168 
L 267.79008 -3.168 
L 267.589853 -3.168 
L 267.389625 -3.168 
L 267.189398 -3.168 
L 266.98917 -3.168 
L 266.788943 -3.168 
L 266.588715 -3.168 
L 266.388488 -3.168001 
L 266.18826 -3.168018 
L 265.988032 -3.168281 
L 265.787805 -3.170984 
L 265.587577 -3.190012 
L 265.38735 -3.280615 
L 265.187122 -3.567603 
L 264.986895 -4.151475 
L 264.786667 -4.84681 
L 264.58644 -5.155663 
L 264.386212 -4.800251 
L 264.185985 -4.097682 
L 263.985757 -3.53527 
L 263.78553 -3.268633 
L 263.585302 -3.187125 
L 263.385075 -3.170521 
L 263.184847 -3.16823 
L 262.984619 -3.168015 
L 262.784392 -3.168001 
L 262.584164 -3.168 
L 262.383937 -3.168 
L 262.183709 -3.168 
L 261.983482 -3.168 
L 261.783254 -3.168 
L 261.583027 -3.168 
L 261.382799 -3.168 
L 261.182572 -3.168 
L 260.982344 -3.168 
L 260.782117 -3.168 
L 260.581889 -3.168 
L 260.381662 -3.168 
L 260.181434 -3.168 
L 259.981206 -3.168 
L 259.780979 -3.168 
L 259.580751 -3.168 
L 259.380524 -3.168 
L 259.180296 -3.168 
L 258.980069 -3.168 
L 258.779841 -3.168 
L 258.579614 -3.168 
L 258.379386 -3.168 
L 258.179159 -3.168 
L 257.978931 -3.168 
L 257.778704 -3.168 
L 257.578476 -3.168 
L 257.378249 -3.168 
L 257.178021 -3.168 
L 256.977793 -3.168 
L 256.777566 -3.168 
L 256.577338 -3.168 
L 256.377111 -3.168 
L 256.176883 -3.168 
L 255.976656 -3.168 
L 255.776428 -3.168 
L 255.576201 -3.168 
L 255.375973 -3.168 
L 255.175746 -3.168 
L 254.975518 -3.168 
L 254.775291 -3.168 
L 254.575063 -3.168 
L 254.374836 -3.168 
L 254.174608 -3.168 
L 253.97438 -3.168 
L 253.774153 -3.168 
L 253.573925 -3.168 
L 253.373698 -3.168 
L 253.17347 -3.168 
L 252.973243 -3.168 
L 252.773015 -3.168 
L 252.572788 -3.168 
L 252.37256 -3.168 
L 252.172333 -3.168 
L 251.972105 -3.168 
L 251.771878 -3.168 
L 251.57165 -3.168 
L 251.371423 -3.168 
L 251.171195 -3.168 
L 250.970967 -3.168 
L 250.77074 -3.168 
L 250.570512 -3.168 
L 250.370285 -3.168 
L 250.170057 -3.168 
L 249.96983 -3.168 
L 249.769602 -3.168 
L 249.569375 -3.168 
L 249.369147 -3.168 
L 249.16892 -3.168 
L 248.968692 -3.168 
L 248.768465 -3.168 
L 248.568237 -3.168 
L 248.36801 -3.168 
L 248.167782 -3.168 
L 247.967554 -3.168 
L 247.767327 -3.168 
L 247.567099 -3.168 
L 247.366872 -3.168002 
L 247.166644 -3.16804 
L 246.966417 -3.168698 
L 246.766189 -3.176522 
L 246.565962 -3.240142 
L 246.365734 -3.591567 
L 246.165507 -4.892874 
L 245.965279 -8.039867 
L 245.765052 -12.712134 
L 245.564824 -16.136233 
L 245.364597 -15.389605 
L 245.164369 -11.15675 
z
" style="stroke: #55809b"/>
    </defs>
    <g clip-path="url(#pfdfd8b8a1c)">
     <use xlink:href="#md9753fbed4" x="0" y="28.8" style="fill: #55809b; stroke: #55809b"/>
    </g>
   </g>
   <g id="matplotlib.axis_7">
    <g id="xtick_4">
     <g id="line2d_7">
      <g>
       <use xlink:href="#mc72f9016f6" x="267.581297" y="25.632" style="stroke: #000000; stroke-width: 0.8"/>
      </g>
     </g>
     <g id="text_7">
      <!-- $\mathdefault{10^{0}}$ -->
      <g transform="translate(262.301297 33.791063) scale(0.06 -0.06)">
       <use xlink:href="#DejaVuSans-31" transform="translate(0 0.765625)"/>
       <use xlink:href="#DejaVuSans-30" transform="translate(63.623047 0.765625)"/>
       <use xlink:href="#DejaVuSans-30" transform="translate(128.203125 39.046875) scale(0.7)"/>
      </g>
     </g>
    </g>
   </g>
   <g id="matplotlib.axis_8"/>
   <g id="line2d_8">
    <path d="M 242.961702 25.632 
L 290.451064 25.632 
" style="fill: none; stroke: #55809b; stroke-width: 0.1; stroke-linecap: square"/>
   </g>
   <g id="patch_12">
    <path d="M 242.961702 25.632 
L 242.961702 3.456 
" style="fill: none; stroke: #000000; stroke-width: 0.25; stroke-linejoin: miter; stroke-linecap: square"/>
   </g>
   <g id="patch_13">
    <path d="M 242.961702 25.632 
L 290.451064 25.632 
" style="fill: none; stroke: #000000; stroke-width: 0.25; stroke-linejoin: miter; stroke-linecap: square"/>
   </g>
   <g id="text_8">
    <!-- $(4)$ -->
    <g style="fill: #55809b" transform="translate(276.204255 8.713962) scale(0.07 -0.07)">
     <defs>
      <path id="DejaVuSans-34" d="M 2419 4116 
L 825 1625 
L 2419 1625 
L 2419 4116 
z
M 2253 4666 
L 3047 4666 
L 3047 1625 
L 3713 1625 
L 3713 1100 
L 3047 1100 
L 3047 0 
L 2419 0 
L 2419 1100 
L 313 1100 
L 313 1709 
L 2253 4666 
z
" transform="scale(0.015625)"/>
     </defs>
     <use xlink:href="#DejaVuSans-28" transform="translate(0 0.125)"/>
     <use xlink:href="#DejaVuSans-34" transform="translate(39.013672 0.125)"/>
     <use xlink:href="#DejaVuSans-29" transform="translate(102.636719 0.125)"/>
    </g>
   </g>
  </g>
  <g id="axes_5">
   <g id="patch_14">
    <path d="M 299.948936 25.632 
L 347.438298 25.632 
L 347.438298 3.456 
L 299.948936 3.456 
z
" style="fill: #ffffff"/>
   </g>
   <g id="PolyCollection_5">
    <defs>
     <path id="md1fa9b7867" d="M 302.185656 -9.209807 
L 302.185656 -3.168 
L 302.397972 -3.168 
L 302.610289 -3.168 
L 302.822605 -3.168 
L 303.034922 -3.168 
L 303.247238 -3.168 
L 303.459555 -3.168 
L 303.671872 -3.168 
L 303.884188 -3.168 
L 304.096505 -3.168 
L 304.308821 -3.168 
L 304.521138 -3.168 
L 304.733455 -3.168 
L 304.945771 -3.168 
L 305.158088 -3.168 
L 305.370404 -3.168 
L 305.582721 -3.168 
L 305.795037 -3.168 
L 306.007354 -3.168 
L 306.219671 -3.168 
L 306.431987 -3.168 
L 306.644304 -3.168 
L 306.85662 -3.168 
L 307.068937 -3.168 
L 307.281253 -3.168 
L 307.49357 -3.168 
L 307.705887 -3.168 
L 307.918203 -3.168 
L 308.13052 -3.168 
L 308.342836 -3.168 
L 308.555153 -3.168 
L 308.76747 -3.168 
L 308.979786 -3.168 
L 309.192103 -3.168 
L 309.404419 -3.168 
L 309.616736 -3.168 
L 309.829052 -3.168 
L 310.041369 -3.168 
L 310.253686 -3.168 
L 310.466002 -3.168 
L 310.678319 -3.168 
L 310.890635 -3.168 
L 311.102952 -3.168 
L 311.315269 -3.168 
L 311.527585 -3.168 
L 311.739902 -3.168 
L 311.952218 -3.168 
L 312.164535 -3.168 
L 312.376851 -3.168 
L 312.589168 -3.168 
L 312.801485 -3.168 
L 313.013801 -3.168 
L 313.226118 -3.168 
L 313.438434 -3.168 
L 313.650751 -3.168 
L 313.863067 -3.168 
L 314.075384 -3.168 
L 314.287701 -3.168 
L 314.500017 -3.168 
L 314.712334 -3.168 
L 314.92465 -3.168 
L 315.136967 -3.168 
L 315.349284 -3.168 
L 315.5616 -3.168 
L 315.773917 -3.168 
L 315.986233 -3.168 
L 316.19855 -3.168 
L 316.410866 -3.168 
L 316.623183 -3.168 
L 316.8355 -3.168 
L 317.047816 -3.168 
L 317.260133 -3.168 
L 317.472449 -3.168 
L 317.684766 -3.168 
L 317.897083 -3.168 
L 318.109399 -3.168 
L 318.321716 -3.168 
L 318.534032 -3.168 
L 318.746349 -3.168 
L 318.958665 -3.168 
L 319.170982 -3.168 
L 319.383299 -3.168 
L 319.595615 -3.168 
L 319.807932 -3.168 
L 320.020248 -3.168 
L 320.232565 -3.168 
L 320.444881 -3.168 
L 320.657198 -3.168 
L 320.869515 -3.168 
L 321.081831 -3.168 
L 321.294148 -3.168 
L 321.506464 -3.168 
L 321.718781 -3.168 
L 321.931098 -3.168 
L 322.143414 -3.168 
L 322.355731 -3.168 
L 322.568047 -3.168 
L 322.780364 -3.168 
L 322.99268 -3.168 
L 323.204997 -3.168 
L 323.417314 -3.168 
L 323.62963 -3.168 
L 323.841947 -3.168 
L 324.054263 -3.168 
L 324.26658 -3.168 
L 324.478897 -3.168 
L 324.691213 -3.168 
L 324.90353 -3.168 
L 325.115846 -3.168 
L 325.328163 -3.168 
L 325.540479 -3.168 
L 325.752796 -3.168 
L 325.965113 -3.168 
L 326.177429 -3.168 
L 326.389746 -3.168 
L 326.602062 -3.168 
L 326.814379 -3.168 
L 327.026695 -3.168 
L 327.239012 -3.168 
L 327.451329 -3.168 
L 327.663645 -3.168 
L 327.875962 -3.168 
L 328.088278 -3.168 
L 328.300595 -3.168 
L 328.512912 -3.168 
L 328.725228 -3.168 
L 328.937545 -3.168 
L 329.149861 -3.168 
L 329.362178 -3.168 
L 329.574494 -3.168 
L 329.786811 -3.168 
L 329.999128 -3.168 
L 330.211444 -3.168 
L 330.423761 -3.168 
L 330.636077 -3.168 
L 330.848394 -3.168 
L 331.060711 -3.168 
L 331.273027 -3.168 
L 331.485344 -3.168 
L 331.69766 -3.168 
L 331.909977 -3.168 
L 332.122293 -3.168 
L 332.33461 -3.168 
L 332.546927 -3.168 
L 332.759243 -3.168 
L 332.97156 -3.168 
L 333.183876 -3.168 
L 333.396193 -3.168 
L 333.608509 -3.168 
L 333.820826 -3.168 
L 334.033143 -3.168 
L 334.245459 -3.168 
L 334.457776 -3.168 
L 334.670092 -3.168 
L 334.882409 -3.168 
L 335.094726 -3.168 
L 335.307042 -3.168 
L 335.519359 -3.168 
L 335.731675 -3.168 
L 335.943992 -3.168 
L 336.156308 -3.168 
L 336.368625 -3.168 
L 336.580942 -3.168 
L 336.793258 -3.168 
L 337.005575 -3.168 
L 337.217891 -3.168 
L 337.430208 -3.168 
L 337.642525 -3.168 
L 337.854841 -3.168 
L 338.067158 -3.168 
L 338.279474 -3.168 
L 338.491791 -3.168 
L 338.704107 -3.168 
L 338.916424 -3.168 
L 339.128741 -3.168 
L 339.341057 -3.168 
L 339.553374 -3.168 
L 339.76569 -3.168 
L 339.978007 -3.168 
L 340.190323 -3.168 
L 340.40264 -3.168 
L 340.614957 -3.168 
L 340.827273 -3.168 
L 341.03959 -3.168 
L 341.251906 -3.168 
L 341.464223 -3.168 
L 341.67654 -3.168 
L 341.888856 -3.168 
L 342.101173 -3.168 
L 342.313489 -3.168 
L 342.525806 -3.168 
L 342.738122 -3.168 
L 342.950439 -3.168 
L 343.162756 -3.168 
L 343.375072 -3.168 
L 343.587389 -3.168 
L 343.799705 -3.168 
L 344.012022 -3.168 
L 344.224339 -3.168 
L 344.436655 -3.168 
L 344.436655 -5.984863 
L 344.436655 -5.984863 
L 344.224339 -8.889722 
L 344.012022 -10.371979 
L 343.799705 -8.803453 
L 343.587389 -5.927059 
L 343.375072 -4.157659 
L 343.162756 -3.936928 
L 342.950439 -4.507067 
L 342.738122 -4.93489 
L 342.525806 -4.959745 
L 342.313489 -5.251899 
L 342.101173 -6.263735 
L 341.888856 -7.916307 
L 341.67654 -9.638331 
L 341.464223 -9.987228 
L 341.251906 -8.31069 
L 341.03959 -6.25703 
L 340.827273 -6.083036 
L 340.614957 -8.059877 
L 340.40264 -9.918661 
L 340.190323 -9.650919 
L 339.978007 -8.113452 
L 339.76569 -7.040723 
L 339.553374 -6.569841 
L 339.341057 -5.915068 
L 339.128741 -4.827939 
L 338.916424 -3.832991 
L 338.704107 -3.333945 
L 338.491791 -3.196125 
L 338.279474 -3.202736 
L 338.067158 -3.363734 
L 337.854841 -3.862216 
L 337.642525 -4.620729 
L 337.430208 -4.961724 
L 337.217891 -4.491413 
L 337.005575 -3.898802 
L 336.793258 -4.229236 
L 336.580942 -6.194474 
L 336.368625 -9.172945 
L 336.156308 -10.547932 
L 335.943992 -8.936331 
L 335.731675 -6.6212 
L 335.519359 -5.868736 
L 335.307042 -6.264824 
L 335.094726 -6.7117 
L 334.882409 -6.747308 
L 334.670092 -6.114109 
L 334.457776 -4.94022 
L 334.245459 -3.895176 
L 334.033143 -3.472064 
L 333.820826 -3.706333 
L 333.608509 -4.394672 
L 333.396193 -4.897114 
L 333.183876 -4.608047 
L 332.97156 -3.878156 
L 332.759243 -3.404413 
L 332.546927 -3.39296 
L 332.33461 -3.843165 
L 332.122293 -4.56811 
L 331.909977 -4.888464 
L 331.69766 -4.414752 
L 331.485344 -3.700729 
L 331.273027 -3.302222 
L 331.060711 -3.18794 
L 330.848394 -3.169747 
L 330.636077 -3.16809 
L 330.423761 -3.168003 
L 330.211444 -3.168 
L 329.999128 -3.168 
L 329.786811 -3.168001 
L 329.574494 -3.168034 
L 329.362178 -3.168788 
L 329.149861 -3.178642 
L 328.937545 -3.252804 
L 328.725228 -3.567571 
L 328.512912 -4.290397 
L 328.300595 -5.109216 
L 328.088278 -5.467839 
L 327.875962 -5.479066 
L 327.663645 -5.324042 
L 327.451329 -4.714133 
L 327.239012 -3.883576 
L 327.026695 -3.369516 
L 326.814379 -3.219521 
L 326.602062 -3.307213 
L 326.389746 -3.781781 
L 326.177429 -4.882461 
L 325.965113 -6.187839 
L 325.752796 -6.566378 
L 325.540479 -5.61692 
L 325.328163 -4.286664 
L 325.115846 -3.486392 
L 324.90353 -3.223482 
L 324.691213 -3.173838 
L 324.478897 -3.168367 
L 324.26658 -3.168014 
L 324.054263 -3.168 
L 323.841947 -3.168 
L 323.62963 -3.168 
L 323.417314 -3.168 
L 323.204997 -3.168 
L 322.99268 -3.168 
L 322.780364 -3.168 
L 322.568047 -3.168 
L 322.355731 -3.168 
L 322.143414 -3.168 
L 321.931098 -3.168 
L 321.718781 -3.168 
L 321.506464 -3.168 
L 321.294148 -3.168 
L 321.081831 -3.168 
L 320.869515 -3.168 
L 320.657198 -3.168 
L 320.444881 -3.168 
L 320.232565 -3.168 
L 320.020248 -3.168 
L 319.807932 -3.168 
L 319.595615 -3.168 
L 319.383299 -3.168 
L 319.170982 -3.168 
L 318.958665 -3.168 
L 318.746349 -3.168 
L 318.534032 -3.168 
L 318.321716 -3.168 
L 318.109399 -3.168 
L 317.897083 -3.168 
L 317.684766 -3.168 
L 317.472449 -3.168 
L 317.260133 -3.168 
L 317.047816 -3.168 
L 316.8355 -3.168 
L 316.623183 -3.168 
L 316.410866 -3.168 
L 316.19855 -3.168 
L 315.986233 -3.168 
L 315.773917 -3.168 
L 315.5616 -3.168 
L 315.349284 -3.168 
L 315.136967 -3.168 
L 314.92465 -3.168 
L 314.712334 -3.168 
L 314.500017 -3.168 
L 314.287701 -3.168 
L 314.075384 -3.168 
L 313.863067 -3.168 
L 313.650751 -3.168 
L 313.438434 -3.168 
L 313.226118 -3.168 
L 313.013801 -3.168 
L 312.801485 -3.168 
L 312.589168 -3.168 
L 312.376851 -3.168 
L 312.164535 -3.168 
L 311.952218 -3.168 
L 311.739902 -3.168 
L 311.527585 -3.168 
L 311.315269 -3.168 
L 311.102952 -3.168 
L 310.890635 -3.168 
L 310.678319 -3.168 
L 310.466002 -3.168 
L 310.253686 -3.168 
L 310.041369 -3.168 
L 309.829052 -3.168 
L 309.616736 -3.168 
L 309.404419 -3.168 
L 309.192103 -3.168 
L 308.979786 -3.168 
L 308.76747 -3.168 
L 308.555153 -3.168 
L 308.342836 -3.168 
L 308.13052 -3.168 
L 307.918203 -3.168 
L 307.705887 -3.168 
L 307.49357 -3.168 
L 307.281253 -3.168 
L 307.068937 -3.168 
L 306.85662 -3.168 
L 306.644304 -3.168 
L 306.431987 -3.168 
L 306.219671 -3.168 
L 306.007354 -3.168 
L 305.795037 -3.168 
L 305.582721 -3.168 
L 305.370404 -3.168 
L 305.158088 -3.168 
L 304.945771 -3.168 
L 304.733455 -3.168 
L 304.521138 -3.168 
L 304.308821 -3.168 
L 304.096505 -3.168002 
L 303.884188 -3.168105 
L 303.671872 -3.170631 
L 303.459555 -3.206773 
L 303.247238 -3.504897 
L 303.034922 -4.894042 
L 302.822605 -8.382291 
L 302.610289 -12.456151 
L 302.397972 -12.92358 
L 302.185656 -9.209807 
z
" style="stroke: #476989"/>
    </defs>
    <g clip-path="url(#p8b537c9468)">
     <use xlink:href="#md1fa9b7867" x="0" y="28.8" style="fill: #476989; stroke: #476989"/>
    </g>
   </g>
   <g id="matplotlib.axis_9">
    <g id="xtick_5">
     <g id="line2d_9">
      <g>
       <use xlink:href="#mc72f9016f6" x="324.568531" y="25.632" style="stroke: #000000; stroke-width: 0.8"/>
      </g>
     </g>
     <g id="text_9">
      <!-- $\mathdefault{10^{0}}$ -->
      <g transform="translate(319.288531 33.791063) scale(0.06 -0.06)">
       <use xlink:href="#DejaVuSans-31" transform="translate(0 0.765625)"/>
       <use xlink:href="#DejaVuSans-30" transform="translate(63.623047 0.765625)"/>
       <use xlink:href="#DejaVuSans-30" transform="translate(128.203125 39.046875) scale(0.7)"/>
      </g>
     </g>
    </g>
   </g>
   <g id="matplotlib.axis_10"/>
   <g id="line2d_10">
    <path d="M 299.948936 25.632 
L 347.438298 25.632 
" style="fill: none; stroke: #476989; stroke-width: 0.1; stroke-linecap: square"/>
   </g>
   <g id="patch_15">
    <path d="M 299.948936 25.632 
L 299.948936 3.456 
" style="fill: none; stroke: #000000; stroke-width: 0.25; stroke-linejoin: miter; stroke-linecap: square"/>
   </g>
   <g id="patch_16">
    <path d="M 299.948936 25.632 
L 347.438298 25.632 
" style="fill: none; stroke: #000000; stroke-width: 0.25; stroke-linejoin: miter; stroke-linecap: square"/>
   </g>
   <g id="text_10">
    <!-- $(5)$ -->
    <g style="fill: #476989" transform="translate(333.191489 8.713962) scale(0.07 -0.07)">
     <defs>
      <path id="DejaVuSans-35" d="M 691 4666 
L 3169 4666 
L 3169 4134 
L 1269 4134 
L 1269 2991 
Q 1406 3038 1543 3061 
Q 1681 3084 1819 3084 
Q 2600 3084 3056 2656 
Q 3513 2228 3513 1497 
Q 3513 744 3044 326 
Q 2575 -91 1722 -91 
Q 1428 -91 1123 -41 
Q 819 9 494 109 
L 494 744 
Q 775 591 1075 516 
Q 1375 441 1709 441 
Q 2250 441 2565 725 
Q 2881 1009 2881 1497 
Q 2881 1984 2565 2268 
Q 2250 2553 1709 2553 
Q 1456 2553 1204 2497 
Q 953 2441 691 2322 
L 691 4666 
z
" transform="scale(0.015625)"/>
     </defs>
     <use xlink:href="#DejaVuSans-28" transform="translate(0 0.125)"/>
     <use xlink:href="#DejaVuSans-35" transform="translate(39.013672 0.125)"/>
     <use xlink:href="#DejaVuSans-29" transform="translate(102.636719 0.125)"/>
    </g>
   </g>
  </g>
  <g id="axes_6">
   <g id="patch_17">
    <path d="M 356.93617 25.632 
L 404.425532 25.632 
L 404.425532 3.456 
L 356.93617 3.456 
z
" style="fill: #ffffff"/>
   </g>
   <g id="PolyCollection_6">
    <defs>
     <path id="m667f1e1840" d="M 359.138017 -13.170776 
L 359.138017 -3.168 
L 359.344458 -3.168 
L 359.550899 -3.168 
L 359.75734 -3.168 
L 359.963781 -3.168 
L 360.170221 -3.168 
L 360.376662 -3.168 
L 360.583103 -3.168 
L 360.789544 -3.168 
L 360.995985 -3.168 
L 361.202425 -3.168 
L 361.408866 -3.168 
L 361.615307 -3.168 
L 361.821748 -3.168 
L 362.028189 -3.168 
L 362.234629 -3.168 
L 362.44107 -3.168 
L 362.647511 -3.168 
L 362.853952 -3.168 
L 363.060392 -3.168 
L 363.266833 -3.168 
L 363.473274 -3.168 
L 363.679715 -3.168 
L 363.886156 -3.168 
L 364.092596 -3.168 
L 364.299037 -3.168 
L 364.505478 -3.168 
L 364.711919 -3.168 
L 364.91836 -3.168 
L 365.1248 -3.168 
L 365.331241 -3.168 
L 365.537682 -3.168 
L 365.744123 -3.168 
L 365.950564 -3.168 
L 366.157004 -3.168 
L 366.363445 -3.168 
L 366.569886 -3.168 
L 366.776327 -3.168 
L 366.982767 -3.168 
L 367.189208 -3.168 
L 367.395649 -3.168 
L 367.60209 -3.168 
L 367.808531 -3.168 
L 368.014971 -3.168 
L 368.221412 -3.168 
L 368.427853 -3.168 
L 368.634294 -3.168 
L 368.840735 -3.168 
L 369.047175 -3.168 
L 369.253616 -3.168 
L 369.460057 -3.168 
L 369.666498 -3.168 
L 369.872939 -3.168 
L 370.079379 -3.168 
L 370.28582 -3.168 
L 370.492261 -3.168 
L 370.698702 -3.168 
L 370.905142 -3.168 
L 371.111583 -3.168 
L 371.318024 -3.168 
L 371.524465 -3.168 
L 371.730906 -3.168 
L 371.937346 -3.168 
L 372.143787 -3.168 
L 372.350228 -3.168 
L 372.556669 -3.168 
L 372.76311 -3.168 
L 372.96955 -3.168 
L 373.175991 -3.168 
L 373.382432 -3.168 
L 373.588873 -3.168 
L 373.795314 -3.168 
L 374.001754 -3.168 
L 374.208195 -3.168 
L 374.414636 -3.168 
L 374.621077 -3.168 
L 374.827517 -3.168 
L 375.033958 -3.168 
L 375.240399 -3.168 
L 375.44684 -3.168 
L 375.653281 -3.168 
L 375.859721 -3.168 
L 376.066162 -3.168 
L 376.272603 -3.168 
L 376.479044 -3.168 
L 376.685485 -3.168 
L 376.891925 -3.168 
L 377.098366 -3.168 
L 377.304807 -3.168 
L 377.511248 -3.168 
L 377.717689 -3.168 
L 377.924129 -3.168 
L 378.13057 -3.168 
L 378.337011 -3.168 
L 378.543452 -3.168 
L 378.749892 -3.168 
L 378.956333 -3.168 
L 379.162774 -3.168 
L 379.369215 -3.168 
L 379.575656 -3.168 
L 379.782096 -3.168 
L 379.988537 -3.168 
L 380.194978 -3.168 
L 380.401419 -3.168 
L 380.60786 -3.168 
L 380.8143 -3.168 
L 381.020741 -3.168 
L 381.227182 -3.168 
L 381.433623 -3.168 
L 381.640064 -3.168 
L 381.846504 -3.168 
L 382.052945 -3.168 
L 382.259386 -3.168 
L 382.465827 -3.168 
L 382.672268 -3.168 
L 382.878708 -3.168 
L 383.085149 -3.168 
L 383.29159 -3.168 
L 383.498031 -3.168 
L 383.704471 -3.168 
L 383.910912 -3.168 
L 384.117353 -3.168 
L 384.323794 -3.168 
L 384.530235 -3.168 
L 384.736675 -3.168 
L 384.943116 -3.168 
L 385.149557 -3.168 
L 385.355998 -3.168 
L 385.562439 -3.168 
L 385.768879 -3.168 
L 385.97532 -3.168 
L 386.181761 -3.168 
L 386.388202 -3.168 
L 386.594643 -3.168 
L 386.801083 -3.168 
L 387.007524 -3.168 
L 387.213965 -3.168 
L 387.420406 -3.168 
L 387.626846 -3.168 
L 387.833287 -3.168 
L 388.039728 -3.168 
L 388.246169 -3.168 
L 388.45261 -3.168 
L 388.65905 -3.168 
L 388.865491 -3.168 
L 389.071932 -3.168 
L 389.278373 -3.168 
L 389.484814 -3.168 
L 389.691254 -3.168 
L 389.897695 -3.168 
L 390.104136 -3.168 
L 390.310577 -3.168 
L 390.517018 -3.168 
L 390.723458 -3.168 
L 390.929899 -3.168 
L 391.13634 -3.168 
L 391.342781 -3.168 
L 391.549221 -3.168 
L 391.755662 -3.168 
L 391.962103 -3.168 
L 392.168544 -3.168 
L 392.374985 -3.168 
L 392.581425 -3.168 
L 392.787866 -3.168 
L 392.994307 -3.168 
L 393.200748 -3.168 
L 393.407189 -3.168 
L 393.613629 -3.168 
L 393.82007 -3.168 
L 394.026511 -3.168 
L 394.232952 -3.168 
L 394.439393 -3.168 
L 394.645833 -3.168 
L 394.852274 -3.168 
L 395.058715 -3.168 
L 395.265156 -3.168 
L 395.471596 -3.168 
L 395.678037 -3.168 
L 395.884478 -3.168 
L 396.090919 -3.168 
L 396.29736 -3.168 
L 396.5038 -3.168 
L 396.710241 -3.168 
L 396.916682 -3.168 
L 397.123123 -3.168 
L 397.329564 -3.168 
L 397.536004 -3.168 
L 397.742445 -3.168 
L 397.948886 -3.168 
L 398.155327 -3.168 
L 398.361768 -3.168 
L 398.568208 -3.168 
L 398.774649 -3.168 
L 398.98109 -3.168 
L 399.187531 -3.168 
L 399.393971 -3.168 
L 399.600412 -3.168 
L 399.806853 -3.168 
L 400.013294 -3.168 
L 400.219735 -3.168 
L 400.219735 -6.433613 
L 400.219735 -6.433613 
L 400.013294 -8.848797 
L 399.806853 -10.023362 
L 399.600412 -8.909829 
L 399.393971 -6.506364 
L 399.187531 -4.515047 
L 398.98109 -3.545104 
L 398.774649 -3.242582 
L 398.568208 -3.191578 
L 398.361768 -3.2578 
L 398.155327 -3.563177 
L 397.948886 -4.378363 
L 397.742445 -5.729845 
L 397.536004 -6.948493 
L 397.329564 -7.217152 
L 397.123123 -6.862873 
L 396.916682 -7.1466 
L 396.710241 -8.348643 
L 396.5038 -9.163047 
L 396.29736 -8.575988 
L 396.090919 -7.212626 
L 395.884478 -6.29025 
L 395.678037 -6.379165 
L 395.471596 -7.193785 
L 395.265156 -7.793993 
L 395.058715 -7.440623 
L 394.852274 -6.336391 
L 394.645833 -5.180489 
L 394.439393 -4.498602 
L 394.232952 -4.412087 
L 394.026511 -4.570168 
L 393.82007 -4.496475 
L 393.613629 -4.179733 
L 393.407189 -4.042413 
L 393.200748 -4.32838 
L 392.994307 -4.820861 
L 392.787866 -5.225167 
L 392.581425 -5.541023 
L 392.374985 -5.807099 
L 392.168544 -5.832067 
L 391.962103 -5.526215 
L 391.755662 -5.160901 
L 391.549221 -5.009751 
L 391.342781 -5.07014 
L 391.13634 -5.33966 
L 390.929899 -5.80087 
L 390.723458 -6.05857 
L 390.517018 -5.794967 
L 390.310577 -5.447752 
L 390.104136 -5.587178 
L 389.897695 -5.909496 
L 389.691254 -5.664496 
L 389.484814 -4.814665 
L 389.278373 -4.034136 
L 389.071932 -3.826155 
L 388.865491 -4.142646 
L 388.65905 -4.586894 
L 388.45261 -4.823014 
L 388.246169 -4.88937 
L 388.039728 -4.968428 
L 387.833287 -5.048668 
L 387.626846 -5.040384 
L 387.420406 -4.863334 
L 387.213965 -4.441167 
L 387.007524 -3.889116 
L 386.801083 -3.459009 
L 386.594643 -3.249567 
L 386.388202 -3.18372 
L 386.181761 -3.170075 
L 385.97532 -3.168187 
L 385.768879 -3.168012 
L 385.562439 -3.168 
L 385.355998 -3.168 
L 385.149557 -3.168 
L 384.943116 -3.168 
L 384.736675 -3.168 
L 384.530235 -3.168 
L 384.323794 -3.168 
L 384.117353 -3.168 
L 383.910912 -3.168 
L 383.704471 -3.168 
L 383.498031 -3.168 
L 383.29159 -3.168 
L 383.085149 -3.168 
L 382.878708 -3.168 
L 382.672268 -3.168 
L 382.465827 -3.168 
L 382.259386 -3.168 
L 382.052945 -3.168 
L 381.846504 -3.168 
L 381.640064 -3.168 
L 381.433623 -3.168 
L 381.227182 -3.168 
L 381.020741 -3.168 
L 380.8143 -3.168008 
L 380.60786 -3.168136 
L 380.401419 -3.169598 
L 380.194978 -3.180821 
L 379.988537 -3.238296 
L 379.782096 -3.431438 
L 379.575656 -3.842812 
L 379.369215 -4.349522 
L 379.162774 -4.58202 
L 378.956333 -4.324708 
L 378.749892 -3.814765 
L 378.543452 -3.415186 
L 378.337011 -3.232574 
L 378.13057 -3.17953 
L 377.924129 -3.169407 
L 377.717689 -3.168117 
L 377.511248 -3.168007 
L 377.304807 -3.168 
L 377.098366 -3.168 
L 376.891925 -3.168 
L 376.685485 -3.168 
L 376.479044 -3.168 
L 376.272603 -3.168 
L 376.066162 -3.168 
L 375.859721 -3.168 
L 375.653281 -3.168 
L 375.44684 -3.168 
L 375.240399 -3.168 
L 375.033958 -3.168 
L 374.827517 -3.168 
L 374.621077 -3.168 
L 374.414636 -3.168 
L 374.208195 -3.168 
L 374.001754 -3.168 
L 373.795314 -3.168 
L 373.588873 -3.168 
L 373.382432 -3.168 
L 373.175991 -3.168 
L 372.96955 -3.168 
L 372.76311 -3.168 
L 372.556669 -3.168 
L 372.350228 -3.168 
L 372.143787 -3.168 
L 371.937346 -3.168 
L 371.730906 -3.168 
L 371.524465 -3.168 
L 371.318024 -3.168 
L 371.111583 -3.168 
L 370.905142 -3.168 
L 370.698702 -3.168 
L 370.492261 -3.168 
L 370.28582 -3.168 
L 370.079379 -3.168 
L 369.872939 -3.168 
L 369.666498 -3.168 
L 369.460057 -3.168 
L 369.253616 -3.168 
L 369.047175 -3.168 
L 368.840735 -3.168 
L 368.634294 -3.168 
L 368.427853 -3.168 
L 368.221412 -3.168 
L 368.014971 -3.168 
L 367.808531 -3.168 
L 367.60209 -3.168 
L 367.395649 -3.168 
L 367.189208 -3.168 
L 366.982767 -3.168 
L 366.776327 -3.168 
L 366.569886 -3.168 
L 366.363445 -3.168 
L 366.157004 -3.168 
L 365.950564 -3.168 
L 365.744123 -3.168 
L 365.537682 -3.168 
L 365.331241 -3.168 
L 365.1248 -3.168 
L 364.91836 -3.168 
L 364.711919 -3.168 
L 364.505478 -3.168 
L 364.299037 -3.168 
L 364.092596 -3.168 
L 363.886156 -3.168 
L 363.679715 -3.168 
L 363.473274 -3.168 
L 363.266833 -3.168 
L 363.060392 -3.168 
L 362.853952 -3.168 
L 362.647511 -3.168 
L 362.44107 -3.168 
L 362.234629 -3.168 
L 362.028189 -3.168 
L 361.821748 -3.168 
L 361.615307 -3.168 
L 361.408866 -3.168001 
L 361.202425 -3.168026 
L 360.995985 -3.168514 
L 360.789544 -3.175056 
L 360.583103 -3.234204 
L 360.376662 -3.59256 
L 360.170221 -5.029016 
L 359.963781 -8.743902 
L 359.75734 -14.587176 
L 359.550899 -19.152861 
L 359.344458 -18.462577 
L 359.138017 -13.170776 
z
" style="stroke: #395174"/>
    </defs>
    <g clip-path="url(#pdd5f23b7ac)">
     <use xlink:href="#m667f1e1840" x="0" y="28.8" style="fill: #395174; stroke: #395174"/>
    </g>
   </g>
   <g id="matplotlib.axis_11">
    <g id="xtick_6">
     <g id="line2d_11">
      <g>
       <use xlink:href="#mc72f9016f6" x="381.555765" y="25.632" style="stroke: #000000; stroke-width: 0.8"/>
      </g>
     </g>
     <g id="text_11">
      <!-- $\mathdefault{10^{0}}$ -->
      <g transform="translate(376.275765 33.791063) scale(0.06 -0.06)">
       <use xlink:href="#DejaVuSans-31" transform="translate(0 0.765625)"/>
       <use xlink:href="#DejaVuSans-30" transform="translate(63.623047 0.765625)"/>
       <use xlink:href="#DejaVuSans-30" transform="translate(128.203125 39.046875) scale(0.7)"/>
      </g>
     </g>
    </g>
   </g>
   <g id="matplotlib.axis_12"/>
   <g id="line2d_12">
    <path d="M 356.93617 25.632 
L 404.425532 25.632 
" style="fill: none; stroke: #395174; stroke-width: 0.1; stroke-linecap: square"/>
   </g>
   <g id="patch_18">
    <path d="M 356.93617 25.632 
L 356.93617 3.456 
" style="fill: none; stroke: #000000; stroke-width: 0.25; stroke-linejoin: miter; stroke-linecap: square"/>
   </g>
   <g id="patch_19">
    <path d="M 356.93617 25.632 
L 404.425532 25.632 
" style="fill: none; stroke: #000000; stroke-width: 0.25; stroke-linejoin: miter; stroke-linecap: square"/>
   </g>
   <g id="text_12">
    <!-- $(6)$ -->
    <g style="fill: #395174" transform="translate(390.178723 8.713962) scale(0.07 -0.07)">
     <defs>
      <path id="DejaVuSans-36" d="M 2113 2584 
Q 1688 2584 1439 2293 
Q 1191 2003 1191 1497 
Q 1191 994 1439 701 
Q 1688 409 2113 409 
Q 2538 409 2786 701 
Q 3034 994 3034 1497 
Q 3034 2003 2786 2293 
Q 2538 2584 2113 2584 
z
M 3366 4563 
L 3366 3988 
Q 3128 4100 2886 4159 
Q 2644 4219 2406 4219 
Q 1781 4219 1451 3797 
Q 1122 3375 1075 2522 
Q 1259 2794 1537 2939 
Q 1816 3084 2150 3084 
Q 2853 3084 3261 2657 
Q 3669 2231 3669 1497 
Q 3669 778 3244 343 
Q 2819 -91 2113 -91 
Q 1303 -91 875 529 
Q 447 1150 447 2328 
Q 447 3434 972 4092 
Q 1497 4750 2381 4750 
Q 2619 4750 2861 4703 
Q 3103 4656 3366 4563 
z
" transform="scale(0.015625)"/>
     </defs>
     <use xlink:href="#DejaVuSans-28" transform="translate(0 0.125)"/>
     <use xlink:href="#DejaVuSans-36" transform="translate(39.013672 0.125)"/>
     <use xlink:href="#DejaVuSans-29" transform="translate(102.636719 0.125)"/>
    </g>
   </g>
  </g>
  <g id="axes_7">
   <g id="patch_20">
    <path d="M 413.923404 25.632 
L 461.412766 25.632 
L 461.412766 3.456 
L 413.923404 3.456 
z
" style="fill: #ffffff"/>
   </g>
   <g id="PolyCollection_7">
    <defs>
     <path id="m4952b6b413" d="M 416.175074 -9.930593 
L 416.175074 -3.168 
L 416.388005 -3.168 
L 416.600937 -3.168 
L 416.813868 -3.168 
L 417.026799 -3.168 
L 417.23973 -3.168 
L 417.452662 -3.168 
L 417.665593 -3.168 
L 417.878524 -3.168 
L 418.091455 -3.168 
L 418.304386 -3.168 
L 418.517318 -3.168 
L 418.730249 -3.168 
L 418.94318 -3.168 
L 419.156111 -3.168 
L 419.369043 -3.168 
L 419.581974 -3.168 
L 419.794905 -3.168 
L 420.007836 -3.168 
L 420.220768 -3.168 
L 420.433699 -3.168 
L 420.64663 -3.168 
L 420.859561 -3.168 
L 421.072493 -3.168 
L 421.285424 -3.168 
L 421.498355 -3.168 
L 421.711286 -3.168 
L 421.924217 -3.168 
L 422.137149 -3.168 
L 422.35008 -3.168 
L 422.563011 -3.168 
L 422.775942 -3.168 
L 422.988874 -3.168 
L 423.201805 -3.168 
L 423.414736 -3.168 
L 423.627667 -3.168 
L 423.840599 -3.168 
L 424.05353 -3.168 
L 424.266461 -3.168 
L 424.479392 -3.168 
L 424.692323 -3.168 
L 424.905255 -3.168 
L 425.118186 -3.168 
L 425.331117 -3.168 
L 425.544048 -3.168 
L 425.75698 -3.168 
L 425.969911 -3.168 
L 426.182842 -3.168 
L 426.395773 -3.168 
L 426.608705 -3.168 
L 426.821636 -3.168 
L 427.034567 -3.168 
L 427.247498 -3.168 
L 427.460429 -3.168 
L 427.673361 -3.168 
L 427.886292 -3.168 
L 428.099223 -3.168 
L 428.312154 -3.168 
L 428.525086 -3.168 
L 428.738017 -3.168 
L 428.950948 -3.168 
L 429.163879 -3.168 
L 429.376811 -3.168 
L 429.589742 -3.168 
L 429.802673 -3.168 
L 430.015604 -3.168 
L 430.228535 -3.168 
L 430.441467 -3.168 
L 430.654398 -3.168 
L 430.867329 -3.168 
L 431.08026 -3.168 
L 431.293192 -3.168 
L 431.506123 -3.168 
L 431.719054 -3.168 
L 431.931985 -3.168 
L 432.144917 -3.168 
L 432.357848 -3.168 
L 432.570779 -3.168 
L 432.78371 -3.168 
L 432.996641 -3.168 
L 433.209573 -3.168 
L 433.422504 -3.168 
L 433.635435 -3.168 
L 433.848366 -3.168 
L 434.061298 -3.168 
L 434.274229 -3.168 
L 434.48716 -3.168 
L 434.700091 -3.168 
L 434.913023 -3.168 
L 435.125954 -3.168 
L 435.338885 -3.168 
L 435.551816 -3.168 
L 435.764747 -3.168 
L 435.977679 -3.168 
L 436.19061 -3.168 
L 436.403541 -3.168 
L 436.616472 -3.168 
L 436.829404 -3.168 
L 437.042335 -3.168 
L 437.255266 -3.168 
L 437.468197 -3.168 
L 437.681129 -3.168 
L 437.89406 -3.168 
L 438.106991 -3.168 
L 438.319922 -3.168 
L 438.532853 -3.168 
L 438.745785 -3.168 
L 438.958716 -3.168 
L 439.171647 -3.168 
L 439.384578 -3.168 
L 439.59751 -3.168 
L 439.810441 -3.168 
L 440.023372 -3.168 
L 440.236303 -3.168 
L 440.449235 -3.168 
L 440.662166 -3.168 
L 440.875097 -3.168 
L 441.088028 -3.168 
L 441.300959 -3.168 
L 441.513891 -3.168 
L 441.726822 -3.168 
L 441.939753 -3.168 
L 442.152684 -3.168 
L 442.365616 -3.168 
L 442.578547 -3.168 
L 442.791478 -3.168 
L 443.004409 -3.168 
L 443.217341 -3.168 
L 443.430272 -3.168 
L 443.643203 -3.168 
L 443.856134 -3.168 
L 444.069065 -3.168 
L 444.281997 -3.168 
L 444.494928 -3.168 
L 444.707859 -3.168 
L 444.92079 -3.168 
L 445.133722 -3.168 
L 445.346653 -3.168 
L 445.559584 -3.168 
L 445.772515 -3.168 
L 445.985447 -3.168 
L 446.198378 -3.168 
L 446.411309 -3.168 
L 446.62424 -3.168 
L 446.837172 -3.168 
L 447.050103 -3.168 
L 447.263034 -3.168 
L 447.475965 -3.168 
L 447.688896 -3.168 
L 447.901828 -3.168 
L 448.114759 -3.168 
L 448.32769 -3.168 
L 448.540621 -3.168 
L 448.753553 -3.168 
L 448.966484 -3.168 
L 449.179415 -3.168 
L 449.392346 -3.168 
L 449.605278 -3.168 
L 449.818209 -3.168 
L 450.03114 -3.168 
L 450.244071 -3.168 
L 450.457002 -3.168 
L 450.669934 -3.168 
L 450.882865 -3.168 
L 451.095796 -3.168 
L 451.308727 -3.168 
L 451.521659 -3.168 
L 451.73459 -3.168 
L 451.947521 -3.168 
L 452.160452 -3.168 
L 452.373384 -3.168 
L 452.586315 -3.168 
L 452.799246 -3.168 
L 453.012177 -3.168 
L 453.225108 -3.168 
L 453.43804 -3.168 
L 453.650971 -3.168 
L 453.863902 -3.168 
L 454.076833 -3.168 
L 454.289765 -3.168 
L 454.502696 -3.168 
L 454.715627 -3.168 
L 454.928558 -3.168 
L 455.14149 -3.168 
L 455.354421 -3.168 
L 455.567352 -3.168 
L 455.780283 -3.168 
L 455.993214 -3.168 
L 456.206146 -3.168 
L 456.419077 -3.168 
L 456.632008 -3.168 
L 456.844939 -3.168 
L 457.057871 -3.168 
L 457.270802 -3.168 
L 457.483733 -3.168 
L 457.696664 -3.168 
L 457.909596 -3.168 
L 458.122527 -3.168 
L 458.335458 -3.168 
L 458.548389 -3.168 
L 458.548389 -4.722939 
L 458.548389 -4.722939 
L 458.335458 -6.745075 
L 458.122527 -8.704867 
L 457.909596 -8.80886 
L 457.696664 -6.793162 
L 457.483733 -4.624824 
L 457.270802 -3.750887 
L 457.057871 -4.051015 
L 456.844939 -4.864996 
L 456.632008 -5.452911 
L 456.419077 -5.386481 
L 456.206146 -4.882105 
L 455.993214 -5.031508 
L 455.780283 -6.945993 
L 455.567352 -9.523377 
L 455.354421 -10.027235 
L 455.14149 -8.316668 
L 454.928558 -6.680638 
L 454.715627 -6.018441 
L 454.502696 -5.784788 
L 454.289765 -5.606817 
L 454.076833 -5.342788 
L 453.863902 -5.235762 
L 453.650971 -5.713127 
L 453.43804 -6.143345 
L 453.225108 -5.614051 
L 453.012177 -4.48737 
L 452.799246 -3.835791 
L 452.586315 -4.271311 
L 452.373384 -5.566522 
L 452.160452 -6.481507 
L 451.947521 -6.202811 
L 451.73459 -5.525918 
L 451.521659 -4.930569 
L 451.308727 -4.174851 
L 451.095796 -3.529884 
L 450.882865 -3.296635 
L 450.669934 -3.605495 
L 450.457002 -5.111968 
L 450.244071 -8.297753 
L 450.03114 -11.160647 
L 449.818209 -10.822328 
L 449.605278 -8.254391 
L 449.392346 -6.230159 
L 449.179415 -5.689966 
L 448.966484 -6.783465 
L 448.753553 -8.596356 
L 448.540621 -8.872912 
L 448.32769 -6.936441 
L 448.114759 -4.67923 
L 447.901828 -3.534041 
L 447.688896 -3.281228 
L 447.475965 -3.587539 
L 447.263034 -4.764489 
L 447.050103 -6.746906 
L 446.837172 -7.883794 
L 446.62424 -6.844404 
L 446.411309 -4.874762 
L 446.198378 -3.678271 
L 445.985447 -3.482184 
L 445.772515 -3.949604 
L 445.559584 -4.600786 
L 445.346653 -4.672977 
L 445.133722 -4.066102 
L 444.92079 -3.473924 
L 444.707859 -3.246318 
L 444.494928 -3.313719 
L 444.281997 -3.728002 
L 444.069065 -4.459933 
L 443.856134 -4.963955 
L 443.643203 -4.967482 
L 443.430272 -4.956086 
L 443.217341 -4.861827 
L 443.004409 -4.278845 
L 442.791478 -3.601427 
L 442.578547 -3.264949 
L 442.365616 -3.180338 
L 442.152684 -3.168892 
L 441.939753 -3.168037 
L 441.726822 -3.168002 
L 441.513891 -3.168063 
L 441.300959 -3.169403 
L 441.088028 -3.185667 
L 440.875097 -3.294373 
L 440.662166 -3.681385 
L 440.449235 -4.35248 
L 440.236303 -4.720056 
L 440.023372 -4.323003 
L 439.810441 -3.656151 
L 439.59751 -3.285171 
L 439.384578 -3.183973 
L 439.171647 -3.169237 
L 438.958716 -3.168054 
L 438.745785 -3.168001 
L 438.532853 -3.168 
L 438.319922 -3.168 
L 438.106991 -3.168 
L 437.89406 -3.168 
L 437.681129 -3.168 
L 437.468197 -3.168 
L 437.255266 -3.168 
L 437.042335 -3.168 
L 436.829404 -3.168 
L 436.616472 -3.168 
L 436.403541 -3.168 
L 436.19061 -3.168 
L 435.977679 -3.168 
L 435.764747 -3.168 
L 435.551816 -3.168 
L 435.338885 -3.168 
L 435.125954 -3.168 
L 434.913023 -3.168 
L 434.700091 -3.168 
L 434.48716 -3.168 
L 434.274229 -3.168 
L 434.061298 -3.168 
L 433.848366 -3.168 
L 433.635435 -3.168 
L 433.422504 -3.168 
L 433.209573 -3.168 
L 432.996641 -3.168 
L 432.78371 -3.168 
L 432.570779 -3.168 
L 432.357848 -3.168 
L 432.144917 -3.168 
L 431.931985 -3.168 
L 431.719054 -3.168 
L 431.506123 -3.168 
L 431.293192 -3.168 
L 431.08026 -3.168 
L 430.867329 -3.168 
L 430.654398 -3.168 
L 430.441467 -3.168 
L 430.228535 -3.168 
L 430.015604 -3.168 
L 429.802673 -3.168 
L 429.589742 -3.168 
L 429.376811 -3.168 
L 429.163879 -3.168 
L 428.950948 -3.168 
L 428.738017 -3.168 
L 428.525086 -3.168 
L 428.312154 -3.168 
L 428.099223 -3.168 
L 427.886292 -3.168 
L 427.673361 -3.168 
L 427.460429 -3.168 
L 427.247498 -3.168 
L 427.034567 -3.168 
L 426.821636 -3.168 
L 426.608705 -3.168 
L 426.395773 -3.168 
L 426.182842 -3.168 
L 425.969911 -3.168 
L 425.75698 -3.168 
L 425.544048 -3.168 
L 425.331117 -3.168 
L 425.118186 -3.168 
L 424.905255 -3.168 
L 424.692323 -3.168 
L 424.479392 -3.168 
L 424.266461 -3.168 
L 424.05353 -3.168 
L 423.840599 -3.168 
L 423.627667 -3.168 
L 423.414736 -3.168 
L 423.201805 -3.168 
L 422.988874 -3.168 
L 422.775942 -3.168 
L 422.563011 -3.168 
L 422.35008 -3.168 
L 422.137149 -3.168 
L 421.924217 -3.168 
L 421.711286 -3.168 
L 421.498355 -3.168 
L 421.285424 -3.168 
L 421.072493 -3.168 
L 420.859561 -3.168 
L 420.64663 -3.168 
L 420.433699 -3.168 
L 420.220768 -3.168 
L 420.007836 -3.168 
L 419.794905 -3.168 
L 419.581974 -3.168 
L 419.369043 -3.168 
L 419.156111 -3.168 
L 418.94318 -3.168 
L 418.730249 -3.168 
L 418.517318 -3.168 
L 418.304386 -3.168 
L 418.091455 -3.168001 
L 417.878524 -3.168039 
L 417.665593 -3.169267 
L 417.452662 -3.191564 
L 417.23973 -3.416973 
L 417.026799 -4.662006 
L 416.813868 -8.25954 
L 416.600937 -13.022657 
L 416.388005 -14.000521 
L 416.175074 -9.930593 
z
" style="stroke: #2c3b5b"/>
    </defs>
    <g clip-path="url(#p78005ecd86)">
     <use xlink:href="#m4952b6b413" x="0" y="28.8" style="fill: #2c3b5b; stroke: #2c3b5b"/>
    </g>
   </g>
   <g id="matplotlib.axis_13">
    <g id="xtick_7">
     <g id="line2d_13">
      <g>
       <use xlink:href="#mc72f9016f6" x="438.542999" y="25.632" style="stroke: #000000; stroke-width: 0.8"/>
      </g>
     </g>
     <g id="text_13">
      <!-- $\mathdefault{10^{0}}$ -->
      <g transform="translate(433.262999 33.791063) scale(0.06 -0.06)">
       <use xlink:href="#DejaVuSans-31" transform="translate(0 0.765625)"/>
       <use xlink:href="#DejaVuSans-30" transform="translate(63.623047 0.765625)"/>
       <use xlink:href="#DejaVuSans-30" transform="translate(128.203125 39.046875) scale(0.7)"/>
      </g>
     </g>
    </g>
   </g>
   <g id="matplotlib.axis_14"/>
   <g id="line2d_14">
    <path d="M 413.923404 25.632 
L 461.412766 25.632 
" style="fill: none; stroke: #2c3b5b; stroke-width: 0.1; stroke-linecap: square"/>
   </g>
   <g id="patch_21">
    <path d="M 413.923404 25.632 
L 413.923404 3.456 
" style="fill: none; stroke: #000000; stroke-width: 0.25; stroke-linejoin: miter; stroke-linecap: square"/>
   </g>
   <g id="patch_22">
    <path d="M 413.923404 25.632 
L 461.412766 25.632 
" style="fill: none; stroke: #000000; stroke-width: 0.25; stroke-linejoin: miter; stroke-linecap: square"/>
   </g>
   <g id="text_14">
    <!-- $(7)$ -->
    <g style="fill: #2c3b5b" transform="translate(447.165957 8.713962) scale(0.07 -0.07)">
     <defs>
      <path id="DejaVuSans-37" d="M 525 4666 
L 3525 4666 
L 3525 4397 
L 1831 0 
L 1172 0 
L 2766 4134 
L 525 4134 
L 525 4666 
z
" transform="scale(0.015625)"/>
     </defs>
     <use xlink:href="#DejaVuSans-28" transform="translate(0 0.125)"/>
     <use xlink:href="#DejaVuSans-37" transform="translate(39.013672 0.125)"/>
     <use xlink:href="#DejaVuSans-29" transform="translate(102.636719 0.125)"/>
    </g>
   </g>
  </g>
  <g id="axes_8">
   <g id="patch_23">
    <path d="M 470.910638 25.632 
L 518.4 25.632 
L 518.4 3.456 
L 470.910638 3.456 
z
" style="fill: #ffffff"/>
   </g>
   <g id="PolyCollection_8">
    <defs>
     <path id="m315ea232c1" d="M 473.14583 -11.129838 
L 473.14583 -3.168 
L 473.362391 -3.168 
L 473.578951 -3.168 
L 473.795512 -3.168 
L 474.012072 -3.168 
L 474.228633 -3.168 
L 474.445194 -3.168 
L 474.661754 -3.168 
L 474.878315 -3.168 
L 475.094876 -3.168 
L 475.311436 -3.168 
L 475.527997 -3.168 
L 475.744557 -3.168 
L 475.961118 -3.168 
L 476.177679 -3.168 
L 476.394239 -3.168 
L 476.6108 -3.168 
L 476.82736 -3.168 
L 477.043921 -3.168 
L 477.260482 -3.168 
L 477.477042 -3.168 
L 477.693603 -3.168 
L 477.910164 -3.168 
L 478.126724 -3.168 
L 478.343285 -3.168 
L 478.559845 -3.168 
L 478.776406 -3.168 
L 478.992967 -3.168 
L 479.209527 -3.168 
L 479.426088 -3.168 
L 479.642648 -3.168 
L 479.859209 -3.168 
L 480.07577 -3.168 
L 480.29233 -3.168 
L 480.508891 -3.168 
L 480.725452 -3.168 
L 480.942012 -3.168 
L 481.158573 -3.168 
L 481.375133 -3.168 
L 481.591694 -3.168 
L 481.808255 -3.168 
L 482.024815 -3.168 
L 482.241376 -3.168 
L 482.457936 -3.168 
L 482.674497 -3.168 
L 482.891058 -3.168 
L 483.107618 -3.168 
L 483.324179 -3.168 
L 483.54074 -3.168 
L 483.7573 -3.168 
L 483.973861 -3.168 
L 484.190421 -3.168 
L 484.406982 -3.168 
L 484.623543 -3.168 
L 484.840103 -3.168 
L 485.056664 -3.168 
L 485.273225 -3.168 
L 485.489785 -3.168 
L 485.706346 -3.168 
L 485.922906 -3.168 
L 486.139467 -3.168 
L 486.356028 -3.168 
L 486.572588 -3.168 
L 486.789149 -3.168 
L 487.005709 -3.168 
L 487.22227 -3.168 
L 487.438831 -3.168 
L 487.655391 -3.168 
L 487.871952 -3.168 
L 488.088513 -3.168 
L 488.305073 -3.168 
L 488.521634 -3.168 
L 488.738194 -3.168 
L 488.954755 -3.168 
L 489.171316 -3.168 
L 489.387876 -3.168 
L 489.604437 -3.168 
L 489.820997 -3.168 
L 490.037558 -3.168 
L 490.254119 -3.168 
L 490.470679 -3.168 
L 490.68724 -3.168 
L 490.903801 -3.168 
L 491.120361 -3.168 
L 491.336922 -3.168 
L 491.553482 -3.168 
L 491.770043 -3.168 
L 491.986604 -3.168 
L 492.203164 -3.168 
L 492.419725 -3.168 
L 492.636285 -3.168 
L 492.852846 -3.168 
L 493.069407 -3.168 
L 493.285967 -3.168 
L 493.502528 -3.168 
L 493.719089 -3.168 
L 493.935649 -3.168 
L 494.15221 -3.168 
L 494.36877 -3.168 
L 494.585331 -3.168 
L 494.801892 -3.168 
L 495.018452 -3.168 
L 495.235013 -3.168 
L 495.451573 -3.168 
L 495.668134 -3.168 
L 495.884695 -3.168 
L 496.101255 -3.168 
L 496.317816 -3.168 
L 496.534377 -3.168 
L 496.750937 -3.168 
L 496.967498 -3.168 
L 497.184058 -3.168 
L 497.400619 -3.168 
L 497.61718 -3.168 
L 497.83374 -3.168 
L 498.050301 -3.168 
L 498.266861 -3.168 
L 498.483422 -3.168 
L 498.699983 -3.168 
L 498.916543 -3.168 
L 499.133104 -3.168 
L 499.349665 -3.168 
L 499.566225 -3.168 
L 499.782786 -3.168 
L 499.999346 -3.168 
L 500.215907 -3.168 
L 500.432468 -3.168 
L 500.649028 -3.168 
L 500.865589 -3.168 
L 501.08215 -3.168 
L 501.29871 -3.168 
L 501.515271 -3.168 
L 501.731831 -3.168 
L 501.948392 -3.168 
L 502.164953 -3.168 
L 502.381513 -3.168 
L 502.598074 -3.168 
L 502.814634 -3.168 
L 503.031195 -3.168 
L 503.247756 -3.168 
L 503.464316 -3.168 
L 503.680877 -3.168 
L 503.897438 -3.168 
L 504.113998 -3.168 
L 504.330559 -3.168 
L 504.547119 -3.168 
L 504.76368 -3.168 
L 504.980241 -3.168 
L 505.196801 -3.168 
L 505.413362 -3.168 
L 505.629922 -3.168 
L 505.846483 -3.168 
L 506.063044 -3.168 
L 506.279604 -3.168 
L 506.496165 -3.168 
L 506.712726 -3.168 
L 506.929286 -3.168 
L 507.145847 -3.168 
L 507.362407 -3.168 
L 507.578968 -3.168 
L 507.795529 -3.168 
L 508.012089 -3.168 
L 508.22865 -3.168 
L 508.44521 -3.168 
L 508.661771 -3.168 
L 508.878332 -3.168 
L 509.094892 -3.168 
L 509.311453 -3.168 
L 509.528014 -3.168 
L 509.744574 -3.168 
L 509.961135 -3.168 
L 510.177695 -3.168 
L 510.394256 -3.168 
L 510.610817 -3.168 
L 510.827377 -3.168 
L 511.043938 -3.168 
L 511.260498 -3.168 
L 511.477059 -3.168 
L 511.69362 -3.168 
L 511.91018 -3.168 
L 512.126741 -3.168 
L 512.343302 -3.168 
L 512.559862 -3.168 
L 512.776423 -3.168 
L 512.992983 -3.168 
L 513.209544 -3.168 
L 513.426105 -3.168 
L 513.642665 -3.168 
L 513.859226 -3.168 
L 514.075786 -3.168 
L 514.292347 -3.168 
L 514.508908 -3.168 
L 514.725468 -3.168 
L 514.942029 -3.168 
L 515.15859 -3.168 
L 515.37515 -3.168 
L 515.591711 -3.168 
L 515.808271 -3.168 
L 516.024832 -3.168 
L 516.241393 -3.168 
L 516.241393 -4.471433 
L 516.241393 -4.471433 
L 516.024832 -5.545353 
L 515.808271 -5.87057 
L 515.591711 -5.286041 
L 515.37515 -4.774824 
L 515.15859 -4.670283 
L 514.942029 -4.379066 
L 514.725468 -3.856076 
L 514.508908 -3.770315 
L 514.292347 -4.822539 
L 514.075786 -7.114399 
L 513.859226 -9.175965 
L 513.642665 -9.211874 
L 513.426105 -7.667597 
L 513.209544 -6.036592 
L 512.992983 -4.8165 
L 512.776423 -4.149195 
L 512.559862 -4.175258 
L 512.343302 -4.43024 
L 512.126741 -4.257881 
L 511.91018 -3.737849 
L 511.69362 -3.356529 
L 511.477059 -3.308694 
L 511.260498 -3.784404 
L 511.043938 -5.354037 
L 510.827377 -8.137325 
L 510.610817 -10.439598 
L 510.394256 -10.04436 
L 510.177695 -7.358823 
L 509.961135 -4.80598 
L 509.744574 -3.621569 
L 509.528014 -3.483948 
L 509.311453 -3.908844 
L 509.094892 -4.445441 
L 508.878332 -4.599453 
L 508.661771 -4.583473 
L 508.44521 -5.064028 
L 508.22865 -5.789558 
L 508.012089 -6.062591 
L 507.795529 -6.351795 
L 507.578968 -7.197472 
L 507.362407 -7.617443 
L 507.145847 -7.179474 
L 506.929286 -7.089468 
L 506.712726 -7.640568 
L 506.496165 -7.569778 
L 506.279604 -6.282481 
L 506.063044 -4.826987 
L 505.846483 -4.356832 
L 505.629922 -4.814979 
L 505.413362 -5.399578 
L 505.196801 -5.626759 
L 504.980241 -5.557388 
L 504.76368 -5.351614 
L 504.547119 -5.196215 
L 504.330559 -5.540781 
L 504.113998 -6.481429 
L 503.897438 -7.173606 
L 503.680877 -6.842954 
L 503.464316 -5.715542 
L 503.247756 -4.487693 
L 503.031195 -3.649295 
L 502.814634 -3.282941 
L 502.598074 -3.185089 
L 502.381513 -3.169541 
L 502.164953 -3.168102 
L 501.948392 -3.168454 
L 501.731831 -3.17425 
L 501.515271 -3.219367 
L 501.29871 -3.418454 
L 501.08215 -3.892455 
L 500.865589 -4.411181 
L 500.649028 -4.433598 
L 500.432468 -3.932384 
L 500.215907 -3.442493 
L 499.999346 -3.23446 
L 499.782786 -3.239439 
L 499.566225 -3.464073 
L 499.349665 -3.976334 
L 499.133104 -4.479604 
L 498.916543 -4.430604 
L 498.699983 -3.889184 
L 498.483422 -3.414799 
L 498.266861 -3.245697 
L 498.050301 -3.367516 
L 497.83374 -3.947224 
L 497.61718 -5.027838 
L 497.400619 -5.805322 
L 497.184058 -5.388788 
L 496.967498 -4.278457 
L 496.750937 -3.49772 
L 496.534377 -3.226135 
L 496.317816 -3.174086 
L 496.101255 -3.168378 
L 495.884695 -3.168014 
L 495.668134 -3.168 
L 495.451573 -3.168 
L 495.235013 -3.168 
L 495.018452 -3.168 
L 494.801892 -3.168 
L 494.585331 -3.168 
L 494.36877 -3.168 
L 494.15221 -3.168 
L 493.935649 -3.168 
L 493.719089 -3.168 
L 493.502528 -3.168 
L 493.285967 -3.168 
L 493.069407 -3.168 
L 492.852846 -3.168 
L 492.636285 -3.168 
L 492.419725 -3.168 
L 492.203164 -3.168 
L 491.986604 -3.168 
L 491.770043 -3.168 
L 491.553482 -3.168 
L 491.336922 -3.168 
L 491.120361 -3.168 
L 490.903801 -3.168 
L 490.68724 -3.168 
L 490.470679 -3.168 
L 490.254119 -3.168 
L 490.037558 -3.168 
L 489.820997 -3.168 
L 489.604437 -3.168 
L 489.387876 -3.168 
L 489.171316 -3.168 
L 488.954755 -3.168 
L 488.738194 -3.168 
L 488.521634 -3.168 
L 488.305073 -3.168 
L 488.088513 -3.168 
L 487.871952 -3.168 
L 487.655391 -3.168 
L 487.438831 -3.168 
L 487.22227 -3.168 
L 487.005709 -3.168 
L 486.789149 -3.168 
L 486.572588 -3.168009 
L 486.356028 -3.168241 
L 486.139467 -3.171746 
L 485.922906 -3.202587 
L 485.706346 -3.357477 
L 485.489785 -3.783795 
L 485.273225 -4.355287 
L 485.056664 -4.526044 
L 484.840103 -4.089532 
L 484.623543 -3.538976 
L 484.406982 -3.256597 
L 484.190421 -3.180553 
L 483.973861 -3.169055 
L 483.7573 -3.168053 
L 483.54074 -3.168002 
L 483.324179 -3.168 
L 483.107618 -3.168 
L 482.891058 -3.168 
L 482.674497 -3.168 
L 482.457936 -3.168 
L 482.241376 -3.168 
L 482.024815 -3.168 
L 481.808255 -3.168 
L 481.591694 -3.168 
L 481.375133 -3.168 
L 481.158573 -3.168 
L 480.942012 -3.168 
L 480.725452 -3.168 
L 480.508891 -3.168 
L 480.29233 -3.168 
L 480.07577 -3.168 
L 479.859209 -3.168 
L 479.642648 -3.168 
L 479.426088 -3.168 
L 479.209527 -3.168 
L 478.992967 -3.168 
L 478.776406 -3.168 
L 478.559845 -3.168 
L 478.343285 -3.168 
L 478.126724 -3.168 
L 477.910164 -3.168 
L 477.693603 -3.168 
L 477.477042 -3.168 
L 477.260482 -3.168 
L 477.043921 -3.168 
L 476.82736 -3.168 
L 476.6108 -3.168 
L 476.394239 -3.168 
L 476.177679 -3.168 
L 475.961118 -3.168 
L 475.744557 -3.168 
L 475.527997 -3.168 
L 475.311436 -3.168 
L 475.094876 -3.168004 
L 474.878315 -3.168145 
L 474.661754 -3.171518 
L 474.445194 -3.21879 
L 474.228633 -3.603063 
L 474.012072 -5.37889 
L 473.795512 -9.833316 
L 473.578951 -15.089007 
L 473.362391 -15.81664 
L 473.14583 -11.129838 
z
" style="stroke: #1f253f"/>
    </defs>
    <g clip-path="url(#p40d4b0e108)">
     <use xlink:href="#m315ea232c1" x="0" y="28.8" style="fill: #1f253f; stroke: #1f253f"/>
    </g>
   </g>
   <g id="matplotlib.axis_15">
    <g id="xtick_8">
     <g id="line2d_15">
      <g>
       <use xlink:href="#mc72f9016f6" x="495.530233" y="25.632" style="stroke: #000000; stroke-width: 0.8"/>
      </g>
     </g>
     <g id="text_15">
      <!-- $\mathdefault{10^{0}}$ -->
      <g transform="translate(490.250233 33.791063) scale(0.06 -0.06)">
       <use xlink:href="#DejaVuSans-31" transform="translate(0 0.765625)"/>
       <use xlink:href="#DejaVuSans-30" transform="translate(63.623047 0.765625)"/>
       <use xlink:href="#DejaVuSans-30" transform="translate(128.203125 39.046875) scale(0.7)"/>
      </g>
     </g>
    </g>
   </g>
   <g id="matplotlib.axis_16"/>
   <g id="line2d_16">
    <path d="M 470.910638 25.632 
L 518.4 25.632 
" style="fill: none; stroke: #1f253f; stroke-width: 0.1; stroke-linecap: square"/>
   </g>
   <g id="patch_24">
    <path d="M 470.910638 25.632 
L 470.910638 3.456 
" style="fill: none; stroke: #000000; stroke-width: 0.25; stroke-linejoin: miter; stroke-linecap: square"/>
   </g>
   <g id="patch_25">
    <path d="M 470.910638 25.632 
L 518.4 25.632 
" style="fill: none; stroke: #000000; stroke-width: 0.25; stroke-linejoin: miter; stroke-linecap: square"/>
   </g>
   <g id="text_16">
    <!-- $(8)$ -->
    <g style="fill: #1f253f" transform="translate(504.153191 8.713962) scale(0.07 -0.07)">
     <defs>
      <path id="DejaVuSans-38" d="M 2034 2216 
Q 1584 2216 1326 1975 
Q 1069 1734 1069 1313 
Q 1069 891 1326 650 
Q 1584 409 2034 409 
Q 2484 409 2743 651 
Q 3003 894 3003 1313 
Q 3003 1734 2745 1975 
Q 2488 2216 2034 2216 
z
M 1403 2484 
Q 997 2584 770 2862 
Q 544 3141 544 3541 
Q 544 4100 942 4425 
Q 1341 4750 2034 4750 
Q 2731 4750 3128 4425 
Q 3525 4100 3525 3541 
Q 3525 3141 3298 2862 
Q 3072 2584 2669 2484 
Q 3125 2378 3379 2068 
Q 3634 1759 3634 1313 
Q 3634 634 3220 271 
Q 2806 -91 2034 -91 
Q 1263 -91 848 271 
Q 434 634 434 1313 
Q 434 1759 690 2068 
Q 947 2378 1403 2484 
z
M 1172 3481 
Q 1172 3119 1398 2916 
Q 1625 2713 2034 2713 
Q 2441 2713 2670 2916 
Q 2900 3119 2900 3481 
Q 2900 3844 2670 4047 
Q 2441 4250 2034 4250 
Q 1625 4250 1398 4047 
Q 1172 3844 1172 3481 
z
" transform="scale(0.015625)"/>
     </defs>
     <use xlink:href="#DejaVuSans-28" transform="translate(0 0.125)"/>
     <use xlink:href="#DejaVuSans-38" transform="translate(39.013672 0.125)"/>
     <use xlink:href="#DejaVuSans-29" transform="translate(102.636719 0.125)"/>
    </g>
   </g>
  </g>
 </g>
 <defs>
  <clipPath id="p9f291952d2">
   <rect x="72" y="3.456" width="47.489362" height="22.176"/>
  </clipPath>
  <clipPath id="p9536369157">
   <rect x="128.987234" y="3.456" width="47.489362" height="22.176"/>
  </clipPath>
  <clipPath id="p896ad9da4d">
   <rect x="185.974468" y="3.456" width="47.489362" height="22.176"/>
  </clipPath>
  <clipPath id="pfdfd8b8a1c">
   <rect x="242.961702" y="3.456" width="47.489362" height="22.176"/>
  </clipPath>
  <clipPath id="p8b537c9468">
   <rect x="299.948936" y="3.456" width="47.489362" height="22.176"/>
  </clipPath>
  <clipPath id="pdd5f23b7ac">
   <rect x="356.93617" y="3.456" width="47.489362" height="22.176"/>
  </clipPath>
  <clipPath id="p78005ecd86">
   <rect x="413.923404" y="3.456" width="47.489362" height="22.176"/>
  </clipPath>
  <clipPath id="p40d4b0e108">
   <rect x="470.910638" y="3.456" width="47.489362" height="22.176"/>
  </clipPath>
 </defs>
</svg>
